<?xml version="1.0" encoding="UTF-8" standalone="no"?>
<!-- Created with Inkscape (http://www.inkscape.org/) -->

<svg
   width="105"
   height="105"
   viewBox="0 0 27.78125 27.78125"
   version="1.1"
   id="svg1"
   inkscape:version="1.3.2 (091e20e, 2023-11-25, custom)"
   sodipodi:docname="caporal_rnk.svg"
   xmlns:inkscape="http://www.inkscape.org/namespaces/inkscape"
   xmlns:sodipodi="http://sodipodi.sourceforge.net/DTD/sodipodi-0.dtd"
   xmlns="http://www.w3.org/2000/svg"
   xmlns:svg="http://www.w3.org/2000/svg">
  <sodipodi:namedview
     id="namedview1"
     pagecolor="#ffffff"
     bordercolor="#000000"
     borderopacity="0.25"
     inkscape:showpageshadow="2"
     inkscape:pageopacity="0.0"
     inkscape:pagecheckerboard="0"
     inkscape:deskcolor="#d1d1d1"
     inkscape:document-units="mm"
     inkscape:zoom="2.768771"
     inkscape:cx="39.006476"
     inkscape:cy="8.4875202"
     inkscape:window-width="1920"
     inkscape:window-height="991"
     inkscape:window-x="-9"
     inkscape:window-y="-9"
     inkscape:window-maximized="1"
     inkscape:current-layer="layer1">
    <sodipodi:guide
       position="0,27.78125"
       orientation="0,105"
       id="guide1"
       inkscape:locked="false" />
    <sodipodi:guide
       position="27.78125,27.78125"
       orientation="105,0"
       id="guide2"
       inkscape:locked="false" />
    <sodipodi:guide
       position="27.78125,0"
       orientation="0,-105"
       id="guide3"
       inkscape:locked="false" />
    <sodipodi:guide
       position="0,0"
       orientation="-105,0"
       id="guide4"
       inkscape:locked="false" />
  </sodipodi:namedview>
  <defs
     id="defs1" />
  <g
     inkscape:label="Layer 1"
     inkscape:groupmode="layer"
     id="layer1">
    <g
       id="g17"
       transform="matrix(0.55851064,0,0,0.48574415,-169.06831,-147.6052)">
      <path
         style="fill:#f1c261"
         d="m 302.71667,349.18428 0.003,-11.84011 2.04486,-1.5875 2.04486,-1.5875 3.45283,-3.43958 3.45283,-3.43958 1.79851,-2.24896 c 0.98919,-1.23693 2.8713,-3.8563 4.18249,-5.82084 l 2.38396,-3.57187 2.05927,-4.14637 c 1.13259,-2.28051 2.34017,-4.92965 2.68351,-5.88698 0.34333,-0.95734 0.68591,-1.74061 0.76127,-1.74061 0.0754,0 0.41794,0.78327 0.76127,1.74061 0.34334,0.95733 1.55092,3.60647 2.68351,5.88698 l 2.05927,4.14637 2.38396,3.57187 c 1.31119,1.96454 3.1933,4.58391 4.18249,5.82084 l 1.79851,2.24896 3.45283,3.43958 3.45283,3.43958 2.04486,1.5875 2.04486,1.5875 0.003,11.84011 0.003,11.8401 h -0.26972 c -0.4553,0 -6.30242,-3.60513 -9.56727,-5.89884 -4.15759,-2.9209 -8.17507,-6.29498 -11.92499,-10.0152 l -3.10885,-3.08424 -3.10885,3.08424 c -3.74992,3.72022 -7.7674,7.0943 -11.92499,10.0152 -3.26485,2.29371 -9.11197,5.89884 -9.56727,5.89884 h -0.26972 z"
         id="path23" />
      <path
         style="fill:#a2b1ab"
         d="m 302.71667,349.18428 0.003,-11.84011 2.04486,-1.5875 2.04486,-1.5875 3.45283,-3.43958 3.45283,-3.43958 1.79851,-2.24896 c 0.98919,-1.23693 2.8713,-3.8563 4.18249,-5.82084 l 2.38396,-3.57187 2.05927,-4.14637 c 1.13259,-2.28051 2.34017,-4.92965 2.68351,-5.88698 0.34333,-0.95734 0.68591,-1.74061 0.76127,-1.74061 0.0754,0 0.41794,0.78327 0.76127,1.74061 0.34334,0.95733 1.55092,3.60647 2.68351,5.88698 l 2.05927,4.14637 2.38396,3.57187 c 1.31119,1.96454 3.1933,4.58391 4.18249,5.82084 l 1.79851,2.24896 3.45283,3.43958 3.45283,3.43958 2.04486,1.5875 2.04486,1.5875 0.003,11.84011 0.003,11.8401 h -0.26972 c -0.4553,0 -6.30242,-3.60513 -9.56727,-5.89884 -4.15759,-2.9209 -8.17507,-6.29498 -11.92499,-10.0152 l -3.10885,-3.08424 -3.10885,3.08424 c -3.74992,3.72022 -7.7674,7.0943 -11.92499,10.0152 -3.26485,2.29371 -9.11197,5.89884 -9.56727,5.89884 h -0.26972 z m 7.27282,3.15783 c 1.16416,-0.79765 3.54541,-2.58996 5.29166,-3.98289 l 3.175,-2.53261 3.59407,-3.57976 c 1.97674,-1.96887 4.03057,-4.08612 4.56406,-4.705 l 0.97,-1.12524 0.96801,1.12524 c 0.5324,0.61888 2.64889,2.79211 4.7033,4.82941 l 3.7353,3.70416 2.90347,2.3314 c 1.5969,1.28226 4.33221,3.28725 6.07846,4.45552 l 3.175,2.12414 0.0806,-2.86803 0.0806,-2.86803 -0.72467,-0.52916 c -4.18293,-3.05442 -6.88808,-5.1979 -9.45208,-7.48956 l -3.05114,-2.72705 -2.72315,-3.05268 c -1.49773,-1.67897 -3.37975,-3.9284 -4.18227,-4.99873 -0.80251,-1.07033 -1.51864,-1.94605 -1.5914,-1.94605 -0.0728,0 -0.78889,0.87572 -1.5914,1.94605 -0.80252,1.07033 -2.68454,3.31976 -4.18227,4.99873 l -2.72315,3.05268 -3.03914,2.71108 c -3.15634,2.81561 -6.03024,5.10604 -8.63852,6.88468 l -1.52135,1.03744 v 2.92214 2.92213 l 0.99218,-0.59486 c 0.54571,-0.32717 1.94469,-1.24749 3.10886,-2.04515 z m 2.80139,-12.1248 c 4.72494,-4.08327 9.87909,-9.81655 13.35956,-14.86066 0.71585,-1.03746 1.36108,-1.88425 1.43384,-1.88176 0.0728,0.002 1.02526,1.26747 2.11667,2.81106 4.58021,6.47784 10.63736,12.66444 17.39635,17.76814 l 2.18281,1.64824 v -3.25859 -3.25858 l -2.63851,-2.20549 c -6.82166,-5.70209 -14.10018,-14.65976 -17.80306,-21.91019 -0.61708,-1.20828 -1.1815,-2.19687 -1.25426,-2.19687 -0.0728,0 -0.63718,0.98859 -1.25426,2.19687 -3.69654,7.23801 -10.70642,15.88183 -17.64891,21.7627 l -2.79085,2.36408 -9.1e-4,3.25303 -9e-4,3.25304 2.18281,-1.64636 c 1.20055,-0.90549 3.32438,-2.63289 4.71962,-3.83866 z"
         id="path22" />
      <path
         style="fill:#d4b15c"
         d="m 302.97803,349.19783 v -11.86971 l 2.41022,-1.97635 2.41022,-1.97635 3.48558,-3.58217 3.48557,-3.58218 2.31413,-3.08099 c 1.27277,-1.69454 3.10476,-4.36882 4.07108,-5.94282 1.85493,-3.02142 4.99188,-9.32126 5.80561,-11.65923 0.2659,-0.76399 0.54663,-1.38907 0.62384,-1.38907 0.0772,0 0.35794,0.62508 0.62384,1.38907 0.81373,2.33797 3.95068,8.63781 5.80561,11.65923 0.96632,1.574 2.80124,4.25218 4.0776,5.95151 l 2.32066,3.08968 3.61944,3.71453 3.61944,3.71453 2.26983,1.82549 2.26983,1.8255 v 11.87952 11.87952 l -0.8599,-0.51133 c -0.47294,-0.28124 -1.6338,-0.96667 -2.57968,-1.5232 -3.00124,-1.76581 -7.70752,-5.03792 -10.71454,-7.44943 l -2.90933,-2.33316 -3.7714,-3.67307 -3.7714,-3.67308 -3.7714,3.67308 -3.7714,3.67307 -2.90933,2.33316 c -3.00702,2.41151 -7.7133,5.68362 -10.71454,7.44943 -0.94588,0.55653 -2.10674,1.24196 -2.57968,1.5232 l -0.8599,0.51133 z m 7.01146,3.14428 c 1.16416,-0.79765 3.54541,-2.58996 5.29166,-3.98289 l 3.175,-2.53261 3.59407,-3.57976 c 1.97674,-1.96887 4.03057,-4.08612 4.56406,-4.705 l 0.97,-1.12524 0.96801,1.12524 c 0.5324,0.61888 2.64889,2.79211 4.7033,4.82941 l 3.7353,3.70416 2.90347,2.3314 c 1.5969,1.28226 4.33221,3.28725 6.07846,4.45552 l 3.175,2.12414 0.0806,-2.86803 0.0806,-2.86803 -0.72467,-0.52916 c -4.18293,-3.05442 -6.88808,-5.1979 -9.45208,-7.48956 l -3.05114,-2.72705 -2.72315,-3.05268 c -1.49773,-1.67897 -3.37975,-3.9284 -4.18227,-4.99873 -0.80251,-1.07033 -1.51864,-1.94605 -1.5914,-1.94605 -0.0728,0 -0.78889,0.87572 -1.5914,1.94605 -0.80252,1.07033 -2.68454,3.31976 -4.18227,4.99873 l -2.72315,3.05268 -3.03914,2.71108 c -3.15634,2.81561 -6.03024,5.10604 -8.63852,6.88468 l -1.52135,1.03744 v 2.92214 2.92213 l 0.99218,-0.59486 c 0.54571,-0.32717 1.94469,-1.24749 3.10886,-2.04515 z m 2.80139,-12.1248 c 4.72494,-4.08327 9.87909,-9.81655 13.35956,-14.86066 0.71585,-1.03746 1.36108,-1.88425 1.43384,-1.88176 0.0728,0.002 1.02526,1.26747 2.11667,2.81106 4.58021,6.47784 10.63736,12.66444 17.39635,17.76814 l 2.18281,1.64824 v -3.25859 -3.25858 l -2.63851,-2.20549 c -6.82166,-5.70209 -14.10018,-14.65976 -17.80306,-21.91019 -0.61708,-1.20828 -1.1815,-2.19687 -1.25426,-2.19687 -0.0728,0 -0.63718,0.98859 -1.25426,2.19687 -3.69654,7.23801 -10.70642,15.88183 -17.64891,21.7627 l -2.79085,2.36408 -9.1e-4,3.25303 -9e-4,3.25304 2.18281,-1.64636 c 1.20055,-0.90549 3.32438,-2.63289 4.71962,-3.83866 z"
         id="path21" />
      <path
         style="fill:#a19353"
         d="m 302.97803,349.19783 v -11.86971 l 2.41022,-1.97635 2.41022,-1.97635 3.48558,-3.58217 3.48557,-3.58218 2.31413,-3.08099 c 1.27277,-1.69454 3.10476,-4.36882 4.07108,-5.94282 1.85493,-3.02142 4.99188,-9.32126 5.80561,-11.65923 0.2659,-0.76399 0.54663,-1.38907 0.62384,-1.38907 0.0772,0 0.35794,0.62508 0.62384,1.38907 0.81373,2.33797 3.95068,8.63781 5.80561,11.65923 0.96632,1.574 2.80124,4.25218 4.0776,5.95151 l 2.32066,3.08968 3.61944,3.71453 3.61944,3.71453 2.26983,1.82549 2.26983,1.8255 v 11.87952 11.87952 l -0.8599,-0.51133 c -0.47294,-0.28124 -1.6338,-0.96667 -2.57968,-1.5232 -3.00124,-1.76581 -7.70752,-5.03792 -10.71454,-7.44943 l -2.90933,-2.33316 -3.7714,-3.67307 -3.7714,-3.67308 -3.7714,3.67308 -3.7714,3.67307 -2.90933,2.33316 c -3.00702,2.41151 -7.7133,5.68362 -10.71454,7.44943 -0.94588,0.55653 -2.10674,1.24196 -2.57968,1.5232 l -0.8599,0.51133 z m 6.2431,3.70795 c 1.61469,-1.0717 4.23407,-2.97739 5.82083,-4.23486 l 2.88503,-2.28631 4.82864,-4.83001 4.82865,-4.83 4.82865,4.83774 4.82864,4.83774 2.69089,2.12514 c 2.66484,2.10457 6.70522,4.97578 8.62005,6.12566 l 0.99219,0.59583 -0.0144,-2.99815 -0.0144,-2.99814 -2.82983,-2.02222 c -4.07799,-2.91418 -7.39125,-5.775 -11.18229,-9.65533 l -3.32538,-3.4037 -2.20659,-2.77812 c -1.21362,-1.52797 -2.28797,-2.77813 -2.38744,-2.77813 -0.0995,0 -1.17342,1.2459 -2.38656,2.76866 l -2.2057,2.76866 -3.32627,3.41642 c -3.76758,3.8697 -7.06627,6.71956 -11.18317,9.66154 l -2.82983,2.02222 -0.0144,2.99218 -0.0145,2.99218 0.33073,-0.19023 c 0.1819,-0.10462 1.65184,-1.06707 3.26654,-2.13877 z m -1.21472,-8.71474 c 3.48253,-2.61224 6.17009,-5.01573 9.97538,-8.92098 l 3.7096,-3.80705 2.84499,-3.80629 c 1.56474,-2.09347 2.9363,-3.8063 3.0479,-3.8063 0.1116,0 1.48316,1.71283 3.0479,3.8063 l 2.84499,3.80629 3.7096,3.80705 c 2.04028,2.09388 4.67321,4.623 5.85095,5.62027 2.49652,2.11395 6.01918,4.78822 6.30725,4.78822 h 0.19973 v -3.15154 -3.15153 l -2.57969,-2.1792 c -3.35719,-2.836 -7.74337,-7.31693 -10.44645,-10.6721 -2.47957,-3.07776 -6.20299,-8.6645 -7.74365,-11.61883 -0.58209,-1.11619 -1.11787,-2.02954 -1.19063,-2.02968 -0.0728,-1.3e-4 -0.70665,1.07342 -1.40865,2.38566 -4.14038,7.73966 -10.74518,15.79771 -17.97208,21.92645 l -2.57969,2.1877 v 3.15153 3.15154 h 0.19973 c 0.10985,0 1.09212,-0.66938 2.18282,-1.48751 z"
         id="path20" />
      <path
         style="fill:#596c4f"
         d="M 302.97803,349.17759 V 337.3085 l 2.26983,-1.8255 2.26983,-1.82549 3.61944,-3.71453 3.61944,-3.71453 2.32066,-3.08968 c 1.27636,-1.69933 3.11128,-4.37751 4.0776,-5.95151 1.85493,-3.02142 4.99188,-9.32126 5.80561,-11.65923 0.2659,-0.76399 0.54588,-1.38907 0.62216,-1.38907 0.0763,0 0.41816,0.77921 0.75971,1.73157 0.88176,2.45862 4.2239,9.08501 5.99921,11.89448 0.82759,1.30968 2.53013,3.75046 3.78342,5.42395 l 2.2787,3.04271 3.57834,3.66685 3.57834,3.66684 2.31511,1.87547 2.3151,1.87546 v 11.8652 11.8652 l -1.25677,-0.72433 c -7.84943,-4.52393 -13.48289,-8.78486 -19.84375,-15.00903 l -3.50573,-3.43039 -3.50573,3.43039 c -6.36086,6.22417 -11.99432,10.4851 -19.84375,15.00903 l -1.25677,0.72433 z m 5.16986,4.55628 c 6.54688,-4.31146 13.12727,-9.97557 17.94073,-15.4426 l 1.49566,-1.69873 1.49566,1.69873 c 3.66285,4.16019 8.99259,9.00764 13.85017,12.59686 2.42273,1.79013 6.2176,4.31542 6.485,4.31542 0.0713,0 0.12959,-1.33964 0.12959,-2.97697 v -2.97697 l -2.97657,-2.14899 c -6.11209,-4.41274 -11.95916,-9.9822 -16.5472,-15.76159 -1.24805,-1.57212 -2.34621,-2.8584 -2.44035,-2.8584 -0.0942,0 -1.22805,1.33945 -2.51978,2.97656 l -2.34861,2.97657 -3.84781,3.84237 -3.84781,3.84238 -2.77812,2.20857 c -1.52797,1.21472 -3.64133,2.81149 -4.69636,3.54838 l -1.91823,1.33981 v 2.99414 c 0,1.64677 0.0658,2.99414 0.14617,2.99414 0.0804,0 1.15043,-0.66136 2.37786,-1.46968 z m 1.89777,-11.02708 c 6.09624,-4.84371 13.00271,-12.2464 16.47748,-17.66137 0.46845,-0.73001 0.92861,-1.32648 1.02258,-1.32548 0.094,9.9e-4 0.46851,0.44658 0.83231,0.99019 4.83737,7.22821 13.16369,15.75223 19.94299,20.41651 l 1.22368,0.84191 v -3.41326 -3.41327 l -1.65365,-1.28587 c -0.9095,-0.70723 -3.18581,-2.77862 -5.05845,-4.60309 l -3.4048,-3.31722 -2.25914,-2.73686 -2.25914,-2.73686 -2.42277,-3.62914 c -1.33252,-1.99602 -2.95093,-4.66319 -3.59647,-5.92704 -0.64554,-1.26386 -1.23324,-2.29792 -1.306,-2.29792 -0.0728,0 -0.63718,0.9886 -1.25426,2.19688 -1.39834,2.73801 -4.66103,7.72231 -7.22012,11.0299 l -1.94473,2.51354 -3.45555,3.53178 -3.45555,3.53179 -2.3151,1.87823 -2.31511,1.87824 v 3.40008 3.40009 l 1.18066,-0.81231 c 0.64936,-0.44677 2.10787,-1.54902 3.24114,-2.44945 z"
         id="path19" />
      <path
         style="fill:#355643"
         d="m 302.97803,349.0281 v -11.73171 l 0.9141,-0.65039 c 0.50276,-0.35771 2.13012,-1.71618 3.61636,-3.01882 l 2.70225,-2.36842 2.51573,-2.77813 c 5.92184,-6.53951 11.30624,-15.10665 14.093,-22.42344 0.3464,-0.9095 0.69057,-1.65364 0.76481,-1.65364 0.0742,0 0.41816,0.74414 0.76426,1.65364 2.8015,7.36198 8.12594,15.8334 14.09355,22.42344 l 2.51573,2.77813 2.70225,2.36842 c 1.48624,1.30264 3.1136,2.66111 3.61636,3.01882 l 0.9141,0.65039 v 11.73171 11.7317 h -0.17244 c -0.36122,0 -4.58725,-2.547 -7.63277,-4.60022 -1.74625,-1.17728 -4.64276,-3.31749 -6.43668,-4.756 l -3.26168,-2.61549 -3.55134,-3.47417 -3.55134,-3.47416 -3.51721,3.44075 -3.5172,3.44075 -3.16353,2.5457 c -1.73993,1.40013 -4.3052,3.33082 -5.7006,4.29041 -2.73306,1.8795 -8.1628,5.20243 -8.50087,5.20243 h -0.20684 z m 5.70044,4.41566 c 5.82143,-3.88942 10.68456,-7.98186 15.5825,-13.11302 l 3.32331,-3.48157 3.32331,3.48157 c 3.44167,3.60555 7.17653,6.96535 10.8319,9.74415 2.45139,1.86354 7.28661,5.12866 7.59487,5.12866 h 0.21034 v -3.02449 -3.02448 l -2.15477,-1.51851 c -1.18513,-0.83518 -3.4706,-2.59307 -5.07883,-3.90643 l -2.92406,-2.38792 -3.07151,-3.07151 -3.07151,-3.07151 -2.36685,-2.90384 c -1.30177,-1.59711 -2.57521,-3.19797 -2.82987,-3.55747 l -0.46302,-0.65363 -0.45521,0.63456 c -4.60902,6.42501 -12.3205,13.96362 -19.35442,18.92056 l -2.15079,1.5157 v 3.02448 3.02449 h 0.21034 c 0.11568,0 1.3956,-0.79191 2.84427,-1.75979 z m 1.17567,-10.51685 2.77507,-2.14315 4.1328,-4.10105 4.13279,-4.10104 2.19617,-2.77812 c 1.20788,-1.52797 2.68325,-3.51979 3.27859,-4.42627 0.59533,-0.90648 1.14196,-1.64814 1.21472,-1.64814 0.0728,0 0.61939,0.74166 1.21472,1.64814 0.59534,0.90648 2.07071,2.8983 3.27859,4.42627 l 2.19617,2.77812 4.13279,4.10104 4.1328,4.10105 2.77507,2.14315 c 1.52629,1.17874 3.10249,2.35329 3.50267,2.61012 l 0.72761,0.46696 v -3.42814 -3.42815 l -2.80457,-2.3486 -2.80456,-2.34861 -2.73077,-2.84978 c -1.50193,-1.56738 -3.52341,-3.83333 -4.49217,-5.03545 -2.34808,-2.91366 -6.07178,-8.48828 -7.68814,-11.50963 -0.71936,-1.34463 -1.36745,-2.44479 -1.44021,-2.44479 -0.0728,0 -0.72085,1.10016 -1.44021,2.44479 -1.61636,3.02135 -5.34006,8.59597 -7.68814,11.50963 -0.96876,1.20212 -2.99024,3.46807 -4.49217,5.03545 l -2.73077,2.84978 -2.80456,2.34861 -2.80457,2.3486 v 3.42815 3.42814 l 0.72761,-0.46696 c 0.40018,-0.25683 1.97638,-1.43138 3.50267,-2.61012 z"
         id="path18" />
      <path
         style="fill:#284d3d"
         d="m 302.99324,349.05198 0.0152,-11.70781 1.74845,-1.32291 1.74846,-1.32292 3.73996,-3.70417 3.73997,-3.70416 1.79579,-2.24896 c 0.98768,-1.23693 2.85481,-3.83823 4.14917,-5.78067 l 2.35338,-3.53172 1.94777,-3.89465 c 1.07127,-2.14205 2.23308,-4.69021 2.58181,-5.66255 0.34872,-0.97235 0.6957,-1.76791 0.77106,-1.76791 0.0754,0 0.42234,0.79556 0.77106,1.76791 0.34873,0.97234 1.51054,3.5205 2.58181,5.66255 l 1.94777,3.89465 2.35338,3.53172 c 1.29436,1.94244 3.16215,4.54374 4.15066,5.78067 l 1.79728,2.24896 3.73146,3.70416 3.73147,3.70417 1.75547,1.32292 1.75546,1.32291 0.0152,11.70781 0.0152,11.70782 h -0.15227 c -0.28402,0 -3.93619,-2.19317 -6.70876,-4.02868 -5.70093,-3.77417 -10.21429,-7.46723 -15.02718,-12.29601 l -2.70593,-2.71486 -3.02198,3.00522 c -3.37915,3.36039 -7.82953,7.15543 -11.40992,9.72975 -3.22802,2.32097 -9.56882,6.30458 -10.03514,6.30458 h -0.15132 z m 5.67333,4.47161 c 5.7407,-3.82194 9.94276,-7.35086 15.16275,-12.73379 l 3.75496,-3.87217 3.75496,3.87217 c 5.21999,5.38293 9.42205,8.91185 15.16275,12.73379 1.30969,0.87194 2.53008,1.67319 2.71198,1.78056 l 0.33073,0.19521 -0.008,-3.25676 -0.008,-3.25676 -1.76643,-1.19063 c -0.97153,-0.65484 -2.96205,-2.13449 -4.42339,-3.28811 l -2.65696,-2.09749 -4.36919,-4.3848 -4.36919,-4.3848 -1.71623,-2.22076 c -0.94393,-1.22141 -1.92459,-2.47157 -2.17925,-2.77812 l -0.46302,-0.55737 -0.46302,0.55737 c -0.25466,0.30655 -1.23532,1.55671 -2.17925,2.77812 l -1.71623,2.22076 -4.36919,4.3838 -4.36919,4.38381 -2.24895,1.77803 c -1.23693,0.97792 -3.22509,2.45802 -4.41813,3.28911 l -2.16916,1.51108 -0.0136,3.25676 -0.0137,3.25676 0.33073,-0.19521 c 0.1819,-0.10737 1.40229,-0.90862 2.71198,-1.78056 z m -0.68501,-9.08321 c 3.37173,-2.52342 6.34867,-5.16271 9.83914,-8.72316 l 3.3333,-3.40013 2.19478,-2.77325 c 1.20713,-1.52528 2.61127,-3.40052 3.12031,-4.16718 0.50904,-0.76667 1.00021,-1.39395 1.0915,-1.39395 0.0913,0 0.9015,1.0418 1.80049,2.31511 0.89899,1.27331 2.63506,3.50573 3.85794,4.96094 l 2.22342,2.64583 3.8125,3.70417 3.8125,3.70416 3.05599,2.31511 c 1.6808,1.2733 3.13818,2.3151 3.23863,2.3151 h 0.18264 l -0.0152,-3.50573 -0.0152,-3.50573 -1.73586,-1.32291 c -0.95472,-0.72761 -3.30341,-2.87073 -5.21931,-4.7625 l -3.48346,-3.43959 -2.32506,-2.91041 c -2.93377,-3.67238 -6.00393,-8.28668 -7.71109,-11.58939 -0.72761,-1.40763 -1.38245,-2.55934 -1.45521,-2.55934 -0.0728,0 -0.7276,1.15171 -1.45521,2.55934 -1.70716,3.30271 -4.77732,7.91701 -7.71109,11.58939 l -2.32506,2.91041 -3.48346,3.43959 c -1.9159,1.89177 -4.26459,4.03489 -5.21931,4.7625 l -1.73586,1.32291 -0.0152,3.50573 -0.0152,3.50573 h 0.17489 c 0.0962,0 1.07845,-0.67624 2.18281,-1.50275 z"
         id="path17" />
    </g>
  </g>
</svg>
