<?xml version="1.0" encoding="UTF-8" standalone="no"?>
<!-- Created with Inkscape (http://www.inkscape.org/) -->

<svg
   width="105"
   height="105"
   viewBox="0 0 27.78125 27.78125"
   version="1.1"
   id="svg1"
   inkscape:version="1.3.2 (091e20e, 2023-11-25, custom)"
   sodipodi:docname="soldier_rnk.svg"
   xmlns:inkscape="http://www.inkscape.org/namespaces/inkscape"
   xmlns:sodipodi="http://sodipodi.sourceforge.net/DTD/sodipodi-0.dtd"
   xmlns="http://www.w3.org/2000/svg"
   xmlns:svg="http://www.w3.org/2000/svg">
  <sodipodi:namedview
     id="namedview1"
     pagecolor="#ffffff"
     bordercolor="#000000"
     borderopacity="0.25"
     inkscape:showpageshadow="2"
     inkscape:pageopacity="0.0"
     inkscape:pagecheckerboard="0"
     inkscape:deskcolor="#d1d1d1"
     inkscape:document-units="mm"
     inkscape:zoom="2.768771"
     inkscape:cx="32.505396"
     inkscape:cy="33.047153"
     inkscape:window-width="1920"
     inkscape:window-height="991"
     inkscape:window-x="-9"
     inkscape:window-y="-9"
     inkscape:window-maximized="1"
     inkscape:current-layer="layer1">
    <sodipodi:guide
       position="0,27.78125"
       orientation="0,105"
       id="guide1"
       inkscape:locked="false" />
    <sodipodi:guide
       position="27.78125,27.78125"
       orientation="105,0"
       id="guide2"
       inkscape:locked="false" />
    <sodipodi:guide
       position="27.78125,0"
       orientation="0,-105"
       id="guide3"
       inkscape:locked="false" />
    <sodipodi:guide
       position="0,0"
       orientation="-105,0"
       id="guide4"
       inkscape:locked="false" />
  </sodipodi:namedview>
  <defs
     id="defs1" />
  <g
     inkscape:label="Layer 1"
     inkscape:groupmode="layer"
     id="layer1">
    <g
       id="g46"
       transform="matrix(0.55851069,0,0,0.55851069,-231.26277,-347.20032)">
      <path
         style="fill:#f1c261"
         d="m 414.07044,663.33366 v -7.26287 l 2.3151,-1.90949 c 1.27331,-1.05022 3.75054,-3.3481 5.50496,-5.1064 l 3.18984,-3.19691 2.01824,-2.52209 c 1.11003,-1.38716 2.92567,-3.88747 4.03476,-5.55625 l 2.01653,-3.03416 2.18782,-4.36879 c 1.2033,-2.40284 2.47554,-5.17104 2.82719,-6.15157 0.35165,-0.98052 0.71683,-1.78276 0.81149,-1.78276 0.0947,0 0.25191,0.31789 0.34942,0.70642 0.29214,1.16398 2.78509,6.61275 4.32912,9.46203 1.92166,3.54615 4.38072,7.25349 6.99547,10.54656 l 2.14433,2.70061 3.19359,3.19691 c 1.75648,1.7583 4.2354,4.05618 5.5087,5.1064 l 2.31511,1.90949 v 7.26287 7.26287 h -0.17999 c -0.3563,0 -3.72287,-2.26941 -7.09605,-4.78346 l -3.43959,-2.56353 -3.06814,-2.78626 -3.06814,-2.78627 -2.76373,-3.1359 c -1.52006,-1.72474 -3.27909,-3.81847 -3.90896,-4.65274 -0.62988,-0.83426 -1.23297,-1.51684 -1.34022,-1.51684 -0.10724,0 -0.78037,0.76235 -1.49584,1.69411 -0.71547,0.93176 -2.48865,3.03265 -3.94041,4.66865 l -2.63956,2.97453 -2.87392,2.61619 c -1.58066,1.4389 -3.88473,3.40548 -5.12015,4.37017 -2.45839,1.91965 -8.25785,5.90135 -8.59548,5.90135 h -0.21149 z"
         id="path52" />
      <path
         style="fill:#a0b0a9"
         d="m 414.07044,663.33366 v -7.26287 l 2.3151,-1.90949 c 1.27331,-1.05022 3.75054,-3.3481 5.50496,-5.1064 l 3.18984,-3.19691 2.01824,-2.52209 c 1.11003,-1.38716 2.92567,-3.88747 4.03476,-5.55625 l 2.01653,-3.03416 2.18782,-4.36879 c 1.2033,-2.40284 2.47554,-5.17104 2.82719,-6.15157 0.35165,-0.98052 0.71683,-1.78276 0.81149,-1.78276 0.0947,0 0.25191,0.31789 0.34942,0.70642 0.29214,1.16398 2.78509,6.61275 4.32912,9.46203 1.92166,3.54615 4.38072,7.25349 6.99547,10.54656 l 2.14433,2.70061 3.19359,3.19691 c 1.75648,1.7583 4.2354,4.05618 5.5087,5.1064 l 2.31511,1.90949 v 7.26287 7.26287 h -0.17999 c -0.3563,0 -3.72287,-2.26941 -7.09605,-4.78346 l -3.43959,-2.56353 -3.06814,-2.78626 -3.06814,-2.78627 -2.76373,-3.1359 c -1.52006,-1.72474 -3.27909,-3.81847 -3.90896,-4.65274 -0.62988,-0.83426 -1.23297,-1.51684 -1.34022,-1.51684 -0.10724,0 -0.78037,0.76235 -1.49584,1.69411 -0.71547,0.93176 -2.48865,3.03265 -3.94041,4.66865 l -2.63956,2.97453 -2.87392,2.61619 c -1.58066,1.4389 -3.88473,3.40548 -5.12015,4.37017 -2.45839,1.91965 -8.25785,5.90135 -8.59548,5.90135 h -0.21149 z m 7.54063,-2.37586 c 1.4552,-1.15593 4.05869,-3.47845 5.78552,-5.16117 l 3.1397,-3.05947 2.56719,-3.05601 c 1.41196,-1.6808 3.27332,-4.08705 4.13635,-5.34721 0.86304,-1.26017 1.62868,-2.29221 1.70144,-2.29343 0.0728,-0.001 0.66808,0.79606 1.32292,1.77173 0.65485,0.97567 2.13338,2.96619 3.28564,4.42339 l 2.09501,2.64944 3.99041,3.99935 3.9904,3.99934 2.64583,2.08786 c 1.45521,1.14833 3.03279,2.36306 3.50573,2.69941 l 0.8599,0.61154 v -3.26719 -3.26719 l -2.41101,-1.97635 -2.411,-1.97635 -3.26564,-3.36884 -3.26563,-3.36884 -1.89892,-2.45199 c -2.5144,-3.24675 -5.117,-7.15277 -6.87832,-10.32305 -0.78816,-1.41867 -1.50412,-2.57953 -1.591,-2.57969 -0.0869,-1.6e-4 -0.68221,0.97532 -1.32292,2.16773 -1.55054,2.88567 -4.73655,7.71133 -7.08749,10.73501 l -1.90646,2.45199 -3.26563,3.36884 -3.26564,3.36884 -2.411,1.97635 -2.41101,1.97635 v 3.26719 3.26719 l 0.8599,-0.61154 c 0.47294,-0.33635 2.05052,-1.5573 3.50573,-2.71323 z"
         id="path51" />
      <path
         style="fill:#d2b05c"
         d="m 414.33502,663.24173 v -7.36524 l 2.26983,-1.8255 2.26983,-1.8255 3.61945,-3.71453 3.61944,-3.71453 2.32065,-3.08968 c 1.27636,-1.69932 3.11128,-4.3775 4.07761,-5.95151 1.85493,-3.02142 4.99187,-9.32125 5.8056,-11.65923 0.26591,-0.76398 0.54664,-1.38906 0.62384,-1.38906 0.0772,0 0.35794,0.62508 0.62385,1.38906 0.81373,2.33798 3.95067,8.63781 5.8056,11.65923 0.96633,1.57401 2.79937,4.25291 4.07344,5.95313 l 2.31648,3.09129 3.57834,3.66684 3.57834,3.66684 2.3151,1.87547 2.31511,1.87547 v 7.36135 7.36135 l -3.13074,-2.09746 c -1.7219,-1.1536 -4.37105,-3.07483 -5.88698,-4.26939 l -2.75624,-2.17193 -4.49792,-4.55038 -4.49792,-4.55037 -1.85208,-2.41206 c -1.01865,-1.32663 -1.91161,-2.41205 -1.98438,-2.41205 -0.0728,0 -0.96572,1.0868 -1.98437,2.41511 l -1.85208,2.41511 -4.49792,4.54157 -4.49792,4.54156 -2.75624,2.17769 c -1.51594,1.19772 -4.16508,3.12154 -5.88698,4.27514 l -3.13074,2.09746 z m 7.27605,-2.28393 c 1.4552,-1.15593 4.05869,-3.47845 5.78552,-5.16117 l 3.1397,-3.05947 2.56719,-3.05601 c 1.41196,-1.6808 3.27332,-4.08705 4.13635,-5.34721 0.86304,-1.26017 1.62868,-2.29221 1.70144,-2.29343 0.0728,-0.001 0.66808,0.79606 1.32292,1.77173 0.65485,0.97567 2.13338,2.96619 3.28564,4.42339 l 2.09501,2.64944 3.99041,3.99935 3.9904,3.99934 2.64583,2.08786 c 1.45521,1.14833 3.03279,2.36306 3.50573,2.69941 l 0.8599,0.61154 v -3.26719 -3.26719 l -2.41101,-1.97635 -2.411,-1.97635 -3.26564,-3.36884 -3.26563,-3.36884 -1.89892,-2.45199 c -2.5144,-3.24675 -5.117,-7.15277 -6.87832,-10.32305 -0.78816,-1.41867 -1.50412,-2.57953 -1.591,-2.57969 -0.0869,-1.6e-4 -0.68221,0.97532 -1.32292,2.16773 -1.55054,2.88567 -4.73655,7.71133 -7.08749,10.73501 l -1.90646,2.45199 -3.26563,3.36884 -3.26564,3.36884 -2.411,1.97635 -2.41101,1.97635 v 3.26719 3.26719 l 0.8599,-0.61154 c 0.47294,-0.33635 2.05052,-1.5573 3.50573,-2.71323 z"
         id="path50" />
      <path
         style="fill:#6d8475"
         d="m 414.33502,663.24173 v -7.36524 l 2.26983,-1.8255 2.26983,-1.8255 3.61945,-3.71453 3.61944,-3.71453 2.32065,-3.08968 c 1.27636,-1.69932 3.11128,-4.3775 4.07761,-5.95151 1.85493,-3.02142 4.99187,-9.32125 5.8056,-11.65923 0.26591,-0.76398 0.54664,-1.38906 0.62384,-1.38906 0.0772,0 0.35794,0.62508 0.62385,1.38906 0.81373,2.33798 3.95067,8.63781 5.8056,11.65923 0.96633,1.57401 2.79937,4.25291 4.07344,5.95313 l 2.31648,3.09129 3.57834,3.66684 3.57834,3.66684 2.3151,1.87547 2.31511,1.87547 v 7.36135 7.36135 l -3.13074,-2.09746 c -1.7219,-1.1536 -4.37105,-3.07483 -5.88698,-4.26939 l -2.75624,-2.17193 -4.49792,-4.55038 -4.49792,-4.55037 -1.85208,-2.41206 c -1.01865,-1.32663 -1.91161,-2.41205 -1.98438,-2.41205 -0.0728,0 -0.96572,1.0868 -1.98437,2.41511 l -1.85208,2.41511 -4.49792,4.54157 -4.49792,4.54156 -2.75624,2.17769 c -1.51594,1.19772 -4.16508,3.12154 -5.88698,4.27514 l -3.13074,2.09746 z m 6.08542,-1.21463 c 0.94589,-0.73111 3.08045,-2.52513 4.74348,-3.9867 l 3.0237,-2.65741 2.62784,-2.91042 c 2.19269,-2.42847 5.67254,-6.81407 7.66279,-9.65729 l 0.46302,-0.66146 0.46303,0.66146 c 5.9042,8.43457 13.3775,16.13463 20.24597,20.86026 l 1.25142,0.861 -0.01,-3.38615 -0.01,-3.38615 -0.98255,-0.74118 c -0.5404,-0.40765 -2.25576,-1.87226 -3.8119,-3.25469 l -2.82936,-2.5135 -2.61619,-2.96303 c -4.32865,-4.90251 -7.43666,-9.27778 -10.2553,-14.43677 -0.72245,-1.32231 -1.37307,-2.40421 -1.44584,-2.40421 -0.0728,0 -0.7276,1.09395 -1.4552,2.431 -1.86369,3.42472 -4.97228,8.03814 -7.71313,11.44696 l -2.34011,2.91042 -3.19797,3.175 c -1.75888,1.74625 -4.10427,3.88938 -5.21199,4.7625 l -2.01402,1.5875 -0.014,3.39145 -0.014,3.39146 0.85989,-0.59538 c 0.47295,-0.32745 1.63381,-1.19356 2.57969,-1.92467 z"
         id="path49" />
      <path
         style="fill:#596e52"
         d="m 414.3375,663.12205 0.002,-7.20989 2.1654,-1.71979 c 1.19098,-0.94589 3.54135,-3.09043 5.22305,-4.76565 l 3.05765,-3.04585 2.23063,-2.77498 c 2.48606,-3.09275 5.40923,-7.4412 7.29021,-10.84477 1.3468,-2.43699 3.55939,-7.20289 4.08423,-8.7974 l 0.32659,-0.99219 h 0.22354 0.22355 l 0.32132,0.97361 c 1.73846,5.2676 6.67574,13.80131 11.37678,19.66389 l 2.2277,2.77813 3.06213,3.04271 c 1.68417,1.67349 4.03586,3.81661 5.22598,4.7625 l 2.16385,1.71979 0.002,7.20989 0.002,7.2099 h -0.18052 c -0.3855,0 -6.18209,-4.05237 -8.94761,-6.25523 l -2.91042,-2.31829 -3.97982,-3.98147 -3.97983,-3.98147 -2.21782,-2.77812 c -1.2198,-1.52797 -2.29541,-2.77813 -2.39024,-2.77813 -0.0948,0 -1.17043,1.25016 -2.39023,2.77813 l -2.21782,2.77812 -3.97983,3.98147 -3.97982,3.98147 -2.91042,2.31829 c -2.76552,2.20286 -8.56211,6.25523 -8.94761,6.25523 h -0.18052 z m 6.47982,-1.37958 c 1.60073,-1.24881 4.25044,-3.52705 5.88825,-5.06274 l 2.97785,-2.79217 2.65141,-3.08874 c 1.45827,-1.69881 3.51153,-4.30331 4.56278,-5.78779 1.05126,-1.48447 1.9709,-2.69904 2.04366,-2.69904 0.0728,0 0.99241,1.21457 2.04367,2.69904 1.05125,1.48448 3.10451,4.08898 4.56278,5.78779 l 2.65141,3.08874 2.97784,2.79217 c 2.67082,2.50428 8.05795,6.92003 9.2617,7.59166 l 0.46302,0.25834 -0.002,-3.38274 -0.002,-3.38275 -2.14781,-1.71979 c -1.1813,-0.94589 -3.56617,-3.13359 -5.29972,-4.86156 l -3.1519,-3.14176 -2.25571,-2.81136 c -2.71506,-3.38387 -5.61779,-7.70857 -7.52538,-11.21188 -0.77256,-1.41883 -1.48129,-2.57969 -1.57496,-2.57969 -0.0937,0 -0.80138,1.15259 -1.57271,2.56131 -4.65791,8.50701 -12.19894,17.48694 -19.13093,22.78131 l -1.25677,0.95987 v 3.39452 3.39452 l 0.46302,-0.25834 c 0.25466,-0.14209 1.77271,-1.2801 3.37344,-2.52892 z"
         id="path48" />
      <path
         style="fill:#335544"
         d="m 414.35042,663.12205 0.0154,-7.20989 2.03512,-1.62991 c 9.38133,-7.51341 17.54161,-18.62951 21.77111,-29.65707 0.34883,-0.90951 0.69498,-1.65365 0.76922,-1.65365 0.0743,0 0.4204,0.74414 0.76923,1.65365 2.73282,7.12526 7.27349,14.5651 12.82568,21.01474 l 2.54549,2.95692 2.57928,2.3815 c 1.41861,1.30982 3.31805,2.95576 4.22099,3.65765 l 1.64171,1.27617 0.0119,7.20989 0.0119,7.2099 h -0.15031 c -0.34829,0 -6.55682,-4.37625 -9.2424,-6.51477 l -2.91042,-2.31755 -3.83646,-3.85856 -3.83646,-3.85857 -2.23878,-2.83778 c -1.23134,-1.56077 -2.30748,-2.83777 -2.39143,-2.83777 -0.0839,0 -1.16008,1.277 -2.39142,2.83777 l -2.23878,2.83778 -3.83646,3.85857 -3.83646,3.85856 -2.91042,2.31755 c -2.68558,2.13852 -8.89411,6.51477 -9.2424,6.51477 h -0.15031 z m 4.42767,0.28322 c 6.53442,-4.78531 12.94882,-11.21791 17.89337,-17.94415 1.12323,-1.52797 2.14465,-2.77813 2.26981,-2.77813 0.12517,0 1.14659,1.25016 2.26982,2.77813 4.94455,6.72624 11.35895,13.15884 17.89337,17.94415 0.83053,0.60821 1.57467,1.10585 1.65364,1.10585 0.079,0 0.14359,-1.52055 0.14359,-3.37899 v -3.37899 l -2.6337,-2.20146 c -6.90319,-5.77025 -13.55614,-13.89404 -17.73922,-21.66102 -0.80036,-1.48609 -1.51473,-2.70198 -1.5875,-2.70198 -0.0728,0 -0.78713,1.21589 -1.5875,2.70198 -4.18307,7.76698 -10.83602,15.89077 -17.73921,21.66102 l -2.6337,2.20146 v 3.37899 c 0,1.85844 0.0646,3.37899 0.14359,3.37899 0.079,0 0.82311,-0.49764 1.65364,-1.10585 z"
         id="path47" />
      <path
         style="fill:#284d3d"
         d="m 414.33502,663.23887 v -7.13624 l 2.84427,-2.37786 c 9.01122,-7.53354 16.37391,-17.59345 20.7166,-28.30584 0.48669,-1.20055 0.96173,-2.18281 1.05563,-2.18281 0.0939,0 0.50547,0.8632 0.91459,1.91823 1.68361,4.34165 5.46572,11.19515 8.4321,15.27968 3.40336,4.68622 7.98719,9.59733 12.40504,13.29074 l 2.84428,2.37786 v 7.13624 7.13624 l -0.99219,-0.5926 c -1.92301,-1.14853 -7.03161,-4.88685 -9.54494,-6.98469 -4.4758,-3.73587 -10.47253,-10.04873 -13.18038,-13.87521 -0.41605,-0.58792 -0.81598,-1.06895 -0.88875,-1.06895 -0.0728,0 -0.47269,0.48103 -0.88874,1.06895 -2.67497,3.78001 -8.7685,10.19539 -13.17879,13.87488 -2.51612,2.09918 -7.6258,5.83785 -9.54653,6.98502 l -0.99219,0.5926 z m 4.33403,0.30566 c 6.4717,-4.61823 13.77501,-11.98995 18.47259,-18.64564 0.91155,-1.2915 1.72451,-2.34819 1.8066,-2.34819 0.0821,0 0.75661,0.87366 1.49896,1.94148 0.74235,1.06781 2.33463,3.16592 3.53842,4.66247 l 2.18869,2.72101 3.06512,3.07658 c 3.63847,3.65207 10.74194,9.55888 11.49542,9.55888 h 0.16684 v -3.40257 -3.40256 l -3.17364,-2.70781 -3.17363,-2.70782 -2.26631,-2.40749 c -4.63303,-4.92165 -9.11307,-11.06351 -11.86247,-16.26271 -0.71157,-1.3456 -1.37953,-2.44654 -1.48437,-2.44654 -0.10483,0 -0.7728,1.09855 -1.48436,2.44122 -2.72073,5.13379 -6.88148,10.87165 -11.51902,15.88521 l -2.40476,2.59974 -3.27613,2.80686 -3.27614,2.80685 v 3.39881 3.39881 h 0.16684 c 0.0918,0 0.77637,-0.43497 1.52135,-0.96659 z"
         id="path46" />
    </g>
  </g>
</svg>
