<?xml version="1.0" encoding="UTF-8" standalone="no"?>
<!-- Created with Inkscape (http://www.inkscape.org/) -->

<svg
   width="25.434849mm"
   height="25.434858mm"
   viewBox="0 0 25.434849 25.434858"
   version="1.1"
   id="svg1"
   xml:space="preserve"
   inkscape:version="1.3.2 (091e20e, 2023-11-25, custom)"
   sodipodi:docname="hud.svg"
   xmlns:inkscape="http://www.inkscape.org/namespaces/inkscape"
   xmlns:sodipodi="http://sodipodi.sourceforge.net/DTD/sodipodi-0.dtd"
   xmlns:xlink="http://www.w3.org/1999/xlink"
   xmlns="http://www.w3.org/2000/svg"
   xmlns:svg="http://www.w3.org/2000/svg"><sodipodi:namedview
     id="namedview1"
     pagecolor="#ffffff"
     bordercolor="#000000"
     borderopacity="0.25"
     inkscape:showpageshadow="2"
     inkscape:pageopacity="0.0"
     inkscape:pagecheckerboard="0"
     inkscape:deskcolor="#d1d1d1"
     inkscape:document-units="mm"
     showguides="false"
     inkscape:zoom="1"
     inkscape:cx="1261.5"
     inkscape:cy="304.5"
     inkscape:window-width="1920"
     inkscape:window-height="991"
     inkscape:window-x="-9"
     inkscape:window-y="-9"
     inkscape:window-maximized="1"
     inkscape:current-layer="layer1"><sodipodi:guide
       position="-285.30967,157.56395"
       orientation="1,0"
       id="guide3"
       inkscape:locked="false" /><sodipodi:guide
       position="-380.64936,119.52306"
       orientation="0,-1"
       id="guide160"
       inkscape:locked="false" /><sodipodi:guide
       position="-380.64936,75.58204"
       orientation="0,-1"
       id="guide161"
       inkscape:locked="false" /><sodipodi:guide
       position="-2.2569226,26.690555"
       orientation="0,-1"
       id="guide202"
       inkscape:locked="false" /></sodipodi:namedview><defs
     id="defs1"><linearGradient
       id="linearGradient660"
       inkscape:collect="always"><stop
         style="stop-color:#fcff01;stop-opacity:1;"
         offset="0"
         id="stop659" /><stop
         style="stop-color:#e7ff11;stop-opacity:0;"
         offset="1"
         id="stop660" /></linearGradient><linearGradient
       id="linearGradient658"
       inkscape:collect="always"><stop
         style="stop-color:#d1db00;stop-opacity:1;"
         offset="0"
         id="stop657" /><stop
         style="stop-color:#ffffff;stop-opacity:0;"
         offset="1"
         id="stop658" /></linearGradient><linearGradient
       id="linearGradient276"
       inkscape:collect="always"><stop
         style="stop-color:#c70c0c;stop-opacity:1;"
         offset="0"
         id="stop274" /><stop
         style="stop-color:#ffffff;stop-opacity:1;"
         offset="0.50490195"
         id="stop275" /><stop
         style="stop-color:#bf0d0d;stop-opacity:1;"
         offset="1"
         id="stop276" /></linearGradient><linearGradient
       id="linearGradient123"
       inkscape:collect="always"><stop
         style="stop-color:#ffffff;stop-opacity:1;"
         offset="0"
         id="stop123" /><stop
         style="stop-color:#ffffff;stop-opacity:0;"
         offset="1"
         id="stop124" /></linearGradient><filter
       inkscape:collect="always"
       style="color-interpolation-filters:sRGB"
       id="filter124"
       x="-0.035059158"
       y="-0.31950528"
       width="1.0701183"
       height="1.6390106"><feGaussianBlur
         inkscape:collect="always"
         stdDeviation="0.2798853"
         id="feGaussianBlur124" /></filter><filter
       style="color-interpolation-filters:sRGB"
       inkscape:label="Drop Shadow"
       id="filter253"
       x="-0.039811961"
       y="-0.039811963"
       width="1.1147866"
       height="1.1147866"><feFlood
         result="flood"
         in="SourceGraphic"
         flood-opacity="1.000000"
         flood-color="rgb(0,0,0)"
         id="feFlood252" /><feGaussianBlur
         result="blur"
         in="SourceGraphic"
         stdDeviation="0.400000"
         id="feGaussianBlur252" /><feOffset
         result="offset"
         in="blur"
         dx="0.900000"
         dy="0.900000"
         id="feOffset252" /><feComposite
         result="comp1"
         operator="in"
         in="flood"
         in2="offset"
         id="feComposite252" /><feComposite
         result="comp2"
         operator="over"
         in="SourceGraphic"
         in2="comp1"
         id="feComposite253" /></filter><radialGradient
       inkscape:collect="always"
       xlink:href="#linearGradient123"
       id="radialGradient654"
       gradientUnits="userSpaceOnUse"
       gradientTransform="matrix(1,0,0,0.10972568,0.30112106,138.204)"
       cx="137.48672"
       cy="140.1385"
       fx="137.48672"
       fy="140.1385"
       r="9.579875" /><radialGradient
       inkscape:collect="always"
       xlink:href="#linearGradient660"
       id="radialGradient655"
       gradientUnits="userSpaceOnUse"
       gradientTransform="matrix(1,0,0,0.10972568,0.30112106,138.204)"
       cx="137.48672"
       cy="140.1385"
       fx="137.48672"
       fy="140.1385"
       r="9.579875" /><radialGradient
       inkscape:collect="always"
       xlink:href="#linearGradient658"
       id="radialGradient656"
       gradientUnits="userSpaceOnUse"
       gradientTransform="matrix(1,0,0,0.10972568,0.30112106,138.204)"
       cx="137.48672"
       cy="140.1385"
       fx="137.48672"
       fy="140.1385"
       r="9.579875" /><linearGradient
       inkscape:collect="always"
       xlink:href="#linearGradient276"
       id="linearGradient656"
       gradientUnits="userSpaceOnUse"
       x1="74.420303"
       y1="242.27983"
       x2="100.13363"
       y2="242.27983" /><radialGradient
       inkscape:collect="always"
       xlink:href="#linearGradient123"
       id="radialGradient657"
       gradientUnits="userSpaceOnUse"
       gradientTransform="matrix(1,0,0,0.10972568,0.30112106,138.204)"
       cx="137.48672"
       cy="140.1385"
       fx="137.48672"
       fy="140.1385"
       r="9.579875" /></defs><g
     inkscape:label="Layer 1"
     inkscape:groupmode="layer"
     id="layer1"
     transform="translate(-522.95692,55.467779)"><g
       id="g654"
       transform="matrix(0.7952877,0,0,0.7952877,442.93914,-224.37329)"
       style="display:inline;opacity:0.821656"
       inkscape:export-filename="goback.svg"
       inkscape:export-xdpi="96"
       inkscape:export-ydpi="96"><path
         id="path652"
         style="opacity:1;fill:#e89e00;fill-opacity:0.868481;stroke:none;stroke-width:0.118"
         inkscape:transform-center-x="1.2109486e-06"
         inkscape:transform-center-y="-3.2010941e-06"
         d="m 90.702233,229.49658 c 0.587032,0.15729 7.732017,5.63983 8.035888,6.16615 0.30387,0.52632 1.479399,9.45533 1.322099,10.04236 -0.157293,0.58704 -5.639833,7.73202 -6.166152,8.03589 -0.526319,0.30387 -9.455328,1.4794 -10.042361,1.3221 -0.587032,-0.15729 -7.732017,-5.63983 -8.035888,-6.16615 -0.30387,-0.52632 -1.479396,-9.45533 -1.322101,-10.04236 0.157295,-0.58703 5.639835,-7.73202 6.166154,-8.03589 0.526319,-0.30387 9.455328,-1.4794 10.042361,-1.3221 z"
         transform="rotate(7.4263364,212.77053,458.04672)" /><path
         id="path653"
         style="opacity:1;fill:none;stroke:url(#linearGradient656);stroke-width:0.118;filter:url(#filter253)"
         inkscape:transform-center-x="1.2109486e-06"
         inkscape:transform-center-y="-3.2010941e-06"
         d="m 90.702233,229.49658 c 0.587032,0.15729 7.732017,5.63983 8.035888,6.16615 0.30387,0.52632 1.479399,9.45533 1.322099,10.04236 -0.157293,0.58704 -5.639833,7.73202 -6.166152,8.03589 -0.526319,0.30387 -9.455328,1.4794 -10.042361,1.3221 -0.587032,-0.15729 -7.732017,-5.63983 -8.035888,-6.16615 -0.30387,-0.52632 -1.479396,-9.45533 -1.322101,-10.04236 0.157295,-0.58703 5.639835,-7.73202 6.166154,-8.03589 0.526319,-0.30387 9.455328,-1.4794 10.042361,-1.3221 z"
         transform="rotate(7.4263364,212.77053,458.04672)" /><path
         id="path654"
         style="fill:url(#radialGradient657);filter:url(#filter124)"
         d="m 128.20799,152.52911 h 19.15974 c 0,0 1e-5,0.0322 1e-5,0.0722 v 1.95799 c 0,0.04 -1e-5,0.0722 -1e-5,0.0722 h -19.15974 c 0,0 0,-0.0322 0,-0.0722 v -1.95799 c 0,-0.04 0,-0.0722 0,-0.0722 z"
         transform="matrix(0.46897621,0,0,0.46897621,52.744486,143.51277)" /><path
         id="path649"
         style="display:inline;fill:url(#radialGradient654);filter:url(#filter124)"
         d="m 128.20799,152.52911 h 19.15974 c 0,0 1e-5,0.0322 1e-5,0.0722 v 1.95799 c 0,0.04 -1e-5,0.0722 -1e-5,0.0722 h -19.15974 c 0,0 0,-0.0322 0,-0.0722 v -1.95799 c 0,-0.04 0,-0.0722 0,-0.0722 z"
         transform="matrix(0.46897621,0,0,0.46897621,50.990568,168.25501)" /><path
         id="path650"
         style="display:inline;fill:url(#radialGradient655);filter:url(#filter124)"
         d="m 128.20799,152.52911 h 19.15974 c 0,0 1e-5,0.0322 1e-5,0.0722 v 1.95799 c 0,0.04 -1e-5,0.0722 -1e-5,0.0722 h -19.15974 c 0,0 0,-0.0322 0,-0.0722 v -1.95799 c 0,-0.04 0,-0.0722 0,-0.0722 z"
         transform="matrix(0.46897621,0,0,0.46897621,50.990568,168.25501)" /><path
         id="path651"
         style="display:inline;fill:url(#radialGradient656);filter:url(#filter124)"
         d="m 128.20799,152.52911 h 19.15974 c 0,0 1e-5,0.0322 1e-5,0.0722 v 1.95799 c 0,0.04 -1e-5,0.0722 -1e-5,0.0722 h -19.15974 c 0,0 0,-0.0322 0,-0.0722 v -1.95799 c 0,-0.04 0,-0.0722 0,-0.0722 z"
         transform="matrix(0.46897621,0,0,0.46897621,51.598542,143.44263)" /><path
         style="fill:#ffffff;stroke-width:0.0496844"
         d="m 351.559,90.890158 c -0.2278,-0.06626 -0.17001,-0.01381 -1.44047,-1.307235 -1.33415,-1.358247 -1.22596,-1.21721 -1.23195,-1.606007 l -0.004,-0.249766 0.0515,-0.105166 c 0.0662,-0.135141 2.22528,-2.374457 2.41439,-2.50407 0.7001,-0.47983 1.55644,0.277914 1.16602,1.031756 -0.0487,0.09407 -0.12122,0.172532 -0.73485,0.795312 l -0.20076,0.203759 1.67263,-0.0046 c 1.81918,-0.005 1.74531,-0.0078 1.90927,0.07096 0.30761,0.147727 0.42643,0.348518 0.42692,0.72145 l 2e-4,0.235661 -0.0544,0.112698 c -0.10561,0.218599 -0.31649,0.382701 -0.55026,0.4282 -0.0814,0.01585 -0.38916,0.02095 -1.7663,0.02931 l -1.66771,0.01013 0.42213,0.430225 c 0.53777,0.54808 0.57752,0.608573 0.58994,0.897736 0.0236,0.550466 -0.48404,0.960493 -1.0025,0.809687 z"
         id="path914"
         transform="matrix(2.5885478,0,0,2.5885478,-795.55994,0.22043167)" /></g></g></svg>
