<?xml version="1.0" encoding="UTF-8" standalone="no"?>
<!-- Created with Inkscape (http://www.inkscape.org/) -->

<svg
   width="25.434881mm"
   height="25.434858mm"
   viewBox="0 0 25.434881 25.434858"
   version="1.1"
   id="svg1"
   xml:space="preserve"
   inkscape:version="1.3.2 (091e20e, 2023-11-25, custom)"
   sodipodi:docname="hud.svg"
   xmlns:inkscape="http://www.inkscape.org/namespaces/inkscape"
   xmlns:sodipodi="http://sodipodi.sourceforge.net/DTD/sodipodi-0.dtd"
   xmlns:xlink="http://www.w3.org/1999/xlink"
   xmlns="http://www.w3.org/2000/svg"
   xmlns:svg="http://www.w3.org/2000/svg"><sodipodi:namedview
     id="namedview1"
     pagecolor="#ffffff"
     bordercolor="#000000"
     borderopacity="0.25"
     inkscape:showpageshadow="2"
     inkscape:pageopacity="0.0"
     inkscape:pagecheckerboard="0"
     inkscape:deskcolor="#d1d1d1"
     inkscape:document-units="mm"
     showguides="true"
     inkscape:zoom="0.5"
     inkscape:cx="1783"
     inkscape:cy="13"
     inkscape:window-width="1920"
     inkscape:window-height="991"
     inkscape:window-x="-9"
     inkscape:window-y="-9"
     inkscape:window-maximized="1"
     inkscape:current-layer="layer1"><sodipodi:guide
       position="-304.69291,64.393016"
       orientation="1,0"
       id="guide3"
       inkscape:locked="false" /><sodipodi:guide
       position="-400.0326,26.352126"
       orientation="0,-1"
       id="guide160"
       inkscape:locked="false" /><sodipodi:guide
       position="-400.0326,-17.588894"
       orientation="0,-1"
       id="guide161"
       inkscape:locked="false" /><sodipodi:guide
       position="-21.640163,-66.480379"
       orientation="0,-1"
       id="guide202"
       inkscape:locked="false" /><sodipodi:guide
       position="-231.45475,135.19671"
       orientation="0,-1"
       id="guide933"
       inkscape:locked="false" /></sodipodi:namedview><defs
     id="defs1"><linearGradient
       id="linearGradient953"
       inkscape:collect="always"><stop
         style="stop-color:#0ddb00;stop-opacity:1;"
         offset="0"
         id="stop952" /><stop
         style="stop-color:#38f700;stop-opacity:0;"
         offset="1"
         id="stop953" /></linearGradient><linearGradient
       id="linearGradient951"
       inkscape:collect="always"><stop
         style="stop-color:#0cff01;stop-opacity:1;"
         offset="0"
         id="stop950" /><stop
         style="stop-color:#14ff11;stop-opacity:0;"
         offset="1"
         id="stop951" /></linearGradient><linearGradient
       id="linearGradient949"
       inkscape:collect="always"><stop
         style="stop-color:#00ef02;stop-opacity:1;"
         offset="0"
         id="stop948" /><stop
         style="stop-color:#03fe00;stop-opacity:0;"
         offset="1"
         id="stop949" /></linearGradient><linearGradient
       id="linearGradient947"
       inkscape:collect="always"><stop
         style="stop-color:#06cf00;stop-opacity:1;"
         offset="0"
         id="stop946" /><stop
         style="stop-color:#05fe00;stop-opacity:0;"
         offset="1"
         id="stop947" /></linearGradient><linearGradient
       id="linearGradient276"
       inkscape:collect="always"><stop
         style="stop-color:#c70c0c;stop-opacity:1;"
         offset="0"
         id="stop274" /><stop
         style="stop-color:#ffffff;stop-opacity:1;"
         offset="0.50490195"
         id="stop275" /><stop
         style="stop-color:#bf0d0d;stop-opacity:1;"
         offset="1"
         id="stop276" /></linearGradient><filter
       inkscape:collect="always"
       style="color-interpolation-filters:sRGB"
       id="filter124"
       x="-0.035059158"
       y="-0.31950528"
       width="1.0701183"
       height="1.6390106"><feGaussianBlur
         inkscape:collect="always"
         stdDeviation="0.2798853"
         id="feGaussianBlur124" /></filter><filter
       style="color-interpolation-filters:sRGB"
       inkscape:label="Drop Shadow"
       id="filter253"
       x="-0.039811961"
       y="-0.039811963"
       width="1.1147866"
       height="1.1147866"><feFlood
         result="flood"
         in="SourceGraphic"
         flood-opacity="1.000000"
         flood-color="rgb(0,0,0)"
         id="feFlood252" /><feGaussianBlur
         result="blur"
         in="SourceGraphic"
         stdDeviation="0.400000"
         id="feGaussianBlur252" /><feOffset
         result="offset"
         in="blur"
         dx="0.900000"
         dy="0.900000"
         id="feOffset252" /><feComposite
         result="comp1"
         operator="in"
         in="flood"
         in2="offset"
         id="feComposite252" /><feComposite
         result="comp2"
         operator="over"
         in="SourceGraphic"
         in2="comp1"
         id="feComposite253" /></filter><linearGradient
       inkscape:collect="always"
       xlink:href="#linearGradient276"
       id="linearGradient943"
       gradientUnits="userSpaceOnUse"
       x1="74.420303"
       y1="242.27983"
       x2="100.13363"
       y2="242.27983" /><radialGradient
       inkscape:collect="always"
       xlink:href="#linearGradient947"
       id="radialGradient943"
       gradientUnits="userSpaceOnUse"
       gradientTransform="matrix(1,0,0,0.10972568,0.30112106,138.204)"
       cx="137.48672"
       cy="140.1385"
       fx="137.48672"
       fy="140.1385"
       r="9.579875" /><radialGradient
       inkscape:collect="always"
       xlink:href="#linearGradient949"
       id="radialGradient944"
       gradientUnits="userSpaceOnUse"
       gradientTransform="matrix(1,0,0,0.10972568,0.30112106,138.204)"
       cx="137.48672"
       cy="140.1385"
       fx="137.48672"
       fy="140.1385"
       r="9.579875" /><radialGradient
       inkscape:collect="always"
       xlink:href="#linearGradient951"
       id="radialGradient945"
       gradientUnits="userSpaceOnUse"
       gradientTransform="matrix(1,0,0,0.10972568,0.30112106,138.204)"
       cx="137.48672"
       cy="140.1385"
       fx="137.48672"
       fy="140.1385"
       r="9.579875" /><radialGradient
       inkscape:collect="always"
       xlink:href="#linearGradient953"
       id="radialGradient946"
       gradientUnits="userSpaceOnUse"
       gradientTransform="matrix(1,0,0,0.10972568,0.30112106,138.204)"
       cx="137.48672"
       cy="140.1385"
       fx="137.48672"
       fy="140.1385"
       r="9.579875" /></defs><g
     inkscape:label="Layer 1"
     inkscape:groupmode="layer"
     id="layer1"
     transform="translate(-542.34016,148.63871)"><g
       id="g1143"
       transform="translate(126.85922,-104.24634)"><g
         id="g943"
         transform="matrix(0.7952877,0,0,0.7952877,335.46315,-213.29789)"
         style="display:inline;opacity:0.821656"
         inkscape:export-filename="goback.svg"
         inkscape:export-xdpi="96"
         inkscape:export-ydpi="96"><path
           id="path937"
           style="opacity:1;fill:#00e805;fill-opacity:0.868481;stroke:none;stroke-width:0.118"
           inkscape:transform-center-x="1.2109486e-06"
           inkscape:transform-center-y="-3.2010941e-06"
           d="m 90.702233,229.49658 c 0.587032,0.15729 7.732017,5.63983 8.035888,6.16615 0.30387,0.52632 1.479399,9.45533 1.322099,10.04236 -0.157293,0.58704 -5.639833,7.73202 -6.166152,8.03589 -0.526319,0.30387 -9.455328,1.4794 -10.042361,1.3221 -0.587032,-0.15729 -7.732017,-5.63983 -8.035888,-6.16615 -0.30387,-0.52632 -1.479396,-9.45533 -1.322101,-10.04236 0.157295,-0.58703 5.639835,-7.73202 6.166154,-8.03589 0.526319,-0.30387 9.455328,-1.4794 10.042361,-1.3221 z"
           transform="rotate(7.4263364,212.77053,458.04672)" /><path
           id="path938"
           style="opacity:1;fill:none;stroke:url(#linearGradient943);stroke-width:0.118;filter:url(#filter253)"
           inkscape:transform-center-x="1.2109486e-06"
           inkscape:transform-center-y="-3.2010941e-06"
           d="m 90.702233,229.49658 c 0.587032,0.15729 7.732017,5.63983 8.035888,6.16615 0.30387,0.52632 1.479399,9.45533 1.322099,10.04236 -0.157293,0.58704 -5.639833,7.73202 -6.166152,8.03589 -0.526319,0.30387 -9.455328,1.4794 -10.042361,1.3221 -0.587032,-0.15729 -7.732017,-5.63983 -8.035888,-6.16615 -0.30387,-0.52632 -1.479396,-9.45533 -1.322101,-10.04236 0.157295,-0.58703 5.639835,-7.73202 6.166154,-8.03589 0.526319,-0.30387 9.455328,-1.4794 10.042361,-1.3221 z"
           transform="rotate(7.4263364,212.77053,458.04672)" /><path
           id="path939"
           style="fill:url(#radialGradient943);filter:url(#filter124)"
           d="m 128.20799,152.52911 h 19.15974 c 0,0 1e-5,0.0322 1e-5,0.0722 v 1.95799 c 0,0.04 -1e-5,0.0722 -1e-5,0.0722 h -19.15974 c 0,0 0,-0.0322 0,-0.0722 v -1.95799 c 0,-0.04 0,-0.0722 0,-0.0722 z"
           transform="matrix(0.46897621,0,0,0.46897621,52.744486,143.51277)" /><path
           id="path940"
           style="display:inline;fill:url(#radialGradient944);filter:url(#filter124)"
           d="m 128.20799,152.52911 h 19.15974 c 0,0 1e-5,0.0322 1e-5,0.0722 v 1.95799 c 0,0.04 -1e-5,0.0722 -1e-5,0.0722 h -19.15974 c 0,0 0,-0.0322 0,-0.0722 v -1.95799 c 0,-0.04 0,-0.0722 0,-0.0722 z"
           transform="matrix(0.46897621,0,0,0.46897621,50.990568,168.25501)" /><path
           id="path941"
           style="display:inline;fill:url(#radialGradient945);filter:url(#filter124)"
           d="m 128.20799,152.52911 h 19.15974 c 0,0 1e-5,0.0322 1e-5,0.0722 v 1.95799 c 0,0.04 -1e-5,0.0722 -1e-5,0.0722 h -19.15974 c 0,0 0,-0.0322 0,-0.0722 v -1.95799 c 0,-0.04 0,-0.0722 0,-0.0722 z"
           transform="matrix(0.46897621,0,0,0.46897621,50.990568,168.25501)" /><path
           id="path942"
           style="display:inline;fill:url(#radialGradient946);filter:url(#filter124)"
           d="m 128.20799,152.52911 h 19.15974 c 0,0 1e-5,0.0322 1e-5,0.0722 v 1.95799 c 0,0.04 -1e-5,0.0722 -1e-5,0.0722 h -19.15974 c 0,0 0,-0.0322 0,-0.0722 v -1.95799 c 0,-0.04 0,-0.0722 0,-0.0722 z"
           transform="matrix(0.46897621,0,0,0.46897621,51.598542,143.44263)" /></g><g
         id="g1118"
         transform="matrix(0.25814461,0,0,0.25814461,306.05033,-28.552339)"
         style="fill:#ffffff"><path
           style="fill:#ffffff"
           d="m 451.45465,4.8643641 v -2.047512 l 4.08877,-4.104051 4.08878,-4.1040507 -0.89884,-1.8391419 c -2.95812,-6.0526945 -1.50896,-12.1959995 4.21435,-17.8655725 l 2.26346,-2.242214 1.72323,1.70791 1.72323,1.70791 4.9685,-4.963338 c 5.76823,-5.762235 7.39535,-6.486092 8.77693,-3.904585 0.97919,1.829631 0.64238,2.389283 -4.62236,7.680592 -5.76942,5.798535 -5.50127,4.836664 -2.25106,8.074679 l 2.64373,2.633812 4.96304,-4.932437 c 5.44517,-5.411598 5.98583,-5.750749 7.72986,-4.848874 2.84724,1.472364 2.20972,3.034469 -3.64705,8.936288 l -4.92382,4.961695 1.7114,1.7365268 1.7114,1.7365272 -2.64908,2.5621951 c -5.77614,5.586702 -12.07172,6.81251 -18.19369,3.542481 l -1.26361,-0.674949 -4.03047,4.14681 -4.03047,4.146811 h -2.04811 -2.04812 z"
           id="path1119" /></g></g></g></svg>
