<?xml version="1.0" encoding="UTF-8" standalone="no"?>
<!-- Created with Inkscape (http://www.inkscape.org/) -->

<svg
   width="84.417038mm"
   height="32.402779mm"
   viewBox="0 0 84.417038 32.402779"
   version="1.1"
   id="svg1"
   xml:space="preserve"
   inkscape:version="1.3.2 (091e20e, 2023-11-25, custom)"
   sodipodi:docname="hud.svg"
   xmlns:inkscape="http://www.inkscape.org/namespaces/inkscape"
   xmlns:sodipodi="http://sodipodi.sourceforge.net/DTD/sodipodi-0.dtd"
   xmlns:xlink="http://www.w3.org/1999/xlink"
   xmlns="http://www.w3.org/2000/svg"
   xmlns:svg="http://www.w3.org/2000/svg"><sodipodi:namedview
     id="namedview1"
     pagecolor="#ffffff"
     bordercolor="#000000"
     borderopacity="0.25"
     inkscape:showpageshadow="2"
     inkscape:pageopacity="0.0"
     inkscape:pagecheckerboard="0"
     inkscape:deskcolor="#d1d1d1"
     inkscape:document-units="mm"
     showguides="true"
     inkscape:zoom="0.5"
     inkscape:cx="1783"
     inkscape:cy="13"
     inkscape:window-width="1920"
     inkscape:window-height="991"
     inkscape:window-x="-9"
     inkscape:window-y="-9"
     inkscape:window-maximized="1"
     inkscape:current-layer="layer1"><sodipodi:guide
       position="-263.95878,112.61025"
       orientation="1,0"
       id="guide3"
       inkscape:locked="false" /><sodipodi:guide
       position="-359.29847,74.569364"
       orientation="0,-1"
       id="guide160"
       inkscape:locked="false" /><sodipodi:guide
       position="-359.29847,30.628344"
       orientation="0,-1"
       id="guide161"
       inkscape:locked="false" /><sodipodi:guide
       position="19.093969,-18.263141"
       orientation="0,-1"
       id="guide202"
       inkscape:locked="false" /><sodipodi:guide
       position="-190.72062,183.41394"
       orientation="0,-1"
       id="guide933"
       inkscape:locked="false" /></sodipodi:namedview><defs
     id="defs1"><linearGradient
       id="linearGradient931"
       inkscape:collect="always"><stop
         style="stop-color:#fff81a;stop-opacity:1;"
         offset="0"
         id="stop930" /><stop
         style="stop-color:#eaff0d;stop-opacity:0;"
         offset="1"
         id="stop931" /></linearGradient><linearGradient
       id="linearGradient929"
       inkscape:collect="always"><stop
         style="stop-color:#e9ff01;stop-opacity:1;"
         offset="0"
         id="stop928" /><stop
         style="stop-color:#f2ff02;stop-opacity:0;"
         offset="1"
         id="stop929" /></linearGradient><linearGradient
       id="linearGradient927"
       inkscape:collect="always"><stop
         style="stop-color:#d5db00;stop-opacity:1;"
         offset="0"
         id="stop926" /><stop
         style="stop-color:#f0fc00;stop-opacity:0;"
         offset="1"
         id="stop927" /></linearGradient><linearGradient
       id="linearGradient925"
       inkscape:collect="always"><stop
         style="stop-color:#feff01;stop-opacity:1;"
         offset="0"
         id="stop924" /><stop
         style="stop-color:#efff11;stop-opacity:0;"
         offset="1"
         id="stop925" /></linearGradient><linearGradient
       id="linearGradient276"
       inkscape:collect="always"><stop
         style="stop-color:#c70c0c;stop-opacity:1;"
         offset="0"
         id="stop274" /><stop
         style="stop-color:#ffffff;stop-opacity:1;"
         offset="0.50490195"
         id="stop275" /><stop
         style="stop-color:#bf0d0d;stop-opacity:1;"
         offset="1"
         id="stop276" /></linearGradient><filter
       inkscape:collect="always"
       style="color-interpolation-filters:sRGB"
       id="filter124"
       x="-0.035059158"
       y="-0.31950528"
       width="1.0701183"
       height="1.6390106"><feGaussianBlur
         inkscape:collect="always"
         stdDeviation="0.2798853"
         id="feGaussianBlur124" /></filter><filter
       style="color-interpolation-filters:sRGB"
       inkscape:label="Drop Shadow"
       id="filter253"
       x="-0.039811961"
       y="-0.039811963"
       width="1.1147866"
       height="1.1147866"><feFlood
         result="flood"
         in="SourceGraphic"
         flood-opacity="1.000000"
         flood-color="rgb(0,0,0)"
         id="feFlood252" /><feGaussianBlur
         result="blur"
         in="SourceGraphic"
         stdDeviation="0.400000"
         id="feGaussianBlur252" /><feOffset
         result="offset"
         in="blur"
         dx="0.900000"
         dy="0.900000"
         id="feOffset252" /><feComposite
         result="comp1"
         operator="in"
         in="flood"
         in2="offset"
         id="feComposite252" /><feComposite
         result="comp2"
         operator="over"
         in="SourceGraphic"
         in2="comp1"
         id="feComposite253" /></filter><radialGradient
       inkscape:collect="always"
       xlink:href="#linearGradient931"
       id="radialGradient654"
       gradientUnits="userSpaceOnUse"
       gradientTransform="matrix(1,0,0,0.10972568,0.30112106,138.204)"
       cx="137.48672"
       cy="140.1385"
       fx="137.48672"
       fy="140.1385"
       r="9.579875" /><radialGradient
       inkscape:collect="always"
       xlink:href="#linearGradient925"
       id="radialGradient655"
       gradientUnits="userSpaceOnUse"
       gradientTransform="matrix(1,0,0,0.10972568,0.30112106,138.204)"
       cx="137.48672"
       cy="140.1385"
       fx="137.48672"
       fy="140.1385"
       r="9.579875" /><radialGradient
       inkscape:collect="always"
       xlink:href="#linearGradient927"
       id="radialGradient656"
       gradientUnits="userSpaceOnUse"
       gradientTransform="matrix(1,0,0,0.10972568,0.30112106,138.204)"
       cx="137.48672"
       cy="140.1385"
       fx="137.48672"
       fy="140.1385"
       r="9.579875" /><linearGradient
       inkscape:collect="always"
       xlink:href="#linearGradient276"
       id="linearGradient656"
       gradientUnits="userSpaceOnUse"
       x1="74.420303"
       y1="242.27983"
       x2="100.13363"
       y2="242.27983" /><radialGradient
       inkscape:collect="always"
       xlink:href="#linearGradient929"
       id="radialGradient657"
       gradientUnits="userSpaceOnUse"
       gradientTransform="matrix(1,0,0,0.10972568,0.30112106,138.204)"
       cx="137.48672"
       cy="140.1385"
       fx="137.48672"
       fy="140.1385"
       r="9.579875" /></defs><g
     inkscape:label="Layer 1"
     inkscape:groupmode="layer"
     id="layer1"
     transform="translate(-501.60603,100.42148)"><g
       id="g934"
       transform="translate(220.83635,-111.80236)"
       inkscape:export-filename=".\connect-wallet.svg"
       inkscape:export-xdpi="96"
       inkscape:export-ydpi="96"><g
         id="g654"
         transform="matrix(0.70455191,0,0,0.70455191,209.88127,-138.2539)"
         style="display:inline;opacity:0.716"
         inkscape:export-filename="goback.svg"
         inkscape:export-xdpi="96"
         inkscape:export-ydpi="96"><path
           id="path652"
           style="opacity:1;fill:#f48d00;fill-opacity:1;stroke:none;stroke-width:0.118"
           inkscape:transform-center-x="1.2109486e-06"
           inkscape:transform-center-y="-3.2010941e-06"
           d="m 90.702233,229.49658 c 0.587032,0.15729 7.732017,5.63983 8.035888,6.16615 0.30387,0.52632 1.479399,9.45533 1.322099,10.04236 -0.157293,0.58704 -5.639833,7.73202 -6.166152,8.03589 -0.526319,0.30387 -9.455328,1.4794 -10.042361,1.3221 -0.587032,-0.15729 -7.732017,-5.63983 -8.035888,-6.16615 -0.30387,-0.52632 -1.479396,-9.45533 -1.322101,-10.04236 0.157295,-0.58703 5.639835,-7.73202 6.166154,-8.03589 0.526319,-0.30387 9.455328,-1.4794 10.042361,-1.3221 z"
           transform="rotate(7.4263364,212.77053,458.04672)" /><path
           id="path653"
           style="opacity:1;fill:none;stroke:url(#linearGradient656);stroke-width:0.118;filter:url(#filter253)"
           inkscape:transform-center-x="1.2109486e-06"
           inkscape:transform-center-y="-3.2010941e-06"
           d="m 90.702233,229.49658 c 0.587032,0.15729 7.732017,5.63983 8.035888,6.16615 0.30387,0.52632 1.479399,9.45533 1.322099,10.04236 -0.157293,0.58704 -5.639833,7.73202 -6.166152,8.03589 -0.526319,0.30387 -9.455328,1.4794 -10.042361,1.3221 -0.587032,-0.15729 -7.732017,-5.63983 -8.035888,-6.16615 -0.30387,-0.52632 -1.479396,-9.45533 -1.322101,-10.04236 0.157295,-0.58703 5.639835,-7.73202 6.166154,-8.03589 0.526319,-0.30387 9.455328,-1.4794 10.042361,-1.3221 z"
           transform="rotate(7.4263364,212.77053,458.04672)" /><path
           id="path654"
           style="fill:url(#radialGradient657);filter:url(#filter124)"
           d="m 128.20799,152.52911 h 19.15974 c 0,0 1e-5,0.0322 1e-5,0.0722 v 1.95799 c 0,0.04 -1e-5,0.0722 -1e-5,0.0722 h -19.15974 c 0,0 0,-0.0322 0,-0.0722 v -1.95799 c 0,-0.04 0,-0.0722 0,-0.0722 z"
           transform="matrix(0.46897621,0,0,0.46897621,52.744486,143.51277)" /><path
           id="path649"
           style="display:inline;fill:url(#radialGradient654);filter:url(#filter124)"
           d="m 128.20799,152.52911 h 19.15974 c 0,0 1e-5,0.0322 1e-5,0.0722 v 1.95799 c 0,0.04 -1e-5,0.0722 -1e-5,0.0722 h -19.15974 c 0,0 0,-0.0322 0,-0.0722 v -1.95799 c 0,-0.04 0,-0.0722 0,-0.0722 z"
           transform="matrix(0.46897621,0,0,0.46897621,50.990568,168.25501)" /><path
           id="path650"
           style="display:inline;fill:url(#radialGradient655);filter:url(#filter124)"
           d="m 128.20799,152.52911 h 19.15974 c 0,0 1e-5,0.0322 1e-5,0.0722 v 1.95799 c 0,0.04 -1e-5,0.0722 -1e-5,0.0722 h -19.15974 c 0,0 0,-0.0322 0,-0.0722 v -1.95799 c 0,-0.04 0,-0.0722 0,-0.0722 z"
           transform="matrix(0.46897621,0,0,0.46897621,50.990568,168.25501)" /><path
           id="path651"
           style="display:inline;fill:url(#radialGradient656);filter:url(#filter124)"
           d="m 128.20799,152.52911 h 19.15974 c 0,0 1e-5,0.0322 1e-5,0.0722 v 1.95799 c 0,0.04 -1e-5,0.0722 -1e-5,0.0722 h -19.15974 c 0,0 0,-0.0322 0,-0.0722 v -1.95799 c 0,-0.04 0,-0.0722 0,-0.0722 z"
           transform="matrix(0.46897621,0,0,0.46897621,51.598542,143.44263)" /><path
           d="m 290.77487,20.594249 h -1.28119 q -0.12696,0 -0.20775,-0.0808 -0.0808,-0.08079 -0.0923,-0.196217 l -0.28856,-4.974689 q -0.0115,-0.126964 0.0577,-0.196217 0.0808,-0.0808 0.20776,-0.0808 h 1.92755 q 0.11542,0 0.18468,0.0808 0.0808,0.06925 0.0693,0.196217 l -0.28856,4.974689 q -0.0115,0.115422 -0.0923,0.196217 -0.0808,0.0808 -0.19622,0.0808 z m 0.23084,2.908635 h -1.73133 q -0.12696,0 -0.20776,-0.0808 -0.0693,-0.0808 -0.0693,-0.196218 v -1.592824 q 0,-0.126964 0.0693,-0.196217 0.0808,-0.0808 0.20776,-0.0808 h 1.73133 q 0.11543,0 0.19622,0.0808 0.0808,0.06925 0.0808,0.196217 v 1.592824 q 0,0.115422 -0.0808,0.196218 -0.0808,0.0808 -0.19622,0.0808 z"
           id="text934"
           style="-inkscape-font-specification:Heavitas;fill:#ffffff;stroke-width:0.0545303"
           aria-label="!"
           transform="matrix(2.16308,0,0,2.16308,-511.35312,186.19611)" /></g><g
         id="text931"
         style="font-size:10.1199px;font-family:'Fake Hope Filled';-inkscape-font-specification:'Fake Hope Filled';text-align:center;letter-spacing:-0.0632497px;word-spacing:0px;text-orientation:upright;text-anchor:middle;fill:#fccd3a;stroke-width:0.355934"
         aria-label="please&#10;Connect&#10;Wallet"><path
           style="-inkscape-font-specification:'Karmatic Arcade'"
           d="m 316.588,20.082487 v -0.988272 h 0.97344 v 0.988272 z m 0,-0.988272 v -0.993213 h 0.97344 v 0.993213 z m 0,-0.993213 v -0.988271 h 0.97344 v 0.988271 z m 0,-0.988271 v -0.993213 h 0.97344 v 0.993213 z m 0,-0.993213 v -0.993213 h 0.97344 v 0.993213 z M 315.59973,21.0757 V 20.082487 H 316.588 V 21.0757 Z m 0,-0.993213 v -0.988272 h 0.98827 v 0.988272 z m 0,-0.988272 v -0.993213 h 0.98827 v 0.993213 z m 0,-0.993213 v -0.988271 h 0.98827 v 0.988271 z m 0,-0.988271 v -0.993213 h 0.98827 v 0.993213 z m 0,-0.993213 v -0.993213 h 0.98827 v 0.993213 z m 0,-0.993213 v -0.968506 h 0.98827 v 0.968506 z m -0.99322,-0.968506 v -0.993212 h 0.99322 v 0.993212 z m 0,6.917901 v -0.993213 h 0.99322 V 21.0757 Z m 0,-0.993213 v -0.988272 h 0.99322 v 0.988272 z m 0,-0.988272 v -0.993213 h 0.99322 v 0.993213 z m 0,-3.96791 v -0.968506 h 0.99322 v 0.968506 z m -0.98827,-0.968506 v -0.993212 h 0.98827 v 0.993212 z m 0,6.917901 v -0.993213 h 0.98827 V 21.0757 Z m 0,-0.993213 v -0.988272 h 0.98827 v 0.988272 z m -0.99321,-5.924688 v -0.993212 h 0.99321 v 0.993212 z m 0,6.917901 v -0.993213 h 0.99321 V 21.0757 Z m 0,-0.993213 v -0.988272 h 0.99321 v 0.988272 z m 0,-1.981485 v -0.988271 h 0.99321 v 0.988271 z m 0,-0.988271 v -0.993213 h 0.99321 v 0.993213 z m 0,-0.993213 v -0.993213 h 0.99321 v 0.993213 z m -0.99321,-1.961719 v -0.993212 h 0.99321 v 0.993212 z m 0.99321,7.886407 v 0.978388 h -0.99321 v -0.978388 z m -0.99321,0 V 21.0757 h 0.99321 v 0.968506 z m 0,-0.968506 v -0.993213 h 0.99321 V 21.0757 Z m 0,-0.993213 v -0.988272 h 0.99321 v 0.988272 z m 0,-1.981485 v -0.988271 h 0.99321 v 0.988271 z m 0,-0.988271 v -0.993213 h 0.99321 v 0.993213 z m 0,-0.993213 v -0.993213 h 0.99321 v 0.993213 z m -0.96851,-1.961719 v -0.993212 h 0.96851 v 0.993212 z m 0.96851,7.886407 v 0.978388 h -0.96851 v -0.978388 z m -0.96851,0 V 21.0757 h 0.96851 v 0.968506 z m 0,-0.968506 v -0.993213 h 0.96851 V 21.0757 Z m 0,-0.993213 v -0.988272 h 0.96851 v 0.988272 z m 0,-1.981485 v -0.988271 h 0.96851 v 0.988271 z m 0,-0.988271 v -0.993213 h 0.96851 v 0.993213 z m 0,-0.993213 v -0.993213 h 0.96851 v 0.993213 z m -0.99321,-1.961719 v -0.993212 h 0.99321 v 0.993212 z m 0.99321,7.886407 v 0.978388 h -0.99321 v -0.978388 z m -0.99321,0 V 21.0757 h 0.99321 v 0.968506 z m -0.98827,-7.886407 v -0.993212 h 0.98827 v 0.993212 z m 0.98827,7.886407 v 0.978388 h -0.98827 v -0.978388 z m -0.98827,0 V 21.0757 h 0.98827 v 0.968506 z m -0.99322,-7.886407 v -0.993212 h 0.99322 v 0.993212 z m 0,7.886407 V 21.0757 h 0.99322 v 0.968506 z m 0,-0.968506 v -0.993213 h 0.99322 V 21.0757 Z m 0,-0.993213 v -0.988272 h 0.99322 v 0.988272 z m 0,-0.988272 v -0.993213 h 0.99322 v 0.993213 z m 0,-0.993213 v -0.988271 h 0.99322 v 0.988271 z m 0,-0.988271 v -0.993213 h 0.99322 v 0.993213 z m 0,-0.993213 v -0.993213 h 0.99322 v 0.993213 z m 0,-0.993213 v -0.968506 h 0.99322 v 0.968506 z m 17.73552,6.917901 v 0.978388 h -0.98827 v -0.978388 z m -0.98827,0 V 21.0757 h 0.98827 v 0.968506 z m 0,-0.968506 v -0.993213 h 0.98827 V 21.0757 Z m 0,0.968506 v 0.978388 h -0.99321 v -0.978388 z m -0.99321,0 V 21.0757 h 0.99321 v 0.968506 z m 0,-0.968506 v -0.993213 h 0.99321 V 21.0757 Z m 0,-0.993213 v -0.988272 h 0.99321 v 0.988272 z m 0,1.961719 v 0.978388 h -0.98827 v -0.978388 z m -0.98827,0 V 21.0757 h 0.98827 v 0.968506 z m 0,-1.961719 v -0.988272 h 0.98827 v 0.988272 z m 0,1.961719 v 0.978388 h -0.99322 v -0.978388 z m -0.99322,0 V 21.0757 h 0.99322 v 0.968506 z m 0,-1.961719 v -0.988272 h 0.99322 v 0.988272 z m 0,1.961719 v 0.978388 h -0.99321 v -0.978388 z m -0.99321,0 V 21.0757 h 0.99321 v 0.968506 z m 0,-1.961719 v -0.988272 h 0.99321 v 0.988272 z m 0,-0.988272 v -0.993213 h 0.99321 v 0.993213 z m 0,-0.993213 v -0.988271 h 0.99321 v 0.988271 z m 0,-0.988271 v -0.993213 h 0.99321 v 0.993213 z m 0,-0.993213 v -0.993213 h 0.99321 v 0.993213 z m 0,-0.993213 v -0.968506 h 0.99321 v 0.968506 z m -0.96851,-0.968506 v -0.993212 h 0.96851 v 0.993212 z m 0.96851,7.886407 v 0.978388 h -0.96851 v -0.978388 z m -0.96851,0 V 21.0757 h 0.96851 v 0.968506 z m 0,-1.961719 v -0.988272 h 0.96851 v 0.988272 z m 0,-0.988272 v -0.993213 h 0.96851 v 0.993213 z m 0,-0.993213 v -0.988271 h 0.96851 v 0.988271 z m 0,-0.988271 v -0.993213 h 0.96851 v 0.993213 z m 0,-0.993213 v -0.993213 h 0.96851 v 0.993213 z m 0,-0.993213 v -0.968506 h 0.96851 v 0.968506 z m -0.99321,-0.968506 v -0.993212 h 0.99321 v 0.993212 z m 0.99321,7.886407 v 0.978388 h -0.99321 v -0.978388 z m -0.99321,0 V 21.0757 h 0.99321 v 0.968506 z m -0.98827,-7.886407 v -0.993212 h 0.98827 v 0.993212 z m 0.98827,7.886407 v 0.978388 h -0.98827 v -0.978388 z m -0.98827,0 V 21.0757 h 0.98827 v 0.968506 z m -0.99321,-7.886407 v -0.993212 h 0.99321 v 0.993212 z m 0,7.886407 V 21.0757 h 0.99321 v 0.968506 z m 0,-0.968506 v -0.993213 h 0.99321 V 21.0757 Z m 0,-0.993213 v -0.988272 h 0.99321 v 0.988272 z m 0,-0.988272 v -0.993213 h 0.99321 v 0.993213 z m 0,-0.993213 v -0.988271 h 0.99321 v 0.988271 z m 0,-0.988271 v -0.993213 h 0.99321 v 0.993213 z m 0,-0.993213 v -0.993213 h 0.99321 v 0.993213 z m 0,-0.993213 v -0.968506 h 0.99321 v 0.968506 z m 17.72069,6.917901 v 0.978388 h -0.97345 v -0.978388 z m -0.97345,0 V 21.0757 h 0.97345 v 0.968506 z m 0,-0.968506 v -0.993213 h 0.97345 V 21.0757 Z m 0,-3.962969 v -0.993213 h 0.97345 v 0.993213 z m 0,-0.993213 v -0.993213 h 0.97345 v 0.993213 z m 0,-0.993213 v -0.968506 h 0.97345 v 0.968506 z m -0.98827,-0.968506 v -0.993212 h 0.98827 v 0.993212 z m 0.98827,7.886407 v 0.978388 h -0.98827 v -0.978388 z m -0.98827,0 V 21.0757 h 0.98827 v 0.968506 z m 0,-0.968506 v -0.993213 h 0.98827 V 21.0757 Z m 0,-0.993213 v -0.988272 h 0.98827 v 0.988272 z m 0,-0.988272 v -0.993213 h 0.98827 v 0.993213 z m 0,-0.993213 v -0.988271 h 0.98827 v 0.988271 z m 0,-0.988271 v -0.993213 h 0.98827 v 0.993213 z m 0,-0.993213 v -0.993213 h 0.98827 v 0.993213 z m 0,-0.993213 v -0.968506 h 0.98827 v 0.968506 z m -0.99321,-0.968506 v -0.993212 h 0.99321 v 0.993212 z m 0.99321,7.886407 v 0.978388 h -0.99321 v -0.978388 z m -0.99321,0 V 21.0757 h 0.99321 v 0.968506 z m 0,-1.961719 v -0.988272 h 0.99321 v 0.988272 z m 0,-0.988272 v -0.993213 h 0.99321 v 0.993213 z m 0,-0.993213 v -0.988271 h 0.99321 v 0.988271 z m 0,-0.988271 v -0.993213 h 0.99321 v 0.993213 z m 0,-0.993213 v -0.993213 h 0.99321 v 0.993213 z m -0.98827,-1.961719 v -0.993212 h 0.98827 v 0.993212 z m 0.98827,7.886407 v 0.978388 h -0.98827 v -0.978388 z m -0.98827,0 V 21.0757 h 0.98827 v 0.968506 z m 0,-1.961719 v -0.988272 h 0.98827 v 0.988272 z m 0,-0.988272 v -0.993213 h 0.98827 v 0.993213 z m 0,-1.981484 v -0.993213 h 0.98827 v 0.993213 z m 0,-0.993213 v -0.993213 h 0.98827 v 0.993213 z m -0.99321,-1.961719 v -0.993212 h 0.99321 v 0.993212 z m 0.99321,7.886407 v 0.978388 h -0.99321 v -0.978388 z m -0.99321,0 V 21.0757 h 0.99321 v 0.968506 z m 0,-1.961719 v -0.988272 h 0.99321 v 0.988272 z m 0,-0.988272 v -0.993213 h 0.99321 v 0.993213 z m 0,-1.981484 v -0.993213 h 0.99321 v 0.993213 z m 0,-0.993213 v -0.993213 h 0.99321 v 0.993213 z m -0.99322,-1.961719 v -0.993212 h 0.99322 v 0.993212 z m 0.99322,7.886407 v 0.978388 h -0.99322 v -0.978388 z m -0.99322,0 V 21.0757 h 0.99322 v 0.968506 z m 0,-1.961719 v -0.988272 h 0.99322 v 0.988272 z m 0,-0.988272 v -0.993213 h 0.99322 v 0.993213 z m 0,-1.981484 v -0.993213 h 0.99322 v 0.993213 z m 0,-0.993213 v -0.993213 h 0.99322 v 0.993213 z m -0.9685,-1.961719 v -0.993212 h 0.9685 v 0.993212 z m 0.9685,7.886407 v 0.978388 h -0.9685 v -0.978388 z m -0.9685,0 V 21.0757 h 0.9685 v 0.968506 z m 0,-1.961719 v -0.988272 h 0.9685 v 0.988272 z m 0,-0.988272 v -0.993213 h 0.9685 v 0.993213 z m 0,-1.981484 v -0.993213 h 0.9685 v 0.993213 z m 0,-0.993213 v -0.993213 h 0.9685 v 0.993213 z m -0.99322,-1.961719 v -0.993212 h 0.99322 v 0.993212 z m 0.99322,7.886407 v 0.978388 h -0.99322 v -0.978388 z m -0.99322,0 V 21.0757 h 0.99322 v 0.968506 z m -0.98827,-7.886407 v -0.993212 h 0.98827 v 0.993212 z m 0.98827,7.886407 v 0.978388 h -0.98827 v -0.978388 z m -0.98827,0 V 21.0757 h 0.98827 v 0.968506 z m -0.99321,-7.886407 v -0.993212 h 0.99321 v 0.993212 z m 0,7.886407 V 21.0757 h 0.99321 v 0.968506 z m 0,-0.968506 v -0.993213 h 0.99321 V 21.0757 Z m 0,-0.993213 v -0.988272 h 0.99321 v 0.988272 z m 0,-0.988272 v -0.993213 h 0.99321 v 0.993213 z m 0,-0.993213 v -0.988271 h 0.99321 v 0.988271 z m 0,-0.988271 v -0.993213 h 0.99321 v 0.993213 z m 0,-0.993213 v -0.993213 h 0.99321 v 0.993213 z m 0,-0.993213 v -0.968506 h 0.99321 v 0.968506 z m 18.70897,6.917901 v 0.978388 h -0.97345 v -0.978388 z m -0.97345,0 V 21.0757 h 0.97345 v 0.968506 z m 0,-0.968506 v -0.993213 h 0.97345 V 21.0757 Z m 0,-0.993213 v -0.988272 h 0.97345 v 0.988272 z m 0,-0.988272 v -0.993213 h 0.97345 v 0.993213 z m 0,-0.993213 v -0.988271 h 0.97345 v 0.988271 z m 0,-0.988271 v -0.993213 h 0.97345 v 0.993213 z m 0,-0.993213 v -0.993213 h 0.97345 v 0.993213 z m 0,5.924688 v 0.978388 h -0.98827 v -0.978388 z m -0.98827,0 V 21.0757 h 0.98827 v 0.968506 z m 0,-0.968506 v -0.993213 h 0.98827 V 21.0757 Z m 0,-0.993213 v -0.988272 h 0.98827 v 0.988272 z m 0,-0.988272 v -0.993213 h 0.98827 v 0.993213 z m 0,-0.993213 v -0.988271 h 0.98827 v 0.988271 z m 0,-0.988271 v -0.993213 h 0.98827 v 0.993213 z m 0,-0.993213 v -0.993213 h 0.98827 v 0.993213 z m 0,-0.993213 v -0.968506 h 0.98827 v 0.968506 z m -0.99321,-0.968506 v -0.993212 h 0.99321 v 0.993212 z m 0.99321,7.886407 v 0.978388 h -0.99321 v -0.978388 z m -0.99321,0 V 21.0757 h 0.99321 v 0.968506 z m 0,-6.917901 v -0.968506 h 0.99321 v 0.968506 z m -0.98828,-0.968506 v -0.993212 h 0.98828 v 0.993212 z m 0.98828,7.886407 v 0.978388 h -0.98828 v -0.978388 z m -0.98828,0 V 21.0757 h 0.98828 v 0.968506 z m -0.99321,-7.886407 v -0.993212 h 0.99321 v 0.993212 z m 0,7.886407 V 21.0757 h 0.99321 v 0.968506 z m 0,-0.968506 v -0.993213 h 0.99321 V 21.0757 Z m 0,-0.993213 v -0.988272 h 0.99321 v 0.988272 z m 0,-1.981485 v -0.988271 h 0.99321 v 0.988271 z m 0,-0.988271 v -0.993213 h 0.99321 v 0.993213 z m 0,-0.993213 v -0.993213 h 0.99321 v 0.993213 z m -0.99321,-1.961719 v -0.993212 h 0.99321 v 0.993212 z m 0.99321,7.886407 v 0.978388 h -0.99321 v -0.978388 z m -0.99321,0 V 21.0757 h 0.99321 v 0.968506 z m 0,-0.968506 v -0.993213 h 0.99321 V 21.0757 Z m 0,-0.993213 v -0.988272 h 0.99321 v 0.988272 z m 0,-1.981485 v -0.988271 h 0.99321 v 0.988271 z m 0,-0.988271 v -0.993213 h 0.99321 v 0.993213 z m 0,-0.993213 v -0.993213 h 0.99321 v 0.993213 z m -0.96851,-1.961719 v -0.993212 h 0.96851 v 0.993212 z m 0.96851,7.886407 v 0.978388 h -0.96851 v -0.978388 z m -0.96851,0 V 21.0757 h 0.96851 v 0.968506 z m 0,-0.968506 v -0.993213 h 0.96851 V 21.0757 Z m 0,-0.993213 v -0.988272 h 0.96851 v 0.988272 z m 0,-1.981485 v -0.988271 h 0.96851 v 0.988271 z m 0,-0.988271 v -0.993213 h 0.96851 v 0.993213 z m 0,-0.993213 v -0.993213 h 0.96851 v 0.993213 z m -0.99321,-1.961719 v -0.993212 h 0.99321 v 0.993212 z m 0.99321,7.886407 v 0.978388 h -0.99321 v -0.978388 z m -0.99321,0 V 21.0757 h 0.99321 v 0.968506 z m -0.98827,-7.886407 v -0.993212 h 0.98827 v 0.993212 z m 0.98827,7.886407 v 0.978388 h -0.98827 v -0.978388 z m -0.98827,0 V 21.0757 h 0.98827 v 0.968506 z m 0,-6.917901 v -0.968506 h 0.98827 v 0.968506 z m -0.99321,6.917901 V 21.0757 h 0.99321 v 0.968506 z m 0,-0.968506 v -0.993213 h 0.99321 V 21.0757 Z m 0,-0.993213 v -0.988272 h 0.99321 v 0.988272 z m 0,-0.988272 v -0.993213 h 0.99321 v 0.993213 z m 0,-0.993213 v -0.988271 h 0.99321 v 0.988271 z m 0,-0.988271 v -0.993213 h 0.99321 v 0.993213 z m 0,-0.993213 v -0.993213 h 0.99321 v 0.993213 z m 0,-0.993213 v -0.968506 h 0.99321 v 0.968506 z m 17.73552,6.917901 V 21.0757 h 0.97344 v 0.968506 z m 0,-0.968506 v -0.993213 h 0.97344 V 21.0757 Z m 0,-0.993213 v -0.988272 h 0.97344 v 0.988272 z m 0,-0.988272 v -0.993213 h 0.97344 v 0.993213 z m 0,-0.993213 v -0.988271 h 0.97344 v 0.988271 z m 0,-0.988271 v -0.993213 h 0.97344 v 0.993213 z m 0,-0.993213 v -0.993213 h 0.97344 v 0.993213 z m 0,5.924688 v 0.978388 H 349.956 v -0.978388 z m -0.98827,0 V 21.0757 h 0.98827 v 0.968506 z m 0,-0.968506 v -0.993213 h 0.98827 V 21.0757 Z m 0,-0.993213 v -0.988272 h 0.98827 v 0.988272 z m 0,-0.988272 v -0.993213 h 0.98827 v 0.993213 z m 0,-0.993213 v -0.988271 h 0.98827 v 0.988271 z m 0,-0.988271 v -0.993213 h 0.98827 v 0.993213 z m 0,-0.993213 v -0.993213 h 0.98827 v 0.993213 z m 0,-0.993213 v -0.968506 h 0.98827 v 0.968506 z m -0.99322,-0.968506 v -0.993212 h 0.99322 v 0.993212 z m 0.99322,7.886407 v 0.978388 h -0.99322 v -0.978388 z m -0.99322,0 V 21.0757 h 0.99322 v 0.968506 z m 0,-0.968506 V 20.082487 H 349.956 V 21.0757 Z m 0,-2.974698 v -0.988271 h 0.99322 v 0.988271 z m 0,-0.988271 v -0.993213 h 0.99322 v 0.993213 z m 0,-1.986426 v -0.968506 h 0.99322 v 0.968506 z m -0.98827,-0.968506 v -0.993212 h 0.98827 v 0.993212 z m 0.98827,7.886407 v 0.978388 h -0.98827 v -0.978388 z m -0.98827,0 V 21.0757 h 0.98827 v 0.968506 z m 0,-4.931475 v -0.993213 h 0.98827 v 0.993213 z m -0.99321,-2.954932 v -0.993212 h 0.99321 v 0.993212 z m 0.99321,7.886407 v 0.978388 h -0.99321 v -0.978388 z m -0.99321,0 V 21.0757 h 0.99321 v 0.968506 z m 0,-1.961719 v -0.988272 h 0.99321 v 0.988272 z m 0,-0.988272 v -0.993213 h 0.99321 v 0.993213 z m 0,-1.981484 v -0.993213 h 0.99321 v 0.993213 z m 0,-0.993213 v -0.993213 h 0.99321 v 0.993213 z m -0.99321,-1.961719 v -0.993212 h 0.99321 v 0.993212 z m 0.99321,7.886407 v 0.978388 h -0.99321 v -0.978388 z m -0.99321,0 V 21.0757 h 0.99321 v 0.968506 z m 0,-1.961719 v -0.988272 h 0.99321 v 0.988272 z m 0,-0.988272 v -0.993213 h 0.99321 v 0.993213 z m 0,-1.981484 v -0.993213 h 0.99321 v 0.993213 z m 0,-0.993213 v -0.993213 h 0.99321 v 0.993213 z m -0.96851,-1.961719 v -0.993212 h 0.96851 v 0.993212 z m 0.96851,7.886407 v 0.978388 h -0.96851 v -0.978388 z m -0.96851,0 V 21.0757 h 0.96851 v 0.968506 z m 0,-1.961719 v -0.988272 h 0.96851 v 0.988272 z m 0,-0.988272 v -0.993213 h 0.96851 v 0.993213 z m 0,-1.981484 v -0.993213 h 0.96851 v 0.993213 z m 0,-0.993213 v -0.993213 h 0.96851 v 0.993213 z m -0.99321,-1.961719 v -0.993212 h 0.99321 v 0.993212 z m 0.99321,7.886407 v 0.978388 h -0.99321 v -0.978388 z m -0.99321,0 V 21.0757 h 0.99321 v 0.968506 z m 0,-2.949991 v -0.993213 h 0.99321 v 0.993213 z m -0.98828,-4.936416 v -0.993212 h 0.98828 v 0.993212 z m 0,7.886407 V 21.0757 h 0.98828 v 0.968506 z m 0,-0.968506 v -0.993213 h 0.98828 V 21.0757 Z m 0,-1.981485 v -0.993213 h 0.98828 v 0.993213 z m 0,-0.993213 v -0.988271 h 0.98828 v 0.988271 z m 0,-2.974697 v -0.968506 h 0.98828 v 0.968506 z m -0.99321,5.949395 v -0.993213 h 0.99321 V 21.0757 Z m 0,-0.993213 v -0.988272 h 0.99321 v 0.988272 z m 0,-0.988272 v -0.993213 h 0.99321 v 0.993213 z m 0,-0.993213 v -0.988271 h 0.99321 v 0.988271 z m 0,-0.988271 v -0.993213 h 0.99321 v 0.993213 z m 0,-0.993213 v -0.993213 h 0.99321 v 0.993213 z m 0,-0.993213 v -0.968506 h 0.99321 v 0.968506 z m 18.70897,6.917901 v 0.978388 h -0.97345 v -0.978388 z m -0.97345,0 V 21.0757 h 0.97345 v 0.968506 z m 0,-0.968506 v -0.993213 h 0.97345 V 21.0757 Z m 0,-3.962969 v -0.993213 h 0.97345 v 0.993213 z m 0,-0.993213 v -0.993213 h 0.97345 v 0.993213 z m 0,-0.993213 v -0.968506 h 0.97345 v 0.968506 z m -0.98827,-0.968506 v -0.993212 h 0.98827 v 0.993212 z m 0.98827,7.886407 v 0.978388 h -0.98827 v -0.978388 z m -0.98827,0 V 21.0757 h 0.98827 v 0.968506 z m 0,-0.968506 v -0.993213 h 0.98827 V 21.0757 Z m 0,-0.993213 v -0.988272 h 0.98827 v 0.988272 z m 0,-0.988272 v -0.993213 h 0.98827 v 0.993213 z m 0,-0.993213 v -0.988271 h 0.98827 v 0.988271 z m 0,-0.988271 v -0.993213 h 0.98827 v 0.993213 z m 0,-0.993213 v -0.993213 h 0.98827 v 0.993213 z m 0,-0.993213 v -0.968506 h 0.98827 v 0.968506 z m -0.99322,-0.968506 v -0.993212 h 0.99322 v 0.993212 z m 0.99322,7.886407 v 0.978388 h -0.99322 v -0.978388 z m -0.99322,0 V 21.0757 h 0.99322 v 0.968506 z m 0,-1.961719 v -0.988272 h 0.99322 v 0.988272 z m 0,-0.988272 v -0.993213 h 0.99322 v 0.993213 z m 0,-0.993213 v -0.988271 h 0.99322 v 0.988271 z m 0,-0.988271 v -0.993213 h 0.99322 v 0.993213 z m 0,-0.993213 v -0.993213 h 0.99322 v 0.993213 z m -0.98827,-1.961719 v -0.993212 h 0.98827 v 0.993212 z m 0.98827,7.886407 v 0.978388 h -0.98827 v -0.978388 z m -0.98827,0 V 21.0757 h 0.98827 v 0.968506 z m 0,-1.961719 v -0.988272 h 0.98827 v 0.988272 z m 0,-0.988272 v -0.993213 h 0.98827 v 0.993213 z m 0,-1.981484 v -0.993213 h 0.98827 v 0.993213 z m 0,-0.993213 v -0.993213 h 0.98827 v 0.993213 z m -0.99321,-1.961719 v -0.993212 h 0.99321 v 0.993212 z m 0.99321,7.886407 v 0.978388 h -0.99321 v -0.978388 z m -0.99321,0 V 21.0757 h 0.99321 v 0.968506 z m 0,-1.961719 v -0.988272 h 0.99321 v 0.988272 z m 0,-0.988272 v -0.993213 h 0.99321 v 0.993213 z m 0,-1.981484 v -0.993213 h 0.99321 v 0.993213 z m 0,-0.993213 v -0.993213 h 0.99321 v 0.993213 z m -0.99321,-1.961719 v -0.993212 h 0.99321 v 0.993212 z m 0.99321,7.886407 v 0.978388 h -0.99321 v -0.978388 z m -0.99321,0 V 21.0757 h 0.99321 v 0.968506 z m 0,-1.961719 v -0.988272 h 0.99321 v 0.988272 z m 0,-0.988272 v -0.993213 h 0.99321 v 0.993213 z m 0,-1.981484 v -0.993213 h 0.99321 v 0.993213 z m 0,-0.993213 v -0.993213 h 0.99321 v 0.993213 z m -0.96851,-1.961719 v -0.993212 h 0.96851 v 0.993212 z m 0.96851,7.886407 v 0.978388 h -0.96851 v -0.978388 z m -0.96851,0 V 21.0757 h 0.96851 v 0.968506 z m 0,-1.961719 v -0.988272 h 0.96851 v 0.988272 z m 0,-0.988272 v -0.993213 h 0.96851 v 0.993213 z m 0,-1.981484 v -0.993213 h 0.96851 v 0.993213 z m 0,-0.993213 v -0.993213 h 0.96851 v 0.993213 z m -0.99321,-1.961719 v -0.993212 h 0.99321 v 0.993212 z m 0.99321,7.886407 v 0.978388 h -0.99321 v -0.978388 z m -0.99321,0 V 21.0757 h 0.99321 v 0.968506 z m -0.98827,-7.886407 v -0.993212 h 0.98827 v 0.993212 z m 0.98827,7.886407 v 0.978388 h -0.98827 v -0.978388 z m -0.98827,0 V 21.0757 h 0.98827 v 0.968506 z m -0.99322,-7.886407 v -0.993212 h 0.99322 v 0.993212 z m 0,7.886407 V 21.0757 h 0.99322 v 0.968506 z m 0,-0.968506 v -0.993213 h 0.99322 V 21.0757 Z m 0,-0.993213 v -0.988272 h 0.99322 v 0.988272 z m 0,-0.988272 v -0.993213 h 0.99322 v 0.993213 z m 0,-0.993213 v -0.988271 h 0.99322 v 0.988271 z m 0,-0.988271 v -0.993213 h 0.99322 v 0.993213 z m 0,-0.993213 v -0.993213 h 0.99322 v 0.993213 z m 0,-0.993213 v -0.968506 h 0.99322 v 0.968506 z"
           id="path934" /><path
           style="-inkscape-font-specification:'Karmatic Arcade'"
           d="m 312.16993,32.424738 v -0.968506 h 0.97345 v 0.968506 z m 0,-0.968506 v -0.993213 h 0.97345 v 0.993213 z m 0,-0.993213 v -0.988272 h 0.97345 v 0.988272 z m 0,-1.981485 v -0.988271 h 0.97345 v 0.988271 z m 0,-0.988271 V 26.50005 h 0.97345 v 0.993213 z m 0,-0.993213 v -0.993213 h 0.97345 v 0.993213 z m 0,5.924688 v 0.978388 h -0.98827 v -0.978388 z m -0.98827,0 v -0.968506 h 0.98827 v 0.968506 z m 0,-0.968506 v -0.993213 h 0.98827 v 0.993213 z m 0,-0.993213 v -0.988272 h 0.98827 v 0.988272 z m 0,-0.988272 v -0.993213 h 0.98827 v 0.993213 z m 0,-0.993213 v -0.988271 h 0.98827 v 0.988271 z m 0,-0.988271 V 26.50005 h 0.98827 v 0.993213 z m 0,-0.993213 v -0.993213 h 0.98827 v 0.993213 z m 0,-0.993213 v -0.968506 h 0.98827 v 0.968506 z m -0.99321,-0.968506 v -0.993213 h 0.99321 v 0.993213 z m 0.99321,7.886407 v 0.978388 h -0.99321 v -0.978388 z m -0.99321,0 v -0.968506 h 0.99321 v 0.968506 z m 0,-0.968506 v -0.993213 h 0.99321 v 0.993213 z m 0,-1.981485 v -0.993213 h 0.99321 v 0.993213 z m 0,-0.993213 v -0.988271 h 0.99321 v 0.988271 z m 0,-0.988271 V 26.50005 h 0.99321 v 0.993213 z m 0,-1.986426 v -0.968506 h 0.99321 v 0.968506 z m -0.98828,-0.968506 v -0.993213 h 0.98828 v 0.993213 z m 0.98828,7.886407 v 0.978388 h -0.98828 v -0.978388 z m -0.98828,0 v -0.968506 h 0.98828 v 0.968506 z m 0,-2.949991 v -0.993213 h 0.98828 v 0.993213 z m 0,-0.993213 v -0.988271 h 0.98828 v 0.988271 z m 0,-0.988271 V 26.50005 h 0.98828 v 0.993213 z m -0.99321,-2.954932 v -0.993213 h 0.99321 v 0.993213 z m 0.99321,7.886407 v 0.978388 h -0.99321 v -0.978388 z m -0.99321,0 v -0.968506 h 0.99321 v 0.968506 z m 0,-1.961719 v -0.988272 h 0.99321 v 0.988272 z m 0,-0.988272 v -0.993213 h 0.99321 v 0.993213 z m 0,-0.993213 v -0.988271 h 0.99321 v 0.988271 z m 0,-0.988271 V 26.50005 h 0.99321 v 0.993213 z m 0,-0.993213 v -0.993213 h 0.99321 v 0.993213 z m -0.99321,-1.961719 v -0.993213 h 0.99321 v 0.993213 z m 0.99321,7.886407 v 0.978388 h -0.99321 v -0.978388 z m -0.99321,0 v -0.968506 h 0.99321 v 0.968506 z m 0,-1.961719 v -0.988272 h 0.99321 v 0.988272 z m 0,-0.988272 v -0.993213 h 0.99321 v 0.993213 z m 0,-0.993213 v -0.988271 h 0.99321 v 0.988271 z m 0,-0.988271 V 26.50005 h 0.99321 v 0.993213 z m 0,-0.993213 v -0.993213 h 0.99321 v 0.993213 z m -0.96851,-1.961719 v -0.993213 h 0.96851 v 0.993213 z m 0.96851,7.886407 v 0.978388 h -0.96851 v -0.978388 z m -0.96851,0 v -0.968506 h 0.96851 v 0.968506 z m 0,-1.961719 v -0.988272 h 0.96851 v 0.988272 z m 0,-0.988272 v -0.993213 h 0.96851 v 0.993213 z m 0,-0.993213 v -0.988271 h 0.96851 v 0.988271 z m 0,-0.988271 V 26.50005 h 0.96851 v 0.993213 z m 0,-0.993213 v -0.993213 h 0.96851 v 0.993213 z m -0.99321,-1.961719 v -0.993213 h 0.99321 v 0.993213 z m 0.99321,7.886407 v 0.978388 h -0.99321 v -0.978388 z m -0.99321,0 v -0.968506 h 0.99321 v 0.968506 z m -0.98827,-7.886407 v -0.993213 h 0.98827 v 0.993213 z m 0,7.886407 v -0.968506 h 0.98827 v 0.968506 z m 0,-0.968506 v -0.993213 h 0.98827 v 0.993213 z m 0,-5.949395 v -0.968506 h 0.98827 v 0.968506 z m -0.99322,5.949395 v -0.993213 h 0.99322 v 0.993213 z m 0,-0.993213 v -0.988272 h 0.99322 v 0.988272 z m 0,-0.988272 v -0.993213 h 0.99322 v 0.993213 z m 0,-0.993213 v -0.988271 h 0.99322 v 0.988271 z m 0,-0.988271 V 26.50005 h 0.99322 v 0.993213 z m 0,-0.993213 v -0.993213 h 0.99322 v 0.993213 z m 0,-0.993213 v -0.968506 h 0.99322 v 0.968506 z m 17.73552,6.917901 v -0.968506 h 0.97345 v 0.968506 z m 0,-0.968506 v -0.993213 h 0.97345 v 0.993213 z m 0,-0.993213 v -0.988272 h 0.97345 v 0.988272 z m 0,-0.988272 v -0.993213 h 0.97345 v 0.993213 z m 0,-0.993213 v -0.988271 h 0.97345 v 0.988271 z m 0,-0.988271 V 26.50005 h 0.97345 v 0.993213 z m 0,-0.993213 v -0.993213 h 0.97345 v 0.993213 z m 0,5.924688 v 0.978388 h -0.98827 v -0.978388 z m -0.98827,0 v -0.968506 h 0.98827 v 0.968506 z m 0,-0.968506 v -0.993213 h 0.98827 v 0.993213 z m 0,-0.993213 v -0.988272 h 0.98827 v 0.988272 z m 0,-0.988272 v -0.993213 h 0.98827 v 0.993213 z m 0,-0.993213 v -0.988271 h 0.98827 v 0.988271 z m 0,-0.988271 V 26.50005 h 0.98827 v 0.993213 z m 0,-0.993213 v -0.993213 h 0.98827 v 0.993213 z m 0,-0.993213 v -0.968506 h 0.98827 v 0.968506 z m -0.99321,-0.968506 v -0.993213 h 0.99321 v 0.993213 z m 0.99321,7.886407 v 0.978388 h -0.99321 v -0.978388 z m -0.99321,0 v -0.968506 h 0.99321 v 0.968506 z m 0,-0.968506 v -0.993213 h 0.99321 v 0.993213 z m 0,-5.949395 v -0.968506 h 0.99321 v 0.968506 z m -0.98827,-0.968506 v -0.993213 h 0.98827 v 0.993213 z m 0.98827,7.886407 v 0.978388 h -0.98827 v -0.978388 z m -0.98827,0 v -0.968506 h 0.98827 v 0.968506 z m -0.99321,-7.886407 v -0.993213 h 0.99321 v 0.993213 z m 0.99321,7.886407 v 0.978388 h -0.99321 v -0.978388 z m -0.99321,0 v -0.968506 h 0.99321 v 0.968506 z m 0,-1.961719 v -0.988272 h 0.99321 v 0.988272 z m 0,-0.988272 v -0.993213 h 0.99321 v 0.993213 z m 0,-0.993213 v -0.988271 h 0.99321 v 0.988271 z m 0,-0.988271 V 26.50005 h 0.99321 v 0.993213 z m 0,-0.993213 v -0.993213 h 0.99321 v 0.993213 z m -0.99322,-1.961719 v -0.993213 h 0.99322 v 0.993213 z m 0.99322,7.886407 v 0.978388 h -0.99322 v -0.978388 z m -0.99322,0 v -0.968506 h 0.99322 v 0.968506 z m 0,-1.961719 v -0.988272 h 0.99322 v 0.988272 z m 0,-0.988272 v -0.993213 h 0.99322 v 0.993213 z m 0,-0.993213 v -0.988271 h 0.99322 v 0.988271 z m 0,-0.988271 V 26.50005 h 0.99322 v 0.993213 z m 0,-0.993213 v -0.993213 h 0.99322 v 0.993213 z m -0.9685,-1.961719 v -0.993213 h 0.9685 v 0.993213 z m 0.9685,7.886407 v 0.978388 h -0.9685 v -0.978388 z m -0.9685,0 v -0.968506 h 0.9685 v 0.968506 z m 0,-1.961719 v -0.988272 h 0.9685 v 0.988272 z m 0,-0.988272 v -0.993213 h 0.9685 v 0.993213 z m 0,-0.993213 v -0.988271 h 0.9685 v 0.988271 z m 0,-0.988271 V 26.50005 h 0.9685 v 0.993213 z m 0,-0.993213 v -0.993213 h 0.9685 v 0.993213 z m -0.99322,-1.961719 v -0.993213 h 0.99322 v 0.993213 z m 0.99322,7.886407 v 0.978388 h -0.99322 v -0.978388 z m -0.99322,0 v -0.968506 h 0.99322 v 0.968506 z m -0.98827,-7.886407 v -0.993213 h 0.98827 v 0.993213 z m 0,7.886407 v -0.968506 h 0.98827 v 0.968506 z m 0,-0.968506 v -0.993213 h 0.98827 v 0.993213 z m 0,-5.949395 v -0.968506 h 0.98827 v 0.968506 z m -0.99321,5.949395 v -0.993213 h 0.99321 v 0.993213 z m 0,-0.993213 v -0.988272 h 0.99321 v 0.988272 z m 0,-0.988272 v -0.993213 h 0.99321 v 0.993213 z m 0,-0.993213 v -0.988271 h 0.99321 v 0.988271 z m 0,-0.988271 V 26.50005 h 0.99321 v 0.993213 z m 0,-0.993213 v -0.993213 h 0.99321 v 0.993213 z m 0,-0.993213 v -0.968506 h 0.99321 v 0.968506 z m 18.70897,6.917901 v 0.978388 h -0.97345 v -0.978388 z m -0.97345,0 v -0.968506 h 0.97345 v 0.968506 z m 0,-0.968506 v -0.993213 h 0.97345 v 0.993213 z m 0,-0.993213 v -0.988272 h 0.97345 v 0.988272 z m 0,-0.988272 v -0.993213 h 0.97345 v 0.993213 z m 0,-0.993213 v -0.988271 h 0.97345 v 0.988271 z m 0,-0.988271 V 26.50005 h 0.97345 v 0.993213 z m 0,-0.993213 v -0.993213 h 0.97345 v 0.993213 z m 0,-0.993213 v -0.968506 h 0.97345 v 0.968506 z m -0.98827,-0.968506 v -0.993213 h 0.98827 v 0.993213 z m 0.98827,7.886407 v 0.978388 h -0.98827 v -0.978388 z m -0.98827,0 v -0.968506 h 0.98827 v 0.968506 z m 0,-0.968506 v -0.993213 h 0.98827 v 0.993213 z m 0,-0.993213 v -0.988272 h 0.98827 v 0.988272 z m 0,-0.988272 v -0.993213 h 0.98827 v 0.993213 z m 0,-0.993213 v -0.988271 h 0.98827 v 0.988271 z m 0,-0.988271 V 26.50005 h 0.98827 v 0.993213 z m 0,-0.993213 v -0.993213 h 0.98827 v 0.993213 z m 0,-0.993213 v -0.968506 h 0.98827 v 0.968506 z m -0.99322,-0.968506 v -0.993213 h 0.99322 v 0.993213 z m 0.99322,7.886407 v 0.978388 h -0.99322 v -0.978388 z m -0.99322,0 v -0.968506 h 0.99322 v 0.968506 z m -0.98827,-7.886407 v -0.993213 h 0.98827 v 0.993213 z m 0.98827,7.886407 v 0.978388 h -0.98827 v -0.978388 z m -0.98827,0 v -0.968506 h 0.98827 v 0.968506 z m -0.99321,-7.886407 v -0.993213 h 0.99321 v 0.993213 z m 0,7.886407 v -0.968506 h 0.99321 v 0.968506 z m 0,-0.968506 v -0.993213 h 0.99321 v 0.993213 z m 0,-0.993213 v -0.988272 h 0.99321 v 0.988272 z m 0,-2.969756 V 26.50005 h 0.99321 v 0.993213 z m 0,-0.993213 v -0.993213 h 0.99321 v 0.993213 z m 0,-0.993213 v -0.968506 h 0.99321 v 0.968506 z m 0,6.917901 v 0.978388 h -0.99321 v -0.978388 z m -0.99321,0 v -0.968506 h 0.99321 v 0.968506 z m 0,-0.968506 v -0.993213 h 0.99321 v 0.993213 z m 0,-0.993213 v -0.988272 h 0.99321 v 0.988272 z m 0,-0.988272 v -0.993213 h 0.99321 v 0.993213 z m 0,-2.974697 v -0.993213 h 0.99321 v 0.993213 z m 0,-0.993213 v -0.968506 h 0.99321 v 0.968506 z m -0.96851,-0.968506 v -0.993213 h 0.96851 v 0.993213 z m 0.96851,7.886407 v 0.978388 h -0.96851 v -0.978388 z m -0.96851,0 v -0.968506 h 0.96851 v 0.968506 z m 0,-0.968506 v -0.993213 h 0.96851 v 0.993213 z m 0,-0.993213 v -0.988272 h 0.96851 v 0.988272 z m 0,-0.988272 v -0.993213 h 0.96851 v 0.993213 z m 0,-0.993213 v -0.988271 h 0.96851 v 0.988271 z m 0,-2.974697 v -0.968506 h 0.96851 v 0.968506 z m -0.99321,-0.968506 v -0.993213 h 0.99321 v 0.993213 z m 0.99321,7.886407 v 0.978388 h -0.99321 v -0.978388 z m -0.99321,0 v -0.968506 h 0.99321 v 0.968506 z m -0.98827,-7.886407 v -0.993213 h 0.98827 v 0.993213 z m 0.98827,7.886407 v 0.978388 h -0.98827 v -0.978388 z m -0.98827,0 v -0.968506 h 0.98827 v 0.968506 z m -0.99322,-7.886407 v -0.993213 h 0.99322 v 0.993213 z m 0,7.886407 v -0.968506 h 0.99322 v 0.968506 z m 0,-0.968506 v -0.993213 h 0.99322 v 0.993213 z m 0,-0.993213 v -0.988272 h 0.99322 v 0.988272 z m 0,-0.988272 v -0.993213 h 0.99322 v 0.993213 z m 0,-0.993213 v -0.988271 h 0.99322 v 0.988271 z m 0,-0.988271 V 26.50005 h 0.99322 v 0.993213 z m 0,-0.993213 v -0.993213 h 0.99322 v 0.993213 z m 0,-0.993213 v -0.968506 h 0.99322 v 0.968506 z m 18.70897,6.917901 v 0.978388 h -0.97345 v -0.978388 z m -0.97345,0 v -0.968506 h 0.97345 v 0.968506 z m 0,-0.968506 v -0.993213 h 0.97345 v 0.993213 z m 0,-0.993213 v -0.988272 h 0.97345 v 0.988272 z m 0,-0.988272 v -0.993213 h 0.97345 v 0.993213 z m 0,-0.993213 v -0.988271 h 0.97345 v 0.988271 z m 0,-0.988271 V 26.50005 h 0.97345 v 0.993213 z m 0,-0.993213 v -0.993213 h 0.97345 v 0.993213 z m 0,-0.993213 v -0.968506 h 0.97345 v 0.968506 z m -0.98827,-0.968506 v -0.993213 h 0.98827 v 0.993213 z m 0.98827,7.886407 v 0.978388 h -0.98827 v -0.978388 z m -0.98827,0 v -0.968506 h 0.98827 v 0.968506 z m 0,-0.968506 v -0.993213 h 0.98827 v 0.993213 z m 0,-0.993213 v -0.988272 h 0.98827 v 0.988272 z m 0,-0.988272 v -0.993213 h 0.98827 v 0.993213 z m 0,-0.993213 v -0.988271 h 0.98827 v 0.988271 z m 0,-0.988271 V 26.50005 h 0.98827 v 0.993213 z m 0,-0.993213 v -0.993213 h 0.98827 v 0.993213 z m 0,-0.993213 v -0.968506 h 0.98827 v 0.968506 z m -0.99321,-0.968506 v -0.993213 h 0.99321 v 0.993213 z m 0.99321,7.886407 v 0.978388 h -0.99321 v -0.978388 z m -0.99321,0 v -0.968506 h 0.99321 v 0.968506 z m -0.98827,-7.886407 v -0.993213 h 0.98827 v 0.993213 z m 0.98827,7.886407 v 0.978388 h -0.98827 v -0.978388 z m -0.98827,0 v -0.968506 h 0.98827 v 0.968506 z m -0.99322,-7.886407 v -0.993213 h 0.99322 v 0.993213 z m 0,7.886407 v -0.968506 h 0.99322 v 0.968506 z m 0,-0.968506 v -0.993213 h 0.99322 v 0.993213 z m 0,-0.993213 v -0.988272 h 0.99322 v 0.988272 z m 0,-2.969756 V 26.50005 h 0.99322 v 0.993213 z m 0,-0.993213 v -0.993213 h 0.99322 v 0.993213 z m 0,-0.993213 v -0.968506 h 0.99322 v 0.968506 z m 0,6.917901 v 0.978388 h -0.99321 v -0.978388 z m -0.99321,0 v -0.968506 h 0.99321 v 0.968506 z m 0,-0.968506 v -0.993213 h 0.99321 v 0.993213 z m 0,-0.993213 v -0.988272 h 0.99321 v 0.988272 z m 0,-0.988272 v -0.993213 h 0.99321 v 0.993213 z m 0,-2.974697 v -0.993213 h 0.99321 v 0.993213 z m 0,-0.993213 v -0.968506 h 0.99321 v 0.968506 z m -0.9685,-0.968506 v -0.993213 h 0.9685 v 0.993213 z m 0.9685,7.886407 v 0.978388 h -0.9685 v -0.978388 z m -0.9685,0 v -0.968506 h 0.9685 v 0.968506 z m 0,-0.968506 v -0.993213 h 0.9685 v 0.993213 z m 0,-0.993213 v -0.988272 h 0.9685 v 0.988272 z m 0,-0.988272 v -0.993213 h 0.9685 v 0.993213 z m 0,-0.993213 v -0.988271 h 0.9685 v 0.988271 z m 0,-2.974697 v -0.968506 h 0.9685 v 0.968506 z m -0.99322,-0.968506 v -0.993213 h 0.99322 v 0.993213 z m 0.99322,7.886407 v 0.978388 h -0.99322 v -0.978388 z m -0.99322,0 v -0.968506 h 0.99322 v 0.968506 z m -0.98827,-7.886407 v -0.993213 h 0.98827 v 0.993213 z m 0.98827,7.886407 v 0.978388 h -0.98827 v -0.978388 z m -0.98827,0 v -0.968506 h 0.98827 v 0.968506 z m -0.99321,-7.886407 v -0.993213 h 0.99321 v 0.993213 z m 0,7.886407 v -0.968506 h 0.99321 v 0.968506 z m 0,-0.968506 v -0.993213 h 0.99321 v 0.993213 z m 0,-0.993213 v -0.988272 h 0.99321 v 0.988272 z m 0,-0.988272 v -0.993213 h 0.99321 v 0.993213 z m 0,-0.993213 v -0.988271 h 0.99321 v 0.988271 z m 0,-0.988271 V 26.50005 h 0.99321 v 0.993213 z m 0,-0.993213 v -0.993213 h 0.99321 v 0.993213 z m 0,-0.993213 v -0.968506 h 0.99321 v 0.968506 z m 18.70897,6.917901 v 0.978388 h -0.97345 v -0.978388 z m -0.97345,0 v -0.968506 h 0.97345 v 0.968506 z m 0,-0.968506 v -0.993213 h 0.97345 v 0.993213 z m 0,-3.962969 V 26.50005 h 0.97345 v 0.993213 z m 0,-0.993213 v -0.993213 h 0.97345 v 0.993213 z m 0,-0.993213 v -0.968506 h 0.97345 v 0.968506 z m -0.98827,-0.968506 v -0.993213 h 0.98827 v 0.993213 z m 0.98827,7.886407 v 0.978388 h -0.98827 v -0.978388 z m -0.98827,0 v -0.968506 h 0.98827 v 0.968506 z m 0,-0.968506 v -0.993213 h 0.98827 v 0.993213 z m 0,-0.993213 v -0.988272 h 0.98827 v 0.988272 z m 0,-0.988272 v -0.993213 h 0.98827 v 0.993213 z m 0,-0.993213 v -0.988271 h 0.98827 v 0.988271 z m 0,-0.988271 V 26.50005 h 0.98827 v 0.993213 z m 0,-0.993213 v -0.993213 h 0.98827 v 0.993213 z m 0,-0.993213 v -0.968506 h 0.98827 v 0.968506 z m -0.99322,-0.968506 v -0.993213 h 0.99322 v 0.993213 z m 0.99322,7.886407 v 0.978388 h -0.99322 v -0.978388 z m -0.99322,0 v -0.968506 h 0.99322 v 0.968506 z m 0,-1.961719 v -0.988272 h 0.99322 v 0.988272 z m 0,-0.988272 v -0.993213 h 0.99322 v 0.993213 z m 0,-0.993213 v -0.988271 h 0.99322 v 0.988271 z m 0,-0.988271 V 26.50005 h 0.99322 v 0.993213 z m 0,-0.993213 v -0.993213 h 0.99322 v 0.993213 z m -0.98827,-1.961719 v -0.993213 h 0.98827 v 0.993213 z m 0.98827,7.886407 v 0.978388 h -0.98827 v -0.978388 z m -0.98827,0 v -0.968506 h 0.98827 v 0.968506 z m 0,-1.961719 v -0.988272 h 0.98827 v 0.988272 z m 0,-0.988272 v -0.993213 h 0.98827 v 0.993213 z m 0,-1.981484 V 26.50005 h 0.98827 v 0.993213 z m 0,-0.993213 v -0.993213 h 0.98827 v 0.993213 z m -0.99321,-1.961719 v -0.993213 h 0.99321 v 0.993213 z m 0.99321,7.886407 v 0.978388 h -0.99321 v -0.978388 z m -0.99321,0 v -0.968506 h 0.99321 v 0.968506 z m 0,-1.961719 v -0.988272 h 0.99321 v 0.988272 z m 0,-0.988272 v -0.993213 h 0.99321 v 0.993213 z m 0,-1.981484 V 26.50005 h 0.99321 v 0.993213 z m 0,-0.993213 v -0.993213 h 0.99321 v 0.993213 z m -0.99321,-1.961719 v -0.993213 h 0.99321 v 0.993213 z m 0.99321,7.886407 v 0.978388 h -0.99321 v -0.978388 z m -0.99321,0 v -0.968506 h 0.99321 v 0.968506 z m 0,-1.961719 v -0.988272 h 0.99321 v 0.988272 z m 0,-0.988272 v -0.993213 h 0.99321 v 0.993213 z m 0,-1.981484 V 26.50005 h 0.99321 v 0.993213 z m 0,-0.993213 v -0.993213 h 0.99321 v 0.993213 z m -0.96851,-1.961719 v -0.993213 h 0.96851 v 0.993213 z m 0.96851,7.886407 v 0.978388 h -0.96851 v -0.978388 z m -0.96851,0 v -0.968506 h 0.96851 v 0.968506 z m 0,-1.961719 v -0.988272 h 0.96851 v 0.988272 z m 0,-0.988272 v -0.993213 h 0.96851 v 0.993213 z m 0,-1.981484 V 26.50005 h 0.96851 v 0.993213 z m 0,-0.993213 v -0.993213 h 0.96851 v 0.993213 z m -0.99321,-1.961719 v -0.993213 h 0.99321 v 0.993213 z m 0.99321,7.886407 v 0.978388 h -0.99321 v -0.978388 z m -0.99321,0 v -0.968506 h 0.99321 v 0.968506 z m -0.98827,-7.886407 v -0.993213 h 0.98827 v 0.993213 z m 0.98827,7.886407 v 0.978388 h -0.98827 v -0.978388 z m -0.98827,0 v -0.968506 h 0.98827 v 0.968506 z m -0.99322,-7.886407 v -0.993213 h 0.99322 v 0.993213 z m 0,7.886407 v -0.968506 h 0.99322 v 0.968506 z m 0,-0.968506 v -0.993213 h 0.99322 v 0.993213 z m 0,-0.993213 v -0.988272 h 0.99322 v 0.988272 z m 0,-0.988272 v -0.993213 h 0.99322 v 0.993213 z m 0,-0.993213 v -0.988271 h 0.99322 v 0.988271 z m 0,-0.988271 V 26.50005 h 0.99322 v 0.993213 z m 0,-0.993213 v -0.993213 h 0.99322 v 0.993213 z m 0,-0.993213 v -0.968506 h 0.99322 v 0.968506 z m 17.73552,6.917901 v -0.968506 h 0.97345 v 0.968506 z m 0,-0.968506 v -0.993213 h 0.97345 v 0.993213 z m 0,-0.993213 v -0.988272 h 0.97345 v 0.988272 z m 0,-1.981485 v -0.988271 h 0.97345 v 0.988271 z m 0,-0.988271 V 26.50005 h 0.97345 v 0.993213 z m 0,-0.993213 v -0.993213 h 0.97345 v 0.993213 z m 0,5.924688 v 0.978388 h -0.98827 v -0.978388 z m -0.98827,0 v -0.968506 h 0.98827 v 0.968506 z m 0,-0.968506 v -0.993213 h 0.98827 v 0.993213 z m 0,-0.993213 v -0.988272 h 0.98827 v 0.988272 z m 0,-0.988272 v -0.993213 h 0.98827 v 0.993213 z m 0,-0.993213 v -0.988271 h 0.98827 v 0.988271 z m 0,-0.988271 V 26.50005 h 0.98827 v 0.993213 z m 0,-0.993213 v -0.993213 h 0.98827 v 0.993213 z m 0,-0.993213 v -0.968506 h 0.98827 v 0.968506 z m -0.99321,-0.968506 v -0.993213 h 0.99321 v 0.993213 z m 0.99321,7.886407 v 0.978388 h -0.99321 v -0.978388 z m -0.99321,0 v -0.968506 h 0.99321 v 0.968506 z m 0,-0.968506 v -0.993213 h 0.99321 v 0.993213 z m 0,-1.981485 v -0.993213 h 0.99321 v 0.993213 z m 0,-0.993213 v -0.988271 h 0.99321 v 0.988271 z m 0,-0.988271 V 26.50005 h 0.99321 v 0.993213 z m 0,-1.986426 v -0.968506 h 0.99321 v 0.968506 z m -0.98827,-0.968506 v -0.993213 h 0.98827 v 0.993213 z m 0.98827,7.886407 v 0.978388 h -0.98827 v -0.978388 z m -0.98827,0 v -0.968506 h 0.98827 v 0.968506 z m 0,-2.949991 v -0.993213 h 0.98827 v 0.993213 z m 0,-0.993213 v -0.988271 h 0.98827 v 0.988271 z m 0,-0.988271 V 26.50005 h 0.98827 v 0.993213 z m -0.99321,-2.954932 v -0.993213 h 0.99321 v 0.993213 z m 0.99321,7.886407 v 0.978388 h -0.99321 v -0.978388 z m -0.99321,0 v -0.968506 h 0.99321 v 0.968506 z m 0,-1.961719 v -0.988272 h 0.99321 v 0.988272 z m 0,-0.988272 v -0.993213 h 0.99321 v 0.993213 z m 0,-0.993213 v -0.988271 h 0.99321 v 0.988271 z m 0,-0.988271 V 26.50005 h 0.99321 v 0.993213 z m 0,-0.993213 v -0.993213 h 0.99321 v 0.993213 z m -0.99322,-1.961719 v -0.993213 h 0.99322 v 0.993213 z m 0.99322,7.886407 v 0.978388 h -0.99322 v -0.978388 z m -0.99322,0 v -0.968506 h 0.99322 v 0.968506 z m 0,-1.961719 v -0.988272 h 0.99322 v 0.988272 z m 0,-0.988272 v -0.993213 h 0.99322 v 0.993213 z m 0,-0.993213 v -0.988271 h 0.99322 v 0.988271 z m 0,-0.988271 V 26.50005 h 0.99322 v 0.993213 z m 0,-0.993213 v -0.993213 h 0.99322 v 0.993213 z m -0.9685,-1.961719 v -0.993213 h 0.9685 v 0.993213 z m 0.9685,7.886407 v 0.978388 h -0.9685 v -0.978388 z m -0.9685,0 v -0.968506 h 0.9685 v 0.968506 z m 0,-1.961719 v -0.988272 h 0.9685 v 0.988272 z m 0,-0.988272 v -0.993213 h 0.9685 v 0.993213 z m 0,-0.993213 v -0.988271 h 0.9685 v 0.988271 z m 0,-0.988271 V 26.50005 h 0.9685 v 0.993213 z m 0,-0.993213 v -0.993213 h 0.9685 v 0.993213 z m -0.99322,-1.961719 v -0.993213 h 0.99322 v 0.993213 z m 0.99322,7.886407 v 0.978388 h -0.99322 v -0.978388 z m -0.99322,0 v -0.968506 h 0.99322 v 0.968506 z m -0.98827,-7.886407 v -0.993213 h 0.98827 v 0.993213 z m 0,7.886407 v -0.968506 h 0.98827 v 0.968506 z m 0,-0.968506 v -0.993213 h 0.98827 v 0.993213 z m 0,-5.949395 v -0.968506 h 0.98827 v 0.968506 z m -0.99321,5.949395 v -0.993213 h 0.99321 v 0.993213 z m 0,-0.993213 v -0.988272 h 0.99321 v 0.988272 z m 0,-0.988272 v -0.993213 h 0.99321 v 0.993213 z m 0,-0.993213 v -0.988271 h 0.99321 v 0.988271 z m 0,-0.988271 V 26.50005 h 0.99321 v 0.993213 z m 0,-0.993213 v -0.993213 h 0.99321 v 0.993213 z m 0,-0.993213 v -0.968506 h 0.99321 v 0.968506 z m 16.74725,1.986426 V 26.50005 h 0.98827 v 0.993213 z m 0,-0.993213 v -0.993213 h 0.98827 v 0.993213 z m 0,-0.993213 v -0.968506 h 0.98827 v 0.968506 z m -0.99322,-0.968506 v -0.993213 h 0.99322 v 0.993213 z m 0,2.954932 V 26.50005 h 0.99322 v 0.993213 z m 0,-0.993213 v -0.993213 h 0.99322 v 0.993213 z m 0,-0.993213 v -0.968506 h 0.99322 v 0.968506 z m -0.98827,-0.968506 v -0.993213 h 0.98827 v 0.993213 z m 0.98827,7.886407 v 0.978388 h -0.98827 v -0.978388 z m -0.98827,0 v -0.968506 h 0.98827 v 0.968506 z m 0,-0.968506 v -0.993213 h 0.98827 v 0.993213 z m 0,-0.993213 v -0.988272 h 0.98827 v 0.988272 z m 0,-0.988272 v -0.993213 h 0.98827 v 0.993213 z m 0,-0.993213 v -0.988271 h 0.98827 v 0.988271 z m 0,-0.988271 V 26.50005 h 0.98827 v 0.993213 z m 0,-0.993213 v -0.993213 h 0.98827 v 0.993213 z m -0.99321,-1.961719 v -0.993213 h 0.99321 v 0.993213 z m 0.99321,7.886407 v 0.978388 h -0.99321 v -0.978388 z m -0.99321,0 v -0.968506 h 0.99321 v 0.968506 z m 0,-0.968506 v -0.993213 h 0.99321 v 0.993213 z m 0,-0.993213 v -0.988272 h 0.99321 v 0.988272 z m 0,-0.988272 v -0.993213 h 0.99321 v 0.993213 z m 0,-0.993213 v -0.988271 h 0.99321 v 0.988271 z m 0,-0.988271 V 26.50005 h 0.99321 v 0.993213 z m 0,-0.993213 v -0.993213 h 0.99321 v 0.993213 z m -0.99321,-1.961719 v -0.993213 h 0.99321 v 0.993213 z m 0.99321,7.886407 v 0.978388 h -0.99321 v -0.978388 z m -0.99321,0 v -0.968506 h 0.99321 v 0.968506 z m -0.96851,-7.886407 v -0.993213 h 0.96851 v 0.993213 z m 0.96851,7.886407 v 0.978388 h -0.96851 v -0.978388 z m -0.96851,0 v -0.968506 h 0.96851 v 0.968506 z m -0.99321,-7.886407 v -0.993213 h 0.99321 v 0.993213 z m 0,7.886407 v -0.968506 h 0.99321 v 0.968506 z m 0,-0.968506 v -0.993213 h 0.99321 v 0.993213 z m 0,-0.993213 v -0.988272 h 0.99321 v 0.988272 z m 0,-0.988272 v -0.993213 h 0.99321 v 0.993213 z m 0,-0.993213 v -0.988271 h 0.99321 v 0.988271 z m 0,-0.988271 V 26.50005 h 0.99321 v 0.993213 z m 0,-0.993213 v -0.993213 h 0.99321 v 0.993213 z m -0.98827,-1.961719 v -0.993213 h 0.98827 v 0.993213 z m 0,1.961719 v -0.993213 h 0.98827 v 0.993213 z m -0.99322,-1.961719 v -0.993213 h 0.99322 v 0.993213 z m 0,1.961719 v -0.993213 h 0.99322 v 0.993213 z m 0,-0.993213 v -0.968506 h 0.99322 v 0.968506 z"
           id="path935" /><path
           style="-inkscape-font-specification:'Karmatic Arcade'"
           d="m 318.51809,42.805269 v 0.978389 h -0.97345 v -0.978389 z m -0.97345,0 v -0.968506 h 0.97345 v 0.968506 z m 0,-0.968506 v -0.993212 h 0.97345 v 0.993212 z m 0,-0.993212 v -0.988272 h 0.97345 v 0.988272 z m 0,-0.988272 v -0.993213 h 0.97345 v 0.993213 z m 0,-0.993213 v -0.988271 h 0.97345 v 0.988271 z m 0,-0.988271 v -0.993213 h 0.97345 v 0.993213 z m 0,-0.993213 v -0.993213 h 0.97345 v 0.993213 z m 0,-0.993213 v -0.968506 h 0.97345 v 0.968506 z m -0.98827,-0.968506 V 33.92565 h 0.98827 v 0.993213 z m 0.98827,7.886406 v 0.978389 h -0.98827 v -0.978389 z m -0.98827,0 v -0.968506 h 0.98827 v 0.968506 z m 0,-0.968506 v -0.993212 h 0.98827 v 0.993212 z m 0,-0.993212 v -0.988272 h 0.98827 v 0.988272 z m 0,-0.988272 v -0.993213 h 0.98827 v 0.993213 z m 0,-0.993213 v -0.988271 h 0.98827 v 0.988271 z m 0,-0.988271 v -0.993213 h 0.98827 v 0.993213 z m 0,-0.993213 v -0.993213 h 0.98827 v 0.993213 z m 0,-0.993213 v -0.968506 h 0.98827 v 0.968506 z m -0.99321,-0.968506 V 33.92565 h 0.99321 v 0.993213 z m 0.99321,7.886406 v 0.978389 h -0.99321 v -0.978389 z m -0.99321,0 v -0.968506 h 0.99321 v 0.968506 z m -0.98827,-7.886406 V 33.92565 h 0.98827 v 0.993213 z m 0.98827,7.886406 v 0.978389 h -0.98827 v -0.978389 z m -0.98827,0 v -0.968506 h 0.98827 v 0.968506 z m -0.99322,-7.886406 V 33.92565 h 0.99322 v 0.993213 z m 0,7.886406 v -0.968506 h 0.99322 v 0.968506 z m 0,-0.968506 v -0.993212 h 0.99322 v 0.993212 z m 0,-2.974697 v -0.988271 h 0.99322 v 0.988271 z m 0,-0.988271 v -0.993213 h 0.99322 v 0.993213 z m 0,-0.993213 v -0.993213 h 0.99322 v 0.993213 z m 0,-0.993213 v -0.968506 h 0.99322 v 0.968506 z m 0,6.9179 v 0.978389 h -0.99321 v -0.978389 z m -0.99321,0 v -0.968506 h 0.99321 v 0.968506 z m 0,-0.968506 v -0.993212 h 0.99321 v 0.993212 z m 0,-0.993212 v -0.988272 h 0.99321 v 0.988272 z m 0,-2.969756 v -0.993213 h 0.99321 v 0.993213 z m 0,-0.993213 v -0.993213 h 0.99321 v 0.993213 z m 0,-0.993213 v -0.968506 h 0.99321 v 0.968506 z m -0.9685,-0.968506 V 33.92565 h 0.9685 v 0.993213 z m 0.9685,7.886406 v 0.978389 h -0.9685 v -0.978389 z m -0.9685,0 v -0.968506 h 0.9685 v 0.968506 z m 0,-0.968506 v -0.993212 h 0.9685 v 0.993212 z m 0,-2.974697 v -0.988271 h 0.9685 v 0.988271 z m 0,-0.988271 v -0.993213 h 0.9685 v 0.993213 z m 0,-0.993213 v -0.993213 h 0.9685 v 0.993213 z m 0,-0.993213 v -0.968506 h 0.9685 v 0.968506 z m -0.99322,-0.968506 V 33.92565 h 0.99322 v 0.993213 z m 0.99322,7.886406 v 0.978389 h -0.99322 v -0.978389 z m -0.99322,0 v -0.968506 h 0.99322 v 0.968506 z m -0.98827,-7.886406 V 33.92565 h 0.98827 v 0.993213 z m 0.98827,7.886406 v 0.978389 h -0.98827 v -0.978389 z m -0.98827,0 v -0.968506 h 0.98827 v 0.968506 z m -0.99321,-7.886406 V 33.92565 h 0.99321 v 0.993213 z m 0,7.886406 v -0.968506 h 0.99321 v 0.968506 z m 0,-0.968506 v -0.993212 h 0.99321 v 0.993212 z m 0,-0.993212 v -0.988272 h 0.99321 v 0.988272 z m 0,-0.988272 v -0.993213 h 0.99321 v 0.993213 z m 0,-0.993213 v -0.988271 h 0.99321 v 0.988271 z m 0,-0.988271 v -0.993213 h 0.99321 v 0.993213 z m 0,-0.993213 v -0.993213 h 0.99321 v 0.993213 z m 0,-0.993213 v -0.968506 h 0.99321 v 0.968506 z m 18.70897,6.9179 v 0.978389 h -0.97345 v -0.978389 z m -0.97345,0 v -0.968506 h 0.97345 v 0.968506 z m 0,-0.968506 v -0.993212 h 0.97345 v 0.993212 z m 0,-0.993212 v -0.988272 h 0.97345 v 0.988272 z m 0,-0.988272 v -0.993213 h 0.97345 v 0.993213 z m 0,-0.993213 v -0.988271 h 0.97345 v 0.988271 z m 0,-0.988271 v -0.993213 h 0.97345 v 0.993213 z m 0,-0.993213 v -0.993213 h 0.97345 v 0.993213 z m 0,5.924687 v 0.978389 h -0.98827 v -0.978389 z m -0.98827,0 v -0.968506 h 0.98827 v 0.968506 z m 0,-0.968506 v -0.993212 h 0.98827 v 0.993212 z m 0,-0.993212 v -0.988272 h 0.98827 v 0.988272 z m 0,-0.988272 v -0.993213 h 0.98827 v 0.993213 z m 0,-0.993213 v -0.988271 h 0.98827 v 0.988271 z m 0,-0.988271 v -0.993213 h 0.98827 v 0.993213 z m 0,-0.993213 v -0.993213 h 0.98827 v 0.993213 z m 0,-0.993213 v -0.968506 h 0.98827 v 0.968506 z m -0.99322,-0.968506 V 33.92565 h 0.99322 v 0.993213 z m 0.99322,7.886406 v 0.978389 h -0.99322 v -0.978389 z m -0.99322,0 v -0.968506 h 0.99322 v 0.968506 z m 0,-6.9179 v -0.968506 h 0.99322 v 0.968506 z m -0.98827,-0.968506 V 33.92565 h 0.98827 v 0.993213 z m 0.98827,7.886406 v 0.978389 h -0.98827 v -0.978389 z m -0.98827,0 v -0.968506 h 0.98827 v 0.968506 z m -0.99321,-7.886406 V 33.92565 h 0.99321 v 0.993213 z m 0,7.886406 v -0.968506 h 0.99321 v 0.968506 z m 0,-0.968506 v -0.993212 h 0.99321 v 0.993212 z m 0,-0.993212 v -0.988272 h 0.99321 v 0.988272 z m 0,-1.981485 v -0.988271 h 0.99321 v 0.988271 z m 0,-0.988271 v -0.993213 h 0.99321 v 0.993213 z m 0,-0.993213 v -0.993213 h 0.99321 v 0.993213 z M 321.4246,34.918863 V 33.92565 h 0.99321 v 0.993213 z m 0.99321,7.886406 v 0.978389 h -0.99321 v -0.978389 z m -0.99321,0 v -0.968506 h 0.99321 v 0.968506 z m 0,-0.968506 v -0.993212 h 0.99321 v 0.993212 z m 0,-0.993212 v -0.988272 h 0.99321 v 0.988272 z m 0,-1.981485 v -0.988271 h 0.99321 v 0.988271 z m 0,-0.988271 v -0.993213 h 0.99321 v 0.993213 z m 0,-0.993213 v -0.993213 h 0.99321 v 0.993213 z m -0.96851,-1.961719 V 33.92565 h 0.96851 v 0.993213 z m 0.96851,7.886406 v 0.978389 h -0.96851 v -0.978389 z m -0.96851,0 v -0.968506 h 0.96851 v 0.968506 z m 0,-0.968506 v -0.993212 h 0.96851 v 0.993212 z m 0,-0.993212 v -0.988272 h 0.96851 v 0.988272 z m 0,-1.981485 v -0.988271 h 0.96851 v 0.988271 z m 0,-0.988271 v -0.993213 h 0.96851 v 0.993213 z m 0,-0.993213 v -0.993213 h 0.96851 v 0.993213 z m -0.99321,-1.961719 V 33.92565 h 0.99321 v 0.993213 z m 0.99321,7.886406 v 0.978389 h -0.99321 v -0.978389 z m -0.99321,0 v -0.968506 h 0.99321 v 0.968506 z m -0.98827,-7.886406 V 33.92565 h 0.98827 v 0.993213 z m 0.98827,7.886406 v 0.978389 h -0.98827 v -0.978389 z m -0.98827,0 v -0.968506 h 0.98827 v 0.968506 z m 0,-6.9179 v -0.968506 h 0.98827 v 0.968506 z m -0.99322,6.9179 v -0.968506 h 0.99322 v 0.968506 z m 0,-0.968506 v -0.993212 h 0.99322 v 0.993212 z m 0,-0.993212 v -0.988272 h 0.99322 v 0.988272 z m 0,-0.988272 v -0.993213 h 0.99322 v 0.993213 z m 0,-0.993213 v -0.988271 h 0.99322 v 0.988271 z m 0,-0.988271 v -0.993213 h 0.99322 v 0.993213 z m 0,-0.993213 v -0.993213 h 0.99322 v 0.993213 z m 0,-0.993213 v -0.968506 h 0.99322 v 0.968506 z m 17.73552,6.9179 v 0.978389 h -0.98827 v -0.978389 z m -0.98827,0 v -0.968506 h 0.98827 v 0.968506 z m 0,-0.968506 v -0.993212 h 0.98827 v 0.993212 z m 0,0.968506 v 0.978389 h -0.99321 v -0.978389 z m -0.99321,0 v -0.968506 h 0.99321 v 0.968506 z m 0,-0.968506 v -0.993212 h 0.99321 v 0.993212 z m 0,-0.993212 v -0.988272 h 0.99321 v 0.988272 z m 0,1.961718 v 0.978389 h -0.98827 v -0.978389 z m -0.98827,0 v -0.968506 h 0.98827 v 0.968506 z m 0,-1.961718 v -0.988272 h 0.98827 v 0.988272 z m 0,1.961718 v 0.978389 h -0.99322 v -0.978389 z m -0.99322,0 v -0.968506 h 0.99322 v 0.968506 z m 0,-1.961718 v -0.988272 h 0.99322 v 0.988272 z m 0,1.961718 v 0.978389 h -0.99321 v -0.978389 z m -0.99321,0 v -0.968506 h 0.99321 v 0.968506 z m 0,-1.961718 v -0.988272 h 0.99321 v 0.988272 z m 0,-0.988272 v -0.993213 h 0.99321 v 0.993213 z m 0,-0.993213 v -0.988271 h 0.99321 v 0.988271 z m 0,-0.988271 v -0.993213 h 0.99321 v 0.993213 z m 0,-0.993213 v -0.993213 h 0.99321 v 0.993213 z m 0,-0.993213 v -0.968506 h 0.99321 v 0.968506 z m -0.9685,-0.968506 V 33.92565 h 0.9685 v 0.993213 z m 0.9685,7.886406 v 0.978389 h -0.9685 v -0.978389 z m -0.9685,0 v -0.968506 h 0.9685 v 0.968506 z m 0,-1.961718 v -0.988272 h 0.9685 v 0.988272 z m 0,-0.988272 v -0.993213 h 0.9685 v 0.993213 z m 0,-0.993213 v -0.988271 h 0.9685 v 0.988271 z m 0,-0.988271 v -0.993213 h 0.9685 v 0.993213 z m 0,-0.993213 v -0.993213 h 0.9685 v 0.993213 z m 0,-0.993213 v -0.968506 h 0.9685 v 0.968506 z m -0.99322,-0.968506 V 33.92565 h 0.99322 v 0.993213 z m 0.99322,7.886406 v 0.978389 h -0.99322 v -0.978389 z m -0.99322,0 v -0.968506 h 0.99322 v 0.968506 z m -0.98827,-7.886406 V 33.92565 h 0.98827 v 0.993213 z m 0.98827,7.886406 v 0.978389 h -0.98827 v -0.978389 z m -0.98827,0 v -0.968506 h 0.98827 v 0.968506 z m -0.99321,-7.886406 V 33.92565 h 0.99321 v 0.993213 z m 0,7.886406 v -0.968506 h 0.99321 v 0.968506 z m 0,-0.968506 v -0.993212 h 0.99321 v 0.993212 z m 0,-0.993212 v -0.988272 h 0.99321 v 0.988272 z m 0,-0.988272 v -0.993213 h 0.99321 v 0.993213 z m 0,-0.993213 v -0.988271 h 0.99321 v 0.988271 z m 0,-0.988271 v -0.993213 h 0.99321 v 0.993213 z m 0,-0.993213 v -0.993213 h 0.99321 v 0.993213 z m 0,-0.993213 v -0.968506 h 0.99321 v 0.968506 z m 16.74725,6.9179 v 0.978389 h -0.98827 v -0.978389 z m -0.98827,0 v -0.968506 h 0.98827 v 0.968506 z m 0,-0.968506 v -0.993212 h 0.98827 v 0.993212 z m 0,0.968506 v 0.978389 h -0.99322 v -0.978389 z m -0.99322,0 v -0.968506 h 0.99322 v 0.968506 z m 0,-0.968506 v -0.993212 h 0.99322 v 0.993212 z m 0,-0.993212 v -0.988272 h 0.99322 v 0.988272 z m 0,1.961718 v 0.978389 h -0.98827 v -0.978389 z m -0.98827,0 v -0.968506 h 0.98827 v 0.968506 z m 0,-1.961718 v -0.988272 h 0.98827 v 0.988272 z m 0,1.961718 v 0.978389 h -0.99321 v -0.978389 z m -0.99321,0 v -0.968506 h 0.99321 v 0.968506 z m 0,-1.961718 v -0.988272 h 0.99321 v 0.988272 z m 0,1.961718 v 0.978389 h -0.99321 v -0.978389 z m -0.99321,0 v -0.968506 h 0.99321 v 0.968506 z m 0,-1.961718 v -0.988272 h 0.99321 v 0.988272 z m 0,-0.988272 v -0.993213 h 0.99321 v 0.993213 z m 0,-0.993213 v -0.988271 h 0.99321 v 0.988271 z m 0,-0.988271 v -0.993213 h 0.99321 v 0.993213 z m 0,-0.993213 v -0.993213 h 0.99321 v 0.993213 z m 0,-0.993213 v -0.968506 h 0.99321 v 0.968506 z m -0.96851,-0.968506 V 33.92565 h 0.96851 v 0.993213 z m 0.96851,7.886406 v 0.978389 h -0.96851 v -0.978389 z m -0.96851,0 v -0.968506 h 0.96851 v 0.968506 z m 0,-1.961718 v -0.988272 h 0.96851 v 0.988272 z m 0,-0.988272 v -0.993213 h 0.96851 v 0.993213 z m 0,-0.993213 v -0.988271 h 0.96851 v 0.988271 z m 0,-0.988271 v -0.993213 h 0.96851 v 0.993213 z m 0,-0.993213 v -0.993213 h 0.96851 v 0.993213 z m 0,-0.993213 v -0.968506 h 0.96851 v 0.968506 z m -0.99321,-0.968506 V 33.92565 h 0.99321 v 0.993213 z m 0.99321,7.886406 v 0.978389 h -0.99321 v -0.978389 z m -0.99321,0 v -0.968506 h 0.99321 v 0.968506 z m -0.98827,-7.886406 V 33.92565 h 0.98827 v 0.993213 z m 0.98827,7.886406 v 0.978389 h -0.98827 v -0.978389 z m -0.98827,0 v -0.968506 h 0.98827 v 0.968506 z m -0.99322,-7.886406 V 33.92565 h 0.99322 v 0.993213 z m 0,7.886406 v -0.968506 h 0.99322 v 0.968506 z m 0,-0.968506 v -0.993212 h 0.99322 v 0.993212 z m 0,-0.993212 v -0.988272 h 0.99322 v 0.988272 z m 0,-0.988272 v -0.993213 h 0.99322 v 0.993213 z m 0,-0.993213 v -0.988271 h 0.99322 v 0.988271 z m 0,-0.988271 v -0.993213 h 0.99322 v 0.993213 z m 0,-0.993213 v -0.993213 h 0.99322 v 0.993213 z m 0,-0.993213 v -0.968506 h 0.99322 v 0.968506 z m 17.7207,6.9179 v 0.978389 h -0.97345 v -0.978389 z m -0.97345,0 v -0.968506 h 0.97345 v 0.968506 z m 0,-0.968506 v -0.993212 h 0.97345 v 0.993212 z m 0,-3.962968 v -0.993213 h 0.97345 v 0.993213 z m 0,-0.993213 v -0.993213 h 0.97345 v 0.993213 z m 0,-0.993213 v -0.968506 h 0.97345 v 0.968506 z m -0.98827,-0.968506 V 33.92565 h 0.98827 v 0.993213 z m 0.98827,7.886406 v 0.978389 h -0.98827 v -0.978389 z m -0.98827,0 v -0.968506 h 0.98827 v 0.968506 z m 0,-0.968506 v -0.993212 h 0.98827 v 0.993212 z m 0,-0.993212 v -0.988272 h 0.98827 v 0.988272 z m 0,-0.988272 v -0.993213 h 0.98827 v 0.993213 z m 0,-0.993213 v -0.988271 h 0.98827 v 0.988271 z m 0,-0.988271 v -0.993213 h 0.98827 v 0.993213 z m 0,-0.993213 v -0.993213 h 0.98827 v 0.993213 z m 0,-0.993213 v -0.968506 h 0.98827 v 0.968506 z m -0.99321,-0.968506 V 33.92565 h 0.99321 v 0.993213 z m 0.99321,7.886406 v 0.978389 h -0.99321 v -0.978389 z m -0.99321,0 v -0.968506 h 0.99321 v 0.968506 z m 0,-1.961718 v -0.988272 h 0.99321 v 0.988272 z m 0,-0.988272 v -0.993213 h 0.99321 v 0.993213 z m 0,-0.993213 v -0.988271 h 0.99321 v 0.988271 z m 0,-0.988271 v -0.993213 h 0.99321 v 0.993213 z m 0,-0.993213 v -0.993213 h 0.99321 v 0.993213 z m -0.98828,-1.961719 V 33.92565 h 0.98828 v 0.993213 z m 0.98828,7.886406 v 0.978389 h -0.98828 v -0.978389 z m -0.98828,0 v -0.968506 h 0.98828 v 0.968506 z m 0,-1.961718 v -0.988272 h 0.98828 v 0.988272 z m 0,-0.988272 v -0.993213 h 0.98828 v 0.993213 z m 0,-1.981484 v -0.993213 h 0.98828 v 0.993213 z m 0,-0.993213 v -0.993213 h 0.98828 v 0.993213 z m -0.99321,-1.961719 V 33.92565 h 0.99321 v 0.993213 z m 0.99321,7.886406 v 0.978389 h -0.99321 v -0.978389 z m -0.99321,0 v -0.968506 h 0.99321 v 0.968506 z m 0,-1.961718 v -0.988272 h 0.99321 v 0.988272 z m 0,-0.988272 v -0.993213 h 0.99321 v 0.993213 z m 0,-1.981484 v -0.993213 h 0.99321 v 0.993213 z m 0,-0.993213 v -0.993213 h 0.99321 v 0.993213 z m -0.99321,-1.961719 V 33.92565 h 0.99321 v 0.993213 z m 0.99321,7.886406 v 0.978389 h -0.99321 v -0.978389 z m -0.99321,0 v -0.968506 h 0.99321 v 0.968506 z m 0,-1.961718 v -0.988272 h 0.99321 v 0.988272 z m 0,-0.988272 v -0.993213 h 0.99321 v 0.993213 z m 0,-1.981484 v -0.993213 h 0.99321 v 0.993213 z m 0,-0.993213 v -0.993213 h 0.99321 v 0.993213 z m -0.96851,-1.961719 V 33.92565 h 0.96851 v 0.993213 z m 0.96851,7.886406 v 0.978389 h -0.96851 v -0.978389 z m -0.96851,0 v -0.968506 h 0.96851 v 0.968506 z m 0,-1.961718 v -0.988272 h 0.96851 v 0.988272 z m 0,-0.988272 v -0.993213 h 0.96851 v 0.993213 z m 0,-1.981484 v -0.993213 h 0.96851 v 0.993213 z m 0,-0.993213 v -0.993213 h 0.96851 v 0.993213 z m -0.99321,-1.961719 V 33.92565 h 0.99321 v 0.993213 z m 0.99321,7.886406 v 0.978389 h -0.99321 v -0.978389 z m -0.99321,0 v -0.968506 h 0.99321 v 0.968506 z m -0.98827,-7.886406 V 33.92565 h 0.98827 v 0.993213 z m 0.98827,7.886406 v 0.978389 h -0.98827 v -0.978389 z m -0.98827,0 v -0.968506 h 0.98827 v 0.968506 z m -0.99321,-7.886406 V 33.92565 h 0.99321 v 0.993213 z m 0,7.886406 v -0.968506 h 0.99321 v 0.968506 z m 0,-0.968506 v -0.993212 h 0.99321 v 0.993212 z m 0,-0.993212 v -0.988272 h 0.99321 v 0.988272 z m 0,-0.988272 v -0.993213 h 0.99321 v 0.993213 z m 0,-0.993213 v -0.988271 h 0.99321 v 0.988271 z m 0,-0.988271 v -0.993213 h 0.99321 v 0.993213 z m 0,-0.993213 v -0.993213 h 0.99321 v 0.993213 z m 0,-0.993213 v -0.968506 h 0.99321 v 0.968506 z m 16.74724,1.986426 v -0.993213 h 0.98828 v 0.993213 z m 0,-0.993213 v -0.993213 h 0.98828 v 0.993213 z m 0,-0.993213 v -0.968506 h 0.98828 v 0.968506 z m -0.99321,-0.968506 V 33.92565 h 0.99321 v 0.993213 z m 0,2.954932 v -0.993213 h 0.99321 v 0.993213 z m 0,-0.993213 v -0.993213 h 0.99321 v 0.993213 z m 0,-0.993213 v -0.968506 h 0.99321 v 0.968506 z m -0.98827,-0.968506 V 33.92565 h 0.98827 v 0.993213 z m 0.98827,7.886406 v 0.978389 h -0.98827 v -0.978389 z m -0.98827,0 v -0.968506 h 0.98827 v 0.968506 z m 0,-0.968506 v -0.993212 h 0.98827 v 0.993212 z m 0,-0.993212 v -0.988272 h 0.98827 v 0.988272 z m 0,-0.988272 v -0.993213 h 0.98827 v 0.993213 z m 0,-0.993213 v -0.988271 h 0.98827 v 0.988271 z m 0,-0.988271 v -0.993213 h 0.98827 v 0.993213 z m 0,-0.993213 v -0.993213 h 0.98827 v 0.993213 z m -0.99321,-1.961719 V 33.92565 h 0.99321 v 0.993213 z m 0.99321,7.886406 v 0.978389 h -0.99321 v -0.978389 z m -0.99321,0 v -0.968506 h 0.99321 v 0.968506 z m 0,-0.968506 v -0.993212 h 0.99321 v 0.993212 z m 0,-0.993212 v -0.988272 h 0.99321 v 0.988272 z m 0,-0.988272 v -0.993213 h 0.99321 v 0.993213 z m 0,-0.993213 v -0.988271 h 0.99321 v 0.988271 z m 0,-0.988271 v -0.993213 h 0.99321 v 0.993213 z m 0,-0.993213 v -0.993213 h 0.99321 v 0.993213 z m -0.99322,-1.961719 V 33.92565 h 0.99322 v 0.993213 z m 0.99322,7.886406 v 0.978389 h -0.99322 v -0.978389 z m -0.99322,0 v -0.968506 h 0.99322 v 0.968506 z m -0.9685,-7.886406 V 33.92565 h 0.9685 v 0.993213 z m 0.9685,7.886406 v 0.978389 h -0.9685 v -0.978389 z m -0.9685,0 v -0.968506 h 0.9685 v 0.968506 z m -0.99321,-7.886406 V 33.92565 h 0.99321 v 0.993213 z m 0,7.886406 v -0.968506 h 0.99321 v 0.968506 z m 0,-0.968506 v -0.993212 h 0.99321 v 0.993212 z m 0,-0.993212 v -0.988272 h 0.99321 v 0.988272 z m 0,-0.988272 v -0.993213 h 0.99321 v 0.993213 z m 0,-0.993213 v -0.988271 h 0.99321 v 0.988271 z m 0,-0.988271 v -0.993213 h 0.99321 v 0.993213 z m 0,-0.993213 v -0.993213 h 0.99321 v 0.993213 z M 351.8426,34.918863 V 33.92565 h 0.98828 v 0.993213 z m 0,1.961719 v -0.993213 h 0.98828 v 0.993213 z m -0.99321,-1.961719 V 33.92565 h 0.99321 v 0.993213 z m 0,1.961719 v -0.993213 h 0.99321 v 0.993213 z m 0,-0.993213 v -0.968506 h 0.99321 v 0.968506 z"
           id="path936" /></g></g></g></svg>
