<?xml version="1.0" encoding="UTF-8" standalone="no"?>
<!-- Created with Inkscape (http://www.inkscape.org/) -->

<svg
   width="41.06403mm"
   height="41.279907mm"
   viewBox="0 0 41.06403 41.279907"
   version="1.1"
   id="svg1"
   xml:space="preserve"
   inkscape:version="1.3.2 (091e20e, 2023-11-25, custom)"
   sodipodi:docname="squad2.svg"
   xmlns:inkscape="http://www.inkscape.org/namespaces/inkscape"
   xmlns:sodipodi="http://sodipodi.sourceforge.net/DTD/sodipodi-0.dtd"
   xmlns="http://www.w3.org/2000/svg"
   xmlns:svg="http://www.w3.org/2000/svg"><sodipodi:namedview
     id="namedview1"
     pagecolor="#ffffff"
     bordercolor="#000000"
     borderopacity="0.25"
     inkscape:showpageshadow="2"
     inkscape:pageopacity="0.0"
     inkscape:pagecheckerboard="0"
     inkscape:deskcolor="#d1d1d1"
     inkscape:document-units="mm"
     showguides="true"
     inkscape:zoom="1.8101934"
     inkscape:cx="30.383494"
     inkscape:cy="133.41116"
     inkscape:window-width="1920"
     inkscape:window-height="991"
     inkscape:window-x="-9"
     inkscape:window-y="-9"
     inkscape:window-maximized="1"
     inkscape:current-layer="layer1"><sodipodi:guide
       position="-384.9243,238.55968"
       orientation="1,0"
       id="guide3"
       inkscape:locked="false" /><sodipodi:guide
       position="-484.5782,124.81875"
       orientation="0,-1"
       id="guide160"
       inkscape:locked="false" /><sodipodi:guide
       position="-484.5782,80.877729"
       orientation="0,-1"
       id="guide161"
       inkscape:locked="false" /><sodipodi:guide
       position="-106.18576,31.986244"
       orientation="0,-1"
       id="guide202"
       inkscape:locked="false" /><sodipodi:guide
       position="-316.00035,233.66333"
       orientation="0,-1"
       id="guide933"
       inkscape:locked="false" /><sodipodi:guide
       position="-71.225478,392.95721"
       orientation="0,-1"
       id="guide1152"
       inkscape:locked="false" /><sodipodi:guide
       position="-76.152048,373.42135"
       orientation="0,-1"
       id="guide1153"
       inkscape:locked="false" /><sodipodi:guide
       position="-69.904768,388.45834"
       orientation="0,-1"
       id="guide1154"
       inkscape:locked="false" /><sodipodi:guide
       position="-76.642568,377.84234"
       orientation="0,-1"
       id="guide1155"
       inkscape:locked="false" /><sodipodi:guide
       position="-402.94063,223.88307"
       orientation="0,-1"
       id="guide1324"
       inkscape:locked="false" /><sodipodi:guide
       position="-404.43734,209.62398"
       orientation="0,-1"
       id="guide1325"
       inkscape:locked="false" /><sodipodi:guide
       position="-406.49531,195.37421"
       orientation="0,-1"
       id="guide1326"
       inkscape:locked="false" /><sodipodi:guide
       position="-326.51492,214.64613"
       orientation="0,-1"
       id="guide1356"
       inkscape:locked="false" /><sodipodi:guide
       position="24.837602,279.19426"
       orientation="1,0"
       id="guide1367"
       inkscape:locked="false" /><sodipodi:guide
       position="1.7558217,290.37484"
       orientation="0,-1"
       id="guide1435"
       inkscape:locked="false" /><sodipodi:guide
       position="5.2722817,286.8572"
       orientation="0,-1"
       id="guide1436"
       inkscape:locked="false" /></sodipodi:namedview><defs
     id="defs1" /><g
     inkscape:label="Layer 1"
     inkscape:groupmode="layer"
     id="layer1"
     transform="translate(-626.88576,50.172091)"><g
       id="g1439"
       transform="translate(12.534373,2.4521692)"
       inkscape:export-filename=".\squad2.svg"
       inkscape:export-xdpi="96"
       inkscape:export-ydpi="96"><g
         id="g1367"><g
           id="g1360"
           transform="matrix(0.04899408,0,0,0.04899408,630.0013,-32.104153)"
           style="opacity:1;mix-blend-mode:normal;fill:#ffffff"><path
             style="fill:#ffffff"
             d="m 452.88588,-165.48099 c -4.33515,-0.44366 -7.65508,-3.26531 -9.02652,-7.67176 -0.48343,-1.55324 -0.49848,-3.92179 -0.49848,-78.43948 v -76.83789 h -1.58299 -1.58299 l -0.0707,29.30261 -0.0707,29.3026 -0.71508,1.35555 c -1.47661,2.79916 -4.08009,4.33299 -7.35471,4.33299 -3.27462,0 -5.8781,-1.53383 -7.35471,-4.33299 l -0.71508,-1.35555 v -33.73437 -33.73438 l 0.59884,-2.24895 c 2.48104,-9.31757 10.12125,-16.84957 18.90302,-18.63531 3.05972,-0.62218 46.57196,-0.62218 49.63168,0 9.58578,1.94923 17.59792,10.59553 19.35254,20.88426 0.23628,1.38554 0.29487,10.1166 0.23259,34.66042 l -0.0833,32.80833 -0.59694,1.11712 c -3.31165,6.19752 -12.16322,6.19752 -15.47487,0 l -0.59694,-1.11712 -0.0707,-29.3026 -0.0707,-29.30261 h -1.31664 -1.31663 l -0.0679,77.32448 -0.0679,77.32447 -0.84269,1.77889 c -4.02695,8.50069 -16.17455,8.90533 -20.35452,0.67801 -1.49073,-2.93415 -1.41813,-0.45395 -1.42152,-48.56054 l -0.003,-44.51614 h -2.11667 -2.11666 v 44.55442 c 0,43.53603 -0.0119,44.59285 -0.51968,46.23593 -1.74177,5.63588 -6.61537,8.75327 -12.70949,8.12961 z m 12.57801,-197.62482 c -16.21323,-2.51058 -22.78785,-22.11329 -11.2648,-33.5868 12.20345,-12.15099 32.86473,-4.30061 33.80155,12.84311 0.68194,12.47957 -10.34719,22.63121 -22.53675,20.74369 z"
             id="path1358" /><path
             style="display:inline;opacity:1;fill:#ffffff;stroke-width:0.211091"
             d="m 446.42006,-361.10056 c -0.20576,-0.0924 -0.39189,-0.28919 -0.47102,-0.49804 -0.0408,-0.10769 -0.0604,-2.06965 -0.0623,-6.22741 l -0.003,-6.07019 -0.70942,-0.34405 -0.70943,-0.34406 -1.09593,-1.10808 c -1.71189,-1.73085 -1.92085,-2.43039 -1.20173,-4.02308 0.17023,-0.37703 0.20328,-0.51248 0.20347,-0.83406 0.002,-3.26353 0.79744,-7.62249 1.95663,-10.7212 0.74375,-1.98817 1.1072,-3.29158 1.67288,-5.99922 1.26428,-6.05154 3.85396,-10.20132 8.35368,-13.38618 7.70774,-5.45548 20.5918,-5.33194 28.12443,0.26967 4.35019,3.23499 6.74174,7.19273 8.01033,13.25613 0.50809,2.4285 0.87354,3.77028 1.46032,5.36173 0.62669,1.69969 0.7008,1.91407 0.91708,2.65293 0.58347,1.99321 1.09315,5.444 1.19722,8.10574 0.0324,0.82885 0.0403,0.87323 0.22962,1.28961 0.72127,1.58639 0.51011,2.2844 -1.2223,4.04043 l -1.10551,1.12058 -0.69386,0.33156 -0.69387,0.33155 -0.0176,6.15352 c -0.0197,6.89266 0.0188,6.26284 -0.40212,6.57712 -0.24178,0.18051 -6.08224,0.18051 -6.32402,0 -0.41774,-0.31189 -0.38279,0.1482 -0.39942,-5.25692 -0.014,-4.55527 -0.0205,-4.83173 -0.1117,-4.8054 -9.58493,2.76542 -19.64426,2.85844 -29.18563,0.26987 -0.5783,-0.15689 -1.0617,-0.28526 -1.07422,-0.28526 -0.0125,0 -0.0295,2.17218 -0.0376,4.82706 -0.0166,5.39801 0.0183,4.93872 -0.39937,5.25065 -0.19777,0.1477 -5.88901,0.2073 -6.20595,0.065 z"
             id="path1359" /><path
             d="m 217.69614,21.714838 q 0.25159,0.163069 0.49852,0.256252 0.24694,0.09318 0.46126,0.09318 0.205,0 0.31216,-0.05591 0.10716,-0.06057 0.10716,-0.177047 0,-0.06057 -0.0466,-0.09318 -0.0466,-0.03727 -0.1258,-0.06057 -0.0745,-0.0233 -0.17705,-0.03727 -0.1025,-0.01398 -0.20966,-0.03727 -0.1025,-0.01864 -0.24227,-0.04193 -0.13512,-0.02795 -0.27955,-0.07455 -0.14443,-0.05125 -0.28887,-0.125796 -0.13977,-0.07455 -0.25159,-0.191025 -0.11182,-0.116478 -0.1817,-0.274888 -0.0652,-0.16307 -0.0652,-0.382049 0,-0.32148 0.12579,-0.531141 0.1258,-0.209661 0.31683,-0.330798 0.19568,-0.125797 0.43329,-0.172388 0.23762,-0.05125 0.46126,-0.05125 0.39137,0 0.69887,0.116478 0.31216,0.111819 0.59637,0.330798 0.0373,0.03261 0.0419,0.07921 0.005,0.04659 -0.0233,0.08386 l -0.36341,0.517163 q -0.028,0.03727 -0.0746,0.04659 -0.0466,0.0093 -0.0839,-0.01864 -0.23762,-0.149092 -0.44262,-0.209661 -0.205,-0.06523 -0.37739,-0.06523 -0.0513,0 -0.12113,0.0047 -0.0652,0 -0.1258,0.01864 -0.0606,0.01398 -0.1025,0.05125 -0.0373,0.03727 -0.0373,0.102501 0,0.06523 0.0978,0.116479 0.0978,0.05125 0.22364,0.08852 0.12579,0.03727 0.24227,0.06057 0.11648,0.01864 0.14909,0.0233 0.16773,0.03261 0.36807,0.09784 0.20035,0.06057 0.37273,0.186365 0.17705,0.121138 0.29353,0.32148 0.12114,0.195684 0.12114,0.493868 0,0.279548 -0.0978,0.48455 -0.0978,0.200342 -0.27489,0.330798 -0.17239,0.130455 -0.41933,0.195683 -0.24227,0.06057 -0.54045,0.06057 -0.24228,0 -0.45194,-0.04193 -0.20966,-0.03727 -0.39137,-0.10716 -0.1817,-0.06989 -0.34011,-0.16307 -0.15375,-0.09784 -0.28421,-0.205001 -0.0373,-0.02795 -0.0419,-0.07455 -0.005,-0.05125 0.0233,-0.08852 l 0.35876,-0.517163 q 0.0279,-0.03727 0.0745,-0.04659 0.0466,-0.0093 0.0839,0.01398 z m 2.60329,-0.5358 q 0,-0.363413 0.13977,-0.684892 0.13977,-0.32148 0.37739,-0.559096 0.23762,-0.242275 0.5591,-0.382049 0.32148,-0.139774 0.68489,-0.139774 0.36341,0 0.68489,0.139774 0.32148,0.139774 0.5591,0.382049 0.24227,0.237616 0.38204,0.559096 0.13978,0.321479 0.13978,0.684892 0,0.363412 -0.13978,0.684892 -0.13977,0.32148 -0.38204,0.563755 -0.23762,0.237615 -0.5591,0.377389 -0.32148,0.139774 -0.68489,0.139774 -0.36341,0 -0.68489,-0.139774 -0.32148,-0.139774 -0.5591,-0.377389 -0.23762,-0.242275 -0.37739,-0.563755 -0.13977,-0.32148 -0.13977,-0.684892 z m 0.9225,0 q 0,0.177047 0.0652,0.335457 0.0652,0.15841 0.17705,0.279548 0.11648,0.121137 0.27023,0.195683 0.15375,0.06989 0.32614,0.06989 0.17239,0 0.32614,-0.06989 0.15375,-0.07455 0.27023,-0.195683 0.11648,-0.121138 0.1817,-0.279548 0.0652,-0.15841 0.0652,-0.335457 0,-0.172388 -0.0652,-0.330799 -0.0652,-0.163069 -0.1817,-0.279547 -0.11648,-0.121138 -0.27023,-0.191025 -0.15375,-0.07455 -0.32614,-0.07455 -0.17239,0 -0.32614,0.07455 -0.15375,0.06989 -0.27023,0.191025 -0.11182,0.116478 -0.17705,0.279547 -0.0652,0.158411 -0.0652,0.330799 z m 5.59911,0.95978 v 0.633642 q 0,0.04659 -0.0326,0.07921 -0.0326,0.03261 -0.0792,0.03261 h -2.3249 q -0.0513,0 -0.0839,-0.03261 -0.028,-0.03261 -0.028,-0.07921 v -3.186845 q 0,-0.04659 0.028,-0.07921 0.0326,-0.03261 0.0839,-0.03261 h 0.69886 q 0.0466,0 0.0792,0.03261 0.0326,0.03261 0.0326,0.07921 v 2.329565 q 0,0.04659 0.028,0.07921 0.0326,0.03261 0.0839,0.03261 h 1.4024 q 0.0466,0 0.0792,0.03261 0.0326,0.03261 0.0326,0.07921 z m 0.30168,0.633642 v -3.186845 q 0,-0.04659 0.0326,-0.07921 0.0326,-0.03261 0.0792,-0.03261 h 1.27194 q 0.73148,0 1.1974,0.42864 0.25159,0.232956 0.38204,0.554436 0.13046,0.32148 0.13046,0.722166 0,0.400685 -0.13046,0.726824 -0.13045,0.32148 -0.38204,0.554436 -0.23296,0.209661 -0.5358,0.316821 -0.29819,0.10716 -0.6616,0.10716 h -1.27194 q -0.0466,0 -0.0792,-0.03261 -0.0326,-0.03261 -0.0326,-0.07921 z m 1.03432,-0.745461 h 0.34944 q 0.13045,0 0.27023,-0.03261 0.13977,-0.03261 0.25159,-0.121137 0.11182,-0.09318 0.18171,-0.256252 0.0745,-0.167729 0.0745,-0.433299 0,-0.265571 -0.0745,-0.42864 -0.0699,-0.167729 -0.18637,-0.256252 -0.11182,-0.09318 -0.25159,-0.125797 -0.13512,-0.03261 -0.26557,-0.03261 h -0.34944 q -0.0466,0 -0.0792,0.03261 -0.0326,0.03261 -0.0326,0.07921 v 1.462967 q 0,0.04659 0.0326,0.07921 0.0326,0.03261 0.0792,0.03261 z m 3.39534,0.85728 h -0.70353 q -0.0513,0 -0.0839,-0.03261 -0.028,-0.03261 -0.028,-0.07921 v -3.182186 q 0,-0.04659 0.028,-0.07921 0.0326,-0.03261 0.0839,-0.03261 h 0.70353 q 0.0466,0 0.0792,0.03261 0.0326,0.03261 0.0326,0.07921 v 3.182186 q 0,0.04659 -0.0326,0.07921 -0.0326,0.03261 -0.0792,0.03261 z m 1.62021,-2.441384 v 0.195684 q 0,0.04659 0.0326,0.07921 0.0326,0.03261 0.0792,0.03261 h 1.26263 q 0.0466,0 0.0792,0.03261 0.0326,0.03261 0.0326,0.07921 v 0.64296 q 0,0.04659 -0.0326,0.07921 -0.0326,0.03261 -0.0792,0.03261 h -1.26263 q -0.0466,0 -0.0792,0.03261 -0.0326,0.03261 -0.0326,0.07921 v 0.177047 q 0,0.04659 0.0326,0.07921 0.0326,0.03261 0.0792,0.03261 h 1.44899 q 0.0466,0 0.0792,0.03261 0.0326,0.03261 0.0326,0.07921 v 0.64296 q 0,0.04659 -0.0326,0.07921 -0.0326,0.03261 -0.0792,0.03261 h -2.37149 q -0.0466,0 -0.0792,-0.03261 -0.0326,-0.03261 -0.0326,-0.07921 v -3.186845 q 0,-0.04659 0.0326,-0.07921 0.0326,-0.03261 0.0792,-0.03261 h 2.37149 q 0.0466,0 0.0792,0.03261 0.0326,0.03261 0.0326,0.07921 v 0.633642 q 0,0.04659 -0.0326,0.07921 -0.0326,0.03261 -0.0792,0.03261 h -1.44899 q -0.0466,0 -0.0792,0.03261 -0.0326,0.03261 -0.0326,0.07921 z m 3.04591,2.441384 h -0.69421 q -0.0466,0 -0.0792,-0.03261 -0.0326,-0.03261 -0.0326,-0.07921 v -3.186845 q 0,-0.04659 0.0326,-0.07921 0.0326,-0.03261 0.0792,-0.03261 h 1.44899 q 0.27023,0 0.49853,0.09318 0.2283,0.08852 0.38671,0.251593 0.16307,0.163069 0.25159,0.386707 0.0932,0.223639 0.0932,0.493868 0,0.149092 -0.0373,0.298185 -0.0326,0.144433 -0.0978,0.274888 -0.0652,0.130456 -0.15375,0.237616 -0.0885,0.102501 -0.20035,0.172388 -0.0373,0.02795 -0.0512,0.06989 -0.009,0.03727 0.0186,0.07455 0.17705,0.232956 0.37273,0.47989 0.19568,0.246934 0.34943,0.451936 0.028,0.03727 0.014,0.08386 -0.014,0.04193 -0.0606,0.04193 h -0.8666 q -0.0466,0 -0.1025,-0.0233 -0.0512,-0.02795 -0.0792,-0.06523 -0.14909,-0.195684 -0.29819,-0.396026 -0.14443,-0.200343 -0.28886,-0.405345 -0.028,-0.03727 -0.0792,-0.06057 -0.0513,-0.02796 -0.0978,-0.02796 h -0.1025 q -0.0466,0 -0.0792,0.03261 -0.0326,0.03261 -0.0326,0.0792 v 0.754779 q 0,0.04659 -0.0326,0.07921 -0.0326,0.03261 -0.0792,0.03261 z m 0.22364,-1.835697 h 0.49387 q 0.0559,0 0.11648,-0.01864 0.0606,-0.0233 0.11182,-0.06523 0.0513,-0.04659 0.0839,-0.111819 0.0326,-0.06523 0.0326,-0.153752 0,-0.04659 -0.0186,-0.10716 -0.014,-0.06523 -0.0559,-0.121137 -0.0373,-0.06057 -0.10716,-0.09784 -0.0652,-0.04193 -0.16307,-0.04193 h -0.49387 q -0.0466,0 -0.0792,0.03261 -0.0326,0.03261 -0.0326,0.07921 v 0.493868 q 0,0.04659 0.0326,0.07921 0.0326,0.03261 0.0792,0.03261 z m 2.67783,0.666256 q 0.2516,0.163069 0.49853,0.256252 0.24693,0.09318 0.46125,0.09318 0.205,0 0.31216,-0.05591 0.10716,-0.06057 0.10716,-0.177047 0,-0.06057 -0.0466,-0.09318 -0.0466,-0.03727 -0.12579,-0.06057 -0.0746,-0.0233 -0.17705,-0.03727 -0.1025,-0.01398 -0.20966,-0.03727 -0.1025,-0.01864 -0.24228,-0.04193 -0.13511,-0.02795 -0.27954,-0.07455 -0.14444,-0.05125 -0.28887,-0.125796 -0.13977,-0.07455 -0.25159,-0.191025 -0.11182,-0.116478 -0.18171,-0.274888 -0.0652,-0.16307 -0.0652,-0.382049 0,-0.32148 0.1258,-0.531141 0.1258,-0.209661 0.31682,-0.330798 0.19568,-0.125797 0.4333,-0.172388 0.23762,-0.05125 0.46125,-0.05125 0.39137,0 0.69887,0.116478 0.31217,0.111819 0.59637,0.330798 0.0373,0.03261 0.0419,0.07921 0.005,0.04659 -0.0233,0.08386 l -0.36341,0.517163 q -0.028,0.03727 -0.0745,0.04659 -0.0466,0.0093 -0.0839,-0.01864 -0.23762,-0.149092 -0.44262,-0.209661 -0.205,-0.06523 -0.37739,-0.06523 -0.0512,0 -0.12114,0.0047 -0.0652,0 -0.12579,0.01864 -0.0606,0.01398 -0.10251,0.05125 -0.0373,0.03727 -0.0373,0.102501 0,0.06523 0.0978,0.116479 0.0978,0.05125 0.22364,0.08852 0.1258,0.03727 0.24228,0.06057 0.11647,0.01864 0.14909,0.0233 0.16773,0.03261 0.36807,0.09784 0.20034,0.06057 0.37273,0.186365 0.17705,0.121138 0.29353,0.32148 0.12113,0.195684 0.12113,0.493868 0,0.279548 -0.0978,0.48455 -0.0978,0.200342 -0.27489,0.330798 -0.17239,0.130455 -0.41932,0.195683 -0.24227,0.06057 -0.54046,0.06057 -0.24227,0 -0.45193,-0.04193 -0.20967,-0.03727 -0.39137,-0.10716 -0.18171,-0.06989 -0.34012,-0.16307 -0.15375,-0.09784 -0.2842,-0.205001 -0.0373,-0.02795 -0.0419,-0.07455 -0.005,-0.05125 0.0233,-0.08852 l 0.35875,-0.517163 q 0.028,-0.03727 0.0746,-0.04659 0.0466,-0.0093 0.0839,0.01398 z m 3.04125,0.01398 q -0.0978,0 -0.18636,-0.03727 -0.0885,-0.03727 -0.15375,-0.102501 -0.0606,-0.06523 -0.0978,-0.149092 -0.0373,-0.08852 -0.0373,-0.186365 0,-0.09784 0.0373,-0.186365 0.0373,-0.08852 0.0978,-0.153752 0.0652,-0.06523 0.15375,-0.102501 0.0885,-0.03727 0.18636,-0.03727 0.0978,0 0.18637,0.03727 0.0885,0.03727 0.15375,0.102501 0.0652,0.06523 0.1025,0.153752 0.0373,0.08852 0.0373,0.186365 0,0.09784 -0.0373,0.186365 -0.0373,0.08386 -0.1025,0.149092 -0.0652,0.06523 -0.15375,0.102501 -0.0885,0.03727 -0.18637,0.03727 z m 0,1.188078 q -0.0978,0 -0.18636,-0.03727 -0.0885,-0.03727 -0.15375,-0.102501 -0.0606,-0.06523 -0.0978,-0.153751 -0.0373,-0.08852 -0.0373,-0.186365 0,-0.09784 0.0373,-0.181706 0.0373,-0.08386 0.0978,-0.149092 0.0652,-0.06523 0.15375,-0.102501 0.0885,-0.03727 0.18636,-0.03727 0.0978,0 0.18637,0.03727 0.0885,0.03727 0.15375,0.102501 0.0652,0.06523 0.1025,0.149092 0.0373,0.08386 0.0373,0.181706 0,0.09784 -0.0373,0.186365 -0.0373,0.08852 -0.1025,0.153751 -0.0652,0.06523 -0.15375,0.102501 -0.0885,0.03727 -0.18637,0.03727 z"
             id="path1360"
             style="-inkscape-font-specification:Heavitas;opacity:1;fill:#ffffff;stroke-width:0.0220116"
             aria-label="soldiers:"
             transform="matrix(20.410629,0,0,20.410629,-4488.3753,-630.07567)" /></g><g
           id="g1363"
           transform="matrix(0.04899408,0,0,0.04899408,630.0013,-17.840724)"
           style="opacity:1;mix-blend-mode:normal;fill:#ffffff"><path
             style="fill:#ffffff"
             d="m 452.88588,-165.48099 c -4.33515,-0.44366 -7.65508,-3.26531 -9.02652,-7.67176 -0.48343,-1.55324 -0.49848,-3.92179 -0.49848,-78.43948 v -76.83789 h -1.58299 -1.58299 l -0.0707,29.30261 -0.0707,29.3026 -0.71508,1.35555 c -1.47661,2.79916 -4.08009,4.33299 -7.35471,4.33299 -3.27462,0 -5.8781,-1.53383 -7.35471,-4.33299 l -0.71508,-1.35555 v -33.73437 -33.73438 l 0.59884,-2.24895 c 2.48104,-9.31757 10.12125,-16.84957 18.90302,-18.63531 3.05972,-0.62218 46.57196,-0.62218 49.63168,0 9.58578,1.94923 17.59792,10.59553 19.35254,20.88426 0.23628,1.38554 0.29487,10.1166 0.23259,34.66042 l -0.0833,32.80833 -0.59694,1.11712 c -3.31165,6.19752 -12.16322,6.19752 -15.47487,0 l -0.59694,-1.11712 -0.0707,-29.3026 -0.0707,-29.30261 h -1.31664 -1.31663 l -0.0679,77.32448 -0.0679,77.32447 -0.84269,1.77889 c -4.02695,8.50069 -16.17455,8.90533 -20.35452,0.67801 -1.49073,-2.93415 -1.41813,-0.45395 -1.42152,-48.56054 l -0.003,-44.51614 h -2.11667 -2.11666 v 44.55442 c 0,43.53603 -0.0119,44.59285 -0.51968,46.23593 -1.74177,5.63588 -6.61537,8.75327 -12.70949,8.12961 z m 12.57801,-197.62482 c -16.21323,-2.51058 -22.78785,-22.11329 -11.2648,-33.5868 12.20345,-12.15099 32.86473,-4.30061 33.80155,12.84311 0.68194,12.47957 -10.34719,22.63121 -22.53675,20.74369 z"
             id="path1361" /><path
             style="opacity:1;fill:#ffffff;stroke-width:0.193748"
             d="m 470.54323,-373.92161 c 9.54493,-0.46992 16.96294,-3.33724 18.89671,-7.30425 0.4598,-0.94323 0.44772,-0.84816 0.46803,-3.68469 l 0.0179,-2.50564 1.09329,-2.62061 c 3.87173,-9.28048 3.73119,-10.07696 -2.51851,-14.27286 -0.59921,-0.4023 -17.27478,-9.45482 -17.84218,-9.68583 -1.40793,-0.57323 -3.07938,-0.61238 -4.56143,-0.10684 -0.78673,0.26835 -17.18369,9.16809 -18.36569,9.96829 -4.93559,3.34135 -5.66075,4.86677 -4.28487,9.01347 0.37315,1.1246 0.76356,2.11078 2.12349,5.36388 l 0.97689,2.33684 0.0188,2.50748 c 0.0212,2.83434 0.008,2.72403 0.44509,3.63525 2.25779,4.70374 12.4821,7.89954 23.53246,7.35551 z"
             id="path1362" /><path
             d="m 218.32047,36.234837 q -0.13511,0.21898 -0.29818,0.400686 -0.16307,0.177047 -0.36807,0.302843 -0.20035,0.125797 -0.44728,0.195684 -0.24693,0.06989 -0.54512,0.06989 -0.37273,0 -0.69887,-0.139773 -0.32614,-0.139774 -0.57307,-0.37739 -0.24228,-0.237616 -0.38205,-0.559096 -0.13977,-0.32148 -0.13977,-0.684892 0,-0.363412 0.13977,-0.684892 0.13977,-0.32148 0.38205,-0.559095 0.24693,-0.237616 0.57307,-0.37739 0.32614,-0.139774 0.69887,-0.139774 0.3075,0 0.55444,0.06989 0.24693,0.06989 0.44728,0.195684 0.20034,0.125796 0.35875,0.307502 0.16307,0.177047 0.29818,0.391367 0.0233,0.03727 0.009,0.07921 -0.014,0.04193 -0.0559,0.06057 l -0.6616,0.260911 q -0.0466,0.01864 -0.0932,0 -0.0466,-0.01864 -0.0699,-0.05591 -0.13512,-0.21432 -0.32614,-0.326139 -0.19103,-0.116479 -0.46126,-0.116479 -0.17704,0 -0.33546,0.07455 -0.15375,0.07455 -0.27022,0.200343 -0.11648,0.121137 -0.18171,0.284207 -0.0652,0.163069 -0.0652,0.335457 0,0.177047 0.0652,0.340117 0.0652,0.15841 0.18171,0.279548 0.11647,0.121137 0.27022,0.195683 0.15842,0.07455 0.33546,0.07455 0.25625,0 0.46126,-0.121137 0.20966,-0.125797 0.33079,-0.32148 0.0233,-0.03727 0.0652,-0.05591 0.0466,-0.01864 0.0932,0 l 0.6616,0.260911 q 0.0419,0.01864 0.0559,0.06057 0.014,0.03727 -0.009,0.07921 z m 1.18225,-2.394792 q 0.0186,-0.04193 0.0606,-0.06989 0.0466,-0.03261 0.0978,-0.03261 h 0.65228 q 0.0466,0 0.0885,0.03261 0.0466,0.02795 0.0652,0.06989 l 1.36047,3.168208 q 0.0186,0.04193 -0.009,0.08852 -0.0233,0.04659 -0.0978,0.04659 h -0.79671 q -0.0512,0 -0.0978,-0.02796 -0.0419,-0.03261 -0.0652,-0.07455 l -0.1258,-0.279548 q -0.0233,-0.04193 -0.0699,-0.06989 -0.0419,-0.03261 -0.0885,-0.03261 h -0.98307 q -0.0513,0 -0.0979,0.03261 -0.0419,0.02795 -0.0606,0.06989 l -0.13046,0.279548 q -0.0186,0.04193 -0.0652,0.07455 -0.0419,0.02796 -0.0885,0.02796 h -0.80137 q -0.0233,0 -0.0466,-0.0093 -0.028,-0.0093 -0.0419,-0.02795 -0.0186,-0.01864 -0.0233,-0.04659 -0.005,-0.02795 0.014,-0.06523 z m 0.27489,2.026721 h 0.41467 q 0.0466,0 0.0652,-0.02795 0.0233,-0.03261 0,-0.07455 -0.0466,-0.116478 -0.11182,-0.270229 -0.0652,-0.158411 -0.12113,-0.293525 -0.0186,-0.04193 -0.0419,-0.04193 -0.0233,0 -0.0419,0.04193 l -0.23295,0.563754 q -0.0186,0.04193 0,0.07455 0.0186,0.02795 0.0699,0.02795 z m 3.78671,0.358753 h -0.40534 q -0.0466,0 -0.0792,0.03261 -0.0326,0.03261 -0.0326,0.07921 v 0.694211 q 0,0.04659 -0.0326,0.07921 -0.0326,0.03261 -0.0792,0.03261 h -0.70353 q -0.0466,0 -0.0792,-0.03261 -0.0326,-0.03261 -0.0326,-0.07921 v -3.186845 q 0,-0.04659 0.0326,-0.07921 0.0326,-0.03261 0.0792,-0.03261 h 1.42569 q 0.26091,0 0.48921,0.09784 0.23296,0.09784 0.40069,0.27023 0.17238,0.172388 0.27023,0.400685 0.1025,0.228297 0.1025,0.489209 0,0.260911 -0.0839,0.489208 -0.0839,0.223639 -0.25625,0.391367 -0.16773,0.16307 -0.42398,0.260912 -0.25159,0.09318 -0.59171,0.09318 z m 0.0326,-1.635355 h -0.43795 q -0.0466,0 -0.0792,0.03261 -0.0326,0.03261 -0.0326,0.07921 v 0.549777 q 0,0.04659 0.0326,0.0792 0.0326,0.03261 0.0792,0.03261 h 0.49852 q 0.17705,0 0.25625,-0.111819 0.0839,-0.116478 0.0839,-0.260911 0,-0.07455 -0.028,-0.144433 -0.0233,-0.07455 -0.0745,-0.130456 -0.0512,-0.05591 -0.1258,-0.08852 -0.0745,-0.03727 -0.17239,-0.03727 z m 1.50839,0.847962 q 0,-0.363412 0.13978,-0.684892 0.13977,-0.32148 0.37739,-0.559096 0.23761,-0.242274 0.55909,-0.382048 0.32148,-0.139774 0.6849,-0.139774 0.36341,0 0.68489,0.139774 0.32148,0.139774 0.55909,0.382048 0.24228,0.237616 0.38205,0.559096 0.13978,0.32148 0.13978,0.684892 0,0.363412 -0.13978,0.684892 -0.13977,0.32148 -0.38205,0.563755 -0.23761,0.237616 -0.55909,0.37739 -0.32148,0.139773 -0.68489,0.139773 -0.36342,0 -0.6849,-0.139773 -0.32148,-0.139774 -0.55909,-0.37739 -0.23762,-0.242275 -0.37739,-0.563755 -0.13978,-0.32148 -0.13978,-0.684892 z m 0.92251,0 q 0,0.177047 0.0652,0.335458 0.0652,0.15841 0.17705,0.279547 0.11648,0.121138 0.27023,0.195684 0.15375,0.06989 0.32614,0.06989 0.17238,0 0.32613,-0.06989 0.15376,-0.07455 0.27023,-0.195684 0.11648,-0.121137 0.18171,-0.279547 0.0652,-0.158411 0.0652,-0.335458 0,-0.172388 -0.0652,-0.330798 -0.0652,-0.16307 -0.18171,-0.279548 -0.11647,-0.121137 -0.27023,-0.191024 -0.15375,-0.07455 -0.32613,-0.07455 -0.17239,0 -0.32614,0.07455 -0.15375,0.06989 -0.27023,0.191024 -0.11182,0.116478 -0.17705,0.279548 -0.0652,0.15841 -0.0652,0.330798 z m 3.86591,1.705242 h -0.69421 q -0.0466,0 -0.0792,-0.03261 -0.0326,-0.03261 -0.0326,-0.07921 v -3.186845 q 0,-0.04659 0.0326,-0.07921 0.0326,-0.03261 0.0792,-0.03261 h 1.44899 q 0.27023,0 0.49853,0.09318 0.22829,0.08852 0.38671,0.251593 0.16306,0.16307 0.25159,0.386708 0.0932,0.223638 0.0932,0.493868 0,0.149092 -0.0373,0.298184 -0.0326,0.144433 -0.0978,0.274889 -0.0652,0.130455 -0.15376,0.237615 -0.0885,0.102501 -0.20034,0.172388 -0.0373,0.02795 -0.0513,0.06989 -0.009,0.03727 0.0186,0.07455 0.17705,0.232957 0.37273,0.479891 0.19568,0.246934 0.34943,0.451935 0.028,0.03727 0.014,0.08387 -0.014,0.04193 -0.0606,0.04193 h -0.8666 q -0.0466,0 -0.1025,-0.0233 -0.0512,-0.02795 -0.0792,-0.06523 -0.14909,-0.195683 -0.29819,-0.396026 -0.14443,-0.200342 -0.28886,-0.405344 -0.028,-0.03727 -0.0792,-0.06057 -0.0513,-0.02796 -0.0978,-0.02796 h -0.1025 q -0.0466,0 -0.0792,0.03261 -0.0326,0.03261 -0.0326,0.07921 v 0.754779 q 0,0.04659 -0.0326,0.07921 -0.0326,0.03261 -0.0792,0.03261 z m 0.22364,-1.835697 h 0.49387 q 0.0559,0 0.11648,-0.01864 0.0606,-0.0233 0.11181,-0.06523 0.0513,-0.04659 0.0839,-0.111819 0.0326,-0.06523 0.0326,-0.153751 0,-0.04659 -0.0186,-0.10716 -0.014,-0.06523 -0.0559,-0.121138 -0.0373,-0.06057 -0.10716,-0.09784 -0.0652,-0.04193 -0.16307,-0.04193 h -0.49387 q -0.0466,0 -0.0792,0.03261 -0.0326,0.03261 -0.0326,0.07921 v 0.493867 q 0,0.04659 0.0326,0.07921 0.0326,0.03261 0.0792,0.03261 z m 3.36738,-1.467626 q 0.0186,-0.04193 0.0606,-0.06989 0.0466,-0.03261 0.0978,-0.03261 h 0.65228 q 0.0466,0 0.0885,0.03261 0.0466,0.02795 0.0652,0.06989 l 1.36047,3.168208 q 0.0186,0.04193 -0.009,0.08852 -0.0233,0.04659 -0.0978,0.04659 h -0.79671 q -0.0513,0 -0.0978,-0.02796 -0.0419,-0.03261 -0.0652,-0.07455 l -0.1258,-0.279548 q -0.0233,-0.04193 -0.0699,-0.06989 -0.0419,-0.03261 -0.0885,-0.03261 h -0.98308 q -0.0512,0 -0.0978,0.03261 -0.0419,0.02795 -0.0606,0.06989 l -0.13045,0.279548 q -0.0186,0.04193 -0.0652,0.07455 -0.0419,0.02796 -0.0885,0.02796 h -0.80138 q -0.0233,0 -0.0466,-0.0093 -0.0279,-0.0093 -0.0419,-0.02795 -0.0186,-0.01864 -0.0233,-0.04659 -0.005,-0.02795 0.014,-0.06523 z m 0.27489,2.026721 h 0.41466 q 0.0466,0 0.0652,-0.02795 0.0233,-0.03261 0,-0.07455 -0.0466,-0.116478 -0.11182,-0.270229 -0.0652,-0.158411 -0.12114,-0.293525 -0.0186,-0.04193 -0.0419,-0.04193 -0.0233,0 -0.0419,0.04193 l -0.23296,0.563754 q -0.0186,0.04193 0,0.07455 0.0186,0.02795 0.0699,0.02795 z m 4.7791,0.531141 v 0.633642 q 0,0.04659 -0.0326,0.07921 -0.0326,0.03261 -0.0792,0.03261 h -2.32491 q -0.0513,0 -0.0839,-0.03261 -0.028,-0.03261 -0.028,-0.07921 v -3.186845 q 0,-0.04659 0.028,-0.07921 0.0326,-0.03261 0.0839,-0.03261 h 0.69887 q 0.0466,0 0.0792,0.03261 0.0326,0.03261 0.0326,0.07921 v 2.329565 q 0,0.04659 0.028,0.0792 0.0326,0.03261 0.0839,0.03261 h 1.4024 q 0.0466,0 0.0792,0.03261 0.0326,0.03261 0.0326,0.0792 z m 0.58123,-0.423981 q 0.25159,0.16307 0.49852,0.256252 0.24694,0.09318 0.46126,0.09318 0.205,0 0.31216,-0.05591 0.10716,-0.06057 0.10716,-0.177047 0,-0.06057 -0.0466,-0.09318 -0.0466,-0.03727 -0.1258,-0.06057 -0.0746,-0.0233 -0.17705,-0.03727 -0.1025,-0.01398 -0.20966,-0.03727 -0.1025,-0.01864 -0.24227,-0.04193 -0.13512,-0.02795 -0.27955,-0.07455 -0.14443,-0.05125 -0.28887,-0.125797 -0.13977,-0.07455 -0.25159,-0.191024 -0.11182,-0.116478 -0.18171,-0.274889 -0.0652,-0.163069 -0.0652,-0.382048 0,-0.32148 0.12579,-0.531141 0.1258,-0.209661 0.31682,-0.330799 0.19569,-0.125796 0.4333,-0.172387 0.23762,-0.05125 0.46126,-0.05125 0.39136,0 0.69887,0.116478 0.31216,0.11182 0.59637,0.330799 0.0373,0.03261 0.0419,0.07921 0.005,0.04659 -0.0233,0.08386 l -0.36341,0.517164 q -0.028,0.03727 -0.0745,0.04659 -0.0466,0.0093 -0.0839,-0.01864 -0.23762,-0.149092 -0.44262,-0.20966 -0.205,-0.06523 -0.37739,-0.06523 -0.0512,0 -0.12113,0.0047 -0.0652,0 -0.1258,0.01864 -0.0606,0.01398 -0.1025,0.05125 -0.0373,0.03727 -0.0373,0.102501 0,0.06523 0.0978,0.116478 0.0978,0.05125 0.22363,0.08852 0.1258,0.03727 0.24228,0.06057 0.11648,0.01864 0.14909,0.0233 0.16773,0.03261 0.36807,0.09784 0.20035,0.06057 0.37273,0.186365 0.17705,0.121137 0.29353,0.32148 0.12114,0.195683 0.12114,0.493868 0,0.279547 -0.0979,0.484549 -0.0978,0.200343 -0.27488,0.330798 -0.17239,0.130456 -0.41933,0.195684 -0.24227,0.06057 -0.54046,0.06057 -0.24227,0 -0.45193,-0.04193 -0.20966,-0.03727 -0.39137,-0.10716 -0.1817,-0.06989 -0.34011,-0.163069 -0.15376,-0.09784 -0.28421,-0.205002 -0.0373,-0.02796 -0.0419,-0.07455 -0.005,-0.05125 0.0233,-0.08852 l 0.35876,-0.517163 q 0.028,-0.03727 0.0745,-0.04659 0.0466,-0.0093 0.0839,0.01398 z m 3.04124,0.01398 q -0.0978,0 -0.18636,-0.03727 -0.0885,-0.03727 -0.15375,-0.1025 -0.0606,-0.06523 -0.0978,-0.149093 -0.0373,-0.08852 -0.0373,-0.186365 0,-0.09784 0.0373,-0.186365 0.0373,-0.08852 0.0978,-0.153751 0.0652,-0.06523 0.15375,-0.102501 0.0885,-0.03727 0.18636,-0.03727 0.0979,0 0.18637,0.03727 0.0885,0.03727 0.15375,0.102501 0.0652,0.06523 0.1025,0.153751 0.0373,0.08852 0.0373,0.186365 0,0.09784 -0.0373,0.186365 -0.0373,0.08387 -0.1025,0.149093 -0.0652,0.06523 -0.15375,0.1025 -0.0885,0.03727 -0.18637,0.03727 z m 0,1.188078 q -0.0978,0 -0.18636,-0.03727 -0.0885,-0.03727 -0.15375,-0.102501 -0.0606,-0.06523 -0.0978,-0.153752 -0.0373,-0.08852 -0.0373,-0.186365 0,-0.09784 0.0373,-0.181706 0.0373,-0.08386 0.0978,-0.149092 0.0652,-0.06523 0.15375,-0.102501 0.0885,-0.03727 0.18636,-0.03727 0.0979,0 0.18637,0.03727 0.0885,0.03727 0.15375,0.102501 0.0652,0.06523 0.1025,0.149092 0.0373,0.08387 0.0373,0.181706 0,0.09784 -0.0373,0.186365 -0.0373,0.08852 -0.1025,0.153752 -0.0652,0.06523 -0.15375,0.102501 -0.0885,0.03727 -0.18637,0.03727 z"
             id="path1363"
             style="-inkscape-font-specification:Heavitas;opacity:1;fill:#ffffff;stroke-width:0.0220116"
             aria-label="caporals:"
             transform="matrix(20.410629,0,0,20.410629,-4488.3753,-921.20123)" /></g><g
           id="g1366"
           transform="matrix(0.04899408,0,0,0.04899408,630.0013,-3.557922)"
           style="opacity:1;mix-blend-mode:normal;fill:#ffffff"><path
             style="fill:#ffffff"
             d="m 456.12256,-165.48099 c -4.33515,-0.44366 -7.65508,-3.26531 -9.02652,-7.67176 -0.48343,-1.55324 -0.49848,-3.92179 -0.49848,-78.43948 v -76.83789 h -1.58299 -1.58299 l -0.0707,29.30261 -0.0707,29.3026 -0.71508,1.35555 c -1.47661,2.79916 -4.08009,4.33299 -7.35471,4.33299 -3.27462,0 -5.8781,-1.53383 -7.35471,-4.33299 l -0.71508,-1.35555 v -33.73437 -33.73438 l 0.59884,-2.24895 c 2.48104,-9.31757 10.12125,-16.84957 18.90302,-18.63531 3.05972,-0.62218 46.57196,-0.62218 49.63168,0 9.58578,1.94923 17.59792,10.59553 19.35254,20.88426 0.23628,1.38554 0.29487,10.1166 0.23259,34.66042 l -0.0833,32.80833 -0.59694,1.11712 c -3.31165,6.19752 -12.16322,6.19752 -15.47487,0 l -0.59694,-1.11712 -0.0707,-29.3026 -0.0707,-29.30261 h -1.31664 -1.31663 l -0.0679,77.32448 -0.0679,77.32447 -0.84269,1.77889 c -4.02695,8.50069 -16.17455,8.90533 -20.35452,0.67801 -1.49073,-2.93415 -1.41813,-0.45395 -1.42152,-48.56054 l -0.003,-44.51614 h -2.11667 -2.11666 v 44.55442 c 0,43.53603 -0.0119,44.59285 -0.51968,46.23593 -1.74177,5.63588 -6.61537,8.75327 -12.70949,8.12961 z m 12.57801,-197.62482 c -16.21323,-2.51058 -22.78785,-22.11329 -11.2648,-33.5868 12.20345,-12.15099 32.86473,-4.30061 33.80155,12.84311 0.68194,12.47957 -10.34719,22.63121 -22.53675,20.74369 z"
             id="path1364" /><path
             style="opacity:1;fill:#ffffff;stroke-width:0.25207"
             d="m 451.57991,-385.13133 c -0.73131,-0.26942 -1.24445,-0.71206 -1.56951,-1.35387 l -0.19422,-0.38346 -0.0182,-5.18028 -0.0183,-5.18027 -0.41526,-0.035 c -0.22839,-0.0193 -0.83542,-0.0676 -1.34896,-0.10739 -6.10797,-0.47324 -8.46146,-3.51939 -6.01833,-7.78961 7.40367,-12.94045 50.0902,-13.36154 58.55866,-0.57766 3.00627,4.53822 0.75751,7.86536 -5.65486,8.36662 -0.51354,0.0401 -1.12057,0.0888 -1.34896,0.10804 l -0.41524,0.035 -0.0183,5.14693 -0.0182,5.14692 -0.17875,0.38136 c -0.66002,1.40822 -1.65908,1.72446 -3.98959,1.26288 -11.48537,-2.27478 -23.87123,-2.25561 -35.24121,0.0545 -1.05832,0.21503 -1.72282,0.24816 -2.11075,0.10525 z m 2.16836,-1.3388 c 11.81088,-2.30674 24.24499,-2.28174 35.80171,0.072 1.15985,0.23622 1.55558,0.19804 1.97184,-0.19023 0.40682,-0.37947 0.41125,-0.41295 0.41125,-3.1043 v -2.46254 l -0.15006,-0.0341 c -0.0825,-0.0187 -0.91537,-0.2302 -1.85074,-0.46992 -12.30069,-3.15251 -24.69834,-3.15271 -36.94816,-6.1e-4 -0.93537,0.24069 -1.7682,0.45269 -1.85074,0.47111 l -0.15006,0.0335 v 2.45554 c 0,2.59691 0.01,2.6897 0.32104,3.02286 0.46553,0.4984 0.80385,0.52702 2.44392,0.20671 z m 18.87852,-16.19945 c 0.56476,-0.17911 1.22027,-0.53506 1.62792,-0.88397 l 0.24723,-0.21161 1.91992,0.23232 c 1.05595,0.12777 1.93677,0.21546 1.95738,0.19486 0.0206,-0.0206 0.0509,-0.19927 0.0673,-0.39704 l 0.0298,-0.35958 -0.25777,-0.0405 c -0.14177,-0.0223 -0.78297,-0.10053 -1.4249,-0.17388 -0.64192,-0.0734 -1.27806,-0.15075 -1.41364,-0.17198 l -0.24652,-0.0386 0.10911,-0.22882 c 0.0965,-0.20238 0.13271,-0.22494 0.31321,-0.19525 0.84325,0.13867 4.2638,0.50213 4.30437,0.45737 0.12115,-0.13368 0.13335,-0.75625 0.0149,-0.76029 -0.0625,-0.002 -1.02893,-0.11558 -2.14772,-0.2521 l -2.03415,-0.24824 0.0233,-0.16473 c 0.0128,-0.0906 0.0428,-0.19622 0.0667,-0.23472 0.0294,-0.0474 0.88397,0.0323 2.64449,0.24664 3.29094,0.40061 2.94214,0.40629 2.99901,-0.0489 0.0256,-0.20484 0.0366,-0.38208 0.0243,-0.39387 -0.0122,-0.0118 -1.20765,-0.16078 -2.65656,-0.33108 -3.23482,-0.38022 -2.93451,-0.31835 -2.93451,-0.60458 0,-0.12768 0.0115,-0.23216 0.0256,-0.23216 0.0141,0 1.51816,0.18008 3.34246,0.40017 4.05828,0.4896 3.61447,0.48594 3.6714,0.0303 0.0254,-0.20342 0.0351,-0.37986 0.0215,-0.39207 -0.0136,-0.0122 -1.60038,-0.20742 -3.52615,-0.43379 -1.92577,-0.22636 -3.56507,-0.43768 -3.64289,-0.4696 -0.12573,-0.0516 -0.27472,-0.37501 -0.2049,-0.44482 0.0148,-0.0148 1.98955,0.20794 4.38834,0.495 4.92807,0.58972 4.43966,0.59203 4.45481,-0.0211 l 0.007,-0.26902 -4.6786,-0.55694 -4.6786,-0.55695 -0.50681,-0.5079 c -1.92642,-1.93057 -5.29902,-1.793 -6.80512,0.27758 l -0.16252,0.22343 -4.72278,0.55986 -4.72277,0.55985 0.005,0.3029 c 0.009,0.56996 -0.40886,0.57104 4.45677,-0.0115 2.39879,-0.28719 4.37108,-0.5125 4.38289,-0.5007 0.0761,0.0761 -0.10648,0.42201 -0.24567,0.46533 -0.15471,0.0482 -6.78898,0.84995 -7.03271,0.84995 -0.11574,0 -0.11629,0.67159 -7.6e-4,0.78723 0.0318,0.0318 5.9393,-0.64215 6.75469,-0.77055 0.21083,-0.0332 0.21675,-0.0275 0.21675,0.20675 0,0.29648 0.30714,0.23229 -2.93451,0.61331 -1.44891,0.1703 -2.64437,0.31929 -2.65656,0.33108 -0.0122,0.0118 -10e-4,0.18903 0.0243,0.39387 0.0569,0.45516 -0.29193,0.44948 2.99902,0.0489 1.76052,-0.21431 2.61508,-0.29401 2.64449,-0.24664 0.0239,0.0385 0.0539,0.14412 0.0667,0.23472 l 0.0232,0.16473 -2.03415,0.24824 c -1.11878,0.13652 -2.08526,0.24997 -2.14772,0.2521 -0.11845,0.004 -0.10625,0.62661 0.0149,0.76029 0.0406,0.0448 3.46111,-0.3187 4.30436,-0.45737 0.18051,-0.0297 0.2167,-0.007 0.31321,0.19525 l 0.10911,0.22882 -0.24651,0.0385 c -0.20027,0.0313 -3.0434,0.37218 -3.10393,0.37218 -0.0329,0 0.0628,0.72903 0.1007,0.76692 0.0208,0.0208 0.90117,-0.0653 1.9563,-0.1914 l 1.91841,-0.22929 0.36176,0.29466 c 1.15914,0.94413 2.81735,1.25512 4.25734,0.79844 z m -3.00854,-2.13087 c -0.0193,-0.0502 0.0116,-0.35783 0.0686,-0.6836 0.16516,-0.94422 0.17441,-0.91127 -0.42951,-1.53 -0.75005,-0.76843 -0.72806,-0.83916 0.30012,-0.9653 0.86666,-0.10633 0.86488,-0.1051 1.20825,-0.82997 0.47358,-0.99973 0.55521,-1.00056 1.01874,-0.0104 0.3637,0.7769 0.26418,0.70924 1.24107,0.84387 1.00519,0.13854 1.01273,0.16637 0.25496,0.94075 l -0.58042,0.59315 0.0925,0.6163 c 0.19036,1.26776 0.17448,1.2824 -0.83648,0.77128 l -0.70229,-0.35506 -0.68145,0.3522 c -0.70209,0.36287 -0.8936,0.41441 -0.95409,0.25678 z"
             id="path1365" /><path
             d="m 220.3332,50.484605 q -0.13511,0.218979 -0.29818,0.400685 -0.16307,0.177047 -0.36807,0.302843 -0.20035,0.125797 -0.44728,0.195684 -0.24693,0.06989 -0.54512,0.06989 -0.37273,0 -0.69887,-0.139774 -0.32614,-0.139774 -0.57307,-0.37739 -0.24228,-0.237615 -0.38205,-0.559095 -0.13977,-0.32148 -0.13977,-0.684892 0,-0.363413 0.13977,-0.684893 0.13977,-0.32148 0.38205,-0.559095 0.24693,-0.237616 0.57307,-0.37739 0.32614,-0.139774 0.69887,-0.139774 0.3075,0 0.55444,0.06989 0.24693,0.06989 0.44727,0.195684 0.20035,0.125796 0.35876,0.307502 0.16307,0.177047 0.29818,0.391367 0.0233,0.03727 0.009,0.07921 -0.014,0.04193 -0.0559,0.06057 l -0.6616,0.260912 q -0.0466,0.01864 -0.0932,0 -0.0466,-0.01864 -0.0699,-0.05591 -0.13511,-0.21432 -0.32614,-0.326139 -0.19102,-0.116478 -0.46125,-0.116478 -0.17705,0 -0.33546,0.07455 -0.15375,0.07455 -0.27023,0.200342 -0.11647,0.121138 -0.1817,0.284207 -0.0652,0.16307 -0.0652,0.335458 0,0.177047 0.0652,0.340116 0.0652,0.158411 0.1817,0.279548 0.11648,0.121137 0.27023,0.195683 0.15841,0.07455 0.33546,0.07455 0.25625,0 0.46125,-0.121137 0.20967,-0.125796 0.3308,-0.32148 0.0233,-0.03727 0.0652,-0.05591 0.0466,-0.01864 0.0932,0 l 0.6616,0.260911 q 0.0419,0.01864 0.0559,0.06057 0.014,0.03727 -0.009,0.07921 z m 1.18225,-2.394793 q 0.0186,-0.04193 0.0606,-0.06989 0.0466,-0.03261 0.0978,-0.03261 h 0.65228 q 0.0466,0 0.0885,0.03261 0.0466,0.02795 0.0652,0.06989 l 1.36047,3.168208 q 0.0186,0.04193 -0.009,0.08852 -0.0233,0.04659 -0.0978,0.04659 h -0.79671 q -0.0512,0 -0.0978,-0.02795 -0.0419,-0.03261 -0.0652,-0.07455 l -0.1258,-0.279548 q -0.0233,-0.04193 -0.0699,-0.06989 -0.0419,-0.03261 -0.0885,-0.03261 h -0.98308 q -0.0513,0 -0.0978,0.03261 -0.0419,0.02796 -0.0606,0.06989 l -0.13045,0.279548 q -0.0186,0.04193 -0.0652,0.07455 -0.0419,0.02795 -0.0885,0.02795 h -0.80137 q -0.0233,0 -0.0466,-0.0093 -0.028,-0.0093 -0.0419,-0.02795 -0.0186,-0.01864 -0.0233,-0.04659 -0.005,-0.02796 0.014,-0.06523 z m 0.27489,2.026721 h 0.41466 q 0.0466,0 0.0652,-0.02795 0.0233,-0.03261 0,-0.07455 -0.0466,-0.116479 -0.11182,-0.27023 -0.0652,-0.15841 -0.12113,-0.293525 -0.0186,-0.04193 -0.0419,-0.04193 -0.0233,0 -0.0419,0.04193 l -0.23296,0.563755 q -0.0186,0.04193 0,0.07455 0.0186,0.02795 0.0699,0.02795 z m 3.78671,0.358753 h -0.40535 q -0.0466,0 -0.0792,0.03261 -0.0326,0.03261 -0.0326,0.07921 v 0.69421 q 0,0.04659 -0.0326,0.07921 -0.0326,0.03261 -0.0792,0.03261 h -0.70353 q -0.0466,0 -0.0792,-0.03261 -0.0326,-0.03261 -0.0326,-0.07921 v -3.186845 q 0,-0.04659 0.0326,-0.07921 0.0326,-0.03261 0.0792,-0.03261 h 1.42569 q 0.26091,0 0.48921,0.09784 0.23296,0.09784 0.40069,0.270229 0.17238,0.172388 0.27022,0.400685 0.10251,0.228298 0.10251,0.489209 0,0.260911 -0.0839,0.489209 -0.0839,0.223638 -0.25625,0.391367 -0.16773,0.163069 -0.42398,0.260911 -0.25159,0.09318 -0.59171,0.09318 z m 0.0326,-1.635354 h -0.43796 q -0.0466,0 -0.0792,0.03261 -0.0326,0.03261 -0.0326,0.07921 v 0.549777 q 0,0.04659 0.0326,0.07921 0.0326,0.03261 0.0792,0.03261 h 0.49853 q 0.17705,0 0.25625,-0.111819 0.0839,-0.116478 0.0839,-0.260911 0,-0.07455 -0.028,-0.144433 -0.0233,-0.07455 -0.0745,-0.130456 -0.0513,-0.05591 -0.1258,-0.08852 -0.0745,-0.03727 -0.17239,-0.03727 z m 3.98705,0 h -0.65228 q -0.0466,0 -0.0792,0.03261 -0.0326,0.03261 -0.0326,0.07921 v 2.329565 q 0,0.04659 -0.0326,0.07921 -0.028,0.03261 -0.0792,0.03261 h -0.69887 q -0.0466,0 -0.0792,-0.03261 -0.0326,-0.03261 -0.0326,-0.07921 v -2.329565 q 0,-0.04659 -0.0326,-0.07921 -0.028,-0.03261 -0.0792,-0.03261 h -0.6616 q -0.0466,0 -0.0792,-0.03261 -0.0326,-0.03261 -0.0326,-0.07921 V 48.09447 q 0,-0.04659 0.0326,-0.07921 0.0326,-0.03261 0.0792,-0.03261 h 2.46002 q 0.0513,0 0.0792,0.03261 0.0326,0.03261 0.0326,0.07921 v 0.633642 q 0,0.04659 -0.0326,0.07921 -0.028,0.03261 -0.0792,0.03261 z m 1.08442,-0.75012 q 0.0186,-0.04193 0.0606,-0.06989 0.0466,-0.03261 0.0978,-0.03261 h 0.65227 q 0.0466,0 0.0885,0.03261 0.0466,0.02795 0.0652,0.06989 l 1.36046,3.168208 q 0.0186,0.04193 -0.009,0.08852 -0.0233,0.04659 -0.0978,0.04659 h -0.79671 q -0.0513,0 -0.0978,-0.02795 -0.0419,-0.03261 -0.0652,-0.07455 l -0.1258,-0.279548 q -0.0233,-0.04193 -0.0699,-0.06989 -0.0419,-0.03261 -0.0885,-0.03261 h -0.98307 q -0.0512,0 -0.0978,0.03261 -0.0419,0.02796 -0.0606,0.06989 l -0.13046,0.279548 q -0.0186,0.04193 -0.0652,0.07455 -0.0419,0.02795 -0.0885,0.02795 h -0.80137 q -0.0233,0 -0.0466,-0.0093 -0.028,-0.0093 -0.0419,-0.02795 -0.0186,-0.01864 -0.0233,-0.04659 -0.005,-0.02796 0.014,-0.06523 z m 0.27489,2.026721 h 0.41466 q 0.0466,0 0.0652,-0.02795 0.0233,-0.03261 0,-0.07455 -0.0466,-0.116479 -0.11182,-0.27023 -0.0652,-0.15841 -0.12114,-0.293525 -0.0186,-0.04193 -0.0419,-0.04193 -0.0233,0 -0.0419,0.04193 l -0.23295,0.563755 q -0.0186,0.04193 0,0.07455 0.0186,0.02795 0.0699,0.02795 z m 3.19965,1.276602 h -0.70353 q -0.0513,0 -0.0839,-0.03261 -0.028,-0.03261 -0.028,-0.07921 V 48.09913 q 0,-0.04659 0.028,-0.07921 0.0326,-0.03261 0.0839,-0.03261 h 0.70353 q 0.0466,0 0.0792,0.03261 0.0326,0.03261 0.0326,0.07921 v 3.182186 q 0,0.04659 -0.0326,0.07921 -0.0326,0.03261 -0.0792,0.03261 z m 3.90785,-3.298664 v 3.186845 q 0,0.04659 -0.0326,0.07921 -0.0326,0.03261 -0.0792,0.03261 h -0.68955 q -0.0466,0 -0.0978,-0.02795 -0.0513,-0.02795 -0.0792,-0.06523 l -1.21603,-1.7099 q -0.028,-0.03727 -0.0606,-0.02795 -0.028,0.0047 -0.028,0.05125 v 1.667969 q 0,0.04659 -0.0326,0.07921 -0.0326,0.03261 -0.0792,0.03261 h -0.69421 q -0.0466,0 -0.0792,-0.03261 -0.0326,-0.03261 -0.0326,-0.07921 V 48.09448 q 0,-0.04659 0.0326,-0.07921 0.0326,-0.03261 0.0792,-0.03261 h 0.69887 q 0.0466,0 0.0978,0.02795 0.0513,0.02329 0.0792,0.06057 l 1.21137,1.709901 q 0.028,0.03727 0.0559,0.03261 0.0326,-0.0047 0.0326,-0.05125 v -1.667969 q 0,-0.04659 0.0326,-0.07921 0.0326,-0.03261 0.0792,-0.03261 h 0.68955 q 0.0466,0 0.0792,0.03261 0.0326,0.03261 0.0326,0.07921 z m 1.05645,2.129222 q 0.2516,0.16307 0.49853,0.256253 0.24693,0.09318 0.46125,0.09318 0.20501,0 0.31217,-0.05591 0.10716,-0.06057 0.10716,-0.177047 0,-0.06057 -0.0466,-0.09318 -0.0466,-0.03727 -0.12579,-0.06057 -0.0746,-0.02329 -0.17705,-0.03727 -0.1025,-0.01398 -0.20966,-0.03727 -0.1025,-0.01864 -0.24228,-0.04193 -0.13511,-0.02795 -0.27954,-0.07455 -0.14444,-0.05125 -0.28887,-0.125796 -0.13977,-0.07455 -0.25159,-0.191025 -0.11182,-0.116478 -0.18171,-0.274888 -0.0652,-0.16307 -0.0652,-0.382049 0,-0.32148 0.1258,-0.531141 0.1258,-0.209661 0.31682,-0.330798 0.19568,-0.125797 0.4333,-0.172388 0.23762,-0.05125 0.46125,-0.05125 0.39137,0 0.69887,0.116478 0.31217,0.111819 0.59637,0.330798 0.0373,0.03261 0.0419,0.07921 0.005,0.04659 -0.0233,0.08387 l -0.36341,0.517163 q -0.028,0.03727 -0.0745,0.04659 -0.0466,0.0093 -0.0839,-0.01864 -0.23762,-0.149092 -0.44262,-0.209661 -0.205,-0.06523 -0.37739,-0.06523 -0.0512,0 -0.12114,0.0047 -0.0652,0 -0.12579,0.01864 -0.0606,0.01398 -0.10251,0.05125 -0.0373,0.03727 -0.0373,0.102501 0,0.06523 0.0978,0.116478 0.0979,0.05125 0.22364,0.08852 0.1258,0.03727 0.24228,0.06057 0.11647,0.01864 0.14909,0.0233 0.16773,0.03261 0.36807,0.09784 0.20034,0.06057 0.37273,0.186365 0.17705,0.121137 0.29353,0.32148 0.12113,0.195684 0.12113,0.493868 0,0.279548 -0.0978,0.484549 -0.0978,0.200343 -0.27489,0.330799 -0.17239,0.130455 -0.41932,0.195683 -0.24227,0.06057 -0.54046,0.06057 -0.24227,0 -0.45193,-0.04193 -0.20966,-0.03727 -0.39137,-0.10716 -0.18171,-0.06989 -0.34012,-0.16307 -0.15375,-0.09784 -0.2842,-0.205002 -0.0373,-0.02795 -0.0419,-0.07455 -0.005,-0.05125 0.0233,-0.08852 l 0.35875,-0.517164 q 0.028,-0.03727 0.0746,-0.04659 0.0466,-0.0093 0.0839,0.01398 z m 3.04125,0.01398 q -0.0978,0 -0.18636,-0.03727 -0.0885,-0.03727 -0.15376,-0.102501 -0.0606,-0.06523 -0.0978,-0.149092 -0.0373,-0.08852 -0.0373,-0.186365 0,-0.09784 0.0373,-0.186366 0.0373,-0.08852 0.0978,-0.153751 0.0652,-0.06523 0.15376,-0.102501 0.0885,-0.03727 0.18636,-0.03727 0.0978,0 0.18637,0.03727 0.0885,0.03727 0.15375,0.102501 0.0652,0.06523 0.1025,0.153751 0.0373,0.08852 0.0373,0.186366 0,0.09784 -0.0373,0.186365 -0.0373,0.08386 -0.1025,0.149092 -0.0652,0.06523 -0.15375,0.102501 -0.0885,0.03727 -0.18637,0.03727 z m 0,1.188078 q -0.0978,0 -0.18636,-0.03727 -0.0885,-0.03727 -0.15376,-0.102501 -0.0606,-0.06523 -0.0978,-0.153751 -0.0373,-0.08852 -0.0373,-0.186365 0,-0.09784 0.0373,-0.181706 0.0373,-0.08387 0.0978,-0.149093 0.0652,-0.06523 0.15376,-0.102501 0.0885,-0.03727 0.18636,-0.03727 0.0978,0 0.18637,0.03727 0.0885,0.03727 0.15375,0.102501 0.0652,0.06523 0.1025,0.149093 0.0373,0.08386 0.0373,0.181706 0,0.09784 -0.0373,0.186365 -0.0373,0.08852 -0.1025,0.153751 -0.0652,0.06523 -0.15375,0.102501 -0.0885,0.03727 -0.18637,0.03727 z"
             id="path1366"
             style="-inkscape-font-specification:Heavitas;opacity:1;fill:#ffffff;stroke-width:0.0220116"
             aria-label="captains:"
             transform="matrix(20.410629,0,0,20.410629,-4488.3753,-1212.7222)" /></g><path
           d="m 615.67705,-51.241918 v 0.237979 q 0,0.05666 0.0397,0.09633 0.0397,0.03966 0.0963,0.03966 h 1.53553 q 0.0567,0 0.0963,0.03966 0.0397,0.03966 0.0397,0.09632 v 0.781931 q 0,0.05666 -0.0397,0.09632 -0.0397,0.03966 -0.0963,0.03966 h -1.53553 q -0.0567,0 -0.0963,0.03966 -0.0397,0.03966 -0.0397,0.09632 v 0.215314 q 0,0.05666 0.0397,0.09633 0.0397,0.03966 0.0963,0.03966 h 1.76218 q 0.0567,0 0.0963,0.03966 0.0397,0.03966 0.0397,0.09633 v 0.78193 q 0,0.05666 -0.0397,0.09633 -0.0397,0.03966 -0.0963,0.03966 h -2.88408 q -0.0567,0 -0.0963,-0.03966 -0.0397,-0.03966 -0.0397,-0.09633 v -3.875653 q 0,-0.05666 0.0397,-0.09633 0.0397,-0.03966 0.0963,-0.03966 h 2.88408 q 0.0567,0 0.0963,0.03966 0.0397,0.03966 0.0397,0.09633 v 0.770597 q 0,0.05666 -0.0397,0.09633 -0.0397,0.03966 -0.0963,0.03966 h -1.76218 q -0.0567,0 -0.0963,0.03966 -0.0397,0.03966 -0.0397,0.09633 z m 3.91391,-1.04824 q 0.0227,-0.051 0.0737,-0.08499 0.0567,-0.03966 0.11899,-0.03966 h 0.79326 q 0.0567,0 0.10766,0.03966 0.0567,0.034 0.0793,0.08499 l 1.65452,3.852989 q 0.0227,0.051 -0.0113,0.107657 -0.0283,0.05666 -0.11899,0.05666 h -0.96891 q -0.0623,0 -0.11899,-0.034 -0.051,-0.03966 -0.0793,-0.09066 l -0.15298,-0.339969 q -0.0283,-0.051 -0.085,-0.08499 -0.051,-0.03966 -0.10766,-0.03966 h -1.19556 q -0.0623,0 -0.11899,0.03966 -0.051,0.034 -0.0737,0.08499 l -0.15865,0.339969 q -0.0227,0.051 -0.0793,0.09066 -0.051,0.034 -0.10766,0.034 h -0.97458 q -0.0283,0 -0.0567,-0.01133 -0.034,-0.01133 -0.051,-0.034 -0.0227,-0.02266 -0.0283,-0.05666 -0.006,-0.034 0.017,-0.07933 z m 0.33431,2.46478 h 0.50428 q 0.0567,0 0.0793,-0.034 0.0283,-0.03966 0,-0.09066 -0.0567,-0.141654 -0.13599,-0.328638 -0.0793,-0.192649 -0.14732,-0.356968 -0.0227,-0.051 -0.051,-0.051 -0.0283,0 -0.051,0.051 l -0.28331,0.685606 q -0.0227,0.051 0,0.09066 0.0227,0.034 0.085,0.034 z m 3.61926,1.552528 h -0.84426 q -0.0567,0 -0.0963,-0.03966 -0.0397,-0.03966 -0.0397,-0.09633 v -3.875653 q 0,-0.05666 0.0397,-0.09633 0.0397,-0.03966 0.0963,-0.03966 h 1.76217 q 0.32864,0 0.60628,0.113323 0.27765,0.107657 0.47029,0.305973 0.19832,0.198315 0.30598,0.470291 0.11332,0.271976 0.11332,0.600613 0,0.181317 -0.0453,0.362634 -0.0397,0.175651 -0.11899,0.334304 -0.0793,0.158652 -0.18698,0.288974 -0.10766,0.124655 -0.24365,0.209648 -0.0453,0.034 -0.0623,0.08499 -0.0113,0.04533 0.0227,0.09066 0.21531,0.283308 0.45329,0.583614 0.23798,0.300307 0.42497,0.549618 0.034,0.04533 0.017,0.101991 -0.017,0.051 -0.0737,0.051 h -1.0539 q -0.0567,0 -0.12466,-0.02833 -0.0623,-0.034 -0.0963,-0.07933 -0.18132,-0.237979 -0.36264,-0.481624 -0.17565,-0.243645 -0.3513,-0.492956 -0.034,-0.04533 -0.0963,-0.07366 -0.0623,-0.034 -0.11899,-0.034 h -0.12466 q -0.0567,0 -0.0963,0.03966 -0.0397,0.03966 -0.0397,0.09633 v 0.917918 q 0,0.05666 -0.0397,0.09633 -0.0397,0.03966 -0.0963,0.03966 z m 0.27197,-2.232467 h 0.60062 q 0.068,0 0.14165,-0.02267 0.0737,-0.02833 0.13599,-0.07933 0.0623,-0.05666 0.10199,-0.135988 0.0397,-0.07933 0.0397,-0.186983 0,-0.05666 -0.0227,-0.130322 -0.017,-0.07933 -0.068,-0.14732 -0.0453,-0.07366 -0.13032,-0.118989 -0.0793,-0.051 -0.19831,-0.051 h -0.60062 q -0.0567,0 -0.0963,0.03966 -0.0397,0.03966 -0.0397,0.09633 v 0.600613 q 0,0.05666 0.0397,0.09633 0.0397,0.03966 0.0963,0.03966 z m 6.68465,-1.779174 v 3.875653 q 0,0.05666 -0.0397,0.09633 -0.0397,0.03966 -0.0963,0.03966 h -0.83859 q -0.0567,0 -0.11899,-0.034 -0.0623,-0.034 -0.0963,-0.07933 l -1.47887,-2.079481 q -0.034,-0.04533 -0.0737,-0.034 -0.034,0.0057 -0.034,0.06233 v 2.028485 q 0,0.05666 -0.0397,0.09633 -0.0397,0.03966 -0.0963,0.03966 h -0.84425 q -0.0567,0 -0.0963,-0.03966 -0.0397,-0.03966 -0.0397,-0.09633 v -3.875653 q 0,-0.05666 0.0397,-0.09633 0.0397,-0.03966 0.0963,-0.03966 h 0.84992 q 0.0567,0 0.11899,0.034 0.0623,0.02833 0.0963,0.07366 l 1.47321,2.079481 q 0.034,0.04533 0.068,0.03966 0.0397,-0.0057 0.0397,-0.06233 v -2.028485 q 0,-0.05666 0.0397,-0.09633 0.0397,-0.03966 0.0963,-0.03966 h 0.83859 q 0.0567,0 0.0963,0.03966 0.0397,0.03966 0.0397,0.09633 z m 1.93074,1.042573 v 0.237979 q 0,0.05666 0.0397,0.09633 0.0397,0.03966 0.0963,0.03966 h 1.53553 q 0.0567,0 0.0963,0.03966 0.0397,0.03966 0.0397,0.09632 v 0.781931 q 0,0.05666 -0.0397,0.09632 -0.0397,0.03966 -0.0963,0.03966 h -1.53553 q -0.0567,0 -0.0963,0.03966 -0.0397,0.03966 -0.0397,0.09632 v 0.215314 q 0,0.05666 0.0397,0.09633 0.0397,0.03966 0.0963,0.03966 h 1.76217 q 0.0567,0 0.0963,0.03966 0.0397,0.03966 0.0397,0.09633 v 0.78193 q 0,0.05666 -0.0397,0.09633 -0.0397,0.03966 -0.0963,0.03966 h -2.88407 q -0.0567,0 -0.0963,-0.03966 -0.0397,-0.03966 -0.0397,-0.09633 v -3.875653 q 0,-0.05666 0.0397,-0.09633 0.0397,-0.03966 0.0963,-0.03966 h 2.88407 q 0.0567,0 0.0963,0.03966 0.0397,0.03966 0.0397,0.09633 v 0.770597 q 0,0.05666 -0.0397,0.09633 -0.0397,0.03966 -0.0963,0.03966 h -1.76217 q -0.0567,0 -0.0963,0.03966 -0.0397,0.03966 -0.0397,0.09633 z m 2.72968,2.83308 v -3.875653 q 0,-0.05666 0.0397,-0.09633 0.0397,-0.03966 0.0963,-0.03966 h 1.54687 q 0.88958,0 1.4562,0.521286 0.30597,0.283309 0.46462,0.674274 0.15866,0.390965 0.15866,0.878254 0,0.48729 -0.15866,0.883921 -0.15865,0.390965 -0.46462,0.674273 -0.28331,0.254978 -0.65161,0.385299 -0.36263,0.130322 -0.80459,0.130322 h -1.54687 q -0.0567,0 -0.0963,-0.03966 -0.0397,-0.03966 -0.0397,-0.09633 z m 1.25788,-0.906585 h 0.42497 q 0.15865,0 0.32863,-0.03966 0.16999,-0.03966 0.30598,-0.14732 0.13598,-0.113323 0.22098,-0.311639 0.0907,-0.203981 0.0907,-0.526952 0,-0.322972 -0.0907,-0.521287 -0.085,-0.203982 -0.22665,-0.311639 -0.13599,-0.113323 -0.30597,-0.152986 -0.16432,-0.03966 -0.32297,-0.03966 h -0.42497 q -0.0567,0 -0.0963,0.03966 -0.0397,0.03966 -0.0397,0.09632 v 1.779175 q 0,0.05666 0.0397,0.09632 0.0397,0.03966 0.0963,0.03966 z m 3.50027,-0.362635 q -0.11899,0 -0.22665,-0.04533 -0.10765,-0.04533 -0.18698,-0.124656 -0.0737,-0.07933 -0.11899,-0.181317 -0.0453,-0.107657 -0.0453,-0.226646 0,-0.118989 0.0453,-0.226646 0.0453,-0.107658 0.11899,-0.186984 0.0793,-0.07933 0.18698,-0.124655 0.10766,-0.04533 0.22665,-0.04533 0.11899,0 0.22665,0.04533 0.10765,0.04533 0.18698,0.124655 0.0793,0.07933 0.12466,0.186984 0.0453,0.107657 0.0453,0.226646 0,0.118989 -0.0453,0.226646 -0.0453,0.101991 -0.12466,0.181317 -0.0793,0.07933 -0.18698,0.124656 -0.10766,0.04533 -0.22665,0.04533 z m 0,1.444871 q -0.11899,0 -0.22665,-0.04533 -0.10765,-0.04533 -0.18698,-0.124656 -0.0737,-0.07933 -0.11899,-0.186983 -0.0453,-0.107657 -0.0453,-0.226646 0,-0.11899 0.0453,-0.220981 0.0453,-0.101991 0.11899,-0.181317 0.0793,-0.07933 0.18698,-0.124655 0.10766,-0.04533 0.22665,-0.04533 0.11899,0 0.22665,0.04533 0.10765,0.04533 0.18698,0.124655 0.0793,0.07933 0.12466,0.181317 0.0453,0.101991 0.0453,0.220981 0,0.118989 -0.0453,0.226646 -0.0453,0.107657 -0.12466,0.186983 -0.0793,0.07933 -0.18698,0.124656 -0.10766,0.04533 -0.22665,0.04533 z"
           id="text1367"
           style="-inkscape-font-specification:Heavitas;opacity:1;fill:#f9f9f9;stroke-width:0.160616"
           aria-label="earned:" /></g><g
         id="g1436"><path
           d="m 619.39078,-43.554659 c -0.7122,-0.0035 -1.42976,0.01865 -1.52033,0.06955 -0.40281,0.226391 -0.3785,0.311074 0.55742,1.944599 0.9464,1.651787 0.90682,1.600812 1.06982,1.378714 0.0408,-0.05569 0.41671,-0.690136 0.83511,-1.409871 0.91068,-1.566577 0.92486,-1.615915 0.54623,-1.898715 -0.0692,-0.05168 -0.77607,-0.08078 -1.48825,-0.08428 z m -1.05795,0.314738 c 0.0817,-1.29e-4 0.17695,0.0014 0.28589,0.0014 h 0.58973 v 1.152824 c 0,0.930252 -0.008,1.152822 -0.0408,1.152822 -0.0225,0 -0.30989,-0.469814 -0.63872,-1.044015 -0.67827,-1.184398 -0.76808,-1.262065 -0.19608,-1.262971 z m 1.1872,0.0014 h 0.58979 c 0.64182,0 0.68766,0.01181 0.68766,0.176477 0,0.09967 -1.1774,2.129169 -1.23522,2.129169 -0.0348,0 -0.0422,-0.203269 -0.0422,-1.152822 z"
           style="opacity:1;fill:#ffffff;fill-opacity:1;stroke:#ffffff;stroke-width:0.011776"
           id="path1431" /><path
           d="m 621.29049,-41.089723 v 0.0831 q 0,0.01978 0.0139,0.03363 0.0138,0.01385 0.0336,0.01385 h 0.5342 q 0.0198,0 0.0336,0.01385 0.0139,0.01385 0.0139,0.03364 v 0.276991 q 0,0.01979 -0.0139,0.03364 -0.0138,0.01385 -0.0336,0.01385 h -0.5342 q -0.0198,0 -0.0336,0.01385 -0.0139,0.01385 -0.0139,0.03364 v 0.437251 q 0,0.01978 -0.0138,0.03363 -0.0139,0.01385 -0.0336,0.01385 h -0.29875 q -0.0198,0 -0.0336,-0.01385 -0.0139,-0.01385 -0.0139,-0.03363 v -1.353301 q 0,-0.01978 0.0139,-0.03363 0.0139,-0.01385 0.0336,-0.01385 h 1.00706 q 0.0198,0 0.0336,0.01385 0.0138,0.01385 0.0138,0.03363 v 0.271056 q 0,0.01978 -0.0138,0.03363 -0.0139,0.01385 -0.0336,0.01385 h -0.61334 q -0.0198,0 -0.0336,0.01385 -0.0139,0.01385 -0.0139,0.03364 z m 1.23014,1.034761 h -0.29479 q -0.0198,0 -0.0336,-0.01385 -0.0138,-0.01385 -0.0138,-0.03363 v -1.353301 q 0,-0.01978 0.0138,-0.03363 0.0139,-0.01385 0.0336,-0.01385 h 0.61531 q 0.11476,0 0.2117,0.03957 0.0969,0.03759 0.16422,0.106839 0.0693,0.06925 0.10684,0.164217 0.0396,0.09497 0.0396,0.209722 0,0.06331 -0.0158,0.126624 -0.0139,0.06133 -0.0416,0.116732 -0.0277,0.0554 -0.0653,0.100904 -0.0376,0.04353 -0.0851,0.07321 -0.0158,0.01187 -0.0218,0.02968 -0.004,0.01583 0.008,0.03166 0.0752,0.09893 0.15828,0.203787 0.0831,0.104861 0.14839,0.191915 0.0119,0.01583 0.006,0.03561 -0.006,0.01781 -0.0257,0.01781 h -0.368 q -0.0198,0 -0.0435,-0.0099 -0.0218,-0.01187 -0.0336,-0.0277 -0.0633,-0.0831 -0.12663,-0.168173 -0.0613,-0.08508 -0.12267,-0.172131 -0.0119,-0.01583 -0.0336,-0.02572 -0.0218,-0.01187 -0.0416,-0.01187 h -0.0435 q -0.0198,0 -0.0336,0.01385 -0.0138,0.01385 -0.0138,0.03364 v 0.320519 q 0,0.01978 -0.0139,0.03363 -0.0138,0.01385 -0.0336,0.01385 z m 0.095,-0.779533 h 0.20972 q 0.0237,0 0.0495,-0.0079 0.0257,-0.0099 0.0475,-0.0277 0.0218,-0.01978 0.0356,-0.04748 0.0138,-0.0277 0.0138,-0.06529 0,-0.01978 -0.008,-0.04551 -0.006,-0.0277 -0.0237,-0.05144 -0.0158,-0.02572 -0.0455,-0.04155 -0.0277,-0.01781 -0.0693,-0.01781 h -0.20972 q -0.0198,0 -0.0336,0.01385 -0.0138,0.01385 -0.0138,0.03363 v 0.209722 q 0,0.01978 0.0138,0.03363 0.0139,0.01385 0.0336,0.01385 z m 0.90962,0.0554 q 0,-0.154324 0.0594,-0.290841 0.0593,-0.136517 0.16026,-0.237421 0.1009,-0.102883 0.23742,-0.162238 0.13651,-0.05935 0.29084,-0.05935 0.15432,0 0.29084,0.05935 0.13652,0.05936 0.23742,0.162238 0.10288,0.100904 0.16224,0.237421 0.0593,0.136517 0.0593,0.290841 0,0.154324 -0.0593,0.290841 -0.0594,0.136517 -0.16224,0.2394 -0.1009,0.100904 -0.23742,0.160259 -0.13652,0.05935 -0.29084,0.05935 -0.15433,0 -0.29084,-0.05935 -0.13652,-0.05935 -0.23742,-0.160259 -0.10091,-0.102883 -0.16026,-0.2394 -0.0594,-0.136517 -0.0594,-0.290841 z m 0.39175,0 q 0,0.07518 0.0277,0.142453 0.0277,0.06727 0.0752,0.11871 0.0495,0.05144 0.11475,0.0831 0.0653,0.02968 0.1385,0.02968 0.0732,0 0.13849,-0.02968 0.0653,-0.03166 0.11476,-0.0831 0.0495,-0.05144 0.0772,-0.11871 0.0277,-0.06727 0.0277,-0.142453 0,-0.07321 -0.0277,-0.140474 -0.0277,-0.06925 -0.0772,-0.118711 -0.0495,-0.05144 -0.11476,-0.08112 -0.0653,-0.03166 -0.13849,-0.03166 -0.0732,0 -0.1385,0.03166 -0.0653,0.02968 -0.11475,0.08112 -0.0475,0.04946 -0.0752,0.118711 -0.0277,0.06727 -0.0277,0.140474 z m 2.91385,-0.674672 v 1.351323 q 0,0.01978 -0.0139,0.03363 -0.0138,0.01385 -0.0336,0.01385 h -0.29875 q -0.0198,0 -0.0336,-0.01385 -0.0138,-0.01385 -0.0138,-0.03363 v -0.637081 q 0,-0.01978 -0.0178,-0.02176 -0.0178,-0.002 -0.0297,0.01385 l -0.33239,0.536177 q -0.01,0.01583 -0.0317,0.01583 -0.0218,0 -0.0336,-0.01583 l -0.33239,-0.536177 q -0.01,-0.01583 -0.0277,-0.01385 -0.0178,0.002 -0.0178,0.02176 v 0.637081 q 0,0.01978 -0.0138,0.03363 -0.0139,0.01385 -0.0336,0.01385 h -0.29876 q -0.0198,0 -0.0336,-0.01385 -0.0138,-0.01385 -0.0138,-0.03363 v -1.351323 q 0,-0.01978 0.0138,-0.03363 0.0139,-0.01385 0.0336,-0.01385 h 0.27699 q 0.0198,0 0.0416,0.01187 0.0218,0.01187 0.0317,0.0277 l 0.37987,0.55794 q 0.0119,0.01583 0.0277,0.01583 0.0158,0 0.0257,-0.01583 l 0.37988,-0.55794 q 0.0119,-0.01583 0.0336,-0.0277 0.0218,-0.01187 0.0416,-0.01187 h 0.27699 q 0.0198,0 0.0336,0.01385 0.0139,0.01385 0.0139,0.03363 z"
           id="text1436"
           style="-inkscape-font-specification:Heavitas;opacity:1;fill:#ffffff;stroke-width:0.00778941"
           aria-label="from" /></g><g
         id="g1437"
         transform="translate(-2.326863,14.25909)"
         style="opacity:1"><path
           d="m 619.39078,-43.554659 c -0.7122,-0.0035 -1.42976,0.01865 -1.52033,0.06955 -0.40281,0.226391 -0.3785,0.311074 0.55742,1.944599 0.9464,1.651787 0.90682,1.600812 1.06982,1.378714 0.0408,-0.05569 0.41671,-0.690136 0.83511,-1.409871 0.91068,-1.566577 0.92486,-1.615915 0.54623,-1.898715 -0.0692,-0.05168 -0.77607,-0.08078 -1.48825,-0.08428 z m -1.05795,0.314738 c 0.0817,-1.29e-4 0.17695,0.0014 0.28589,0.0014 h 0.58973 v 1.152824 c 0,0.930252 -0.008,1.152822 -0.0408,1.152822 -0.0225,0 -0.30989,-0.469814 -0.63872,-1.044015 -0.67827,-1.184398 -0.76808,-1.262065 -0.19608,-1.262971 z m 1.1872,0.0014 h 0.58979 c 0.64182,0 0.68766,0.01181 0.68766,0.176477 0,0.09967 -1.1774,2.129169 -1.23522,2.129169 -0.0348,0 -0.0422,-0.203269 -0.0422,-1.152822 z"
           style="opacity:1;fill:#ffffff;fill-opacity:1;stroke:#ffffff;stroke-width:0.011776"
           id="path1436" /><path
           d="m 621.29049,-41.089723 v 0.0831 q 0,0.01978 0.0139,0.03363 0.0138,0.01385 0.0336,0.01385 h 0.5342 q 0.0198,0 0.0336,0.01385 0.0139,0.01385 0.0139,0.03364 v 0.276991 q 0,0.01979 -0.0139,0.03364 -0.0138,0.01385 -0.0336,0.01385 h -0.5342 q -0.0198,0 -0.0336,0.01385 -0.0139,0.01385 -0.0139,0.03364 v 0.437251 q 0,0.01978 -0.0138,0.03363 -0.0139,0.01385 -0.0336,0.01385 h -0.29875 q -0.0198,0 -0.0336,-0.01385 -0.0139,-0.01385 -0.0139,-0.03363 v -1.353301 q 0,-0.01978 0.0139,-0.03363 0.0139,-0.01385 0.0336,-0.01385 h 1.00706 q 0.0198,0 0.0336,0.01385 0.0138,0.01385 0.0138,0.03363 v 0.271056 q 0,0.01978 -0.0138,0.03363 -0.0139,0.01385 -0.0336,0.01385 h -0.61334 q -0.0198,0 -0.0336,0.01385 -0.0139,0.01385 -0.0139,0.03364 z m 1.23014,1.034761 h -0.29479 q -0.0198,0 -0.0336,-0.01385 -0.0138,-0.01385 -0.0138,-0.03363 v -1.353301 q 0,-0.01978 0.0138,-0.03363 0.0139,-0.01385 0.0336,-0.01385 h 0.61531 q 0.11476,0 0.2117,0.03957 0.0969,0.03759 0.16422,0.106839 0.0693,0.06925 0.10684,0.164217 0.0396,0.09497 0.0396,0.209722 0,0.06331 -0.0158,0.126624 -0.0139,0.06133 -0.0416,0.116732 -0.0277,0.0554 -0.0653,0.100904 -0.0376,0.04353 -0.0851,0.07321 -0.0158,0.01187 -0.0218,0.02968 -0.004,0.01583 0.008,0.03166 0.0752,0.09893 0.15828,0.203787 0.0831,0.104861 0.14839,0.191915 0.0119,0.01583 0.006,0.03561 -0.006,0.01781 -0.0257,0.01781 h -0.368 q -0.0198,0 -0.0435,-0.0099 -0.0218,-0.01187 -0.0336,-0.0277 -0.0633,-0.0831 -0.12663,-0.168173 -0.0613,-0.08508 -0.12267,-0.172131 -0.0119,-0.01583 -0.0336,-0.02572 -0.0218,-0.01187 -0.0416,-0.01187 h -0.0435 q -0.0198,0 -0.0336,0.01385 -0.0138,0.01385 -0.0138,0.03364 v 0.320519 q 0,0.01978 -0.0139,0.03363 -0.0138,0.01385 -0.0336,0.01385 z m 0.095,-0.779533 h 0.20972 q 0.0237,0 0.0495,-0.0079 0.0257,-0.0099 0.0475,-0.0277 0.0218,-0.01978 0.0356,-0.04748 0.0138,-0.0277 0.0138,-0.06529 0,-0.01978 -0.008,-0.04551 -0.006,-0.0277 -0.0237,-0.05144 -0.0158,-0.02572 -0.0455,-0.04155 -0.0277,-0.01781 -0.0693,-0.01781 h -0.20972 q -0.0198,0 -0.0336,0.01385 -0.0138,0.01385 -0.0138,0.03363 v 0.209722 q 0,0.01978 0.0138,0.03363 0.0139,0.01385 0.0336,0.01385 z m 0.90962,0.0554 q 0,-0.154324 0.0594,-0.290841 0.0593,-0.136517 0.16026,-0.237421 0.1009,-0.102883 0.23742,-0.162238 0.13651,-0.05935 0.29084,-0.05935 0.15432,0 0.29084,0.05935 0.13652,0.05936 0.23742,0.162238 0.10288,0.100904 0.16224,0.237421 0.0593,0.136517 0.0593,0.290841 0,0.154324 -0.0593,0.290841 -0.0594,0.136517 -0.16224,0.2394 -0.1009,0.100904 -0.23742,0.160259 -0.13652,0.05935 -0.29084,0.05935 -0.15433,0 -0.29084,-0.05935 -0.13652,-0.05935 -0.23742,-0.160259 -0.10091,-0.102883 -0.16026,-0.2394 -0.0594,-0.136517 -0.0594,-0.290841 z m 0.39175,0 q 0,0.07518 0.0277,0.142453 0.0277,0.06727 0.0752,0.11871 0.0495,0.05144 0.11475,0.0831 0.0653,0.02968 0.1385,0.02968 0.0732,0 0.13849,-0.02968 0.0653,-0.03166 0.11476,-0.0831 0.0495,-0.05144 0.0772,-0.11871 0.0277,-0.06727 0.0277,-0.142453 0,-0.07321 -0.0277,-0.140474 -0.0277,-0.06925 -0.0772,-0.118711 -0.0495,-0.05144 -0.11476,-0.08112 -0.0653,-0.03166 -0.13849,-0.03166 -0.0732,0 -0.1385,0.03166 -0.0653,0.02968 -0.11475,0.08112 -0.0475,0.04946 -0.0752,0.118711 -0.0277,0.06727 -0.0277,0.140474 z m 2.91385,-0.674672 v 1.351323 q 0,0.01978 -0.0139,0.03363 -0.0138,0.01385 -0.0336,0.01385 h -0.29875 q -0.0198,0 -0.0336,-0.01385 -0.0138,-0.01385 -0.0138,-0.03363 v -0.637081 q 0,-0.01978 -0.0178,-0.02176 -0.0178,-0.002 -0.0297,0.01385 l -0.33239,0.536177 q -0.01,0.01583 -0.0317,0.01583 -0.0218,0 -0.0336,-0.01583 l -0.33239,-0.536177 q -0.01,-0.01583 -0.0277,-0.01385 -0.0178,0.002 -0.0178,0.02176 v 0.637081 q 0,0.01978 -0.0138,0.03363 -0.0139,0.01385 -0.0336,0.01385 h -0.29876 q -0.0198,0 -0.0336,-0.01385 -0.0138,-0.01385 -0.0138,-0.03363 v -1.351323 q 0,-0.01978 0.0138,-0.03363 0.0139,-0.01385 0.0336,-0.01385 h 0.27699 q 0.0198,0 0.0416,0.01187 0.0218,0.01187 0.0317,0.0277 l 0.37987,0.55794 q 0.0119,0.01583 0.0277,0.01583 0.0158,0 0.0257,-0.01583 l 0.37988,-0.55794 q 0.0119,-0.01583 0.0336,-0.0277 0.0218,-0.01187 0.0416,-0.01187 h 0.27699 q 0.0198,0 0.0336,0.01385 0.0139,0.01385 0.0139,0.03363 z"
           id="text1437"
           style="-inkscape-font-specification:Heavitas;opacity:1;fill:#ffffff;stroke-width:0.00778941"
           aria-label="from" /></g><g
         id="g1438"
         transform="translate(-0.11665186,28.508866)"><path
           d="m 619.39078,-43.554659 c -0.7122,-0.0035 -1.42976,0.01865 -1.52033,0.06955 -0.40281,0.226391 -0.3785,0.311074 0.55742,1.944599 0.9464,1.651787 0.90682,1.600812 1.06982,1.378714 0.0408,-0.05569 0.41671,-0.690136 0.83511,-1.409871 0.91068,-1.566577 0.92486,-1.615915 0.54623,-1.898715 -0.0692,-0.05168 -0.77607,-0.08078 -1.48825,-0.08428 z m -1.05795,0.314738 c 0.0817,-1.29e-4 0.17695,0.0014 0.28589,0.0014 h 0.58973 v 1.152824 c 0,0.930252 -0.008,1.152822 -0.0408,1.152822 -0.0225,0 -0.30989,-0.469814 -0.63872,-1.044015 -0.67827,-1.184398 -0.76808,-1.262065 -0.19608,-1.262971 z m 1.1872,0.0014 h 0.58979 c 0.64182,0 0.68766,0.01181 0.68766,0.176477 0,0.09967 -1.1774,2.129169 -1.23522,2.129169 -0.0348,0 -0.0422,-0.203269 -0.0422,-1.152822 z"
           style="opacity:1;fill:#ffffff;fill-opacity:1;stroke:#ffffff;stroke-width:0.011776"
           id="path1437" /><path
           d="m 621.29049,-41.089723 v 0.0831 q 0,0.01978 0.0139,0.03363 0.0138,0.01385 0.0336,0.01385 h 0.5342 q 0.0198,0 0.0336,0.01385 0.0139,0.01385 0.0139,0.03364 v 0.276991 q 0,0.01979 -0.0139,0.03364 -0.0138,0.01385 -0.0336,0.01385 h -0.5342 q -0.0198,0 -0.0336,0.01385 -0.0139,0.01385 -0.0139,0.03364 v 0.437251 q 0,0.01978 -0.0138,0.03363 -0.0139,0.01385 -0.0336,0.01385 h -0.29875 q -0.0198,0 -0.0336,-0.01385 -0.0139,-0.01385 -0.0139,-0.03363 v -1.353301 q 0,-0.01978 0.0139,-0.03363 0.0139,-0.01385 0.0336,-0.01385 h 1.00706 q 0.0198,0 0.0336,0.01385 0.0138,0.01385 0.0138,0.03363 v 0.271056 q 0,0.01978 -0.0138,0.03363 -0.0139,0.01385 -0.0336,0.01385 h -0.61334 q -0.0198,0 -0.0336,0.01385 -0.0139,0.01385 -0.0139,0.03364 z m 1.23014,1.034761 h -0.29479 q -0.0198,0 -0.0336,-0.01385 -0.0138,-0.01385 -0.0138,-0.03363 v -1.353301 q 0,-0.01978 0.0138,-0.03363 0.0139,-0.01385 0.0336,-0.01385 h 0.61531 q 0.11476,0 0.2117,0.03957 0.0969,0.03759 0.16422,0.106839 0.0693,0.06925 0.10684,0.164217 0.0396,0.09497 0.0396,0.209722 0,0.06331 -0.0158,0.126624 -0.0139,0.06133 -0.0416,0.116732 -0.0277,0.0554 -0.0653,0.100904 -0.0376,0.04353 -0.0851,0.07321 -0.0158,0.01187 -0.0218,0.02968 -0.004,0.01583 0.008,0.03166 0.0752,0.09893 0.15828,0.203787 0.0831,0.104861 0.14839,0.191915 0.0119,0.01583 0.006,0.03561 -0.006,0.01781 -0.0257,0.01781 h -0.368 q -0.0198,0 -0.0435,-0.0099 -0.0218,-0.01187 -0.0336,-0.0277 -0.0633,-0.0831 -0.12663,-0.168173 -0.0613,-0.08508 -0.12267,-0.172131 -0.0119,-0.01583 -0.0336,-0.02572 -0.0218,-0.01187 -0.0416,-0.01187 h -0.0435 q -0.0198,0 -0.0336,0.01385 -0.0138,0.01385 -0.0138,0.03364 v 0.320519 q 0,0.01978 -0.0139,0.03363 -0.0138,0.01385 -0.0336,0.01385 z m 0.095,-0.779533 h 0.20972 q 0.0237,0 0.0495,-0.0079 0.0257,-0.0099 0.0475,-0.0277 0.0218,-0.01978 0.0356,-0.04748 0.0138,-0.0277 0.0138,-0.06529 0,-0.01978 -0.008,-0.04551 -0.006,-0.0277 -0.0237,-0.05144 -0.0158,-0.02572 -0.0455,-0.04155 -0.0277,-0.01781 -0.0693,-0.01781 h -0.20972 q -0.0198,0 -0.0336,0.01385 -0.0138,0.01385 -0.0138,0.03363 v 0.209722 q 0,0.01978 0.0138,0.03363 0.0139,0.01385 0.0336,0.01385 z m 0.90962,0.0554 q 0,-0.154324 0.0594,-0.290841 0.0593,-0.136517 0.16026,-0.237421 0.1009,-0.102883 0.23742,-0.162238 0.13651,-0.05935 0.29084,-0.05935 0.15432,0 0.29084,0.05935 0.13652,0.05936 0.23742,0.162238 0.10288,0.100904 0.16224,0.237421 0.0593,0.136517 0.0593,0.290841 0,0.154324 -0.0593,0.290841 -0.0594,0.136517 -0.16224,0.2394 -0.1009,0.100904 -0.23742,0.160259 -0.13652,0.05935 -0.29084,0.05935 -0.15433,0 -0.29084,-0.05935 -0.13652,-0.05935 -0.23742,-0.160259 -0.10091,-0.102883 -0.16026,-0.2394 -0.0594,-0.136517 -0.0594,-0.290841 z m 0.39175,0 q 0,0.07518 0.0277,0.142453 0.0277,0.06727 0.0752,0.11871 0.0495,0.05144 0.11475,0.0831 0.0653,0.02968 0.1385,0.02968 0.0732,0 0.13849,-0.02968 0.0653,-0.03166 0.11476,-0.0831 0.0495,-0.05144 0.0772,-0.11871 0.0277,-0.06727 0.0277,-0.142453 0,-0.07321 -0.0277,-0.140474 -0.0277,-0.06925 -0.0772,-0.118711 -0.0495,-0.05144 -0.11476,-0.08112 -0.0653,-0.03166 -0.13849,-0.03166 -0.0732,0 -0.1385,0.03166 -0.0653,0.02968 -0.11475,0.08112 -0.0475,0.04946 -0.0752,0.118711 -0.0277,0.06727 -0.0277,0.140474 z m 2.91385,-0.674672 v 1.351323 q 0,0.01978 -0.0139,0.03363 -0.0138,0.01385 -0.0336,0.01385 h -0.29875 q -0.0198,0 -0.0336,-0.01385 -0.0138,-0.01385 -0.0138,-0.03363 v -0.637081 q 0,-0.01978 -0.0178,-0.02176 -0.0178,-0.002 -0.0297,0.01385 l -0.33239,0.536177 q -0.01,0.01583 -0.0317,0.01583 -0.0218,0 -0.0336,-0.01583 l -0.33239,-0.536177 q -0.01,-0.01583 -0.0277,-0.01385 -0.0178,0.002 -0.0178,0.02176 v 0.637081 q 0,0.01978 -0.0138,0.03363 -0.0139,0.01385 -0.0336,0.01385 h -0.29876 q -0.0198,0 -0.0336,-0.01385 -0.0138,-0.01385 -0.0138,-0.03363 v -1.351323 q 0,-0.01978 0.0138,-0.03363 0.0139,-0.01385 0.0336,-0.01385 h 0.27699 q 0.0198,0 0.0416,0.01187 0.0218,0.01187 0.0317,0.0277 l 0.37987,0.55794 q 0.0119,0.01583 0.0277,0.01583 0.0158,0 0.0257,-0.01583 l 0.37988,-0.55794 q 0.0119,-0.01583 0.0336,-0.0277 0.0218,-0.01187 0.0416,-0.01187 h 0.27699 q 0.0198,0 0.0336,0.01385 0.0139,0.01385 0.0139,0.03363 z"
           id="text1438"
           style="-inkscape-font-specification:Heavitas;opacity:1;fill:#ffffff;stroke-width:0.00778941"
           aria-label="from" /></g></g></g></svg>
