<?xml version="1.0" encoding="UTF-8" standalone="no"?>
<!-- Created with Inkscape (http://www.inkscape.org/) -->

<svg
   width="105"
   height="105"
   viewBox="0 0 27.78125 27.78125"
   version="1.1"
   id="svg1"
   inkscape:version="1.3.2 (091e20e, 2023-11-25, custom)"
   sodipodi:docname="captain_rnk.svg"
   xmlns:inkscape="http://www.inkscape.org/namespaces/inkscape"
   xmlns:sodipodi="http://sodipodi.sourceforge.net/DTD/sodipodi-0.dtd"
   xmlns="http://www.w3.org/2000/svg"
   xmlns:svg="http://www.w3.org/2000/svg">
  <sodipodi:namedview
     id="namedview1"
     pagecolor="#ffffff"
     bordercolor="#000000"
     borderopacity="0.25"
     inkscape:showpageshadow="2"
     inkscape:pageopacity="0.0"
     inkscape:pagecheckerboard="0"
     inkscape:deskcolor="#d1d1d1"
     inkscape:document-units="mm"
     inkscape:zoom="1.9578168"
     inkscape:cx="11.74778"
     inkscape:cy="2.8092516"
     inkscape:window-width="1920"
     inkscape:window-height="991"
     inkscape:window-x="-9"
     inkscape:window-y="-9"
     inkscape:window-maximized="1"
     inkscape:current-layer="layer1">
    <sodipodi:guide
       position="0,27.78125"
       orientation="0,105"
       id="guide1"
       inkscape:locked="false" />
    <sodipodi:guide
       position="27.78125,27.78125"
       orientation="105,0"
       id="guide2"
       inkscape:locked="false" />
    <sodipodi:guide
       position="27.78125,0"
       orientation="0,-105"
       id="guide3"
       inkscape:locked="false" />
    <sodipodi:guide
       position="0,0"
       orientation="-105,0"
       id="guide4"
       inkscape:locked="false" />
  </sodipodi:namedview>
  <defs
     id="defs1" />
  <g
     inkscape:label="Layer 1"
     inkscape:groupmode="layer"
     id="layer1">
    <g
       id="g35"
       transform="matrix(0.55851063,0,0,0.42510117,-122.65126,-181.80796)">
      <path
         style="fill:#f1c261"
         d="m 219.60416,477.05552 v -15.9782 l 2.84427,-2.37301 2.84427,-2.37301 3.08394,-3.19942 3.08393,-3.19941 2.3496,-3.12177 c 3.99718,-5.31084 7.33395,-11.15617 9.51705,-16.67194 0.53488,-1.35142 1.05138,-2.45713 1.14778,-2.45713 0.0964,0 0.63449,1.16086 1.19576,2.57969 2.14967,5.43411 5.46736,11.23253 9.46907,16.54938 l 2.34959,3.12177 3.08394,3.19941 3.08393,3.19942 2.84427,2.37301 2.84427,2.37301 v 15.9782 c 0,8.78801 -0.0629,15.9782 -0.13984,15.9782 -0.36157,0 -3.80529,-1.8613 -7.40078,-4.00005 l -3.96875,-2.36078 -3.43959,-2.50462 c -1.89177,-1.37754 -4.8981,-3.75323 -6.68073,-5.27932 l -3.24114,-2.77471 -3.24115,2.77471 c -1.78263,1.52609 -4.78896,3.90178 -6.68073,5.27932 l -3.43958,2.50462 -3.96875,2.36078 c -3.5955,2.13875 -7.03922,4.00005 -7.40079,4.00005 -0.0769,0 -0.13984,-7.19019 -0.13984,-15.9782 z"
         id="path41" />
      <path
         style="fill:#a1b1aa"
         d="m 219.60416,477.05552 v -15.9782 l 2.84427,-2.37301 2.84427,-2.37301 3.08394,-3.19942 3.08393,-3.19941 2.3496,-3.12177 c 3.99718,-5.31084 7.33395,-11.15617 9.51705,-16.67194 0.53488,-1.35142 1.05138,-2.45713 1.14778,-2.45713 0.0964,0 0.63449,1.16086 1.19576,2.57969 2.14967,5.43411 5.46736,11.23253 9.46907,16.54938 l 2.34959,3.12177 3.08394,3.19941 3.08393,3.19942 2.84427,2.37301 2.84427,2.37301 v 15.9782 c 0,8.78801 -0.0629,15.9782 -0.13984,15.9782 -0.36157,0 -3.80529,-1.8613 -7.40078,-4.00005 l -3.96875,-2.36078 -3.43959,-2.50462 c -1.89177,-1.37754 -4.8981,-3.75323 -6.68073,-5.27932 l -3.24114,-2.77471 -3.24115,2.77471 c -1.78263,1.52609 -4.78896,3.90178 -6.68073,5.27932 l -3.43958,2.50462 -3.96875,2.36078 c -3.5955,2.13875 -7.03922,4.00005 -7.40079,4.00005 -0.0769,0 -0.13984,-7.19019 -0.13984,-15.9782 z m 6.82794,8.7226 c 5.59773,-3.39429 10.58039,-7.13158 15.46321,-11.59834 l 2.57969,-2.35987 2.57968,2.35987 c 3.17297,2.9026 6.00519,5.19417 9.52953,7.7104 2.69817,1.92638 8.99008,5.85187 9.37958,5.85187 h 0.20704 v -2.74473 -2.74472 l -3.17084,-2.03764 c -5.84132,-3.75372 -10.72479,-7.68593 -15.54701,-12.51857 l -2.97514,-2.98156 -2.98378,2.9808 c -4.89813,4.89324 -9.71926,8.77623 -15.54406,12.51933 l -3.17084,2.03764 v 2.74472 2.74473 h 0.20704 c 0.11388,0 1.66453,-0.88377 3.4459,-1.96393 z m -0.72332,-9.0161 c 1.42068,-0.94578 3.93231,-2.7583 5.58141,-4.0278 l 2.99835,-2.3082 5.09323,-5.07886 5.09323,-5.07886 5.09323,5.07886 5.09323,5.07886 2.99835,2.3082 c 2.93683,2.26083 7.99479,5.74741 8.33774,5.74741 h 0.17328 v -2.85622 -2.85623 l -1.94148,-1.34972 c -1.06781,-0.74235 -3.18117,-2.33871 -4.69635,-3.54747 l -2.75488,-2.19775 -3.83646,-3.84891 -3.83645,-3.8489 -2.23879,-2.84428 c -1.23133,-1.56434 -2.30747,-2.84427 -2.39142,-2.84427 -0.0839,0 -1.16009,1.27993 -2.39142,2.84427 l -2.23879,2.84428 -3.83646,3.8489 -3.83646,3.84891 -2.75488,2.19775 c -1.51518,1.20876 -3.62854,2.80512 -4.69635,3.54747 l -1.94148,1.34972 v 2.85623 2.85622 h 0.17328 c 0.0953,0 1.33566,-0.77382 2.75634,-1.71961 z m 2.53179,-11.68445 2.60838,-2.15928 3.58195,-3.66156 c 3.78853,-3.87274 6.2789,-6.8486 8.53679,-10.20105 0.75626,-1.12287 1.43455,-2.04157 1.50731,-2.04157 0.0728,0 0.75104,0.9187 1.5073,2.04157 2.2579,3.35245 4.74826,6.32831 8.5368,10.20105 l 3.58194,3.66156 2.60838,2.15928 c 1.43461,1.1876 3.25032,2.61517 4.0349,3.17238 l 1.42651,1.01311 -0.006,-3.26207 -0.006,-3.26206 -2.27106,-1.85209 -2.27105,-1.85208 -3.61222,-3.70578 -3.61222,-3.70578 -2.28189,-3.0411 c -2.43238,-3.24166 -4.77746,-6.86267 -6.46636,-9.98463 -0.57021,-1.05406 -1.09628,-1.91646 -1.16904,-1.91646 -0.0728,0 -0.59883,0.8624 -1.16905,1.91646 -1.68889,3.12196 -4.03397,6.74297 -6.46636,9.98463 l -2.28188,3.0411 -3.61222,3.70578 -3.61223,3.70578 -2.27105,1.85208 -2.27105,1.85209 -0.006,3.26206 -0.006,3.26207 1.42652,-1.01311 c 0.78458,-0.55721 2.60028,-1.98478 4.03489,-3.17238 z"
         id="path40" />
      <path
         style="fill:#d3b15c"
         d="m 219.87197,476.82799 0.003,-15.94115 2.03228,-1.5875 c 1.11776,-0.87312 3.46779,-3.01657 5.2223,-4.76322 l 3.19002,-3.17571 2.23243,-2.77741 c 1.22784,-1.52757 3.17101,-4.20616 4.31816,-5.95241 l 2.08572,-3.175 2.06495,-4.11556 c 1.13573,-2.26355 2.3339,-4.85316 2.66261,-5.75468 0.32871,-0.90153 0.67855,-1.63913 0.77742,-1.63913 0.0989,0 0.51396,0.8632 0.92241,1.91823 2.7202,7.02619 7.65759,14.96373 13.37901,21.50859 l 2.24896,2.57263 2.77812,2.51957 c 1.52797,1.38576 3.34367,2.94317 4.0349,3.46092 l 1.25677,0.94134 v 15.95082 c 0,8.77295 -0.0625,15.95082 -0.1389,15.95082 -0.33697,0 -4.18638,-2.06375 -7.24263,-3.88291 -5.14488,-3.06238 -10.46421,-6.96819 -15.21345,-11.17075 -1.00386,-0.8883 -1.90893,-1.6151 -2.01127,-1.6151 -0.10235,0 -1.00742,0.7268 -2.01127,1.6151 -4.70498,4.16338 -9.93128,8.00049 -15.18665,11.14989 -3.00346,1.79989 -6.92121,3.90377 -7.26944,3.90377 -0.0764,0 -0.13745,-7.17352 -0.13567,-15.94115 z m 6.56013,8.95013 c 5.59773,-3.39429 10.58039,-7.13158 15.46321,-11.59834 l 2.57969,-2.35987 2.57968,2.35987 c 3.17297,2.9026 6.00519,5.19417 9.52953,7.7104 2.69817,1.92638 8.99008,5.85187 9.37958,5.85187 h 0.20704 v -2.74473 -2.74472 l -3.17084,-2.03764 c -5.84132,-3.75372 -10.72479,-7.68593 -15.54701,-12.51857 l -2.97514,-2.98156 -2.98378,2.9808 c -4.89813,4.89324 -9.71926,8.77623 -15.54406,12.51933 l -3.17084,2.03764 v 2.74472 2.74473 h 0.20704 c 0.11388,0 1.66453,-0.88377 3.4459,-1.96393 z m -0.72332,-9.0161 c 1.42068,-0.94578 3.93231,-2.7583 5.58141,-4.0278 l 2.99835,-2.3082 5.09323,-5.07886 5.09323,-5.07886 5.09323,5.07886 5.09323,5.07886 2.99835,2.3082 c 2.93683,2.26083 7.99479,5.74741 8.33774,5.74741 h 0.17328 v -2.85622 -2.85623 l -1.94148,-1.34972 c -1.06781,-0.74235 -3.18117,-2.33871 -4.69635,-3.54747 l -2.75488,-2.19775 -3.83646,-3.84891 -3.83645,-3.8489 -2.23879,-2.84428 c -1.23133,-1.56434 -2.30747,-2.84427 -2.39142,-2.84427 -0.0839,0 -1.16009,1.27993 -2.39142,2.84427 l -2.23879,2.84428 -3.83646,3.8489 -3.83646,3.84891 -2.75488,2.19775 c -1.51518,1.20876 -3.62854,2.80512 -4.69635,3.54747 l -1.94148,1.34972 v 2.85623 2.85622 h 0.17328 c 0.0953,0 1.33566,-0.77382 2.75634,-1.71961 z m 2.53179,-11.68445 2.60838,-2.15928 3.58195,-3.66156 c 3.78853,-3.87274 6.2789,-6.8486 8.53679,-10.20105 0.75626,-1.12287 1.43455,-2.04157 1.50731,-2.04157 0.0728,0 0.75104,0.9187 1.5073,2.04157 2.2579,3.35245 4.74826,6.32831 8.5368,10.20105 l 3.58194,3.66156 2.60838,2.15928 c 1.43461,1.1876 3.25032,2.61517 4.0349,3.17238 l 1.42651,1.01311 -0.006,-3.26207 -0.006,-3.26206 -2.27106,-1.85209 -2.27105,-1.85208 -3.61222,-3.70578 -3.61222,-3.70578 -2.28189,-3.0411 c -2.43238,-3.24166 -4.77746,-6.86267 -6.46636,-9.98463 -0.57021,-1.05406 -1.09628,-1.91646 -1.16904,-1.91646 -0.0728,0 -0.59883,0.8624 -1.16905,1.91646 -1.68889,3.12196 -4.03397,6.74297 -6.46636,9.98463 l -2.28188,3.0411 -3.61222,3.70578 -3.61223,3.70578 -2.27105,1.85208 -2.27105,1.85209 -0.006,3.26206 -0.006,3.26207 1.42652,-1.01311 c 0.78458,-0.55721 2.60028,-1.98478 4.03489,-3.17238 z"
         id="path39" />
      <path
         style="fill:#a19353"
         d="m 219.87197,476.82799 0.003,-15.94115 2.03228,-1.5875 c 1.11776,-0.87312 3.46779,-3.01657 5.2223,-4.76322 l 3.19002,-3.17571 2.23243,-2.77741 c 1.22784,-1.52757 3.17101,-4.20616 4.31816,-5.95241 l 2.08572,-3.175 2.06495,-4.11556 c 1.13573,-2.26355 2.3339,-4.85316 2.66261,-5.75468 0.32871,-0.90153 0.67855,-1.63913 0.77742,-1.63913 0.0989,0 0.51396,0.8632 0.92241,1.91823 2.7202,7.02619 7.65759,14.96373 13.37901,21.50859 l 2.24896,2.57263 2.77812,2.51957 c 1.52797,1.38576 3.34367,2.94317 4.0349,3.46092 l 1.25677,0.94134 v 15.95082 c 0,8.77295 -0.0625,15.95082 -0.1389,15.95082 -0.33697,0 -4.18638,-2.06375 -7.24263,-3.88291 -5.14488,-3.06238 -10.46421,-6.96819 -15.21345,-11.17075 -1.00386,-0.8883 -1.90893,-1.6151 -2.01127,-1.6151 -0.10235,0 -1.00742,0.7268 -2.01127,1.6151 -4.70498,4.16338 -9.93128,8.00049 -15.18665,11.14989 -3.00346,1.79989 -6.92121,3.90377 -7.26944,3.90377 -0.0764,0 -0.13745,-7.17352 -0.13567,-15.94115 z m 6.42738,9.08316 c 5.61717,-3.34438 11.85061,-8.05687 16.25742,-12.29063 l 1.91823,-1.8429 1.91823,1.8429 c 4.4068,4.23376 10.64024,8.94625 16.25742,12.29063 1.93574,1.15252 3.57921,2.09548 3.65215,2.09548 0.0729,0 0.13261,-1.29837 0.13261,-2.88527 v -2.88528 l -1.25677,-0.72822 c -2.41862,-1.40146 -7.36727,-4.86226 -10.2526,-7.17008 l -2.91042,-2.32789 -3.77031,-3.68381 -3.77031,-3.68381 -3.77032,3.68381 -3.77031,3.68381 -2.91042,2.32789 c -2.88533,2.30782 -7.83398,5.76862 -10.2526,7.17008 l -1.25677,0.72822 v 2.88528 c 0,1.5869 0.0597,2.88527 0.13261,2.88527 0.0729,0 1.71641,-0.94296 3.65216,-2.09548 z m -1.60466,-8.39402 c 6.09876,-3.90223 13.1598,-9.94889 18.15567,-15.54746 l 1.63085,-1.8276 1.49255,1.6953 c 3.65912,4.15619 8.99088,9.00524 13.84707,12.59343 2.45791,1.81613 6.21874,4.31542 6.49366,4.31542 0.076,0 0.10459,-1.32958 0.0634,-2.95462 l -0.0748,-2.95462 -2.51354,-1.80346 c -4.05292,-2.90795 -7.29027,-5.67886 -10.97131,-9.39053 l -3.44848,-3.47719 -2.38125,-3.05164 c -1.30969,-1.6784 -2.44078,-3.05163 -2.51354,-3.05163 -0.0728,0 -1.20386,1.37323 -2.51355,3.05163 l -2.38125,3.05164 -3.44848,3.47719 c -3.68104,3.71167 -6.91839,6.48258 -10.97131,9.39053 l -2.51354,1.80346 -0.0748,2.95462 c -0.0411,1.62504 -0.0126,2.95462 0.0634,2.95462 0.076,0 1.00267,-0.55309 2.05919,-1.22909 z m 0.91741,-10.25458 c 1.42506,-1.07726 3.8677,-3.10456 5.42809,-4.50512 l 2.83706,-2.54645 2.54754,-2.83707 c 2.12988,-2.37195 5.66173,-6.8333 7.58719,-9.58394 l 0.46302,-0.66146 0.46302,0.66146 c 1.92545,2.75064 5.4573,7.21199 7.58719,9.58394 l 2.54753,2.83707 2.83707,2.54645 c 2.95302,2.65054 7.83321,6.46379 8.27235,6.46379 h 0.25325 v -3.1252 -3.1252 l -2.92647,-2.48254 c -7.02347,-5.95806 -13.87834,-14.38542 -17.71103,-21.77389 -0.65484,-1.26238 -1.25015,-2.29524 -1.32291,-2.29524 -0.0728,0 -0.66808,1.03286 -1.32292,2.29524 -3.83268,7.38847 -10.68756,15.81583 -17.71103,21.77389 l -2.92647,2.48254 v 3.1252 3.1252 h 0.25325 c 0.13929,0 1.41922,-0.8814 2.84427,-1.95867 z"
         id="path38" />
      <path
         style="fill:#586b4b"
         d="m 219.87197,476.82799 0.003,-15.94115 2.0375,-1.5875 c 1.12063,-0.87312 3.47671,-3.01625 5.23574,-4.7625 l 3.19822,-3.175 2.21522,-2.77812 c 4.66546,-5.85098 9.67634,-14.51393 11.36338,-19.64532 l 0.3262,-0.99218 h 0.22355 0.22354 l 0.32659,0.99218 c 0.52484,1.59451 2.73744,6.36041 4.08423,8.7974 1.84859,3.34497 4.7817,7.71634 7.27876,10.84792 l 2.21522,2.77812 3.19823,3.175 c 1.75902,1.74625 4.1151,3.88938 5.23573,4.7625 l 2.03751,1.5875 0.003,15.94115 0.003,15.94115 h -0.20033 c -0.11019,0 -1.7473,-0.84078 -3.63803,-1.8684 -6.17798,-3.35774 -13.38982,-8.42647 -18.75662,-13.18279 -1.00386,-0.88966 -1.90893,-1.61757 -2.01127,-1.61757 -0.10235,0 -1.00742,0.72791 -2.01127,1.61757 -5.36681,4.75632 -12.57865,9.82505 -18.75663,13.18279 -1.89073,1.02762 -3.52784,1.8684 -3.63802,1.8684 h -0.20033 z m 6.53686,9.09686 c 5.47135,-3.28495 10.42889,-6.98543 15.43088,-11.51812 1.37665,-1.24748 2.56253,-2.26816 2.63529,-2.26816 0.0728,0 1.25864,1.02068 2.63529,2.26816 2.94323,2.6671 6.3684,5.42912 9.62504,7.76153 2.37724,1.70258 9.0974,5.83837 9.48665,5.83837 h 0.21343 v -2.86552 -2.86552 l -3.24114,-2.08903 c -5.97107,-3.84858 -12.02752,-8.77147 -16.64474,-13.52945 l -2.02652,-2.08828 -3.55895,3.47358 -3.55895,3.47357 -3.54266,2.83852 -3.54266,2.83852 -3.90261,2.54855 -3.9026,2.54854 v 2.85826 2.85826 h 0.21344 c 0.11739,0 1.77375,-0.9368 3.68081,-2.08178 z m -1.80618,-8.27715 c 2.66114,-1.67202 7.2924,-5.17034 10.42463,-7.87448 l 2.81182,-2.42751 3.31795,-3.48846 3.31795,-3.48845 3.31795,3.48845 3.31794,3.48846 2.81182,2.42751 c 4.06208,3.5069 11.581,8.973 12.34286,8.973 h 0.16984 l -0.0144,-2.97656 -0.0145,-2.97657 -2.82982,-2.02222 c -4.1169,-2.94198 -7.4156,-5.79184 -11.18318,-9.66154 l -3.32626,-3.41642 -2.20571,-2.76866 c -1.21313,-1.52276 -2.29191,-2.76866 -2.39729,-2.76866 -0.10537,0 -1.1805,1.25016 -2.38916,2.77813 l -2.19758,2.77812 -4.11741,4.12564 -4.11741,4.12564 -2.66936,2.11344 c -1.46816,1.16239 -3.5182,2.69913 -4.55566,3.41498 l -1.88629,1.30155 -0.008,2.97657 -0.008,2.97656 h 0.16985 c 0.0934,0 0.95661,-0.49434 1.91822,-1.09852 z m 2.12054,-11.17812 2.7534,-2.14315 3.29066,-3.16005 3.29066,-3.16004 2.57325,-3.07096 c 1.41528,-1.68903 3.27936,-4.10201 4.1424,-5.36218 0.86303,-1.26016 1.62868,-2.29121 1.70144,-2.29121 0.0728,0 0.83841,1.03105 1.70144,2.29121 0.86303,1.26017 2.72711,3.67315 4.1424,5.36218 l 2.57324,3.07096 3.29066,3.16004 3.29067,3.16005 2.7534,2.14315 c 1.51437,1.17874 3.08082,2.35329 3.481,2.61012 l 0.7276,0.46696 -0.014,-3.40387 -0.014,-3.40386 -2.01237,-1.5875 c -1.1068,-0.87313 -3.45488,-3.01625 -5.21795,-4.7625 l -3.20559,-3.175 -2.33414,-2.91042 c -2.73946,-3.41581 -5.84841,-8.03592 -7.70717,-11.45341 -0.7276,-1.33776 -1.38244,-2.43229 -1.4552,-2.43229 -0.0728,0 -0.72761,1.09453 -1.45521,2.43229 -1.86694,3.43252 -4.97587,8.04905 -7.71313,11.45341 l -2.34011,2.91042 -3.19796,3.175 c -1.75888,1.74625 -4.10428,3.88937 -5.21199,4.7625 l -2.01403,1.5875 -0.014,3.40386 -0.014,3.40387 0.7276,-0.46696 c 0.40019,-0.25683 1.96664,-1.43138 3.48101,-2.61012 z"
         id="path37" />
      <path
         style="fill:#365744"
         d="m 219.86875,476.91788 v -15.85126 l 2.18281,-1.78423 c 2.8724,-2.34791 8.35921,-7.87708 10.6167,-10.69867 0.98964,-1.23693 2.84455,-3.81739 4.12204,-5.73437 l 2.3227,-3.48541 1.83898,-3.65834 c 1.01144,-2.01209 2.18813,-4.57959 2.61486,-5.70557 0.42672,-1.12597 0.83646,-2.04871 0.91052,-2.05052 0.0741,-0.002 0.41998,0.79226 0.7687,1.76461 0.34872,0.97235 1.51054,3.5205 2.58181,5.66256 l 1.94777,3.89465 2.35338,3.53172 c 1.29436,1.94244 3.16308,4.54374 4.15271,5.78067 2.25749,2.82159 7.74431,8.35076 10.6167,10.69867 l 2.18282,1.78423 v 15.85126 15.85126 h -0.16608 c -0.30321,0 -6.54102,-3.49598 -9.09434,-5.09692 -4.57398,-2.86789 -11.00429,-7.76918 -14.08906,-10.73892 l -1.25677,-1.2099 -1.25677,1.2099 c -3.0825,2.96754 -9.50868,7.86616 -14.08907,10.73996 -2.41699,1.51645 -8.8209,5.09588 -9.11698,5.09588 h -0.14343 z m 9.86109,6.93558 4.17256,-2.74366 3.23578,-2.61028 c 1.77968,-1.43565 4.15851,-3.46568 5.2863,-4.51117 l 2.05052,-1.9009 2.05052,1.9009 c 1.12778,1.04549 3.50662,3.07552 5.2863,4.51117 l 3.23577,2.61028 4.17256,2.74366 c 2.2949,1.509 4.85716,3.12134 5.69391,3.58297 l 1.52135,0.83931 v -3.0527 -3.05269 l -2.01854,-1.24905 c -5.83392,-3.60994 -11.82543,-8.36773 -16.79224,-13.33455 l -3.15436,-3.15436 -2.98972,3.00362 c -4.84947,4.87201 -10.64545,9.50189 -16.55608,13.22513 l -2.40989,1.51805 v 3.04827 3.04828 l 1.52135,-0.83931 c 0.83675,-0.46163 3.39901,-2.07397 5.69391,-3.58297 z m -3.51109,-7.23655 c 1.67349,-1.11833 4.29286,-3.02169 5.82083,-4.2297 l 2.77812,-2.19639 4.82577,-4.82658 4.82577,-4.82659 4.96381,4.94591 4.96382,4.9459 2.87001,2.24015 c 2.50412,1.95455 7.337,5.34243 8.70551,6.10261 l 0.46302,0.2572 v -3.13574 -3.13574 l -2.04922,-1.43077 c -1.12707,-0.78692 -3.24043,-2.38452 -4.69635,-3.55022 l -2.64713,-2.11945 -3.71607,-3.70824 -3.71606,-3.70825 -2.11006,-2.64583 c -1.16054,-1.45521 -2.31604,-2.94022 -2.56779,-3.30002 l -0.45773,-0.65419 -0.45773,0.65419 c -0.25176,0.3598 -1.40726,1.84481 -2.5678,3.30002 l -2.11006,2.64583 -3.71606,3.70825 -3.71606,3.70824 -2.64714,2.11945 c -1.45592,1.1657 -3.56928,2.7633 -4.69635,3.55022 l -2.04922,1.43077 v 3.14204 3.14205 l 0.33073,-0.1959 c 0.1819,-0.10775 1.69995,-1.1109 3.37344,-2.22922 z m -0.28083,-9.44621 3.05808,-2.31511 4.06931,-3.96875 4.06931,-3.96875 2.54571,-3.17681 c 1.40014,-1.74725 3.01198,-3.86061 3.58187,-4.69636 0.5699,-0.83574 1.11565,-1.51954 1.2128,-1.51954 0.0971,0 0.6429,0.6838 1.21279,1.51954 0.56989,0.83575 2.18173,2.94911 3.58188,4.69636 l 2.54571,3.17681 4.06931,3.96875 4.06931,3.96875 3.05807,2.31511 c 1.68194,1.2733 3.14026,2.3151 3.24071,2.3151 h 0.18263 v -3.38738 -3.38737 l -2.3151,-1.8751 -2.3151,-1.8751 -3.44845,-3.53492 -3.44844,-3.53492 -1.95184,-2.51354 c -2.52546,-3.25224 -5.65329,-8.02717 -7.15857,-10.92825 -0.65484,-1.26206 -1.25015,-2.29555 -1.32291,-2.29665 -0.0728,-0.001 -0.5973,0.90374 -1.16563,2.01075 -1.44032,2.80548 -4.48902,7.5156 -6.94677,10.73248 l -2.07406,2.71468 -3.47676,3.57985 -3.47676,3.57985 -2.41022,1.97635 -2.41022,1.97635 v 3.38146 3.38146 h 0.18263 c 0.10045,0 1.55877,-1.0418 3.24071,-2.3151 z"
         id="path36" />
      <path
         style="fill:#284d3d"
         d="m 219.86875,476.95006 v -15.86599 l 2.47282,-2.00937 2.47282,-2.00937 3.42999,-3.53284 3.42999,-3.53284 2.30135,-3.06399 c 1.26575,-1.68519 2.96429,-4.11713 3.77455,-5.40432 1.7317,-2.75098 5.08347,-9.35042 5.93478,-11.68523 0.32795,-0.89942 0.68342,-1.63531 0.78995,-1.63531 0.10652,0 0.462,0.73589 0.78994,1.63531 0.85064,2.33297 4.1988,8.9259 5.95501,11.72615 0.82139,1.30969 2.52706,3.74829 3.79039,5.41911 l 2.29695,3.03786 3.41416,3.51805 3.41416,3.51805 2.47282,2.00937 2.47282,2.00937 v 15.86599 15.86598 l -3.10886,-1.64589 c -6.27773,-3.32356 -12.89983,-7.89523 -18.58264,-12.82881 l -2.91475,-2.53047 -2.91476,2.53047 c -5.68281,4.93358 -12.30491,9.50525 -18.58264,12.82881 l -3.10885,1.64589 z m 9.96875,6.92442 3.75104,-2.46952 3.26042,-2.60548 c 1.79322,-1.43302 4.2405,-3.52984 5.43838,-4.65959 l 2.17796,-2.05411 2.58454,2.39568 c 1.42149,1.31762 3.71563,3.29862 5.09807,4.40221 2.80173,2.23658 9.75589,6.93656 12.50157,8.44919 l 1.78593,0.9839 v -3.1428 -3.14279 l -1.73928,-1.01744 c -5.04438,-2.95084 -10.94311,-7.58633 -16.31768,-12.8232 l -3.90897,-3.8088 -3.89985,3.81128 -3.89984,3.81128 -2.59379,2.07462 c -3.09829,2.47813 -7.42159,5.53056 -9.82214,6.93482 l -1.73928,1.01744 v 3.14279 3.1428 l 1.78594,-0.98639 c 0.98226,-0.54251 3.4739,-2.09766 5.53698,-3.45589 z m -2.24843,-8.11909 c 5.3179,-3.73193 11.11331,-8.86401 15.38817,-13.62686 l 1.49776,-1.66873 1.49775,1.66873 c 2.4089,2.68389 6.62442,6.72984 9.56734,9.1825 2.73221,2.27706 8.0356,6.11854 9.90314,7.17327 l 0.99218,0.56036 v -3.17371 -3.1737 l -2.15079,-1.5157 c -6.63863,-4.67838 -13.21907,-10.97211 -18.02384,-17.23857 -0.86533,-1.12858 -1.66491,-2.05197 -1.77683,-2.05197 -0.11192,0 -0.65333,0.59531 -1.20314,1.32292 -2.03273,2.69009 -4.83802,5.87706 -7.69911,8.74664 l -2.94017,2.9489 -2.9087,2.37538 c -1.59979,1.30646 -3.87836,3.05871 -5.06348,3.89389 l -2.15477,1.51851 v 3.1737 3.17371 l 0.99219,-0.56036 c 0.5457,-0.3082 2.38274,-1.53621 4.0823,-2.72891 z m 0.18285,-9.96764 2.81245,-2.24285 3.44404,-3.4457 3.44404,-3.44569 2.11755,-2.64583 c 1.16465,-1.45521 2.71046,-3.50526 3.43513,-4.55566 0.72466,-1.05041 1.37711,-1.90983 1.44987,-1.90983 0.0728,0 0.68379,0.79989 1.35784,1.77753 0.67406,0.97765 2.21934,3.02769 3.43397,4.55566 l 2.2084,2.77813 3.44521,3.44569 3.4452,3.4457 2.81245,2.24285 c 1.54685,1.23356 3.36255,2.63719 4.0349,3.11918 l 1.22244,0.87633 v -3.55851 -3.55851 l -1.91823,-1.53134 c -2.56991,-2.05159 -8.64659,-8.17731 -10.8759,-10.96368 -2.32857,-2.91044 -6.03401,-8.46884 -7.71246,-11.56919 -0.72684,-1.34259 -1.38106,-2.44107 -1.45382,-2.44107 -0.0728,0 -0.72761,1.09753 -1.45521,2.43896 -1.82956,3.373 -4.91725,8.00366 -7.53925,11.30671 l -2.2053,2.77813 -3.4621,3.45662 c -1.90416,1.90114 -4.32531,4.14697 -5.38033,4.99074 l -1.91823,1.53412 v 3.55851 3.55851 l 1.22244,-0.87633 c 0.67235,-0.48199 2.48805,-1.88562 4.0349,-3.11918 z"
         id="path35" />
    </g>
  </g>
</svg>
