<?xml version="1.0" encoding="UTF-8" standalone="no"?>
<!-- Created with Inkscape (http://www.inkscape.org/) -->

<svg
   width="25.129183mm"
   height="25.1292mm"
   viewBox="0 0 25.129183 25.1292"
   version="1.1"
   id="svg1"
   xml:space="preserve"
   inkscape:version="1.3.2 (091e20e, 2023-11-25, custom)"
   sodipodi:docname="hud.svg"
   xmlns:inkscape="http://www.inkscape.org/namespaces/inkscape"
   xmlns:sodipodi="http://sodipodi.sourceforge.net/DTD/sodipodi-0.dtd"
   xmlns:xlink="http://www.w3.org/1999/xlink"
   xmlns="http://www.w3.org/2000/svg"
   xmlns:svg="http://www.w3.org/2000/svg"><sodipodi:namedview
     id="namedview1"
     pagecolor="#ffffff"
     bordercolor="#000000"
     borderopacity="0.25"
     inkscape:showpageshadow="2"
     inkscape:pageopacity="0.0"
     inkscape:pagecheckerboard="0"
     inkscape:deskcolor="#d1d1d1"
     inkscape:document-units="mm"
     showguides="true"
     inkscape:zoom="0.5"
     inkscape:cx="1783"
     inkscape:cy="13"
     inkscape:window-width="1920"
     inkscape:window-height="991"
     inkscape:window-x="-9"
     inkscape:window-y="-9"
     inkscape:window-maximized="1"
     inkscape:current-layer="layer1"><sodipodi:guide
       position="-277.65019,64.518291"
       orientation="1,0"
       id="guide3"
       inkscape:locked="false" /><sodipodi:guide
       position="-372.98988,26.477401"
       orientation="0,-1"
       id="guide160"
       inkscape:locked="false" /><sodipodi:guide
       position="-372.98988,-17.463619"
       orientation="0,-1"
       id="guide161"
       inkscape:locked="false" /><sodipodi:guide
       position="5.4025625,-66.355104"
       orientation="0,-1"
       id="guide202"
       inkscape:locked="false" /><sodipodi:guide
       position="-204.41203,135.32198"
       orientation="0,-1"
       id="guide933"
       inkscape:locked="false" /><sodipodi:guide
       position="40.362842,294.61586"
       orientation="0,-1"
       id="guide1152"
       inkscape:locked="false" /><sodipodi:guide
       position="35.436272,275.08"
       orientation="0,-1"
       id="guide1153"
       inkscape:locked="false" /><sodipodi:guide
       position="41.683552,290.11699"
       orientation="0,-1"
       id="guide1154"
       inkscape:locked="false" /><sodipodi:guide
       position="34.945752,279.50099"
       orientation="0,-1"
       id="guide1155"
       inkscape:locked="false" /></sodipodi:namedview><defs
     id="defs1"><linearGradient
       id="linearGradient931"
       inkscape:collect="always"><stop
         style="stop-color:#fff81a;stop-opacity:1;"
         offset="0"
         id="stop930" /><stop
         style="stop-color:#eaff0d;stop-opacity:0;"
         offset="1"
         id="stop931" /></linearGradient><linearGradient
       id="linearGradient929"
       inkscape:collect="always"><stop
         style="stop-color:#e9ff01;stop-opacity:1;"
         offset="0"
         id="stop928" /><stop
         style="stop-color:#f2ff02;stop-opacity:0;"
         offset="1"
         id="stop929" /></linearGradient><linearGradient
       id="linearGradient927"
       inkscape:collect="always"><stop
         style="stop-color:#d5db00;stop-opacity:1;"
         offset="0"
         id="stop926" /><stop
         style="stop-color:#f0fc00;stop-opacity:0;"
         offset="1"
         id="stop927" /></linearGradient><linearGradient
       id="linearGradient925"
       inkscape:collect="always"><stop
         style="stop-color:#feff01;stop-opacity:1;"
         offset="0"
         id="stop924" /><stop
         style="stop-color:#efff11;stop-opacity:0;"
         offset="1"
         id="stop925" /></linearGradient><linearGradient
       id="linearGradient276"
       inkscape:collect="always"><stop
         style="stop-color:#c70c0c;stop-opacity:1;"
         offset="0"
         id="stop274" /><stop
         style="stop-color:#ffffff;stop-opacity:1;"
         offset="0.50490195"
         id="stop275" /><stop
         style="stop-color:#bf0d0d;stop-opacity:1;"
         offset="1"
         id="stop276" /></linearGradient><filter
       inkscape:collect="always"
       style="color-interpolation-filters:sRGB"
       id="filter124"
       x="-0.035059158"
       y="-0.31950528"
       width="1.0701183"
       height="1.6390106"><feGaussianBlur
         inkscape:collect="always"
         stdDeviation="0.2798853"
         id="feGaussianBlur124" /></filter><filter
       style="color-interpolation-filters:sRGB"
       inkscape:label="Drop Shadow"
       id="filter253"
       x="-0.039811961"
       y="-0.039811963"
       width="1.1147866"
       height="1.1147866"><feFlood
         result="flood"
         in="SourceGraphic"
         flood-opacity="1.000000"
         flood-color="rgb(0,0,0)"
         id="feFlood252" /><feGaussianBlur
         result="blur"
         in="SourceGraphic"
         stdDeviation="0.400000"
         id="feGaussianBlur252" /><feOffset
         result="offset"
         in="blur"
         dx="0.900000"
         dy="0.900000"
         id="feOffset252" /><feComposite
         result="comp1"
         operator="in"
         in="flood"
         in2="offset"
         id="feComposite252" /><feComposite
         result="comp2"
         operator="over"
         in="SourceGraphic"
         in2="comp1"
         id="feComposite253" /></filter><linearGradient
       inkscape:collect="always"
       xlink:href="#linearGradient276"
       id="linearGradient1149"
       gradientUnits="userSpaceOnUse"
       x1="74.420303"
       y1="242.27983"
       x2="100.13363"
       y2="242.27983" /><radialGradient
       inkscape:collect="always"
       xlink:href="#linearGradient929"
       id="radialGradient1149"
       gradientUnits="userSpaceOnUse"
       gradientTransform="matrix(1,0,0,0.10972568,0.30112106,138.204)"
       cx="137.48672"
       cy="140.1385"
       fx="137.48672"
       fy="140.1385"
       r="9.579875" /><radialGradient
       inkscape:collect="always"
       xlink:href="#linearGradient931"
       id="radialGradient1150"
       gradientUnits="userSpaceOnUse"
       gradientTransform="matrix(1,0,0,0.10972568,0.30112106,138.204)"
       cx="137.48672"
       cy="140.1385"
       fx="137.48672"
       fy="140.1385"
       r="9.579875" /><radialGradient
       inkscape:collect="always"
       xlink:href="#linearGradient925"
       id="radialGradient1151"
       gradientUnits="userSpaceOnUse"
       gradientTransform="matrix(1,0,0,0.10972568,0.30112106,138.204)"
       cx="137.48672"
       cy="140.1385"
       fx="137.48672"
       fy="140.1385"
       r="9.579875" /><radialGradient
       inkscape:collect="always"
       xlink:href="#linearGradient927"
       id="radialGradient1152"
       gradientUnits="userSpaceOnUse"
       gradientTransform="matrix(1,0,0,0.10972568,0.30112106,138.204)"
       cx="137.48672"
       cy="140.1385"
       fx="137.48672"
       fy="140.1385"
       r="9.579875" /></defs><g
     inkscape:label="Layer 1"
     inkscape:groupmode="layer"
     id="layer1"
     transform="translate(-515.29744,148.51344)"><g
       id="g1149"
       transform="matrix(0.78573035,0,0,0.78573035,436.24127,-315.38914)"
       style="display:inline;opacity:1"
       inkscape:export-filename="info.svg"
       inkscape:export-xdpi="96"
       inkscape:export-ydpi="96"><path
         id="path1143"
         style="opacity:0.807;fill:#f4f300;fill-opacity:1;stroke:none;stroke-width:0.118"
         inkscape:transform-center-x="1.2109486e-06"
         inkscape:transform-center-y="-3.2010941e-06"
         d="m 90.702233,229.49658 c 0.587032,0.15729 7.732017,5.63983 8.035888,6.16615 0.30387,0.52632 1.479399,9.45533 1.322099,10.04236 -0.157293,0.58704 -5.639833,7.73202 -6.166152,8.03589 -0.526319,0.30387 -9.455328,1.4794 -10.042361,1.3221 -0.587032,-0.15729 -7.732017,-5.63983 -8.035888,-6.16615 -0.30387,-0.52632 -1.479396,-9.45533 -1.322101,-10.04236 0.157295,-0.58703 5.639835,-7.73202 6.166154,-8.03589 0.526319,-0.30387 9.455328,-1.4794 10.042361,-1.3221 z"
         transform="rotate(7.4263364,212.77053,458.04672)" /><path
         id="path1144"
         style="opacity:1;fill:none;stroke:url(#linearGradient1149);stroke-width:0.118;filter:url(#filter253)"
         inkscape:transform-center-x="1.2109486e-06"
         inkscape:transform-center-y="-3.2010941e-06"
         d="m 90.702233,229.49658 c 0.587032,0.15729 7.732017,5.63983 8.035888,6.16615 0.30387,0.52632 1.479399,9.45533 1.322099,10.04236 -0.157293,0.58704 -5.639833,7.73202 -6.166152,8.03589 -0.526319,0.30387 -9.455328,1.4794 -10.042361,1.3221 -0.587032,-0.15729 -7.732017,-5.63983 -8.035888,-6.16615 -0.30387,-0.52632 -1.479396,-9.45533 -1.322101,-10.04236 0.157295,-0.58703 5.639835,-7.73202 6.166154,-8.03589 0.526319,-0.30387 9.455328,-1.4794 10.042361,-1.3221 z"
         transform="rotate(7.4263364,212.77053,458.04672)" /><path
         id="path1145"
         style="fill:url(#radialGradient1149);filter:url(#filter124)"
         d="m 128.20799,152.52911 h 19.15974 c 0,0 1e-5,0.0322 1e-5,0.0722 v 1.95799 c 0,0.04 -1e-5,0.0722 -1e-5,0.0722 h -19.15974 c 0,0 0,-0.0322 0,-0.0722 v -1.95799 c 0,-0.04 0,-0.0722 0,-0.0722 z"
         transform="matrix(0.46897621,0,0,0.46897621,52.744486,143.51277)" /><path
         id="path1146"
         style="display:inline;fill:url(#radialGradient1150);filter:url(#filter124)"
         d="m 128.20799,152.52911 h 19.15974 c 0,0 1e-5,0.0322 1e-5,0.0722 v 1.95799 c 0,0.04 -1e-5,0.0722 -1e-5,0.0722 h -19.15974 c 0,0 0,-0.0322 0,-0.0722 v -1.95799 c 0,-0.04 0,-0.0722 0,-0.0722 z"
         transform="matrix(0.46897621,0,0,0.46897621,50.990568,168.25501)" /><path
         id="path1147"
         style="display:inline;fill:url(#radialGradient1151);filter:url(#filter124)"
         d="m 128.20799,152.52911 h 19.15974 c 0,0 1e-5,0.0322 1e-5,0.0722 v 1.95799 c 0,0.04 -1e-5,0.0722 -1e-5,0.0722 h -19.15974 c 0,0 0,-0.0322 0,-0.0722 v -1.95799 c 0,-0.04 0,-0.0722 0,-0.0722 z"
         transform="matrix(0.46897621,0,0,0.46897621,50.990568,168.25501)" /><path
         id="path1148"
         style="display:inline;fill:url(#radialGradient1152);filter:url(#filter124)"
         d="m 128.20799,152.52911 h 19.15974 c 0,0 1e-5,0.0322 1e-5,0.0722 v 1.95799 c 0,0.04 -1e-5,0.0722 -1e-5,0.0722 h -19.15974 c 0,0 0,-0.0322 0,-0.0722 v -1.95799 c 0,-0.04 0,-0.0722 0,-0.0722 z"
         transform="matrix(0.46897621,0,0,0.46897621,51.598542,143.44263)" /><path
         style="-inkscape-font-specification:Broadway;fill:#ffffff;stroke-width:0.0902684"
         d="m 116.18044,221.14293 q 2.46299,0 2.46299,1.28746 0,0.62509 -0.65307,0.97961 -0.64373,0.34519 -1.81925,0.34519 -2.34171,0 -2.34171,-1.3248 0,-1.2688 2.35104,-1.28746 z m 2.41634,3.26533 v 0.27055 l -0.0186,1.45541 -0.0186,2.25774 -0.028,3.43326 0.0373,1.9312 0.0186,0.83966 h -4.79536 l 0.0467,-3.43326 0.028,-3.03209 -0.0187,-1.59535 -0.028,-1.77261 0.009,-0.35451 z"
         id="text1152"
         aria-label="i" /></g></g></svg>
