<?xml version="1.0" encoding="UTF-8" standalone="no"?>
<!-- Created with Inkscape (http://www.inkscape.org/) -->

<svg
   width="8.5132484mm"
   height="5.4020886mm"
   viewBox="0 0 8.5132485 5.4020886"
   version="1.1"
   id="svg1"
   xml:space="preserve"
   inkscape:version="1.3.2 (091e20e, 2023-11-25, custom)"
   sodipodi:docname="joinb.svg"
   xmlns:inkscape="http://www.inkscape.org/namespaces/inkscape"
   xmlns:sodipodi="http://sodipodi.sourceforge.net/DTD/sodipodi-0.dtd"
   xmlns="http://www.w3.org/2000/svg"
   xmlns:svg="http://www.w3.org/2000/svg"><sodipodi:namedview
     id="namedview1"
     pagecolor="#ffffff"
     bordercolor="#000000"
     borderopacity="0.25"
     inkscape:showpageshadow="2"
     inkscape:pageopacity="0.0"
     inkscape:pagecheckerboard="0"
     inkscape:deskcolor="#d1d1d1"
     inkscape:document-units="mm"
     showguides="true"
     inkscape:zoom="1"
     inkscape:cx="1261.5"
     inkscape:cy="304.5"
     inkscape:window-width="1920"
     inkscape:window-height="991"
     inkscape:window-x="-9"
     inkscape:window-y="-9"
     inkscape:window-maximized="1"
     inkscape:current-layer="layer1"><sodipodi:guide
       position="-343.77187,270.60497"
       orientation="1,0"
       id="guide3"
       inkscape:locked="false" /><sodipodi:guide
       position="-439.11156,232.56408"
       orientation="0,-1"
       id="guide160"
       inkscape:locked="false" /><sodipodi:guide
       position="-439.11156,188.62306"
       orientation="0,-1"
       id="guide161"
       inkscape:locked="false" /><sodipodi:guide
       position="-60.719118,139.73158"
       orientation="0,-1"
       id="guide202"
       inkscape:locked="false" /></sodipodi:namedview><defs
     id="defs1" /><g
     inkscape:label="Layer 1"
     inkscape:groupmode="layer"
     id="layer1"
     transform="translate(-581.41912,-57.573247)"><g
       id="g3"><g
         id="g1"
         transform="matrix(0.73697133,0,0,0.73697133,452.85235,-55.561722)"><path
           id="rect352"
           style="display:inline;opacity:0.743155;fill:#22ff11;fill-opacity:0.576662;stroke:#9dfcff;stroke-width:0.114418"
           d="m 179.96933,199.2605 h 8.39882 c 10e-6,0 10e-6,1.06524 10e-6,2.38844 v 0.51079 c 0,1.3232 0,2.38844 -10e-6,2.38844 h -8.39882 c 0,0 0,-1.06524 0,-2.38844 v -0.51079 c 0,-1.3232 0,-2.38844 0,-2.38844 z"
           transform="matrix(1.3569049,0,0,1.3569049,-69.670765,-116.78653)" /><g
           id="text352"
           style="display:inline;opacity:1;fill:#ffffff"
           transform="matrix(1.1213635,0,0,1.1213635,-26.291335,-69.22967)"><path
             style="color:#000000;-inkscape-font-specification:Heavitas;fill:#ffffff;-inkscape-stroke:none"
             d="m 181.83318,200.79624 v 1.38431 q 0,0.21447 -0.0682,0.38995 -0.065,0.17547 -0.18522,0.3022 -0.11699,0.12674 -0.28596,0.19498 -0.16573,0.0682 -0.37045,0.0682 -0.27296,0 -0.48418,-0.14298 -0.21122,-0.14623 -0.33471,-0.40295 -0.0163,-0.0292 -0.003,-0.0585 0.013,-0.0325 0.0422,-0.0487 l 0.3672,-0.18848 q 0.0292,-0.0162 0.0585,-0.003 0.0325,0.01 0.0487,0.0358 0.0487,0.078 0.12673,0.13973 0.078,0.0617 0.17873,0.0617 0.0877,0 0.13973,-0.0357 0.052,-0.039 0.078,-0.091 0.0292,-0.0552 0.039,-0.11373 0.01,-0.0617 0.01,-0.10724 v -1.38431 q 0,-0.0325 0.0228,-0.0552 0.0228,-0.0228 0.0552,-0.0228 h 0.48743 q 0.0358,0 0.0553,0.0228 0.0227,0.0227 0.0227,0.0552 z m 0.31439,1.1081 q 0,-0.25347 0.0975,-0.47769 0.0975,-0.22421 0.26321,-0.38994 0.16573,-0.16898 0.38995,-0.26646 0.22422,-0.0975 0.47768,-0.0975 0.25347,0 0.47769,0.0975 0.22422,0.0975 0.38994,0.26646 0.16898,0.16573 0.26647,0.38994 0.0975,0.22422 0.0975,0.47769 0,0.25346 -0.0975,0.47768 -0.0975,0.22422 -0.26647,0.3932 -0.16572,0.16572 -0.38994,0.26321 -0.22422,0.0975 -0.47769,0.0975 -0.25346,0 -0.47768,-0.0975 -0.22422,-0.0975 -0.38995,-0.26321 -0.16572,-0.16898 -0.26321,-0.3932 -0.0975,-0.22422 -0.0975,-0.47768 z m 0.64342,0 q 0,0.12348 0.0455,0.23397 0.0455,0.11048 0.12348,0.19497 0.0812,0.0845 0.18848,0.13648 0.10723,0.0487 0.22746,0.0487 0.12024,0 0.22747,-0.0487 0.10724,-0.052 0.18848,-0.13648 0.0812,-0.0845 0.12673,-0.19497 0.0455,-0.11049 0.0455,-0.23397 0,-0.12023 -0.0455,-0.23072 -0.0455,-0.11373 -0.12673,-0.19497 -0.0812,-0.0845 -0.18848,-0.13323 -0.10723,-0.052 -0.22747,-0.052 -0.12023,0 -0.22746,0.052 -0.10724,0.0487 -0.18848,0.13323 -0.078,0.0812 -0.12348,0.19497 -0.0455,0.11049 -0.0455,0.23072 z m 2.72555,1.18933 h -0.49068 q -0.0357,0 -0.0585,-0.0227 -0.0195,-0.0228 -0.0195,-0.0553 v -2.21944 q 0,-0.0325 0.0195,-0.0552 0.0228,-0.0228 0.0585,-0.0228 h 0.49068 q 0.0325,0 0.0552,0.0228 0.0228,0.0227 0.0228,0.0552 v 2.21944 q 0,0.0325 -0.0228,0.0553 -0.0227,0.0227 -0.0552,0.0227 z m 2.72556,-2.30068 v 2.22269 q 0,0.0325 -0.0227,0.0553 -0.0228,0.0227 -0.0553,0.0227 h -0.48093 q -0.0325,0 -0.0682,-0.0195 -0.0357,-0.0195 -0.0552,-0.0455 l -0.84813,-1.19258 q -0.0195,-0.026 -0.0422,-0.0195 -0.0195,0.003 -0.0195,0.0358 v 1.16333 q 0,0.0325 -0.0227,0.0553 -0.0228,0.0227 -0.0553,0.0227 h -0.48418 q -0.0325,0 -0.0552,-0.0227 -0.0228,-0.0228 -0.0228,-0.0553 v -2.22269 q 0,-0.0325 0.0228,-0.0552 0.0228,-0.0228 0.0552,-0.0228 h 0.48743 q 0.0325,0 0.0682,0.0195 0.0358,0.0163 0.0553,0.0422 l 0.84488,1.19259 q 0.0195,0.026 0.039,0.0227 0.0228,-0.003 0.0228,-0.0357 v -1.16334 q 0,-0.0325 0.0228,-0.0552 0.0228,-0.0228 0.0552,-0.0228 h 0.48093 q 0.0325,0 0.0553,0.0228 0.0227,0.0228 0.0227,0.0552 z"
             id="path633" /><path
             style="color:#000000;-inkscape-font-specification:Heavitas;fill:#ffffff;-inkscape-stroke:none"
             d="m 183.375,200.66602 c -0.16994,0 -0.33004,0.0322 -0.48047,0.0976 -0.0204,0.009 -0.0331,0.0274 -0.0527,0.0371 h 0.0254 c 0.0126,-0.006 0.0203,-0.0178 0.0332,-0.0234 0.14853,-0.0646 0.3066,-0.0977 0.47461,-0.0977 0.16801,0 0.32804,0.0331 0.47656,0.0977 0.0112,0.005 0.0184,0.0144 0.0293,0.0195 h 0.0254 c -0.0181,-0.009 -0.0301,-0.0251 -0.0488,-0.0332 -0.15043,-0.0654 -0.31247,-0.0976 -0.48242,-0.0976 z m 2.71289,0.041 c -0.0234,0 -0.0441,0.009 -0.0605,0.0254 -0.016,0.016 -0.0249,0.036 -0.0254,0.0586 h 0.0156 c 4.4e-4,-0.019 0.006,-0.0335 0.0195,-0.0469 0.0139,-0.0139 0.0309,-0.0215 0.0508,-0.0215 h 0.48633 c 0.0202,0 0.0435,0.005 0.0664,0.0176 v 0.002 c 0.023,0.0105 0.0406,0.023 0.0527,0.0391 l 0.006,0.008 h 0.0176 l -0.0117,-0.0176 c -0.0139,-0.0184 -0.0338,-0.0317 -0.0586,-0.043 -0.0246,-0.0135 -0.0491,-0.0215 -0.0723,-0.0215 z m 1.5957,0 c -0.0234,0 -0.0441,0.009 -0.0605,0.0254 -0.0149,0.0149 -0.022,0.0339 -0.0234,0.0547 -1.5e-4,0.002 -0.002,0.004 -0.002,0.006 v 1.16406 c 0,0.01 -0.001,0.0173 -0.004,0.0215 -0.003,0.004 -0.006,0.005 -0.0117,0.006 -0.009,0.002 -0.021,-0.003 -0.0332,-0.0195 l -0.83008,-1.17382 h -0.0195 l 0.83789,1.18359 c 0.0138,0.0184 0.0302,0.0282 0.0469,0.0254 0.009,-0.001 0.0166,-0.006 0.0215,-0.0137 0.005,-0.008 0.008,-0.0175 0.008,-0.0293 v -1.16406 c 0,-0.002 0.002,-0.004 0.002,-0.006 0.001,-0.0169 0.005,-0.0326 0.0176,-0.0449 0.0139,-0.0139 0.0309,-0.0195 0.0508,-0.0195 h 0.48047 c 0.0199,0 0.0368,0.006 0.0508,0.0195 0.0117,0.0117 0.0138,0.0273 0.0156,0.043 3.4e-4,0.003 0.004,0.005 0.004,0.008 v 2.22265 c 1e-5,0.0199 -0.006,0.0369 -0.0195,0.0508 -0.0139,0.0139 -0.0309,0.0195 -0.0508,0.0195 H 187.684 c -0.0202,0 -0.0415,-0.005 -0.0645,-0.0176 -0.0231,-0.0126 -0.0405,-0.0286 -0.0527,-0.0449 l -0.84961,-1.19141 c -0.007,-0.009 -0.0129,-0.0175 -0.0215,-0.0215 -0.009,-0.004 -0.0182,-0.005 -0.0273,-0.002 -0.009,0.001 -0.0154,0.008 -0.0195,0.0156 -0.004,0.008 -0.006,0.0157 -0.006,0.0273 v 1.16406 c 0,0.0199 -0.008,0.0369 -0.0215,0.0508 -0.0139,0.0139 -0.0289,0.0195 -0.0488,0.0195 h -0.48438 c -0.0199,0 -0.0369,-0.006 -0.0508,-0.0195 -0.0139,-0.0139 -0.0195,-0.0309 -0.0195,-0.0508 v -2.22265 h -0.0156 v 2.22265 c 0,0.0234 0.009,0.0441 0.0254,0.0605 0.0164,0.0164 0.0371,0.0254 0.0605,0.0254 h 0.48438 c 0.0234,0 0.0441,-0.009 0.0605,-0.0254 0.0164,-0.0165 0.0254,-0.0371 0.0254,-0.0605 v -1.16406 c 0,-0.0102 0.002,-0.0172 0.004,-0.0215 0.002,-0.004 0.003,-0.005 0.008,-0.006 h 0.002 c 0.006,-0.002 0.0101,-0.003 0.0156,0 0.006,0.003 0.0116,0.008 0.0176,0.0156 l 0.84765,1.19336 h 0.002 c 0.0138,0.0184 0.0321,0.0335 0.0566,0.0469 0.0246,0.0135 0.0491,0.0215 0.0723,0.0215 h 0.48047 c 0.0234,0 0.0441,-0.009 0.0606,-0.0254 0.0164,-0.0165 0.0254,-0.0371 0.0254,-0.0605 v -2.21484 -0.008 c 0,-0.0234 -0.009,-0.0441 -0.0254,-0.0606 -0.0165,-0.0165 -0.0371,-0.0254 -0.0606,-0.0254 z m -6.41601,0.004 c -0.0234,0 -0.0441,0.009 -0.0606,0.0254 -0.0165,0.0164 -0.0234,0.0371 -0.0234,0.0605 v 1.38477 c 0,0.0298 -0.005,0.0646 -0.0117,0.10547 -0.006,0.0382 -0.018,0.0752 -0.0371,0.11133 -0.0168,0.0335 -0.0423,0.0625 -0.0762,0.0879 -0.0331,0.0227 -0.0773,0.0351 -0.13476,0.0351 -0.0656,0 -0.12307,-0.0204 -0.17383,-0.0605 -0.0514,-0.0407 -0.093,-0.0874 -0.125,-0.13867 -0.0118,-0.0188 -0.0297,-0.032 -0.0527,-0.0391 v 0.002 c -0.0215,-0.01 -0.0433,-0.01 -0.0645,0.002 l -0.36719,0.18945 c -0.0209,0.0116 -0.0376,0.0297 -0.0469,0.0527 -0.01,0.0214 -0.008,0.0433 0.004,0.0644 0.0828,0.17216 0.19594,0.30798 0.33789,0.40625 0.14206,0.0962 0.30499,0.14258 0.48828,0.14258 0.13732,0 0.26155,-0.0225 0.37304,-0.0684 0.1136,-0.0459 0.2103,-0.11194 0.28907,-0.19727 0.0809,-0.0853 0.14189,-0.18684 0.18554,-0.30468 0.0459,-0.11796 0.0684,-0.2488 0.0684,-0.39258 v -1.37696 h 0.002 v -0.006 c 0,-0.003 -0.004,-0.005 -0.004,-0.008 -0.002,-0.0197 -0.007,-0.0385 -0.0215,-0.0527 -0.0145,-0.0169 -0.0351,-0.0254 -0.0605,-0.0254 z m 3.75781,0 c -0.0254,0 -0.0459,0.009 -0.0625,0.0254 h -0.002 c -0.0138,0.016 -0.0211,0.0362 -0.0215,0.0586 h 0.0156 c 3.9e-4,-0.0192 0.006,-0.0355 0.0176,-0.0488 0.0138,-0.0138 0.0305,-0.0195 0.0527,-0.0195 h 0.49023 c 0.0199,0 0.0369,0.006 0.0508,0.0195 0.0128,0.0128 0.0186,0.0291 0.0195,0.0469 h 0.0137 c -0.001,-0.0215 -0.008,-0.0413 -0.0234,-0.0566 -0.0164,-0.0165 -0.0371,-0.0254 -0.0605,-0.0254 z m -3.75781,0.0156 h 0.48828 c 0.0223,0 0.0373,0.006 0.0488,0.0195 0.0139,0.0139 0.0215,0.0309 0.0215,0.0508 v 1.38282 c 0,0.14218 -0.0233,0.27265 -0.0684,0.38867 -0.043,0.11611 -0.10417,0.21511 -0.18359,0.29883 -0.0772,0.0837 -0.1715,0.14824 -0.2832,0.19336 -0.10948,0.0451 -0.23155,0.0684 -0.36719,0.0684 -0.18066,0 -0.34091,-0.0481 -0.48047,-0.14258 -0.13968,-0.0967 -0.25019,-0.23026 -0.33203,-0.40039 -0.01,-0.0178 -0.0119,-0.0332 -0.004,-0.0508 h 0.002 c 0.008,-0.0203 0.0191,-0.0349 0.0371,-0.0449 l 0.36719,-0.18945 c 0.0178,-0.01 0.0351,-0.01 0.0527,-0.002 0.0203,0.006 0.0351,0.0175 0.0449,0.0332 0.0329,0.0528 0.0763,0.099 0.1289,0.14063 0.0532,0.0421 0.1149,0.0625 0.1836,0.0625 0.0595,0 0.10821,-0.0102 0.14453,-0.0352 v -0.002 c 0.035,-0.0263 0.0622,-0.0566 0.0801,-0.0918 v -0.002 c 0.0193,-0.0369 0.0325,-0.076 0.0391,-0.11524 0.007,-0.0414 0.01,-0.0765 0.01,-0.10742 v -1.38477 c 0,-0.0199 0.008,-0.0369 0.0215,-0.0508 0.0139,-0.0139 0.029,-0.0195 0.0488,-0.0195 z m 4.32031,0.0684 c 1e-5,6.4e-4 0,0.001 0,0.002 v 2.21875 c 0,0.0199 -0.008,0.0368 -0.0215,0.0508 -0.0139,0.0139 -0.0309,0.0195 -0.0508,0.0195 h -0.49023 c -0.0222,0 -0.0389,-0.006 -0.0527,-0.0195 -0.0118,-0.0139 -0.0176,-0.0306 -0.0176,-0.0508 v -2.21875 h -0.0156 v 2.21875 c 0,0.0232 0.007,0.044 0.0215,0.0605 h 0.002 c 0.0166,0.0165 0.0371,0.0254 0.0625,0.0254 h 0.49023 c 0.0234,0 0.0441,-0.009 0.0605,-0.0254 0.0165,-0.0165 0.0254,-0.0371 0.0254,-0.0605 v -2.21875 c 0,-6.4e-4 2e-5,-0.001 0,-0.002 z m -1.70117,0.006 c 0.13206,0.0627 0.25165,0.14033 0.35156,0.24219 0.11196,0.1098 0.201,0.23808 0.26563,0.38672 0.0646,0.14852 0.0957,0.30659 0.0957,0.47461 0,0.168 -0.0311,0.32608 -0.0957,0.47461 -0.0646,0.14865 -0.15365,0.27864 -0.26563,0.39062 -0.1098,0.1098 -0.23805,0.19708 -0.38672,0.26172 -0.14852,0.0646 -0.30855,0.0977 -0.47656,0.0977 -0.16801,0 -0.32608,-0.0331 -0.47461,-0.0977 -0.14867,-0.0647 -0.27691,-0.15193 -0.38672,-0.26172 -0.10983,-0.11199 -0.19707,-0.24194 -0.26172,-0.39062 -0.0646,-0.14853 -0.0976,-0.30661 -0.0976,-0.47461 0,-0.16802 0.0331,-0.32609 0.0976,-0.47461 0.0647,-0.14867 0.15193,-0.27691 0.26172,-0.38672 0.0983,-0.1002 0.21635,-0.17601 0.3457,-0.23828 h -0.0254 c -0.12161,0.0613 -0.23628,0.13118 -0.33007,0.22656 -0.11116,0.11117 -0.20028,0.24229 -0.26563,0.39258 -0.0654,0.15043 -0.0977,0.31052 -0.0977,0.48047 0,0.16994 0.0322,0.33003 0.0977,0.48047 0.0653,0.15027 0.15254,0.28316 0.26367,0.39648 h 0.002 c 0.11116,0.11115 0.24033,0.19832 0.39062,0.26367 0.15043,0.0654 0.31053,0.0977 0.48047,0.0977 0.16995,0 0.33199,-0.0322 0.48242,-0.0977 0.15029,-0.0653 0.27947,-0.15251 0.39063,-0.26367 0.11331,-0.11332 0.20417,-0.24618 0.26953,-0.39648 0.0654,-0.15044 0.0976,-0.31053 0.0976,-0.48047 0,-0.16995 -0.0322,-0.33004 -0.0976,-0.48047 -0.0654,-0.15031 -0.15618,-0.28141 -0.26953,-0.39258 -0.0957,-0.0975 -0.21129,-0.16846 -0.33594,-0.23047 z m -0.51172,0.48438 c -0.0812,0 -0.15799,0.0176 -0.23047,0.0527 -0.0723,0.0329 -0.13464,0.0777 -0.18945,0.13477 -0.0527,0.0549 -0.0944,0.12061 -0.125,0.19726 -0.0307,0.0746 -0.0469,0.15327 -0.0469,0.23438 0,0.0832 0.0162,0.16175 0.0469,0.23632 0.0306,0.0744 0.0724,0.14028 0.125,0.19727 0.0547,0.057 0.11716,0.10365 0.18945,0.13867 0.0725,0.0329 0.1493,0.0488 0.23047,0.0488 0.0812,0 0.15997,-0.0159 0.23242,-0.0488 0.0723,-0.035 0.13468,-0.0817 0.18945,-0.13867 0.0548,-0.057 0.0982,-0.12278 0.12891,-0.19727 0.0307,-0.0746 0.0449,-0.15308 0.0449,-0.23632 0,-0.0811 -0.0142,-0.15983 -0.0449,-0.23438 -0.0307,-0.0767 -0.074,-0.14236 -0.12891,-0.19726 -0.0548,-0.057 -0.11709,-0.1019 -0.18945,-0.13477 -0.0725,-0.0351 -0.15117,-0.0527 -0.23242,-0.0527 z m 0,0.0156 c 0.0791,0 0.15412,0.0166 0.22461,0.0508 0.0707,0.0321 0.13401,0.0772 0.1875,0.13281 0.0534,0.0534 0.095,0.11645 0.125,0.19141 0.03,0.0728 0.0449,0.14932 0.0449,0.22852 0,0.0814 -0.015,0.15772 -0.0449,0.23047 -0.03,0.0728 -0.0715,0.1377 -0.125,0.19335 -0.0536,0.0557 -0.11678,0.10048 -0.1875,0.13477 -0.0705,0.032 -0.14547,0.0488 -0.22461,0.0488 -0.0791,0 -0.15214,-0.0168 -0.22266,-0.0488 -0.0707,-0.0343 -0.13398,-0.0791 -0.1875,-0.13477 -0.0514,-0.0557 -0.0911,-0.12048 -0.12109,-0.19335 -0.03,-0.0728 -0.0449,-0.14908 -0.0449,-0.23047 0,-0.0792 0.0149,-0.15575 0.0449,-0.22852 0.03,-0.075 0.0698,-0.13801 0.12109,-0.19141 0.0535,-0.0557 0.11685,-0.10072 0.1875,-0.13281 0.0705,-0.0342 0.14359,-0.0508 0.22266,-0.0508 z"
             id="path634" /></g></g></g></g></svg>
