<?xml version="1.0" encoding="UTF-8" standalone="no"?>
<!-- Created with Inkscape (http://www.inkscape.org/) -->

<svg
   width="36.335251mm"
   height="41.252148mm"
   viewBox="0 0 36.335251 41.252148"
   version="1.1"
   id="svg1"
   xml:space="preserve"
   inkscape:version="1.3.2 (091e20e, 2023-11-25, custom)"
   sodipodi:docname="squad.svg"
   xmlns:inkscape="http://www.inkscape.org/namespaces/inkscape"
   xmlns:sodipodi="http://sodipodi.sourceforge.net/DTD/sodipodi-0.dtd"
   xmlns="http://www.w3.org/2000/svg"
   xmlns:svg="http://www.w3.org/2000/svg"><sodipodi:namedview
     id="namedview1"
     pagecolor="#ffffff"
     bordercolor="#000000"
     borderopacity="0.25"
     inkscape:showpageshadow="2"
     inkscape:pageopacity="0.0"
     inkscape:pagecheckerboard="0"
     inkscape:deskcolor="#d1d1d1"
     inkscape:document-units="mm"
     showguides="true"
     inkscape:zoom="1.9999999"
     inkscape:cx="98.500004"
     inkscape:cy="44.250002"
     inkscape:window-width="1920"
     inkscape:window-height="991"
     inkscape:window-x="-9"
     inkscape:window-y="-9"
     inkscape:window-maximized="1"
     inkscape:current-layer="layer1"><sodipodi:guide
       position="-318.62107,235.91883"
       orientation="1,0"
       id="guide3"
       inkscape:locked="false" /><sodipodi:guide
       position="-418.27497,122.1779"
       orientation="0,-1"
       id="guide160"
       inkscape:locked="false" /><sodipodi:guide
       position="-418.27497,78.236875"
       orientation="0,-1"
       id="guide161"
       inkscape:locked="false" /><sodipodi:guide
       position="-37.698367,0.17602333"
       orientation="0,-1"
       id="guide202"
       inkscape:locked="false" /><sodipodi:guide
       position="-249.69712,231.02248"
       orientation="0,-1"
       id="guide933"
       inkscape:locked="false" /><sodipodi:guide
       position="-4.9222539,390.31636"
       orientation="0,-1"
       id="guide1152"
       inkscape:locked="false" /><sodipodi:guide
       position="-9.8488239,370.7805"
       orientation="0,-1"
       id="guide1153"
       inkscape:locked="false" /><sodipodi:guide
       position="-3.6015439,385.81749"
       orientation="0,-1"
       id="guide1154"
       inkscape:locked="false" /><sodipodi:guide
       position="-10.339344,375.20149"
       orientation="0,-1"
       id="guide1155"
       inkscape:locked="false" /><sodipodi:guide
       position="-336.6374,221.24222"
       orientation="0,-1"
       id="guide1324"
       inkscape:locked="false" /><sodipodi:guide
       position="-338.13411,206.98313"
       orientation="0,-1"
       id="guide1325"
       inkscape:locked="false" /><sodipodi:guide
       position="-340.19208,192.73336"
       orientation="0,-1"
       id="guide1326"
       inkscape:locked="false" /><sodipodi:guide
       position="-260.21169,212.00528"
       orientation="0,-1"
       id="guide1356"
       inkscape:locked="false" /></sodipodi:namedview><defs
     id="defs1" /><g
     inkscape:label="Layer 1"
     inkscape:groupmode="layer"
     id="layer1"
     transform="translate(-560.58253,52.812945)"><g
       id="g1358"
       transform="translate(355.15895,-63.984325)"><g
         id="g1155"
         transform="matrix(0.04899408,0,0,0.04899408,218.84548,31.663728)"
         style="opacity:1;mix-blend-mode:normal;fill:#ffffff"><path
           style="fill:#ffffff"
           d="m -241.38479,-165.48099 c -4.33515,-0.44366 -7.65508,-3.26531 -9.02652,-7.67176 -0.48343,-1.55324 -0.49848,-3.92179 -0.49848,-78.43948 v -76.83789 h -1.58299 -1.58299 l -0.0707,29.30261 -0.0707,29.3026 -0.71508,1.35555 c -1.47661,2.79916 -4.08009,4.33299 -7.35471,4.33299 -3.27462,0 -5.8781,-1.53383 -7.35471,-4.33299 l -0.71508,-1.35555 v -33.73437 -33.73438 l 0.59884,-2.24895 c 2.48104,-9.31757 10.12125,-16.84957 18.90302,-18.63531 3.05972,-0.62218 46.57196,-0.62218 49.63168,0 9.58578,1.94923 17.59792,10.59553 19.35254,20.88426 0.23628,1.38554 0.29487,10.1166 0.23259,34.66042 l -0.0833,32.80833 -0.59694,1.11712 c -3.31165,6.19752 -12.16322,6.19752 -15.47487,0 l -0.59694,-1.11712 -0.0707,-29.3026 -0.0707,-29.30261 h -1.31664 -1.31663 l -0.0679,77.32448 -0.0679,77.32447 -0.84269,1.77889 c -4.02695,8.50069 -16.17455,8.90533 -20.35452,0.67801 -1.49073,-2.93415 -1.41813,-0.45395 -1.42152,-48.56054 l -0.003,-44.51614 h -2.11667 -2.11666 v 44.55442 c 0,43.53603 -0.0119,44.59285 -0.51968,46.23593 -1.74177,5.63588 -6.61537,8.75327 -12.70949,8.12961 z m 12.57801,-197.62482 c -16.21323,-2.51058 -22.78785,-22.11329 -11.2648,-33.5868 12.20345,-12.15099 32.86473,-4.30061 33.80155,12.84311 0.68194,12.47957 -10.34719,22.63121 -22.53675,20.74369 z"
           id="path1182" /><path
           style="display:inline;opacity:1;fill:#ffffff"
           d="M -1.1391947,100.15707 C -2.113952,99.719401 -2.995671,98.787109 -3.3705283,97.797752 -3.5638258,97.287584 -3.6567348,87.993199 -3.6654281,68.296712 L -3.6781201,39.5405 -7.0388654,37.910627 -10.399611,36.280753 -15.591382,31.031461 c -8.109681,-8.199532 -9.099579,-11.513476 -5.692907,-19.058499 0.806441,-1.786087 0.962978,-2.427771 0.96388,-3.9511773 0.0091,-15.460253 3.77773,-36.1098997 9.26912,-50.7893897 3.5233345,-9.418519 5.245116,-15.593118 7.9248957,-28.420014 5.9892546,-28.667857 18.2573013,-48.326531 39.5737693,-63.414141 36.513758,-25.84412 97.549214,-25.25889 133.233434,1.2775 20.60806,15.32508 31.93755,34.074038 37.94721,62.7981 2.40696,11.504471 4.13818,17.860859 6.91792,25.399998 2.96882,8.051945 3.31989,9.067519 4.34449,12.567708 2.76405,9.442417 5.17856,25.7897586 5.67157,38.3991968 0.15352,3.9265154 0.19094,4.1367125 1.08779,6.1092692 3.41686,7.51515 2.41653,10.821841 -5.7904,19.140658 l -5.23709,5.308503 -3.28705,1.570663 -3.28705,1.570664 -0.0833,29.150968 c -0.0933,32.652492 0.0891,29.668869 -1.90497,31.157681 -1.14539,0.855151 -28.81332,0.855151 -29.95871,0 -1.97895,-1.477502 -1.81335,0.702071 -1.89216,-24.903521 -0.0664,-21.579585 -0.0969,-22.88926 -0.52916,-22.764533 -45.40654,13.100591 -93.060422,13.541238 -138.260585,1.278471 -2.739584,-0.743247 -5.029597,-1.351358 -5.088917,-1.351358 -0.05932,0 -0.139562,10.290216 -0.178314,22.867147 -0.07879,25.571885 0.0867,23.396096 -1.891929,24.873794 -0.936881,0.699691 -27.8979124,0.982071 -29.3993597,0.307921 z"
           id="path1260"
           transform="matrix(0.2110914,0,0,0.2110914,-247.61014,-382.24286)" /><path
           d="m -174.61664,-190.88523 q 5.13511,3.32834 10.17511,5.23027 5.0402,1.90186 9.41461,1.90186 4.18417,0 6.37138,-1.14116 2.1872,-1.23627 2.1872,-3.61364 0,-1.23627 -0.95113,-1.90186 -0.95114,-0.76071 -2.56766,-1.23627 -1.52059,-0.47557 -3.6137,-0.76071 -2.09209,-0.28534 -4.2793,-0.7607 -2.09209,-0.38046 -4.94488,-0.85582 -2.75788,-0.57048 -5.70579,-1.52161 -2.94791,-1.04605 -5.89602,-2.56758 -2.85279,-1.52161 -5.13511,-3.89894 -2.28232,-2.37739 -3.70861,-5.61064 -1.33077,-3.32836 -1.33077,-7.79786 0,-6.5616 2.56745,-10.84092 2.56766,-4.27931 6.4667,-6.75179 3.99395,-2.5676 8.84372,-3.51855 4.84997,-1.04605 9.41461,-1.04605 7.98811,0 14.26437,2.37739 6.37139,2.2823 12.17229,6.7518 0.76132,0.66559 0.85521,1.61673 0.10205,0.95093 -0.47557,1.71163 l -7.41743,10.55562 q -0.5715,0.76071 -1.52263,0.95093 -0.95114,0.18982 -1.71245,-0.38045 -4.84998,-3.04306 -9.03416,-4.27931 -4.18417,-1.33139 -7.70276,-1.33139 -1.04707,0 -2.47234,0.0959 -1.33078,0 -2.56766,0.38046 -1.23688,0.28534 -2.09209,1.04604 -0.76132,0.7607 -0.76132,2.09211 0,1.33139 1.99616,2.37741 1.99616,1.04604 4.56464,1.80675 2.56745,0.7607 4.94488,1.23627 2.37743,0.38045 3.04302,0.47557 3.42348,0.66559 7.51254,1.99697 4.08927,1.23628 7.60765,3.80383 3.61371,2.4725 5.99114,6.56161 2.47254,3.99403 2.47254,10.08016 0,5.70575 -1.99616,9.88997 -1.99616,4.0891 -5.61068,6.75179 -3.51859,2.66267 -8.55879,3.99402 -4.94488,1.23627 -11.03092,1.23627 -4.94509,0 -9.22438,-0.85582 -4.27929,-0.7607 -7.98811,-2.1872 -3.70861,-1.4265 -6.94186,-3.32836 -3.13813,-1.99698 -5.8009,-4.1842 -0.76132,-0.57048 -0.85521,-1.52162 -0.10205,-1.04604 0.47557,-1.80675 l 7.32252,-10.55562 q 0.56945,-0.7607 1.52059,-0.95093 0.95113,-0.18982 1.71245,0.28534 z m 53.13479,-10.93601 q 0,-7.41749 2.85279,-13.97908 2.8528,-6.56161 7.70277,-11.4115 4.84997,-4.94499 11.411574,-7.79786 6.56161,-2.85288 13.97904,-2.85288 7.417425,0 13.979034,2.85288 6.561609,2.85287 11.411582,7.79786 4.944884,4.84989 7.797677,11.4115 2.852998,6.56159 2.852998,13.97908 0,7.41746 -2.852998,13.97907 -2.852793,6.56161 -7.797677,11.5066 -4.849973,4.84987 -11.411582,7.70274 -6.561609,2.85288 -13.979034,2.85288 -7.41743,0 -13.97904,-2.85288 -6.561604,-2.85287 -11.411574,-7.70274 -4.84997,-4.94499 -7.70277,-11.5066 -2.85279,-6.56161 -2.85279,-13.97907 z m 18.82879,0 q 0,3.61364 1.33078,6.84689 1.330774,3.23324 3.613704,5.70575 2.37743,2.47248 5.51556,3.99401 3.13814,1.4265 6.65673,1.4265 3.518584,0 6.656718,-1.4265 3.138135,-1.52161 5.515565,-3.99401 2.37743,-2.47251 3.708611,-5.70575 1.330773,-3.23325 1.330773,-6.84689 0,-3.51855 -1.330773,-6.75182 -1.330773,-3.32834 -3.708611,-5.70573 -2.37743,-2.4725 -5.515565,-3.89894 -3.138134,-1.52161 -6.656718,-1.52161 -3.51859,0 -6.65673,1.52161 -3.13813,1.4265 -5.51556,3.89894 -2.28232,2.37739 -3.613704,5.70573 -1.33078,3.23327 -1.33078,6.75182 z m 114.281365,19.58971 v 12.93303 q 0,0.95093 -0.665387,1.61673 -0.665386,0.66559 -1.6165222,0.66559 H -38.106275 q -1.047065,0 -1.712451,-0.66559 -0.571498,-0.66559 -0.571498,-1.61673 v -65.04551 q 0,-0.95093 0.571498,-1.61672 0.665386,-0.6656 1.712451,-0.6656 h 14.264173 q 0.951135,0 1.616521,0.6656 0.665387,0.66559 0.665387,1.61672 v 47.54789 q 0,0.95093 0.571497,1.61672 0.665387,0.66559 1.712452,0.66559 H 9.3476208 q 0.9511352,0 1.6165222,0.6656 0.665386,0.66559 0.665386,1.61672 z m 6.157478,12.93303 v -65.04551 q 0,-0.95093 0.665387,-1.61672 0.665386,-0.6656 1.616522,-0.6656 h 25.961095 q 14.929967,0 24.439688,8.74882 5.13511,4.75478 7.797676,11.31638 2.662771,6.56161 2.662771,14.73987 0,8.17823 -2.662771,14.83493 -2.662566,6.56161 -7.797676,11.31639 -4.754861,4.27931 -10.936015,6.46652 -6.086246,2.1872 -13.503673,2.1872 H 20.067692 q -0.951136,0 -1.616522,-0.66559 -0.665387,-0.66559 -0.665387,-1.61673 z m 21.111122,-15.21533 h 7.132291 q 2.662566,0 5.515564,-0.66559 2.852793,-0.66559 5.13511,-2.47248 2.282317,-1.90186 3.708815,-5.23026 1.520592,-3.42346 1.520592,-8.84391 0,-5.42047 -1.520592,-8.74881 -1.426703,-3.42345 -3.803929,-5.23026 -2.282316,-1.90187 -5.13511,-2.5676 -2.757884,-0.66559 -5.42045,-0.66559 h -7.132291 q -0.951135,0 -1.616521,0.66559 -0.665387,0.66559 -0.665387,1.61673 v 29.86007 q 0,0.95093 0.665387,1.61673 0.665386,0.66559 1.616521,0.66559 z m 69.301025,17.49763 H 93.838441 q -1.047066,0 -1.712452,-0.66559 -0.571498,-0.66559 -0.571498,-1.61673 v -64.95042 q 0,-0.95093 0.571498,-1.61672 0.665386,-0.66559 1.712452,-0.66559 h 14.359489 q 0.95114,0 1.61653,0.66559 0.66538,0.66559 0.66538,1.61672 v 64.95042 q 0,0.95093 -0.66538,1.61673 -0.66539,0.66559 -1.61653,0.66559 z m 33.06951,-49.83018 v 3.99403 q 0,0.95093 0.66539,1.61672 0.66538,0.6656 1.61652,0.6656 h 25.77107 q 0.95114,0 1.61652,0.66559 0.66539,0.66559 0.66539,1.61672 v 13.12322 q 0,0.95093 -0.66539,1.61673 -0.66538,0.66559 -1.61652,0.66559 h -25.77107 q -0.95114,0 -1.61652,0.66559 -0.66539,0.66559 -0.66539,1.61672 v 3.61364 q 0,0.95094 0.66539,1.61673 0.66538,0.66559 1.61652,0.66559 h 29.5748 q 0.95113,0 1.61652,0.66559 0.66539,0.66559 0.66539,1.61673 v 13.12321 q 0,0.95094 -0.66539,1.61673 -0.66539,0.66559 -1.61652,0.66559 h -48.40361 q -0.95113,0 -1.61652,-0.66559 -0.66538,-0.66559 -0.66538,-1.61673 v -65.04551 q 0,-0.95093 0.66538,-1.61672 0.66539,-0.66559 1.61652,-0.66559 h 48.40361 q 0.95113,0 1.61652,0.66559 0.66539,0.66559 0.66539,1.61672 v 12.93304 q 0,0.95093 -0.66539,1.61672 -0.66539,0.66559 -1.61652,0.66559 h -29.5748 q -0.95114,0 -1.61652,0.66559 -0.66539,0.66559 -0.66539,1.61673 z m 62.16894,49.83018 h -14.16926 q -0.95114,0 -1.61652,-0.66559 -0.66539,-0.66559 -0.66539,-1.61673 v -65.04551 q 0,-0.95093 0.66539,-1.61672 0.66538,-0.6656 1.61652,-0.6656 h 29.5748 q 5.51556,0 10.17531,1.90187 4.65974,1.80675 7.89299,5.13517 3.32836,3.32834 5.13511,7.89293 1.90227,4.56461 1.90227,10.08016 0,3.04306 -0.76132,6.08614 -0.66538,2.94797 -1.99615,5.61064 -1.33078,2.66269 -3.13814,4.84989 -1.80634,2.09211 -4.08927,3.51855 -0.76131,0.57047 -1.04502,1.4265 -0.1837,0.7607 0.37963,1.52161 3.61371,4.75478 7.60766,9.79486 3.99395,5.04007 7.13208,9.22429 0.5715,0.76071 0.28575,1.71164 -0.28575,0.85582 -1.23688,0.85582 h -17.68785 q -0.95114,0 -2.09209,-0.47557 -1.04503,-0.57048 -1.61652,-1.33139 -3.04302,-3.99403 -6.08625,-8.08314 -2.94791,-4.08912 -5.89581,-8.27334 -0.5715,-0.76071 -1.61652,-1.23627 -1.04707,-0.57069 -1.99616,-0.57069 h -2.09209 q -0.95114,0 -1.61653,0.6656 -0.66538,0.66559 -0.66538,1.61652 v 15.40551 q 0,0.95093 -0.66539,1.61673 -0.66538,0.66559 -1.61652,0.66559 z m 4.56463,-37.46773 h 10.0802 q 1.14096,0 2.37743,-0.38046 1.23689,-0.47556 2.28232,-1.33138 1.04706,-0.95093 1.71245,-2.2823 0.66539,-1.33138 0.66539,-3.13817 0,-0.95093 -0.37964,-2.18721 -0.28575,-1.33138 -1.14096,-2.47248 -0.76131,-1.23627 -2.1872,-1.99697 -1.33077,-0.85582 -3.32836,-0.85582 h -10.0802 q -0.95113,0 -1.61652,0.66559 -0.66539,0.66559 -0.66539,1.61673 v 10.08015 q 0,0.95093 0.66539,1.61673 0.66539,0.66559 1.61652,0.66559 z m 54.6562,13.5987 q 5.13531,3.32834 10.17531,5.23027 5.04,1.90186 9.4144,1.90186 4.18418,0 6.37138,-1.14116 2.18721,-1.23627 2.18721,-3.61364 0,-1.23627 -0.95114,-1.90186 -0.95113,-0.76071 -2.56745,-1.23627 -1.52263,-0.47557 -3.6137,-0.76071 -2.09209,-0.28534 -4.2793,-0.7607 -2.09209,-0.38046 -4.94508,-0.85582 -2.75768,-0.57048 -5.70559,-1.52161 -2.94811,-1.04605 -5.89602,-2.56758 -2.85279,-1.52161 -5.13511,-3.89894 -2.28232,-2.37739 -3.70881,-5.61064 -1.33078,-3.32836 -1.33078,-7.79786 0,-6.5616 2.56766,-10.84092 2.56766,-4.27931 6.4665,-6.75179 3.99395,-2.5676 8.84392,-3.51855 4.84997,-1.04605 9.4144,-1.04605 7.98811,0 14.26438,2.37739 6.37159,2.2823 12.17229,6.7518 0.76131,0.66559 0.8552,1.61673 0.10206,0.95093 -0.47557,1.71163 l -7.41742,10.55562 q -0.5715,0.76071 -1.52059,0.95093 -0.95114,0.18982 -1.71246,-0.38045 -4.84997,-3.04306 -9.03415,-4.27931 -4.18418,-1.33139 -7.70277,-1.33139 -1.04502,0 -2.47254,0.0959 -1.33077,0 -2.56745,0.38046 -1.23689,0.28534 -2.0923,1.04604 -0.76131,0.7607 -0.76131,2.09211 0,1.33139 1.99616,2.37741 1.99616,1.04604 4.56463,1.80675 2.56766,0.7607 4.94509,1.23627 2.37722,0.38045 3.04302,0.47557 3.42347,0.66559 7.51254,1.99697 4.08906,1.23628 7.60765,3.80383 3.6137,2.4725 5.99113,6.56161 2.47234,3.99403 2.47234,10.08016 0,5.70575 -1.99616,9.88997 -1.99616,4.0891 -5.61067,6.75179 -3.51859,2.66267 -8.55859,3.99402 -4.94488,1.23627 -11.03113,1.23627 -4.94488,0 -9.22417,-0.85582 -4.2795,-0.7607 -7.98811,-2.1872 -3.70882,-1.4265 -6.94206,-3.32836 -3.13814,-1.99698 -5.8007,-4.1842 -0.76132,-0.57048 -0.85521,-1.52162 -0.10205,-1.04604 0.47557,-1.80675 l 7.32231,-10.55559 q 0.5715,-0.7607 1.52263,-0.95093 0.95114,-0.18982 1.71246,0.28534 z m 62.07382,0.28534 q -1.99616,0 -3.80372,-0.7607 -1.80634,-0.76071 -3.13814,-2.09211 -1.23688,-1.33139 -1.99615,-3.04306 -0.76132,-1.80675 -0.76132,-3.80383 0,-1.99698 0.76132,-3.80383 0.76131,-1.80675 1.99615,-3.13817 1.33078,-1.33139 3.13814,-2.09211 1.80634,-0.76071 3.80372,-0.76071 1.99616,0 3.80393,0.76071 1.80634,0.7607 3.13814,2.09211 1.33077,1.33138 2.09209,3.13817 0.76131,1.80675 0.76131,3.80383 0,1.99698 -0.76131,3.80383 -0.76132,1.71163 -2.09209,3.04306 -1.33078,1.33138 -3.13814,2.09211 -1.80634,0.7607 -3.80393,0.7607 z m 0,24.24942 q -1.99616,0 -3.80372,-0.7607 -1.80634,-0.76071 -3.13814,-2.09211 -1.23688,-1.33139 -1.99615,-3.13816 -0.76132,-1.80675 -0.76132,-3.80382 0,-1.99698 0.76132,-3.70874 0.76131,-1.71163 1.99615,-3.04306 1.33078,-1.33138 3.13814,-2.09211 1.80634,-0.7607 3.80372,-0.7607 1.99616,0 3.80393,0.7607 1.80634,0.76071 3.13814,2.09211 1.33077,1.33139 2.09209,3.04306 0.76131,1.71164 0.76131,3.70874 0,1.99697 -0.76131,3.80382 -0.76132,1.80675 -2.09209,3.13816 -1.33078,1.33138 -3.13814,2.09211 -1.80634,0.7607 -3.80393,0.7607 z"
           id="text1322"
           style="-inkscape-font-specification:Heavitas;opacity:1;fill:#ffffff;stroke-width:0.449271"
           aria-label="soldiers:" /></g><g
         id="g1210"
         transform="matrix(0.04899408,0,0,0.04899408,218.84548,45.927157)"
         style="opacity:1;mix-blend-mode:normal;fill:#ffffff"><path
           style="fill:#ffffff"
           d="m -241.38479,-165.48099 c -4.33515,-0.44366 -7.65508,-3.26531 -9.02652,-7.67176 -0.48343,-1.55324 -0.49848,-3.92179 -0.49848,-78.43948 v -76.83789 h -1.58299 -1.58299 l -0.0707,29.30261 -0.0707,29.3026 -0.71508,1.35555 c -1.47661,2.79916 -4.08009,4.33299 -7.35471,4.33299 -3.27462,0 -5.8781,-1.53383 -7.35471,-4.33299 l -0.71508,-1.35555 v -33.73437 -33.73438 l 0.59884,-2.24895 c 2.48104,-9.31757 10.12125,-16.84957 18.90302,-18.63531 3.05972,-0.62218 46.57196,-0.62218 49.63168,0 9.58578,1.94923 17.59792,10.59553 19.35254,20.88426 0.23628,1.38554 0.29487,10.1166 0.23259,34.66042 l -0.0833,32.80833 -0.59694,1.11712 c -3.31165,6.19752 -12.16322,6.19752 -15.47487,0 l -0.59694,-1.11712 -0.0707,-29.3026 -0.0707,-29.30261 h -1.31664 -1.31663 l -0.0679,77.32448 -0.0679,77.32447 -0.84269,1.77889 c -4.02695,8.50069 -16.17455,8.90533 -20.35452,0.67801 -1.49073,-2.93415 -1.41813,-0.45395 -1.42152,-48.56054 l -0.003,-44.51614 h -2.11667 -2.11666 v 44.55442 c 0,43.53603 -0.0119,44.59285 -0.51968,46.23593 -1.74177,5.63588 -6.61537,8.75327 -12.70949,8.12961 z m 12.57801,-197.62482 c -16.21323,-2.51058 -22.78785,-22.11329 -11.2648,-33.5868 12.20345,-12.15099 32.86473,-4.30061 33.80155,12.84311 0.68194,12.47957 -10.34719,22.63121 -22.53675,20.74369 z"
           id="path1183" /><path
           style="opacity:1;fill:#ffffff"
           d="M 227.38016,114.23556 C 178.11557,111.81016 139.82875,97.010951 129.84788,76.535895 127.47474,71.66756 127.53707,72.158261 127.43224,57.518 l -0.0926,-12.93248 -5.64285,-13.525852 c -19.98328,-47.899683 -19.2579,-52.01054 12.99889,-73.667029 3.09274,-2.076399 89.16094,-48.799489 92.08951,-49.991825 7.2668,-2.958603 15.89369,-3.160659 23.54307,-0.551415 4.06054,1.385072 88.69078,47.319583 94.79149,51.449705 25.47423,17.245812 29.21702,25.118998 22.11561,46.5215491 -1.92592,5.8044309 -3.94097,10.8944109 -10.96003,27.6847859 l -5.04207,12.061207 -0.0969,12.941916 c -0.1095,14.628989 -0.0398,14.059674 -2.29727,18.76275 -11.65323,24.277598 -64.42431,40.772178 -121.45895,37.964248 z"
           id="path1291"
           transform="matrix(-0.1937483,0,0,0.1937483,-179.67292,-396.05456)" /><path
           d="m -111.14905,-181.62542 q -2.75768,4.46952 -6.08604,8.17826 -3.32836,3.61364 -7.51254,6.18121 -4.08927,2.5676 -9.12926,3.99404 -5.04,1.4265 -11.12624,1.4265 -7.60766,0 -14.26438,-2.85286 -6.65672,-2.85287 -11.69672,-7.70277 -4.94509,-4.84989 -7.79788,-11.4115 -2.85279,-6.56161 -2.85279,-13.97907 0,-7.41747 2.85279,-13.97908 2.85279,-6.56161 7.79788,-11.41148 5.04,-4.84989 11.69672,-7.70277 6.65672,-2.85287 14.26438,-2.85287 6.27626,0 11.31646,1.4265 5.04,1.4265 9.12927,3.99403 4.08907,2.56758 7.32231,6.27631 3.32836,3.61364 6.08604,7.98805 0.47557,0.7607 0.1837,1.61672 -0.28575,0.85582 -1.14095,1.23627 l -13.50368,5.32536 q -0.95113,0.38046 -1.90227,0 -0.95113,-0.38045 -1.4267,-1.14116 -2.75788,-4.3744 -6.65672,-6.6567 -3.89904,-2.37741 -9.41461,-2.37741 -3.6135,0 -6.84695,1.52161 -3.13813,1.52162 -5.51536,4.08913 -2.37743,2.47248 -3.70881,5.80084 -1.33078,3.32834 -1.33078,6.84689 0,3.61364 1.33078,6.942 1.33077,3.23325 3.70881,5.70575 2.37723,2.47249 5.51536,3.99402 3.23345,1.52161 6.84695,1.52161 5.23023,0 9.41461,-2.47248 4.27929,-2.5676 6.75163,-6.56161 0.47557,-0.76071 1.33077,-1.14116 0.95114,-0.38045 1.90227,0 l 13.50368,5.32536 q 0.8552,0.38045 1.14095,1.23627 0.28575,0.7607 -0.1837,1.61673 z m 24.130471,-48.87921 q 0.379638,-0.85581 1.236884,-1.4265 0.951135,-0.66559 1.99616,-0.66559 h 13.313445 q 0.951135,0 1.80634,0.66559 0.951136,0.57048 1.330773,1.4265 l 27.768049,64.66512 q 0.379638,0.85582 -0.183696,1.80675 -0.475567,0.95093 -1.996159,0.95093 h -16.261353 q -1.045024,0 -1.996159,-0.57068 -0.855205,-0.66559 -1.330773,-1.52161 l -2.567657,-5.70575 q -0.475568,-0.85582 -1.426703,-1.4265 -0.855206,-0.66559 -1.806341,-0.66559 h -20.065077 q -1.047065,0 -1.9982,0.66559 -0.855206,0.57048 -1.236885,1.4265 l -2.66277,5.70575 q -0.379638,0.85582 -1.330773,1.52161 -0.855206,0.57068 -1.806341,0.57068 h -16.356465 q -0.47557,0 -0.95114,-0.18982 -0.57149,-0.18982 -0.8552,-0.57047 -0.37964,-0.38046 -0.47557,-0.95094 -0.10205,-0.57047 0.28575,-1.33138 z m 5.610678,41.36665 h 8.463675 q 0.951136,0 1.330773,-0.57047 0.475568,-0.66559 0,-1.52162 -0.951135,-2.37738 -2.282316,-5.51554 -1.330773,-3.23327 -2.47234,-5.99103 -0.379637,-0.85582 -0.855205,-0.85582 -0.475568,0 -0.855205,0.85582 l -4.754656,11.50657 q -0.379638,0.85582 0,1.52162 0.379637,0.57047 1.426703,0.57047 z m 77.2891328,7.32238 h -8.2732448 q -0.951135,0 -1.616521,0.66559 -0.665387,0.66559 -0.665387,1.61673 v 14.16928 q 0,0.95093 -0.665386,1.61672 -0.665387,0.66559 -1.616522,0.66559 h -14.35949 q -0.951135,0 -1.616522,-0.66559 -0.665386,-0.66559 -0.665386,-1.61672 v -65.04551 q 0,-0.95093 0.665386,-1.61673 0.665387,-0.66559 1.616522,-0.66559 h 29.0992296 q 5.3253372,0 9.9850838,1.99698 4.7548606,1.99697 8.1783346,5.51556 3.518385,3.51855 5.515565,8.17823 2.092089,4.65969 2.092089,9.98507 0,5.32535 -1.712452,9.98504 -1.712451,4.56461 -5.230223,7.98805 -3.423475,3.32836 -8.6536988,5.32537 -5.1351102,1.90187 -12.0771733,1.90187 z m 0.6653865,-33.37863 h -8.9388353 q -0.951135,0 -1.616521,0.6656 -0.665387,0.66559 -0.665387,1.61672 v 11.2213 q 0,0.95093 0.665387,1.61652 0.665386,0.66559 1.616521,0.66559 h 10.1751071 q 3.6137019,0 5.2302237,-2.2823 1.7124517,-2.37739 1.7124517,-5.32536 0,-1.52161 -0.5714976,-2.94796 -0.4755676,-1.52162 -1.5205918,-2.66269 -1.0450242,-1.14116 -2.56765715,-1.80675 -1.52059185,-0.76071 -3.51858835,-0.76071 z m 30.7871887,17.30744 q 0,-7.41747 2.852998,-13.97907 2.852793,-6.56161 7.702767,-11.41151 4.84977,-4.94496 11.411379,-7.79784 6.561609,-2.85287 13.979239,-2.85287 7.417427,0 13.979036,2.85287 6.561609,2.85288 11.411379,7.79784 4.945087,4.8499 7.79788,11.41151 2.852998,6.5616 2.852998,13.97907 0,7.41747 -2.852998,13.97908 -2.852793,6.56161 -7.79788,11.50659 -4.84977,4.84989 -11.411379,7.70277 -6.561609,2.85286 -13.979036,2.85286 -7.41763,0 -13.979239,-2.85286 -6.561609,-2.85288 -11.411379,-7.70277 -4.849974,-4.94498 -7.702767,-11.50659 -2.852998,-6.56161 -2.852998,-13.97908 z m 18.829009,0 q 0,3.61364 1.330773,6.84691 1.330773,3.23325 3.613702,5.70573 2.37743,2.4725 5.515564,3.99403 3.138135,1.4265 6.656723,1.4265 3.518384,0 6.656518,-1.4265 3.138339,-1.52161 5.515565,-3.99403 2.37743,-2.47248 3.708815,-5.70573 1.330773,-3.23327 1.330773,-6.84691 0,-3.51855 -1.330773,-6.75179 -1.330773,-3.32836 -3.708815,-5.70575 -2.377226,-2.47249 -5.515565,-3.89892 -3.138134,-1.52162 -6.656518,-1.52162 -3.518588,0 -6.656723,1.52162 -3.138134,1.4265 -5.515564,3.89892 -2.282316,2.37739 -3.613702,5.70575 -1.330773,3.23324 -1.330773,6.75179 z m 78.905654,34.80506 h -14.16926 q -0.95114,0 -1.61652,-0.66559 -0.66539,-0.66559 -0.66539,-1.61672 v -65.04551 q 0,-0.95093 0.66539,-1.61673 0.66538,-0.66559 1.61652,-0.66559 h 29.5748 q 5.51556,0 10.17531,1.90186 4.65954,1.80675 7.89299,5.13517 3.32816,3.32837 5.13511,7.89296 1.90227,4.56459 1.90227,10.08015 0,3.04307 -0.76131,6.08613 -0.66539,2.94797 -1.99616,5.61065 -1.33078,2.66267 -3.13834,4.84988 -1.80634,2.09211 -4.08907,3.51854 -0.76131,0.57048 -1.04706,1.4265 -0.1837,0.76071 0.37963,1.52161 3.61371,4.7548 7.60766,9.79488 3.99395,5.04008 7.13208,9.22428 0.5715,0.7607 0.28575,1.71184 -0.28575,0.85582 -1.23688,0.85582 h -17.68785 q -0.95114,0 -2.09209,-0.47557 -1.04503,-0.57048 -1.61652,-1.33139 -3.04302,-3.99401 -6.08625,-8.08314 -2.94791,-4.0891 -5.89581,-8.27332 -0.5715,-0.76071 -1.61653,-1.23627 -1.04706,-0.57069 -1.99615,-0.57069 h -2.09209 q -0.95114,0 -1.61653,0.6656 -0.66538,0.66559 -0.66538,1.61672 v 15.40552 q 0,0.95093 -0.66539,1.61672 -0.66539,0.66559 -1.61652,0.66559 z m 4.56463,-37.46773 h 10.0802 q 1.14096,0 2.37743,-0.38045 1.23689,-0.47557 2.28211,-1.33139 1.04707,-0.95093 1.71246,-2.28229 0.66538,-1.33139 0.66538,-3.13816 0,-0.95093 -0.37964,-2.1872 -0.28574,-1.33138 -1.14095,-2.4725 -0.76132,-1.23627 -2.1872,-1.99698 -1.33078,-0.85582 -3.32836,-0.85582 h -10.0802 q -0.95114,0 -1.61652,0.66559 -0.66539,0.6656 -0.66539,1.61673 v 10.08014 q 0,0.95093 0.66539,1.61672 0.66538,0.66559 1.61652,0.66559 z m 68.73035,-29.95517 q 0.37964,-0.85581 1.23688,-1.4265 0.95114,-0.66559 1.99616,-0.66559 h 13.31345 q 0.95113,0 1.80634,0.66559 0.95113,0.57048 1.33077,1.4265 l 27.76805,64.66512 q 0.37964,0.85582 -0.1837,1.80675 -0.47556,0.95093 -1.99616,0.95093 h -16.26135 q -1.04706,0 -1.99616,-0.57068 -0.8552,-0.66559 -1.33077,-1.52161 l -2.56766,-5.70575 q -0.47557,-0.85582 -1.4267,-1.4265 -0.85521,-0.66559 -1.80634,-0.66559 h -20.06528 q -1.04503,0 -1.99616,0.66559 -0.85521,0.57048 -1.23689,1.4265 l -2.66256,5.70575 q -0.37964,0.85582 -1.33078,1.52161 -0.8552,0.57068 -1.80634,0.57068 h -16.35667 q -0.47556,0 -0.95113,-0.18982 -0.56946,-0.18982 -0.85521,-0.57047 -0.37964,-0.38046 -0.47557,-0.95094 -0.10205,-0.57047 0.28575,-1.33138 z m 5.61068,41.36665 h 8.46347 q 0.95113,0 1.33077,-0.57047 0.47557,-0.66559 0,-1.52162 -0.95114,-2.37738 -2.28232,-5.51554 -1.33077,-3.23327 -2.47254,-5.99103 -0.37964,-0.85582 -0.85521,-0.85582 -0.47556,0 -0.8552,0.85582 l -4.75486,11.50657 q -0.37964,0.85582 0,1.52162 0.37964,0.57047 1.4267,0.57047 z m 97.54443,10.84093 v 12.93303 q 0,0.95093 -0.66538,1.61672 -0.66539,0.66559 -1.61653,0.66559 h -47.45287 q -1.04707,0 -1.71245,-0.66559 -0.5715,-0.66559 -0.5715,-1.61672 v -65.04551 q 0,-0.95093 0.5715,-1.61673 0.66538,-0.66559 1.71245,-0.66559 h 14.26438 q 0.95113,0 1.61652,0.66559 0.66538,0.66559 0.66538,1.61673 v 47.54788 q 0,0.95094 0.5715,1.61653 0.66539,0.66559 1.71245,0.66559 h 28.62387 q 0.95113,0 1.61652,0.66559 0.66539,0.66559 0.66539,1.61652 z m 11.86327,-8.65372 q 5.13511,3.32836 10.17511,5.23026 5.0402,1.90186 9.41461,1.90186 4.18418,0 6.37138,-1.14115 2.1872,-1.23628 2.1872,-3.61364 0,-1.23628 -0.95113,-1.90187 -0.95114,-0.7607 -2.56766,-1.23627 -1.52263,-0.47557 -3.6137,-0.7607 -2.09209,-0.28534 -4.2793,-0.76071 -2.09209,-0.38045 -4.94488,-0.85581 -2.75788,-0.57048 -5.70579,-1.52162 -2.94791,-1.04604 -5.89602,-2.56759 -2.85279,-1.52162 -5.13511,-3.89892 -2.28232,-2.37739 -3.70881,-5.61066 -1.33078,-3.32834 -1.33078,-7.79784 0,-6.56161 2.56746,-10.84092 2.56765,-4.27932 6.46649,-6.75182 3.99416,-2.56757 8.84393,-3.51853 4.84997,-1.04604 9.4146,-1.04604 7.98791,0 14.26438,2.37739 6.37138,2.28232 12.17229,6.75181 0.76131,0.6656 0.8552,1.61673 0.10206,0.95093 -0.47557,1.71164 l -7.41742,10.55564 q -0.5715,0.7607 -1.52059,0.95093 -0.95114,0.18982 -1.71246,-0.38045 -4.84997,-3.04307 -9.03415,-4.2793 -4.18418,-1.33138 -7.70277,-1.33138 -1.04502,0 -2.47234,0.0959 -1.33077,0 -2.56765,0.38045 -1.23689,0.28534 -2.09209,1.04605 -0.76132,0.7607 -0.76132,2.09211 0,1.33138 1.99616,2.37739 1.99616,1.04604 4.56443,1.80674 2.56766,0.76071 4.94509,1.23628 2.37743,0.38045 3.04302,0.47556 3.42347,0.66559 7.51254,1.99698 4.08927,1.23627 7.60765,3.80383 3.6137,2.47248 5.99113,6.56161 2.47255,3.99401 2.47255,10.08015 0,5.70573 -1.9982,9.88995 -1.99616,4.08913 -5.61048,6.7518 -3.51858,2.66269 -8.55879,3.99403 -4.94488,1.23627 -11.03112,1.23627 -4.94489,0 -9.22418,-0.85581 -4.27929,-0.76071 -7.98811,-2.18721 -3.70861,-1.4265 -6.94186,-3.32834 -3.13833,-1.99697 -5.8009,-4.18422 -0.76132,-0.57068 -0.85521,-1.52161 -0.10205,-1.04605 0.47557,-1.80675 l 7.32252,-10.55562 q 0.5715,-0.76071 1.52059,-0.95093 0.95114,-0.18982 1.71245,0.28534 z m 62.07362,0.28534 q -1.99616,0 -3.80372,-0.76071 -1.80634,-0.7607 -3.13813,-2.09209 -1.23689,-1.33138 -1.99616,-3.04308 -0.76132,-1.80675 -0.76132,-3.80382 0,-1.99698 0.76132,-3.80383 0.76131,-1.80675 1.99616,-3.13816 1.33077,-1.33138 3.13813,-2.09211 1.80634,-0.7607 3.80372,-0.7607 1.9982,0 3.80393,0.7607 1.80634,0.76071 3.13814,2.09211 1.33077,1.33139 2.09209,3.13816 0.76131,1.80675 0.76131,3.80383 0,1.99697 -0.76131,3.80382 -0.76132,1.71184 -2.09209,3.04308 -1.33078,1.33139 -3.13814,2.09209 -1.80634,0.76071 -3.80393,0.76071 z m 0,24.24942 q -1.99616,0 -3.80372,-0.76071 -1.80634,-0.7607 -3.13813,-2.09211 -1.23689,-1.33138 -1.99616,-3.13817 -0.76132,-1.80675 -0.76132,-3.80383 0,-1.99697 0.76132,-3.70873 0.76131,-1.71164 1.99616,-3.04306 1.33077,-1.33139 3.13813,-2.09211 1.80634,-0.76071 3.80372,-0.76071 1.9982,0 3.80393,0.76071 1.80634,0.7607 3.13814,2.09211 1.33077,1.33138 2.09209,3.04306 0.76131,1.71184 0.76131,3.70873 0,1.99698 -0.76131,3.80383 -0.76132,1.80675 -2.09209,3.13817 -1.33078,1.33139 -3.13814,2.09211 -1.80634,0.76071 -3.80393,0.76071 z"
           id="text1323"
           style="-inkscape-font-specification:Heavitas;opacity:1;fill:#ffffff;stroke-width:0.449271"
           aria-label="caporals:" /></g><g
         id="g1238"
         transform="matrix(0.04899408,0,0,0.04899408,218.84548,60.209959)"
         style="opacity:1;mix-blend-mode:normal;fill:#ffffff"><path
           style="fill:#ffffff"
           d="m -241.38479,-165.48099 c -4.33515,-0.44366 -7.65508,-3.26531 -9.02652,-7.67176 -0.48343,-1.55324 -0.49848,-3.92179 -0.49848,-78.43948 v -76.83789 h -1.58299 -1.58299 l -0.0707,29.30261 -0.0707,29.3026 -0.71508,1.35555 c -1.47661,2.79916 -4.08009,4.33299 -7.35471,4.33299 -3.27462,0 -5.8781,-1.53383 -7.35471,-4.33299 l -0.71508,-1.35555 v -33.73437 -33.73438 l 0.59884,-2.24895 c 2.48104,-9.31757 10.12125,-16.84957 18.90302,-18.63531 3.05972,-0.62218 46.57196,-0.62218 49.63168,0 9.58578,1.94923 17.59792,10.59553 19.35254,20.88426 0.23628,1.38554 0.29487,10.1166 0.23259,34.66042 l -0.0833,32.80833 -0.59694,1.11712 c -3.31165,6.19752 -12.16322,6.19752 -15.47487,0 l -0.59694,-1.11712 -0.0707,-29.3026 -0.0707,-29.30261 h -1.31664 -1.31663 l -0.0679,77.32448 -0.0679,77.32447 -0.84269,1.77889 c -4.02695,8.50069 -16.17455,8.90533 -20.35452,0.67801 -1.49073,-2.93415 -1.41813,-0.45395 -1.42152,-48.56054 l -0.003,-44.51614 h -2.11667 -2.11666 v 44.55442 c 0,43.53603 -0.0119,44.59285 -0.51968,46.23593 -1.74177,5.63588 -6.61537,8.75327 -12.70949,8.12961 z m 12.57801,-197.62482 c -16.21323,-2.51058 -22.78785,-22.11329 -11.2648,-33.5868 12.20345,-12.15099 32.86473,-4.30061 33.80155,12.84311 0.68194,12.47957 -10.34719,22.63121 -22.53675,20.74369 z"
           id="path1211" /><path
           style="opacity:1;fill:#ffffff"
           d="m 153.84075,92.617262 c -2.9012,-1.068822 -4.93692,-2.824836 -6.2265,-5.371001 l -0.77049,-1.521264 -0.0724,-20.550964 -0.0724,-20.550964 -1.64739,-0.139044 c -0.90606,-0.07647 -3.31426,-0.268192 -5.35155,-0.426039 -24.23129,-1.877411 -33.56794,-13.961988 -23.87564,-30.902625 29.3715,-51.336809 198.71572,-53.007326 232.31145,-2.291665 11.92634,18.003827 3.00515,31.203115 -22.43374,33.191723 -2.03729,0.159259 -4.44548,0.35213 -5.35152,0.428602 l -1.64735,0.13904 -0.0724,20.418676 -0.0724,20.418676 -0.7091,1.512905 c -2.61844,5.586615 -6.58185,6.841206 -15.82736,5.010047 -45.56425,-9.024422 -94.70093,-8.948382 -139.80742,0.216355 -4.19855,0.853062 -6.83473,0.984511 -8.3737,0.417542 z m 8.60223,-5.311243 c 46.85563,-9.151166 96.18373,-9.052009 142.03105,0.285503 4.60131,0.937127 6.17124,0.785669 7.82258,-0.754674 1.61392,-1.505436 1.63151,-1.638228 1.63151,-12.315257 v -9.769279 l -0.59531,-0.135122 c -0.32742,-0.07432 -3.63141,-0.913232 -7.34219,-1.864258 -48.79875,-12.506489 -97.98219,-12.507296 -146.57916,-0.0024 -3.71078,0.954852 -7.01476,1.795874 -7.34218,1.868939 l -0.59532,0.132845 v 9.741514 c 0,10.302334 0.0391,10.670447 1.27361,11.992138 1.84683,1.977266 3.18901,2.09079 9.69541,0.820055 z m 74.89408,-64.265755 c 2.24049,-0.710545 4.84102,-2.122651 6.4582,-3.506853 l 0.9808,-0.839506 7.61663,0.921651 c 4.18915,0.506908 7.6835,0.854782 7.76523,0.773054 0.0817,-0.08173 0.20183,-0.790526 0.26689,-1.575105 l 0.1183,-1.426509 -1.0226,-0.160714 c -0.56243,-0.08839 -3.10619,-0.398813 -5.6528,-0.689823 -2.54662,-0.29101 -5.07029,-0.598037 -5.60817,-0.682283 l -0.97797,-0.153173 0.43288,-0.907755 c 0.38286,-0.802854 0.52645,-0.892368 1.24255,-0.774601 3.34529,0.550148 16.91515,1.992056 17.07609,1.814472 0.48062,-0.530336 0.52904,-3.000167 0.0591,-3.016184 -0.2478,-0.0084 -4.08196,-0.458508 -8.52035,-1.000137 l -8.06979,-0.984781 0.0922,-0.653508 c 0.0507,-0.3594295 0.1698,-0.7784615 0.26459,-0.931182 0.11665,-0.187944 3.50683,0.1282389 10.49109,0.978445 13.0557,1.589292 11.67197,1.611841 11.89758,-0.19388 0.10153,-0.8126164 0.14502,-1.5157547 0.0966,-1.5625299 -0.0484,-0.046775 -4.79094,-0.637826 -10.53901,-1.3134462 -12.83303,-1.5083757 -11.64167,-1.2629274 -11.64167,-2.3984558 0,-0.5065504 0.0456,-0.9210007 0.10141,-0.9210007 0.0558,0 6.02279,0.7143749 13.26005,1.5874999 16.09985,1.9423362 14.33919,1.9278071 14.56504,0.1201923 0.10083,-0.8070192 0.13916,-1.5069626 0.0852,-1.5554298 -0.054,-0.048467 -6.34893,-0.822863 -13.98877,-1.7208796 -7.63985,-0.8980166 -14.14322,-1.73636315 -14.45195,-1.86299232 -0.49876,-0.20457569 -1.08982,-1.48773528 -0.81286,-1.76468908 0.0587,-0.058726 7.89288,0.82496111 17.40923,1.96374907 19.55044,2.33953253 17.61284,2.34870353 17.67295,-0.0836495 l 0.0264,-1.06724079 -18.56075,-2.20949268 -18.56075,-2.2094927 -2.0106,-2.0149329 c -7.64242,-7.6588653 -21.02204,-7.1131023 -26.997,1.1012231 l -0.64473,0.8863682 -18.736,2.2210418 -18.736,2.22104191 0.0186,1.20165408 c 0.035,2.26110401 -1.622,2.26537501 17.68074,-0.0455729 9.51635,-1.13930914 17.34077,-2.03315419 17.3876,-1.98632229 0.30202,0.3020218 -0.4224,1.67415484 -0.97462,1.8460349 -0.61376,0.19103348 -26.93296,3.3718893 -27.89986,3.3718893 -0.45915,0 -0.46136,2.6642868 -0.003,3.1230596 0.12598,0.125975 23.56213,-2.5475378 26.79691,-3.0568953 0.83641,-0.1317038 0.85989,-0.1093029 0.85989,0.8202177 0,1.1761699 1.21848,0.9215115 -11.64166,2.4330745 -5.74808,0.6756202 -10.49063,1.266671 -10.53901,1.3134462 -0.0484,0.046775 -0.005,0.7499135 0.0966,1.5625299 0.22561,1.805721 -1.15812,1.783172 11.89759,0.19388 6.98426,-0.8502061 10.37444,-1.166389 10.49109,-0.978445 0.0948,0.1527205 0.21385,0.5717525 0.26458,0.931182 l 0.0922,0.653508 -8.06979,0.984781 c -4.43838,0.541629 -8.27254,0.991691 -8.52035,1.000137 -0.46991,0.01602 -0.42149,2.485848 0.0591,3.016184 0.16093,0.177584 13.7308,-1.264324 17.07609,-1.814472 0.7161,-0.117767 0.85969,-0.02825 1.24254,0.774601 l 0.43288,0.907755 -0.97796,0.152709 c -0.79449,0.124059 -12.07363,1.476497 -12.31378,1.476497 -0.13058,0 0.24918,2.892188 0.3995,3.042504 0.0827,0.08267 3.57509,-0.259027 7.76094,-0.759324 l 7.61064,-0.90963 1.43517,1.16896 c 4.59849,3.745521 11.17685,4.979259 16.88954,3.167545 z M 225.4017,14.586783 c -0.0764,-0.199197 0.046,-1.419588 0.27205,-2.711979 0.65521,-3.745861 0.69191,-3.6151284 -1.70396,-6.0697242 -2.97557,-3.0485042 -2.88832,-3.3291161 1.19063,-3.8295291 3.4382,-0.4218052 3.43112,-0.4169376 4.79333,-3.2926029 1.87876,-3.9660899 2.20259,-3.969395 4.0415,-0.041248 1.44284,3.0820833 1.04804,2.8136325 4.9235,3.3477516 3.98775,0.5495939 4.01768,0.660026 1.0115,3.7320924 l -2.30265,2.3531139 0.36711,2.4449633 c 0.75516,5.029432 0.69218,5.087496 -3.31847,3.059794 l -2.78608,-1.408581 -2.70341,1.397241 c -2.78531,1.439567 -3.54508,1.644051 -3.78505,1.018708 z"
           id="path1293"
           transform="matrix(0.25206962,0,0,0.25206962,-284.70602,-408.47733)" /><path
           d="m -111.14905,-182.29966 q -2.75768,4.4695 -6.08604,8.17824 -3.32836,3.61364 -7.51254,6.18121 -4.08927,2.5676 -9.12926,3.99404 -5.04,1.42649 -11.12624,1.42649 -7.60766,0 -14.26438,-2.85287 -6.65672,-2.85288 -11.69672,-7.70277 -4.94509,-4.84987 -7.79788,-11.41148 -2.85279,-6.56161 -2.85279,-13.97908 0,-7.41748 2.85279,-13.97909 2.85279,-6.56161 7.79788,-11.41148 5.04,-4.84989 11.69672,-7.70277 6.65672,-2.85288 14.26438,-2.85288 6.27626,0 11.31646,1.4265 5.04,1.4265 9.12907,3.99404 4.08927,2.56757 7.32251,6.27631 3.32836,3.61364 6.08604,7.98804 0.47557,0.76071 0.1837,1.61673 -0.28575,0.85582 -1.14095,1.23627 l -13.50368,5.32538 q -0.95113,0.38045 -1.90227,0 -0.95113,-0.38046 -1.4267,-1.14116 -2.75768,-4.37441 -6.65672,-6.6567 -3.89884,-2.37739 -9.4144,-2.37739 -3.61371,0 -6.84695,1.52161 -3.13814,1.52161 -5.51557,4.08911 -2.37722,2.4725 -3.70861,5.80084 -1.33077,3.32836 -1.33077,6.84691 0,3.61364 1.33077,6.94198 1.33077,3.23327 3.70861,5.70575 2.37743,2.47248 5.51557,3.99402 3.23324,1.52161 6.84695,1.52161 5.23022,0 9.4144,-2.47248 4.27949,-2.56758 6.75183,-6.56161 0.47557,-0.76071 1.33078,-1.14116 0.95113,-0.38046 1.90227,0 l 13.50367,5.32536 q 0.85521,0.38045 1.14095,1.23627 0.28575,0.7607 -0.18369,1.61672 z m 24.130471,-48.87923 q 0.379638,-0.85582 1.236884,-1.4265 0.951135,-0.66559 1.99616,-0.66559 h 13.313445 q 0.951135,0 1.80634,0.66559 0.951136,0.57048 1.330773,1.4265 l 27.768049,64.66512 q 0.379638,0.85582 -0.183696,1.80675 -0.475567,0.95093 -1.996159,0.95093 h -16.261353 q -1.045024,0 -1.996159,-0.57048 -0.855205,-0.66559 -1.330773,-1.52161 l -2.567657,-5.70575 q -0.475568,-0.85582 -1.426703,-1.4265 -0.855206,-0.66559 -1.806341,-0.66559 H -87.20105 q -1.047065,0 -1.996159,0.66559 -0.855206,0.57068 -1.236885,1.4265 l -2.662566,5.70575 q -0.379638,0.85582 -1.330773,1.52161 -0.855206,0.57048 -1.806341,0.57048 h -16.356466 q -0.47557,0 -0.95113,-0.18982 -0.5715,-0.18982 -0.85521,-0.57048 -0.37964,-0.38045 -0.47557,-0.95093 -0.10205,-0.57068 0.28575,-1.33138 z m 5.610678,41.36665 h 8.463471 q 0.951136,0 1.330773,-0.57048 0.475568,-0.66559 0,-1.52161 -0.951135,-2.37741 -2.282316,-5.51556 -1.330773,-3.23325 -2.47234,-5.99103 -0.379637,-0.85582 -0.855205,-0.85582 -0.475568,0 -0.855205,0.85582 l -4.754861,11.50659 q -0.379637,0.85582 0,1.52161 0.379638,0.57048 1.426703,0.57048 z m 77.2891328,7.32238 h -8.2734488 q -0.951135,0 -1.616521,0.66559 -0.665387,0.66559 -0.665387,1.61672 v 14.16927 q 0,0.95093 -0.665387,1.61672 -0.665386,0.66559 -1.616521,0.66559 h -14.35949 q -0.951135,0 -1.616522,-0.66559 -0.665386,-0.66559 -0.665386,-1.61672 v -65.04552 q 0,-0.95093 0.665386,-1.61672 0.665387,-0.66559 1.616522,-0.66559 h 29.0992295 q 5.3253372,0 9.9850838,1.99697 4.7548597,1.99698 8.1783347,5.51555 3.518384,3.51855 5.51536,8.17823 2.092294,4.65971 2.092294,9.98506 0,5.32536 -1.712452,9.98507 -1.712452,4.56459 -5.230223,7.98804 -3.423475,3.32834 -8.6536989,5.32536 -5.1351102,1.90186 -12.0771733,1.90186 z m 0.6653865,-33.37861 h -8.9390393 q -0.951135,0 -1.616522,0.66559 -0.665386,0.66559 -0.665386,1.61673 v 11.22129 q 0,0.95093 0.665386,1.61673 0.665387,0.66559 1.616522,0.66559 h 10.1753111 q 3.6137019,0 5.2302237,-2.2823 1.7124517,-2.37739 1.7124517,-5.32535 0,-1.52162 -0.5714976,-2.94797 -0.4755676,-1.52161 -1.5205918,-2.66269 -1.0470653,-1.14116 -2.56765715,-1.80675 -1.52059185,-0.7607 -3.51858835,-0.7607 z m 81.3781987,0 H 64.611372 q -0.951136,0 -1.616522,0.66559 -0.665387,0.66559 -0.665387,1.61673 v 47.54789 q 0,0.95093 -0.665386,1.61672 -0.571498,0.66559 -1.616522,0.66559 H 45.783179 q -0.951136,0 -1.616522,-0.66559 -0.665387,-0.66559 -0.665387,-1.61672 v -47.54789 q 0,-0.95093 -0.665386,-1.61673 -0.571498,-0.66559 -1.616522,-0.66559 H 27.71569 q -0.951135,0 -1.616522,-0.66559 -0.665386,-0.66559 -0.665386,-1.61672 v -12.93304 q 0,-0.95093 0.665386,-1.61672 0.665387,-0.66559 1.616522,-0.66559 h 50.210555 q 1.047066,0 1.616522,0.66559 0.665387,0.66559 0.665387,1.61672 v 12.93304 q 0,0.95093 -0.665387,1.61672 -0.571497,0.66559 -1.616522,0.66559 z m 22.133693,-15.31042 q 0.37964,-0.85582 1.23689,-1.4265 0.95113,-0.66559 1.99615,-0.66559 h 13.31325 q 0.95113,0 1.80634,0.66559 0.95113,0.57048 1.33077,1.4265 l 27.76784,64.66512 q 0.37964,0.85582 -0.18369,1.80675 -0.47557,0.95093 -1.99616,0.95093 h -16.26135 q -1.04707,0 -1.99616,-0.57048 -0.85521,-0.66559 -1.33078,-1.52161 l -2.56765,-5.70575 q -0.47557,-0.85582 -1.42671,-1.4265 -0.8552,-0.66559 -1.80634,-0.66559 H 99.875836 q -1.045024,0 -1.99616,0.66559 -0.855205,0.57068 -1.236884,1.4265 l -2.66277,5.70575 q -0.379638,0.85582 -1.330773,1.52161 -0.855206,0.57048 -1.806341,0.57048 H 74.486442 q -0.475568,0 -0.951135,-0.18982 -0.571498,-0.18982 -0.855206,-0.57048 -0.379637,-0.38045 -0.475567,-0.95093 -0.102053,-0.57068 0.285749,-1.33138 z m 5.61068,41.36665 h 8.46347 q 0.95114,0 1.33077,-0.57048 0.47557,-0.66559 0,-1.52161 -0.95113,-2.37741 -2.28231,-5.51556 -1.33078,-3.23325 -2.47255,-5.99103 -0.37963,-0.85582 -0.8552,-0.85582 -0.47557,0 -0.85521,0.85582 l -4.75465,11.50659 q -0.37964,0.85582 0,1.52161 0.37963,0.57048 1.4267,0.57048 z m 65.30687,26.05625 h -14.35949 q -1.04707,0 -1.71245,-0.66559 -0.5715,-0.66559 -0.5715,-1.61672 v -64.9504 q 0,-0.95093 0.5715,-1.61673 0.66538,-0.66559 1.71245,-0.66559 h 14.35949 q 0.95113,0 1.61652,0.66559 0.66539,0.66559 0.66539,1.61673 v 64.95042 q 0,0.95093 -0.66539,1.61672 -0.66539,0.66559 -1.61652,0.66559 z m 79.76167,-67.32781 v 65.04552 q 0,0.95093 -0.66538,1.61672 -0.66539,0.66559 -1.61652,0.66559 h -14.07415 q -0.95114,0 -1.99616,-0.57048 -1.04707,-0.57047 -1.61652,-1.33138 l -24.81994,-34.90013 q -0.5715,-0.76071 -1.23689,-0.57048 -0.57149,0.0959 -0.57149,1.04604 v 34.0443 q 0,0.95093 -0.66539,1.61673 -0.66539,0.66559 -1.61652,0.66559 h -14.16926 q -0.95114,0 -1.61653,-0.66559 -0.66538,-0.6656 -0.66538,-1.61673 v -65.04551 q 0,-0.95093 0.66538,-1.61673 0.66539,-0.66559 1.61653,-0.66559 h 14.26437 q 0.95114,0 1.99616,0.57048 1.04707,0.47536 1.61652,1.23627 l 24.72483,34.90016 q 0.57149,0.7607 1.14095,0.66559 0.66539,-0.0959 0.66539,-1.04605 v -34.0443 q 0,-0.95093 0.66538,-1.61672 0.66539,-0.66559 1.61653,-0.66559 h 14.07414 q 0.95114,0 1.61653,0.66559 0.66538,0.66559 0.66538,1.61672 z m 21.56281,43.45876 q 5.13532,3.32837 10.17531,5.23029 5.04,1.90186 9.41441,1.90186 4.18438,0 6.37158,-1.14116 2.18721,-1.23627 2.18721,-3.61364 0,-1.23627 -0.95114,-1.90186 -0.95113,-0.7607 -2.56745,-1.23627 -1.52264,-0.47536 -3.6137,-0.76071 -2.09209,-0.28534 -4.2793,-0.7607 -2.09209,-0.38045 -4.94508,-0.85582 -2.75768,-0.57047 -5.70559,-1.52161 -2.94811,-1.04604 -5.89602,-2.56757 -2.85279,-1.52162 -5.13511,-3.89895 -2.28232,-2.37738 -3.70882,-5.61063 -1.33077,-3.32836 -1.33077,-7.79786 0,-6.56161 2.56766,-10.84092 2.56766,-4.27932 6.46649,-6.7518 3.99396,-2.5676 8.84393,-3.51855 4.84997,-1.04604 9.4144,-1.04604 7.98811,0 14.26438,2.37739 6.37159,2.28229 12.17229,6.75179 0.76131,0.66559 0.8552,1.61673 0.10205,0.95093 -0.47557,1.71184 l -7.41742,10.55562 q -0.5715,0.7607 -1.5206,0.95093 -0.95113,0.18982 -1.71245,-0.38045 -4.84997,-3.04306 -9.03415,-4.27932 -4.18418,-1.33138 -7.70277,-1.33138 -1.04502,0 -2.47254,0.0959 -1.33077,0 -2.56745,0.38045 -1.23689,0.28534 -2.0923,1.04605 -0.76131,0.7607 -0.76131,2.09211 0,1.33138 1.99616,2.37739 1.9982,1.04604 4.56463,1.80675 2.56766,0.7607 4.94509,1.23627 2.37722,0.38045 3.04302,0.47557 3.42347,0.66559 7.51254,1.99697 4.08906,1.23627 7.60765,3.80383 3.6137,2.47248 5.99113,6.56161 2.47234,3.99403 2.47234,10.08015 0,5.70575 -1.99616,9.88995 -1.99616,4.08913 -5.61067,6.75182 -3.51859,2.66267 -8.55859,3.99401 -4.94488,1.23627 -11.03113,1.23627 -4.94488,0 -9.22417,-0.85581 -4.2793,-0.76071 -7.98811,-2.18721 -3.70882,-1.4265 -6.94206,-3.32836 -3.13814,-1.99697 -5.80071,-4.18422 -0.76131,-0.57047 -0.8552,-1.52161 -0.10205,-1.04604 0.47557,-1.80675 l 7.32231,-10.55564 q 0.5715,-0.76071 1.52263,-0.95093 0.95114,-0.18982 1.71245,0.28534 z m 62.07383,0.28535 q -1.99616,0 -3.80373,-0.76071 -1.80634,-0.7607 -3.13833,-2.09211 -1.23689,-1.33138 -1.99616,-3.04306 -0.76132,-1.80675 -0.76132,-3.80383 0,-1.99697 0.76132,-3.80384 0.76131,-1.80675 1.99616,-3.13816 1.33077,-1.33138 3.13833,-2.09211 1.80634,-0.7607 3.80373,-0.7607 1.99616,0 3.80393,0.7607 1.80634,0.76071 3.13813,2.09211 1.33077,1.33139 2.09209,3.13816 0.76132,1.80674 0.76132,3.80384 0,1.99698 -0.76132,3.80383 -0.76132,1.71164 -2.09209,3.04306 -1.33077,1.33139 -3.13813,2.09211 -1.80634,0.76071 -3.80393,0.76071 z m 0,24.24941 q -1.99616,0 -3.80373,-0.7607 -1.80634,-0.7607 -3.13833,-2.09211 -1.23689,-1.33138 -1.99616,-3.13815 -0.76132,-1.80675 -0.76132,-3.80383 0,-1.99698 0.76132,-3.70873 0.76131,-1.71184 1.99616,-3.04309 1.33077,-1.33138 3.13833,-2.09211 1.80634,-0.7607 3.80373,-0.7607 1.99616,0 3.80393,0.7607 1.80634,0.76071 3.13813,2.09211 1.33077,1.33139 2.09209,3.04309 0.76132,1.71163 0.76132,3.70873 0,1.99698 -0.76132,3.80383 -0.76132,1.80674 -2.09209,3.13815 -1.33077,1.33139 -3.13813,2.09211 -1.80634,0.7607 -3.80393,0.7607 z"
           id="text1324"
           style="-inkscape-font-specification:Heavitas;opacity:1;fill:#ffffff;stroke-width:0.449271"
           aria-label="captains:" /></g></g></g></svg>
