<?xml version="1.0" encoding="UTF-8" standalone="no"?>
<!-- Created with Inkscape (http://www.inkscape.org/) -->

<svg
   width="83.408119mm"
   height="24.859699mm"
   viewBox="0 0 83.408119 24.859699"
   version="1.1"
   id="svg1"
   xml:space="preserve"
   inkscape:version="1.3.2 (091e20e, 2023-11-25, custom)"
   sodipodi:docname="hud.svg"
   xmlns:inkscape="http://www.inkscape.org/namespaces/inkscape"
   xmlns:sodipodi="http://sodipodi.sourceforge.net/DTD/sodipodi-0.dtd"
   xmlns:xlink="http://www.w3.org/1999/xlink"
   xmlns="http://www.w3.org/2000/svg"
   xmlns:svg="http://www.w3.org/2000/svg"><sodipodi:namedview
     id="namedview1"
     pagecolor="#ffffff"
     bordercolor="#000000"
     borderopacity="0.25"
     inkscape:showpageshadow="2"
     inkscape:pageopacity="0.0"
     inkscape:pagecheckerboard="0"
     inkscape:deskcolor="#d1d1d1"
     inkscape:document-units="mm"
     showguides="true"
     inkscape:zoom="1"
     inkscape:cx="1261.5"
     inkscape:cy="304.5"
     inkscape:window-width="1920"
     inkscape:window-height="991"
     inkscape:window-x="-9"
     inkscape:window-y="-9"
     inkscape:window-maximized="1"
     inkscape:current-layer="layer1"><sodipodi:guide
       position="-277.00389,340.05471"
       orientation="1,0"
       id="guide3"
       inkscape:locked="false" /><sodipodi:guide
       position="-372.34358,302.01382"
       orientation="0,-1"
       id="guide160"
       inkscape:locked="false" /><sodipodi:guide
       position="-372.34358,258.0728"
       orientation="0,-1"
       id="guide161"
       inkscape:locked="false" /><sodipodi:guide
       position="6.0488638,209.18132"
       orientation="0,-1"
       id="guide202"
       inkscape:locked="false" /></sodipodi:namedview><defs
     id="defs1"><linearGradient
       id="linearGradient213"
       inkscape:collect="always"><stop
         style="stop-color:#0cd5e5;stop-opacity:1;"
         offset="0"
         id="stop214" /><stop
         style="stop-color:#ffffff;stop-opacity:1;"
         offset="0.49632353"
         id="stop216" /><stop
         style="stop-color:#0ed5e5;stop-opacity:1;"
         offset="1"
         id="stop215" /></linearGradient><linearGradient
       id="linearGradient123"
       inkscape:collect="always"><stop
         style="stop-color:#ffffff;stop-opacity:1;"
         offset="0"
         id="stop123" /><stop
         style="stop-color:#ffffff;stop-opacity:0;"
         offset="1"
         id="stop124" /></linearGradient><filter
       inkscape:collect="always"
       style="color-interpolation-filters:sRGB"
       id="filter124"
       x="-0.035059158"
       y="-0.31950528"
       width="1.0701183"
       height="1.6390106"><feGaussianBlur
         inkscape:collect="always"
         stdDeviation="0.2798853"
         id="feGaussianBlur124" /></filter><radialGradient
       inkscape:collect="always"
       xlink:href="#linearGradient123"
       id="radialGradient160"
       gradientUnits="userSpaceOnUse"
       gradientTransform="matrix(1,0,0,0.10972568,-6.879167,151.22022)"
       cx="137.48672"
       cy="140.1385"
       fx="137.48672"
       fy="140.1385"
       r="9.579875" /><radialGradient
       inkscape:collect="always"
       xlink:href="#linearGradient213"
       id="radialGradient215"
       cx="58.735641"
       cy="132.99409"
       fx="58.735641"
       fy="132.99409"
       r="39.850616"
       gradientTransform="matrix(1,0,0,0.27566905,497.61036,80.406551)"
       gradientUnits="userSpaceOnUse" /><filter
       style="color-interpolation-filters:sRGB"
       inkscape:label="Drop Shadow"
       id="filter217"
       x="-0.012967715"
       y="-0.043842504"
       width="1.0372484"
       height="1.1320592"><feFlood
         result="flood"
         in="SourceGraphic"
         flood-opacity="1.000000"
         flood-color="rgb(0,0,0)"
         id="feFlood216" /><feGaussianBlur
         result="blur"
         in="SourceGraphic"
         stdDeviation="0.400000"
         id="feGaussianBlur216" /><feOffset
         result="offset"
         in="blur"
         dx="0.900000"
         dy="0.900000"
         id="feOffset216" /><feComposite
         result="comp1"
         operator="in"
         in="flood"
         in2="offset"
         id="feComposite216" /><feComposite
         result="comp2"
         operator="over"
         in="SourceGraphic"
         in2="comp1"
         id="feComposite217" /></filter></defs><g
     inkscape:label="Layer 1"
     inkscape:groupmode="layer"
     id="layer1"
     transform="translate(-514.65113,-127.02298)"><g
       id="g647"
       inkscape:export-filename="superior.svg"
       inkscape:export-xdpi="96"
       inkscape:export-ydpi="96"><path
         id="path216"
         style="fill:#1fff3c;fill-opacity:0.764172;stroke:none;stroke-width:0.147896;stroke-dasharray:none;stroke-opacity:1"
         d="m 516.56866,128.05449 v 4.79809 0 l 1.59416,1.58461 v 10.07483 l 1.49254,2.04116 h 21.8318 l 2.18901,3.39787 h 25.27528 l 2.16556,-3.39787 h 21.96963 l 1.30516,-2.04116 -0.0104,-10.07483 1.74191,-2.6889 v -3.68525"
         sodipodi:nodetypes="ccccccccccccccc" /><path
         id="path157"
         style="fill:url(#radialGradient160);filter:url(#filter124)"
         d="m 121.02769,165.54533 h 19.15974 c 0,0 1e-5,0.0322 1e-5,0.0722 v 1.95799 c 0,0.04 -1e-5,0.0722 -1e-5,0.0722 h -19.15974 c 0,0 0,-0.0322 0,-0.0722 v -1.95799 c 0,-0.04 0,-0.0722 0,-0.0722 z"
         transform="matrix(0.73697133,0,0,0.73697133,454.75354,27.279232)" /><path
         style="fill:none;fill-opacity:1;stroke:#0ed5e5;stroke-width:0.148131;stroke-dasharray:none;stroke-opacity:1"
         d="m 514.72519,144.53061 v 2.99305 l 2.14796,2.09514 h 2.76417"
         id="path217" /><path
         style="fill:none;fill-opacity:1;stroke:#0ed5e5;stroke-width:0.148131;stroke-dasharray:none;stroke-opacity:1"
         d="m 597.98518,144.53061 v 2.99305 l -2.14793,2.09514 h -2.76417"
         id="path218" /><path
         id="path648"
         style="fill:none;fill-opacity:0.407843;stroke:url(#radialGradient215);stroke-width:0.143284;stroke-dasharray:none;stroke-opacity:1;filter:url(#filter217)"
         d="m 516.56864,128.05449 v 4.79809 0 l 1.59416,1.58461 v 10.07483 l 1.49254,2.04116 h 21.8318 l 2.18901,3.39787 h 25.27528 l 2.16556,-3.39787 h 21.96963 l 1.30516,-2.04116 -0.0104,-10.07483 1.74191,-2.6889 v -3.68525" /></g><g
       id="text224"
       style="font-size:7.91463px;font-family:Heavitas;-inkscape-font-specification:Heavitas;text-align:center;letter-spacing:0.343792px;word-spacing:0px;text-orientation:upright;text-anchor:middle;fill:#ffffff;stroke:#0ed5e5;stroke-width:0.036769"
       aria-label="join under&#10;a superior&#10;"
       transform="translate(497.61036,-15.925184)"><g
         id="path641"
         style="fill:#ffffff"><path
           style="color:#000000;-inkscape-font-specification:Heavitas;fill:#ffffff;stroke:none;-inkscape-stroke:none"
           d="m 35.141255,146.82425 v 3.37163 q 0,0.52237 -0.166207,0.94976 -0.158293,0.42739 -0.451134,0.73606 -0.284927,0.30867 -0.696487,0.47487 -0.403646,0.16621 -0.902268,0.16621 -0.664829,0 -1.17928,-0.34824 -0.514451,-0.35616 -0.815207,-0.98142 -0.03957,-0.0712 -0.0079,-0.14246 0.03166,-0.0791 0.102891,-0.11872 l 0.894353,-0.45905 q 0.07123,-0.0396 0.142463,-0.008 0.07915,0.0237 0.11872,0.0871 0.118719,0.18995 0.30867,0.34033 0.189951,0.15038 0.435305,0.15038 0.213695,0 0.340329,-0.0871 0.126634,-0.095 0.189951,-0.2216 0.07123,-0.13455 0.09498,-0.27702 0.02374,-0.15037 0.02374,-0.26118 v -3.37163 q 0,-0.0791 0.0554,-0.13455 0.0554,-0.0554 0.134549,-0.0554 h 1.187194 q 0.08706,0 0.134549,0.0554 0.0554,0.0554 0.0554,0.13455 z m 1.158993,2.69889 q 0,-0.61734 0.237439,-1.16345 0.237439,-0.54611 0.641085,-0.94976 0.403646,-0.41156 0.949755,-0.649 0.54611,-0.23744 1.163451,-0.23744 0.617341,0 1.163451,0.23744 0.546109,0.23744 0.949755,0.649 0.411561,0.40365 0.649,0.94976 0.237439,0.54611 0.237439,1.16345 0,0.61734 -0.237439,1.16345 -0.237439,0.54611 -0.649,0.95767 -0.403646,0.40364 -0.949755,0.64108 -0.54611,0.23744 -1.163451,0.23744 -0.617341,0 -1.163451,-0.23744 -0.546109,-0.23744 -0.949755,-0.64108 -0.403646,-0.41156 -0.641085,-0.95767 -0.237439,-0.54611 -0.237439,-1.16345 z m 1.567097,0 q 0,0.30075 0.110804,0.56985 0.110805,0.2691 0.300756,0.47488 0.197866,0.20578 0.459049,0.33241 0.261183,0.11872 0.554024,0.11872 0.292841,0 0.554024,-0.11872 0.261183,-0.12663 0.459049,-0.33241 0.197865,-0.20578 0.30867,-0.47488 0.110805,-0.2691 0.110805,-0.56985 0,-0.29284 -0.110805,-0.56194 -0.110805,-0.27701 -0.30867,-0.47488 -0.197866,-0.20578 -0.459049,-0.3245 -0.261183,-0.12663 -0.554024,-0.12663 -0.292841,0 -0.554024,0.12663 -0.261183,0.11872 -0.459049,0.3245 -0.189951,0.19787 -0.300756,0.47488 -0.110804,0.2691 -0.110804,0.56194 z m 7.031647,2.89675 h -1.195109 q -0.08706,0 -0.142464,-0.0554 -0.04749,-0.0554 -0.04749,-0.13455 v -5.40569 q 0,-0.0791 0.04749,-0.13455 0.0554,-0.0554 0.142464,-0.0554 h 1.195109 q 0.07915,0 0.134549,0.0554 0.0554,0.0554 0.0554,0.13455 v 5.40569 q 0,0.0791 -0.0554,0.13455 -0.0554,0.0554 -0.134549,0.0554 z m 7.031655,-5.60356 v 5.41361 q 0,0.0791 -0.0554,0.13455 -0.0554,0.0554 -0.134549,0.0554 h -1.171365 q -0.07915,0 -0.166207,-0.0475 -0.08706,-0.0475 -0.134549,-0.1108 l -2.065719,-2.90467 q -0.04749,-0.0633 -0.10289,-0.0475 -0.04749,0.008 -0.04749,0.0871 v 2.83344 q 0,0.0791 -0.0554,0.13455 -0.0554,0.0554 -0.134549,0.0554 H 46.68325 q -0.07915,0 -0.134549,-0.0554 -0.0554,-0.0554 -0.0554,-0.13455 v -5.41361 q 0,-0.0791 0.0554,-0.13455 0.0554,-0.0554 0.134549,-0.0554 h 1.187194 q 0.07915,0 0.166207,0.0475 0.08706,0.0396 0.134549,0.10289 l 2.057804,2.90467 q 0.04749,0.0633 0.09497,0.0554 0.0554,-0.008 0.0554,-0.0871 v -2.83344 q 0,-0.0791 0.0554,-0.13455 0.0554,-0.0554 0.134549,-0.0554 h 1.171365 q 0.07915,0 0.134549,0.0554 0.0554,0.0554 0.0554,0.13455 z m 4.581585,0.008 q 0,-0.0791 0.0554,-0.13455 0.0554,-0.0554 0.134549,-0.0554 h 1.195109 q 0.07915,0 0.134548,0.0554 0.0554,0.0554 0.0554,0.13455 v 3.20542 q 0,0.30867 0.09497,0.51445 0.102891,0.19787 0.245354,0.31659 0.150378,0.1108 0.316585,0.15829 0.166207,0.0475 0.300756,0.0475 0.134549,0 0.300756,-0.0475 0.166207,-0.0475 0.308671,-0.15829 0.142463,-0.11872 0.237439,-0.31659 0.10289,-0.20578 0.10289,-0.51445 v -3.20542 q 0,-0.0791 0.0554,-0.13455 0.0554,-0.0554 0.134549,-0.0554 h 1.195109 q 0.07915,0 0.134549,0.0554 0.0554,0.0554 0.0554,0.13455 v 3.20542 q 0,0.56194 -0.182036,1.02099 -0.174122,0.45905 -0.506537,0.78355 -0.332414,0.3245 -0.799377,0.50654 -0.466964,0.17412 -1.036817,0.17412 -0.569853,0 -1.036816,-0.17412 -0.466964,-0.18204 -0.799378,-0.50654 -0.332414,-0.3245 -0.514451,-0.78355 -0.182036,-0.45905 -0.182036,-1.02099 z m 12.025786,-0.008 v 5.41361 q 0,0.0791 -0.0554,0.13455 -0.0554,0.0554 -0.134549,0.0554 h -1.171365 q -0.07915,0 -0.166207,-0.0475 -0.08706,-0.0475 -0.134549,-0.1108 l -2.065718,-2.90467 q -0.04749,-0.0633 -0.10289,-0.0475 -0.04749,0.008 -0.04749,0.0871 v 2.83344 q 0,0.0791 -0.0554,0.13455 -0.0554,0.0554 -0.134548,0.0554 h -1.17928 q -0.07915,0 -0.134549,-0.0554 -0.0554,-0.0554 -0.0554,-0.13455 v -5.41361 q 0,-0.0791 0.0554,-0.13455 0.0554,-0.0554 0.134549,-0.0554 h 1.187194 q 0.07915,0 0.166208,0.0475 0.08706,0.0396 0.134548,0.10289 l 2.057804,2.90467 q 0.04749,0.0633 0.09498,0.0554 0.0554,-0.008 0.0554,-0.0871 v -2.83344 q 0,-0.0791 0.0554,-0.13455 0.0554,-0.0554 0.134549,-0.0554 h 1.171365 q 0.07915,0 0.134549,0.0554 0.0554,0.0554 0.0554,0.13455 z m 1.546811,5.41361 v -5.41361 q 0,-0.0791 0.0554,-0.13455 0.0554,-0.0554 0.134548,-0.0554 h 2.160694 q 1.242597,0 2.03406,0.72815 0.42739,0.39573 0.649,0.94184 0.221609,0.54611 0.221609,1.22677 0,0.68065 -0.221609,1.23468 -0.22161,0.54611 -0.649,0.94184 -0.395731,0.35616 -0.910182,0.53819 -0.506537,0.18204 -1.123878,0.18204 H 70.27478 q -0.07915,0 -0.134548,-0.0554 -0.0554,-0.0554 -0.0554,-0.13455 z m 1.757048,-1.26634 h 0.593597 q 0.22161,0 0.459049,-0.0554 0.237439,-0.0554 0.42739,-0.20578 0.189951,-0.1583 0.30867,-0.43531 0.126634,-0.28492 0.126634,-0.73606 0,-0.45113 -0.126634,-0.72814 -0.118719,-0.28493 -0.316585,-0.43531 -0.189951,-0.15829 -0.42739,-0.21369 -0.229524,-0.0554 -0.451134,-0.0554 h -0.593597 q -0.07915,0 -0.134549,0.0554 -0.0554,0.0554 -0.0554,0.13454 v 2.4852 q 0,0.0791 0.0554,0.13455 0.0554,0.0554 0.134549,0.0554 z m 6.105637,-2.69097 v 0.33241 q 0,0.0791 0.0554,0.13455 0.0554,0.0554 0.134548,0.0554 h 2.144865 q 0.07915,0 0.134549,0.0554 0.0554,0.0554 0.0554,0.13455 v 1.09222 q 0,0.0791 -0.0554,0.13455 -0.0554,0.0554 -0.134549,0.0554 h -2.144865 q -0.07915,0 -0.134548,0.0554 -0.0554,0.0554 -0.0554,0.13455 v 0.30076 q 0,0.0791 0.0554,0.13455 0.0554,0.0554 0.134548,0.0554 h 2.46145 q 0.07915,0 0.134549,0.0554 0.0554,0.0554 0.0554,0.13455 v 1.09222 q 0,0.0791 -0.0554,0.13455 -0.0554,0.0554 -0.134549,0.0554 h -4.028546 q -0.07915,0 -0.134549,-0.0554 -0.0554,-0.0554 -0.0554,-0.13455 v -5.41361 q 0,-0.0791 0.0554,-0.13455 0.0554,-0.0554 0.134549,-0.0554 h 4.028546 q 0.07915,0 0.134549,0.0554 0.0554,0.0554 0.0554,0.13455 v 1.07639 q 0,0.0791 -0.0554,0.13455 -0.0554,0.0554 -0.134549,0.0554 h -2.46145 q -0.07915,0 -0.134548,0.0554 -0.0554,0.0554 -0.0554,0.13455 z m 5.567453,4.14726 h -1.17928 q -0.07915,0 -0.134549,-0.0554 -0.0554,-0.0554 -0.0554,-0.13455 v -5.41361 q 0,-0.0791 0.0554,-0.13455 0.0554,-0.0554 0.134549,-0.0554 h 2.46145 q 0.459048,0 0.846865,0.15829 0.387817,0.15038 0.656914,0.42739 0.277012,0.27702 0.42739,0.65692 0.158293,0.3799 0.158293,0.83895 0,0.25327 -0.06332,0.50654 -0.0554,0.24535 -0.166207,0.46696 -0.110805,0.22161 -0.261183,0.40365 -0.150378,0.17412 -0.340329,0.29284 -0.06332,0.0475 -0.08706,0.11872 -0.01583,0.0633 0.03166,0.12663 0.300756,0.39573 0.633171,0.81521 0.332414,0.41947 0.593597,0.76772 0.04749,0.0633 0.02374,0.14246 -0.02374,0.0712 -0.10289,0.0712 H 85.67566 q -0.07915,0 -0.174121,-0.0396 -0.08706,-0.0475 -0.134549,-0.11081 -0.253268,-0.33241 -0.506536,-0.67274 -0.245354,-0.34033 -0.490707,-0.68857 -0.04749,-0.0633 -0.134549,-0.10289 -0.08706,-0.0475 -0.166207,-0.0475 h -0.174122 q -0.07915,0 -0.134549,0.0554 -0.0554,0.0554 -0.0554,0.13455 v 1.28217 q 0,0.0791 -0.0554,0.13455 -0.0554,0.0554 -0.134548,0.0554 z m 0.379902,-3.11836 h 0.838951 q 0.09498,0 0.197865,-0.0317 0.10289,-0.0396 0.189951,-0.11081 0.08706,-0.0791 0.142464,-0.18995 0.0554,-0.1108 0.0554,-0.26118 0,-0.0791 -0.03166,-0.18204 -0.02374,-0.1108 -0.09498,-0.20578 -0.06332,-0.10289 -0.182036,-0.1662 -0.110805,-0.0712 -0.277012,-0.0712 h -0.838951 q -0.07915,0 -0.134549,0.0554 -0.0554,0.0554 -0.0554,0.13455 v 0.83895 q 0,0.0791 0.0554,0.13454 0.0554,0.0554 0.134549,0.0554 z"
           id="path643" /><path
           style="color:#000000;-inkscape-font-specification:Heavitas;fill:#ffffff;stroke:none;-inkscape-stroke:none"
           d="m 39.291016,146.50586 c -0.413918,0 -0.803526,0.079 -1.169922,0.23828 -0.121922,0.053 -0.206978,0.15081 -0.31836,0.2168 -0.223082,0.13216 -0.456125,0.25141 -0.636718,0.43554 -0.270754,0.27076 -0.485381,0.58903 -0.644532,0.95508 -0.159302,0.3664 -0.240234,0.75796 -0.240234,1.17188 0,0.41391 0.08093,0.80352 0.240234,1.16992 0.159138,0.36602 0.37385,0.6869 0.644532,0.96289 v 0.002 c 0.270754,0.27075 0.589031,0.48538 0.955078,0.64453 0.366396,0.15931 0.756004,0.23829 1.169922,0.23829 0.413917,0 0.805479,-0.079 1.171875,-0.23829 0.366046,-0.15915 0.684324,-0.37378 0.955078,-0.64453 0.275998,-0.27599 0.493176,-0.59875 0.652343,-0.96484 0.159303,-0.3664 0.240235,-0.75601 0.240235,-1.16992 0,-0.41392 -0.08093,-0.80548 -0.240235,-1.17188 -0.15918,-0.36611 -0.376272,-0.68431 -0.652343,-0.95508 -0.112234,-0.11443 -0.267821,-0.17515 -0.396485,-0.26953 -0.181736,-0.1333 -0.344236,-0.28961 -0.558593,-0.38281 -0.366396,-0.1593 -0.757958,-0.23828 -1.171875,-0.23828 z m 0,0.0352 c 0.409203,0 0.7945,0.079 1.15625,0.23632 0.193873,0.0843 0.339177,0.22839 0.505859,0.34571 0.144572,0.10176 0.315235,0.17217 0.439453,0.29882 v 0.002 c 0.272677,0.26743 0.487127,0.58133 0.644531,0.94336 0.157283,0.36175 0.236328,0.74704 0.236328,1.15625 0,0.4092 -0.07905,0.7945 -0.236328,1.15625 -0.157417,0.36206 -0.371782,0.67842 -0.644531,0.95117 -0.26744,0.26744 -0.583215,0.47928 -0.945312,0.63672 -0.36175,0.15728 -0.747047,0.23633 -1.15625,0.23633 -0.409204,0 -0.792547,-0.079 -1.154297,-0.23633 -0.362098,-0.15744 -0.677873,-0.36928 -0.945313,-0.63672 -0.267512,-0.27276 -0.479272,-0.58904 -0.636719,-0.95117 -0.157282,-0.36175 -0.236328,-0.74705 -0.236328,-1.15625 0,-0.40921 0.07905,-0.7945 0.236328,-1.15625 0.157435,-0.3621 0.369279,-0.67592 0.636719,-0.94336 v -0.002 c 0.189559,-0.19327 0.432906,-0.3217 0.669922,-0.45703 0.09737,-0.0556 0.169971,-0.14166 0.275391,-0.1875 0.36175,-0.15728 0.745093,-0.23632 1.154297,-0.23632 z m 7.392578,0.0664 c -0.05706,0 -0.108409,0.0205 -0.148438,0.0606 -0.04002,0.0401 -0.06055,0.0914 -0.06055,0.14844 v 0.58984 4.82422 c 0,0.0571 0.02052,0.10645 0.06055,0.14648 0.04003,0.04 0.09138,0.0606 0.148438,0.0606 h 1.179687 c 0.05706,0 0.106456,-0.0205 0.146485,-0.0606 0.04002,-0.0401 0.06055,-0.0895 0.06055,-0.14648 v -2.83399 c 0,-0.0245 0.0041,-0.0423 0.0098,-0.0527 0.0057,-0.0104 0.0125,-0.0138 0.02344,-0.0156 l 0.002,-0.002 c 0.01469,-0.004 0.02756,-0.002 0.04102,0.004 0.01346,0.006 0.02644,0.0177 0.04102,0.0371 l 2.066406,2.90429 v 0.002 c 0.03357,0.0447 0.0808,0.0826 0.140625,0.11523 0.06009,0.0328 0.117384,0.0488 0.173828,0.0488 h 1.171875 c 0.05706,0 0.108409,-0.0205 0.148438,-0.0606 0.04002,-0.0401 0.06055,-0.0895 0.06055,-0.14648 v -4.54492 -0.86914 -0.008 l -0.0059,-0.006 c -0.0035,-0.0506 -0.01837,-0.0984 -0.05469,-0.13476 -0.04003,-0.04 -0.09138,-0.0606 -0.148438,-0.0606 h -1.171875 c -0.05705,0 -0.106455,0.0205 -0.146484,0.0606 -0.04002,0.0401 -0.06055,0.0914 -0.06055,0.14844 v 0.78711 2.04687 c 0,0.0242 -0.0052,0.0405 -0.01172,0.0508 -0.0065,0.0103 -0.01312,0.0155 -0.02734,0.0176 h -0.002 c -0.02283,0.004 -0.0465,-0.009 -0.07617,-0.0488 l -1.523438,-2.15039 -0.535156,-0.75391 c -0.03379,-0.045 -0.08037,-0.082 -0.140625,-0.10937 v 0.002 c -0.06009,-0.0328 -0.117384,-0.0508 -0.173828,-0.0508 z m 16.607422,0 c -0.05706,0 -0.108409,0.0205 -0.148438,0.0606 -0.04002,0.0401 -0.06055,0.0914 -0.06055,0.14844 v 1.43945 3.97461 c 0,0.0571 0.02052,0.10645 0.06055,0.14648 0.04003,0.04 0.09138,0.0606 0.148438,0.0606 h 1.179687 c 0.05706,0 0.106456,-0.0205 0.146484,-0.0606 0.04002,-0.0401 0.06055,-0.0895 0.06055,-0.14648 v -2.83399 c 0,-0.0245 0.0041,-0.0423 0.0098,-0.0527 0.0057,-0.0104 0.0125,-0.0138 0.02344,-0.0156 l 0.002,-0.002 c 0.01469,-0.004 0.02756,-0.002 0.04102,0.004 0.01346,0.006 0.02644,0.0177 0.04102,0.0371 l 2.066406,2.90429 v 0.002 c 0.03357,0.0447 0.0808,0.0826 0.140625,0.11523 0.06009,0.0328 0.117384,0.0488 0.173828,0.0488 h 1.171875 c 0.05706,0 0.108409,-0.0205 0.148438,-0.0606 0.04002,-0.0401 0.06055,-0.0895 0.06055,-0.14648 v -3.69531 -1.7168 -0.002 c 0,-0.0571 -0.02052,-0.10841 -0.06055,-0.14844 -0.04003,-0.04 -0.09138,-0.0606 -0.148438,-0.0606 h -1.171875 c -0.05706,0 -0.106455,0.0205 -0.146484,0.0606 -0.04002,0.0401 -0.06055,0.0914 -0.06055,0.14844 v 1.63867 1.19531 c 0,0.0242 -0.0052,0.0405 -0.01172,0.0508 -0.0065,0.0103 -0.01312,0.0155 -0.02734,0.0176 h -0.002 c -0.02284,0.004 -0.0465,-0.009 -0.07617,-0.0488 l -0.898437,-1.26758 -1.160156,-1.63672 c -0.03379,-0.045 -0.08037,-0.082 -0.140625,-0.10937 v 0.002 c -0.0601,-0.0328 -0.117384,-0.0508 -0.173828,-0.0508 z m 6.984375,0 c -0.05706,0 -0.108409,0.0205 -0.148438,0.0606 -0.04002,0.0401 -0.06055,0.0914 -0.06055,0.14844 v 1.79687 3.61719 c 0,0.0571 0.02052,0.10645 0.06055,0.14648 0.04003,0.04 0.09138,0.0606 0.148438,0.0606 h 2.160156 c 0.413367,0 0.790931,-0.0595 1.130859,-0.18164 0.345124,-0.12212 0.650409,-0.30392 0.916016,-0.54297 0.286857,-0.26561 0.503637,-0.58081 0.652344,-0.94727 v -0.002 c 0.148703,-0.37176 0.224609,-0.78447 0.224609,-1.24023 0,-0.23798 -0.07668,-0.43083 -0.117188,-0.64453 -0.03708,-0.19559 -0.03634,-0.41469 -0.107421,-0.58985 -0.148707,-0.36645 -0.365487,-0.68166 -0.652344,-0.94726 -0.53117,-0.48868 -1.214887,-0.73438 -2.046875,-0.73438 z m 6.294921,0 c -0.05706,0 -0.108408,0.0205 -0.148437,0.0606 -0.04002,0.0401 -0.06055,0.0914 -0.06055,0.14844 v 2.11914 3.29492 c 0,0.0571 0.02052,0.10645 0.06055,0.14648 0.04003,0.04 0.09138,0.0606 0.148437,0.0606 h 4.029297 c 0.05706,0 0.106456,-0.0205 0.146485,-0.0606 0.04002,-0.0401 0.06055,-0.0895 0.06055,-0.14648 v -1.0918 c 0,-0.0571 -0.02052,-0.10841 -0.06055,-0.14844 -0.04003,-0.04 -0.08943,-0.0605 -0.146485,-0.0605 h -2.46289 c -0.04848,0 -0.08726,-0.0169 -0.121094,-0.0508 -0.03384,-0.0339 -0.04883,-0.0727 -0.04883,-0.1211 v -0.30078 c 0,-0.0485 0.01499,-0.0873 0.04883,-0.12109 0.03384,-0.0338 0.07262,-0.0508 0.121094,-0.0508 h 2.146484 c 0.05706,0 0.106456,-0.0205 0.146484,-0.0605 0.04002,-0.0401 0.06055,-0.0895 0.06055,-0.14649 v -0.93164 -0.16211 c 0,-0.0571 -0.02052,-0.10645 -0.06055,-0.14648 -0.04003,-0.04 -0.08943,-0.0605 -0.146484,-0.0605 h -2.146484 c -0.04848,0 -0.08726,-0.0169 -0.121094,-0.0508 -0.03384,-0.0339 -0.04883,-0.0727 -0.04883,-0.12109 v -0.33203 c 0,-0.0485 0.01499,-0.0892 0.04883,-0.12305 0.03384,-0.0338 0.07262,-0.0488 0.121094,-0.0488 h 2.46289 c 0.05706,0 0.106456,-0.0205 0.146485,-0.0605 0.04002,-0.0401 0.06055,-0.0914 0.06055,-0.14844 v -1.07617 c 0,-0.0571 -0.02052,-0.10841 -0.06055,-0.14844 -0.04003,-0.04 -0.08943,-0.0606 -0.146485,-0.0606 z m 5.765625,0 c -0.05706,0 -0.108408,0.0205 -0.148437,0.0606 -0.04002,0.0401 -0.06055,0.0914 -0.06055,0.14844 v 2.41406 3 c 0,0.0571 0.02052,0.10645 0.06055,0.14648 0.04003,0.04 0.09138,0.0606 0.148437,0.0606 h 1.179688 0.01563 v -0.006 c 0.04977,-0.004 0.09504,-0.0189 0.130859,-0.0547 0.04002,-0.0401 0.06055,-0.0895 0.06055,-0.14648 v -1.2832 c 0,-0.0485 0.01694,-0.0873 0.05078,-0.1211 0.03384,-0.0338 0.07262,-0.0508 0.121094,-0.0508 h 0.173828 c 0.04909,0 0.10222,0.0163 0.158203,0.0469 h 0.002 c 0.05582,0.0254 0.09743,0.0583 0.126953,0.0976 0.163298,0.23177 0.326933,0.46099 0.490234,0.6875 0.168886,0.22694 0.336972,0.45217 0.505859,0.67383 0.03357,0.0448 0.0808,0.0826 0.140625,0.11523 h 0.002 c 0.06499,0.0271 0.125808,0.041 0.18164,0.041 h 1.472656 c 0.02914,0 0.05344,-0.005 0.07422,-0.0195 0.02078,-0.0144 0.03604,-0.0378 0.04492,-0.0644 0.01719,-0.0573 0.0094,-0.11189 -0.02539,-0.15821 -0.174242,-0.23232 -0.372058,-0.48783 -0.59375,-0.76758 -0.221538,-0.27956 -0.432389,-0.55269 -0.632812,-0.8164 -0.02931,-0.0391 -0.03845,-0.0728 -0.0293,-0.10938 0.01466,-0.044 0.04051,-0.0797 0.08008,-0.10937 0.127704,-0.08 0.242678,-0.17789 0.34375,-0.29492 0.101173,-0.12248 0.189215,-0.25929 0.263672,-0.40821 0.07454,-0.14907 0.130717,-0.30572 0.167969,-0.4707 0.04256,-0.17025 0.0625,-0.34134 0.0625,-0.51172 0,-0.30814 -0.05166,-0.59001 -0.158203,-0.8457 -0.101111,-0.25544 -0.245171,-0.47564 -0.431641,-0.66211 -0.181315,-0.18665 -0.403307,-0.33053 -0.664062,-0.43164 -0.260894,-0.10649 -0.545371,-0.16016 -0.853516,-0.16016 z m -48.572265,0.008 c -0.05705,0 -0.106456,0.0205 -0.146485,0.0606 -0.04002,0.0401 -0.06055,0.0914 -0.06055,0.14844 v 3.37109 c 0,0.0726 -0.0077,0.16021 -0.02344,0.25977 -0.01559,0.0923 -0.04742,0.18202 -0.09375,0.26953 v 0.002 c -0.04084,0.0817 -0.103083,0.15298 -0.185547,0.21485 -0.08032,0.0547 -0.188939,0.082 -0.328125,0.082 -0.159813,0 -0.300214,-0.0486 -0.423828,-0.14649 -0.125142,-0.0991 -0.226721,-0.20924 -0.304687,-0.33398 -0.02847,-0.0456 -0.07146,-0.0787 -0.126954,-0.0957 h -0.002 c -0.0516,-0.0222 -0.107253,-0.0186 -0.158203,0.01 l -0.892578,0.45899 c -0.05102,0.0284 -0.08885,0.0708 -0.111328,0.12695 -0.02319,0.0522 -0.02084,0.10664 0.0078,0.1582 0.201688,0.4193 0.476538,0.74893 0.822266,0.98828 0.346011,0.23422 0.743024,0.35157 1.189453,0.35157 0.334457,0 0.636642,-0.0562 0.908203,-0.16797 0.276672,-0.11173 0.511297,-0.27071 0.703125,-0.47852 0.197005,-0.20765 0.348768,-0.45515 0.455078,-0.74219 0.111722,-0.28728 0.167969,-0.60683 0.167969,-0.95703 v -3.36914 -0.002 c 0,-0.0564 -0.0214,-0.10668 -0.06055,-0.14649 -0.03527,-0.0411 -0.0865,-0.0625 -0.148437,-0.0625 z m 9.939453,0 c -0.06194,0 -0.113959,0.0202 -0.154297,0.0606 v 0.002 h -0.002 c -0.03447,0.0403 -0.05078,0.0901 -0.05078,0.14649 v 0.42773 4.97852 c 0,0.0564 0.01631,0.10627 0.05078,0.14648 h 0.002 c 0.04034,0.0403 0.09236,0.0606 0.154297,0.0606 h 1.195312 c 0.05706,0 0.108409,-0.0205 0.148438,-0.0606 0.04002,-0.0401 0.06055,-0.0895 0.06055,-0.14648 v -4.89453 -0.51172 c 0,-0.0571 -0.02052,-0.10841 -0.06055,-0.14844 -0.04003,-0.04 -0.09138,-0.0606 -0.148438,-0.0606 z m 13,0 c -0.05705,0 -0.108409,0.0225 -0.148438,0.0625 -0.04002,0.0401 -0.06055,0.0895 -0.06055,0.14649 v 1.09375 2.11133 c 0,0.37661 0.06129,0.71892 0.183593,1.02734 0.122225,0.30822 0.294069,0.57283 0.517578,0.79102 0.223459,0.21813 0.493263,0.3876 0.806641,0.50976 0.313602,0.11694 0.661195,0.17578 1.042969,0.17578 0.381774,0 0.729366,-0.0588 1.042969,-0.17578 0.313377,-0.12216 0.583182,-0.29163 0.80664,-0.50976 0.223563,-0.21824 0.392818,-0.4827 0.509766,-0.79102 0.122305,-0.30842 0.183594,-0.65073 0.183594,-1.02734 v -1.84961 -1.35547 c 0,-0.0571 -0.02052,-0.10646 -0.06055,-0.14649 -0.04003,-0.04 -0.09138,-0.0625 -0.148438,-0.0625 H 60.18554 c -0.05705,0 -0.108409,0.0225 -0.148438,0.0625 -0.04002,0.0401 -0.06055,0.0895 -0.06055,0.14649 v 1.27148 1.9336 c 0,0.20373 -0.03461,0.37196 -0.101562,0.50586 v 0.002 c -0.06239,0.12997 -0.139762,0.23138 -0.232422,0.30859 -0.09325,0.0725 -0.194226,0.12524 -0.302734,0.15625 -0.109545,0.0313 -0.207386,0.0469 -0.294922,0.0469 -0.08754,0 -0.185378,-0.0156 -0.294922,-0.0469 -0.108038,-0.0309 -0.212334,-0.0841 -0.310547,-0.15625 -0.09242,-0.077 -0.172715,-0.17915 -0.240234,-0.30859 v -0.002 c -0.06139,-0.13377 -0.09375,-0.30273 -0.09375,-0.50586 V 148 146.82422 c 0,-0.0571 -0.02052,-0.10646 -0.06055,-0.14649 -0.04003,-0.04 -0.09138,-0.0625 -0.148438,-0.0625 z m -10.019531,0.0293 h 1.1875 c 0.04909,0 0.100268,0.0144 0.15625,0.0449 h 0.002 v 0.002 c 0.05583,0.0254 0.09743,0.0564 0.126953,0.0957 l 0.517578,0.73047 1.541016,2.17383 v 0.002 c 0.03364,0.0448 0.07085,0.0692 0.111328,0.0625 0.02271,-0.003 0.04275,-0.0164 0.05469,-0.0352 0.01194,-0.0188 0.01758,-0.0418 0.01758,-0.0703 v -2.04492 -0.78906 c 0,-0.0484 0.01498,-0.0872 0.04883,-0.1211 0.03384,-0.0338 0.07262,-0.0508 0.121093,-0.0508 h 1.171875 c 0.04848,0 0.08726,0.0169 0.121094,0.0508 0.03384,0.0338 0.05078,0.0726 0.05078,0.1211 v 0.008 0.85937 4.54688 c 0,0.0484 -0.01694,0.0872 -0.05078,0.12109 -0.03384,0.0338 -0.07262,0.0508 -0.121094,0.0508 h -1.171875 c -0.04909,0 -0.100268,-0.0163 -0.15625,-0.0469 -0.05626,-0.0307 -0.09916,-0.0658 -0.128906,-0.10547 l -2.066406,-2.9043 c -0.01708,-0.0228 -0.0358,-0.0392 -0.05664,-0.0488 -0.02021,-0.009 -0.04088,-0.0115 -0.0625,-0.006 h -0.002 c -0.02003,0.004 -0.03699,0.017 -0.04687,0.0351 -0.01015,0.0186 -0.01563,0.0421 -0.01563,0.0703 v 2.83399 c 0,0.0484 -0.01498,0.0872 -0.04883,0.12109 -0.03384,0.0338 -0.07262,0.0508 -0.121094,0.0508 h -1.179687 c -0.04848,0 -0.08726,-0.0169 -0.121094,-0.0508 -0.03384,-0.0338 -0.05078,-0.0726 -0.05078,-0.12109 v -4.82227 -0.59179 c 0,-0.0484 0.01694,-0.0872 0.05078,-0.1211 0.03384,-0.0338 0.07262,-0.0508 0.121094,-0.0508 z m 16.607422,0 h 1.1875 c 0.04909,0 0.100267,0.0144 0.15625,0.0449 h 0.002 v 0.002 c 0.05583,0.0254 0.09743,0.0564 0.126953,0.0957 l 1.142578,1.61328 0.916016,1.29102 v 0.002 c 0.03365,0.0448 0.07085,0.0692 0.111328,0.0625 0.02271,-0.003 0.04275,-0.0164 0.05469,-0.0352 0.01194,-0.0188 0.01758,-0.0418 0.01758,-0.0703 v -1.19336 -1.64062 c 0,-0.0484 0.01498,-0.0872 0.04883,-0.1211 0.03384,-0.0338 0.07262,-0.0508 0.121094,-0.0508 h 1.171875 c 0.04848,0 0.08726,0.0169 0.121094,0.0508 0.03384,0.0338 0.05078,0.0726 0.05078,0.1211 v 1.71679 3.69727 c 0,0.0484 -0.01694,0.0872 -0.05078,0.12109 -0.03384,0.0338 -0.07262,0.0508 -0.121094,0.0508 h -1.171875 c -0.04909,0 -0.100268,-0.0163 -0.15625,-0.0469 -0.05626,-0.0307 -0.09916,-0.0658 -0.128906,-0.10547 l -2.066406,-2.9043 c -0.01708,-0.0228 -0.0358,-0.0392 -0.05664,-0.0488 -0.02021,-0.009 -0.04088,-0.0115 -0.0625,-0.006 h -0.002 c -0.02003,0.004 -0.03699,0.017 -0.04687,0.0351 -0.01015,0.0186 -0.01563,0.0421 -0.01563,0.0703 v 2.83399 c 0,0.0484 -0.01498,0.0872 -0.04883,0.12109 -0.03384,0.0338 -0.07262,0.0508 -0.121094,0.0508 h -1.179687 c -0.04848,0 -0.08726,-0.0169 -0.121094,-0.0508 -0.03384,-0.0338 -0.05078,-0.0726 -0.05078,-0.12109 v -3.97266 -1.4414 c 0,-0.0484 0.01694,-0.0872 0.05078,-0.1211 0.03384,-0.0338 0.07262,-0.0508 0.121094,-0.0508 z m 6.984375,0 h 2.160156 c 0.824806,0 1.497371,0.24047 2.021484,0.72266 0.282995,0.26203 0.497758,0.57385 0.644531,0.93554 0.06902,0.17009 0.06692,0.38424 0.103516,0.57422 0.0412,0.21393 0.117188,0.40721 0.117188,0.64649 0,0.45177 -0.07393,0.86157 -0.220704,1.22851 -0.146757,0.36104 -0.361936,0.67194 -0.644531,0.9336 -0.262033,0.23583 -0.563487,0.41456 -0.904297,0.53515 -0.335454,0.12056 -0.707434,0.18164 -1.117187,0.18164 h -2.160156 c -0.04848,0 -0.08921,-0.0169 -0.123047,-0.0508 -0.03384,-0.0338 -0.04883,-0.0726 -0.04883,-0.12109 v -3.61524 -1.79882 c 0,-0.0484 0.01498,-0.0872 0.04883,-0.1211 0.03384,-0.0338 0.07457,-0.0508 0.123047,-0.0508 z m 6.294921,0 h 4.029297 c 0.04848,0 0.08726,0.0169 0.121094,0.0508 0.03384,0.0338 0.04883,0.0726 0.04883,0.1211 v 1.07617 c 0,0.0484 -0.01498,0.0872 -0.04883,0.12109 -0.03384,0.0338 -0.07262,0.0508 -0.121094,0.0508 h -2.46289 c -0.05706,0 -0.106457,0.0205 -0.146485,0.0606 -0.04003,0.04 -0.06055,0.0914 -0.06055,0.14844 v 0.33203 c 0,0.057 0.02052,0.10642 0.06055,0.14648 0.04003,0.04 0.08943,0.0606 0.146485,0.0606 h 2.146484 c 0.04848,0 0.08726,0.0169 0.121094,0.0508 0.03384,0.0338 0.04883,0.0726 0.04883,0.12109 v 0.16016 0.93359 c 0,0.0484 -0.01498,0.0872 -0.04883,0.1211 -0.03384,0.0338 -0.07262,0.0488 -0.121094,0.0488 h -2.146484 c -0.05706,0 -0.106457,0.0205 -0.146485,0.0605 -0.04003,0.04 -0.06055,0.0914 -0.06055,0.14844 v 0.30078 c 0,0.057 0.02052,0.10838 0.06055,0.14844 0.04003,0.04 0.08943,0.0606 0.146485,0.0606 h 2.46289 c 0.04848,0 0.08726,0.015 0.121094,0.0488 0.03384,0.0338 0.04883,0.0746 0.04883,0.12305 v 1.0918 c 0,0.0484 -0.01498,0.0872 -0.04883,0.12109 -0.03384,0.0338 -0.07262,0.0508 -0.121094,0.0508 h -4.029297 c -0.04848,0 -0.08726,-0.0169 -0.121093,-0.0508 -0.03384,-0.0338 -0.05078,-0.0726 -0.05078,-0.12109 v -3.29297 -2.12109 c 0,-0.0484 0.01694,-0.0872 0.05078,-0.1211 0.03384,-0.0338 0.07262,-0.0508 0.121093,-0.0508 z m 5.765625,0 h 2.460938 c 0.303919,0 0.583649,0.0517 0.839844,0.15625 v 0.002 c 0.256333,0.0994 0.47291,0.23918 0.65039,0.42188 0.18288,0.18288 0.324436,0.39929 0.423828,0.65039 v 0.002 c 0.104518,0.25084 0.158204,0.52616 0.158204,0.83008 0,0.16732 -0.02259,0.33646 -0.06445,0.50391 -0.03661,0.16216 -0.09086,0.31648 -0.164062,0.46289 -0.07328,0.14656 -0.160435,0.28014 -0.259766,0.40039 -0.09865,0.11381 -0.211652,0.21138 -0.335937,0.28906 -0.04486,0.0336 -0.07676,0.076 -0.09375,0.12695 v 0.002 c -0.01195,0.0478 0.0011,0.0972 0.03516,0.14258 0.200585,0.26392 0.411131,0.53471 0.632813,0.81445 0.221526,0.27954 0.419748,0.53557 0.59375,0.76758 0.02857,0.0381 0.03401,0.0787 0.01953,0.12695 -0.0069,0.0208 -0.01578,0.0336 -0.0293,0.043 -0.01352,0.009 -0.03106,0.0156 -0.05469,0.0156 h -1.472656 c -0.04915,0 -0.105185,-0.0139 -0.166015,-0.0391 h -0.002 c -0.0555,-0.0305 -0.09748,-0.0662 -0.126953,-0.10547 -0.168802,-0.22155 -0.337055,-0.44504 -0.505859,-0.67187 -0.16353,-0.22683 -0.326704,-0.4554 -0.490234,-0.6875 v -0.002 c -0.0335,-0.0446 -0.08112,-0.0801 -0.140625,-0.10742 h -0.002 c -0.05944,-0.0321 -0.117967,-0.0488 -0.173828,-0.0488 h -0.173828 c -0.05706,0 -0.106456,0.0205 -0.146484,0.0606 -0.04003,0.04 -0.06055,0.0894 -0.06055,0.14649 v 1.2832 c 0,0.0484 -0.01694,0.0872 -0.05078,0.12109 -0.03384,0.0338 -0.07262,0.0508 -0.121094,0.0508 h -0.01758 -1.16211 c -0.04848,0 -0.08726,-0.0169 -0.121093,-0.0508 -0.03384,-0.0338 -0.05078,-0.0726 -0.05078,-0.12109 v -2.99805 -2.41601 c 0,-0.0484 0.01694,-0.0872 0.05078,-0.1211 0.03384,-0.0338 0.07262,-0.0508 0.121093,-0.0508 z m -48.572265,0.008 h 1.1875 c 0.05414,0 0.09305,0.0161 0.121094,0.0488 v 0.002 c 0.03384,0.0338 0.05078,0.0726 0.05078,0.1211 v 3.37109 c 0,0.3463 -0.05613,0.66079 -0.166016,0.94336 -0.104747,0.28282 -0.253816,0.52656 -0.447265,0.73047 -0.188075,0.20375 -0.417379,0.36083 -0.689454,0.4707 -0.266632,0.1098 -0.564159,0.16407 -0.894531,0.16407 -0.440009,0 -0.829999,-0.11365 -1.169922,-0.34375 -0.340205,-0.23553 -0.609273,-0.56023 -0.808593,-0.97461 v -0.002 c -0.0241,-0.0434 -0.02685,-0.0822 -0.0078,-0.125 v -0.002 c 0.01973,-0.0493 0.05175,-0.0849 0.0957,-0.10937 l 0.892578,-0.45899 h 0.002 c 0.0434,-0.0241 0.08219,-0.0249 0.125,-0.006 h 0.002 c 0.04926,0.0148 0.08537,0.0416 0.109375,0.0801 0.08033,0.12852 0.184374,0.24232 0.3125,0.34375 0.129654,0.10264 0.27994,0.1543 0.447265,0.1543 0.144961,0 0.261209,-0.029 0.34961,-0.0899 h 0.002 c 0.08638,-0.0648 0.151731,-0.14137 0.195312,-0.22851 0.04835,-0.0913 0.07953,-0.18426 0.0957,-0.28125 v -0.002 c 0.01594,-0.10093 0.02344,-0.18848 0.02344,-0.26367 v -3.37109 c 0,-0.0484 0.01694,-0.0872 0.05078,-0.1211 0.03384,-0.0338 0.07262,-0.0508 0.121094,-0.0508 z m 9.939453,0 h 1.195312 c 0.04848,0 0.08921,0.0169 0.123047,0.0508 0.03384,0.0338 0.04883,0.0726 0.04883,0.1211 v 0.50976 4.89649 c 0,0.0484 -0.01498,0.0872 -0.04883,0.12109 -0.03384,0.0338 -0.07457,0.0508 -0.123047,0.0508 h -1.195312 c -0.05343,0 -0.09365,-0.0181 -0.126953,-0.0508 -0.02884,-0.0336 -0.04297,-0.072 -0.04297,-0.12109 v -4.97656 -0.42969 c 0,-0.0491 0.01412,-0.0894 0.04297,-0.12305 0.03321,-0.0323 0.0738,-0.0488 0.126953,-0.0488 z m 13,0 h 1.193359 c 0.04848,0 0.08921,0.0169 0.123047,0.0508 0.03384,0.0338 0.04883,0.0726 0.04883,0.1211 v 1.17383 2.03125 c 0,0.20766 0.03288,0.38307 0.09766,0.52343 0.0695,0.13366 0.152838,0.2413 0.25,0.32227 0.101846,0.075 0.209237,0.12981 0.322265,0.16211 0.112065,0.032 0.214778,0.0488 0.306641,0.0488 0.09186,0 0.194576,-0.0168 0.30664,-0.0488 0.113102,-0.0323 0.217748,-0.0869 0.314454,-0.16211 0.09729,-0.0811 0.177939,-0.18841 0.242187,-0.32227 0.07024,-0.14047 0.105469,-0.31561 0.105469,-0.52343 v -1.93164 -1.27344 c 0,-0.0484 0.01498,-0.0872 0.04883,-0.1211 0.03384,-0.0338 0.07457,-0.0508 0.123047,-0.0508 h 1.193359 c 0.04848,0 0.08921,0.0169 0.123047,0.0508 0.03384,0.0338 0.04883,0.0726 0.04883,0.1211 v 1.35351 1.85157 c 0,0.37264 -0.05928,0.71198 -0.179687,1.01562 -0.115215,0.30375 -0.282296,0.56097 -0.501953,0.77539 -0.21976,0.21453 -0.485683,0.38336 -0.794922,0.50391 -0.308572,0.1148 -0.651965,0.17187 -1.029297,0.17187 -0.377333,0 -0.720726,-0.0571 -1.029297,-0.17187 h -0.002 c -0.308541,-0.12051 -0.573594,-0.28976 -0.792969,-0.50391 -0.219709,-0.21448 -0.389274,-0.47154 -0.509766,-0.77539 -0.120409,-0.30364 -0.179687,-0.64298 -0.179687,-1.01562 v -2.10938 -1.0957 c 0,-0.0484 0.01498,-0.0872 0.04883,-0.1211 0.03384,-0.0338 0.07457,-0.0508 0.123047,-0.0508 z M 39.291016,148.018 c -0.197877,0 -0.383998,0.0413 -0.560547,0.12695 -0.176173,0.0801 -0.331357,0.1893 -0.464844,0.32813 -0.128365,0.13371 -0.230033,0.29578 -0.304688,0.48242 -0.07476,0.18157 -0.111328,0.37081 -0.111328,0.56836 0,0.20276 0.03654,0.39454 0.111328,0.57617 0.07465,0.18129 0.176553,0.34166 0.304688,0.48047 0.133406,0.13874 0.288844,0.25061 0.464844,0.33594 v 0.002 c 0.176478,0.0802 0.362835,0.11914 0.560547,0.11914 0.197711,0 0.386021,-0.0389 0.5625,-0.11914 v -0.002 c 0.175999,-0.0853 0.331438,-0.1972 0.464843,-0.33594 0.133497,-0.13884 0.237792,-0.29903 0.3125,-0.48047 0.07479,-0.18163 0.111328,-0.37341 0.111328,-0.57617 0,-0.19755 -0.03656,-0.38679 -0.111328,-0.56836 -0.07471,-0.18678 -0.17877,-0.34869 -0.3125,-0.48242 -0.133487,-0.13883 -0.288671,-0.24805 -0.464843,-0.32813 -0.176549,-0.0856 -0.364623,-0.12695 -0.5625,-0.12695 z m 0,0.0351 c 0.192577,0 0.37518,0.0418 0.546875,0.125 0.172071,0.0782 0.322791,0.18672 0.453125,0.32227 h 0.002 c 0.13009,0.13009 0.229705,0.28618 0.302734,0.46875 h 0.002 c 0.07298,0.17723 0.109375,0.36178 0.109375,0.55469 0,0.19824 -0.03642,0.38533 -0.109375,0.5625 -0.07303,0.17736 -0.176317,0.33321 -0.30664,0.46875 -0.130416,0.13563 -0.280881,0.24461 -0.453125,0.32812 -0.17186,0.0777 -0.354227,0.11682 -0.546969,0.11682 -0.192743,0 -0.373157,-0.0391 -0.544922,-0.11719 -0.172244,-0.0835 -0.32271,-0.19249 -0.453125,-0.32812 -0.125133,-0.13556 -0.223785,-0.29125 -0.296875,-0.46875 -0.07295,-0.17717 -0.111328,-0.36426 -0.111328,-0.5625 0,-0.19291 0.03835,-0.37746 0.111328,-0.55469 0.07308,-0.18271 0.171972,-0.33864 0.296875,-0.46875 0.130333,-0.13555 0.281054,-0.24405 0.453125,-0.32227 0.171695,-0.0832 0.352344,-0.125 0.544922,-0.125 z m 44.603515,0.0117 c -0.05706,0 -0.106456,0.0205 -0.146484,0.0606 -0.04003,0.04 -0.06055,0.0914 -0.06055,0.14844 v 0.83789 c 0,0.057 0.02052,0.10838 0.06055,0.14844 0.03582,0.0358 0.08109,0.0508 0.130859,0.0547 l 0.0039,0.006 h 0.01172 0.839844 c 0.06536,0 0.133014,-0.0116 0.203125,-0.0332 0.07042,-0.0271 0.135817,-0.0646 0.195312,-0.11328 l 0.002,-0.002 c 0.05977,-0.0543 0.108608,-0.11953 0.146484,-0.19531 0.03842,-0.0768 0.05664,-0.16702 0.05664,-0.26953 0,-0.0552 -0.01171,-0.11761 -0.0332,-0.1875 -0.01638,-0.0747 -0.04817,-0.14502 -0.0957,-0.20898 l -0.002,-0.002 c -0.04348,-0.0697 -0.106085,-0.12704 -0.185547,-0.16992 -0.07739,-0.0497 -0.173679,-0.0742 -0.287109,-0.0742 z m -12.052734,0.0156 c -0.05706,0 -0.108409,0.0205 -0.148438,0.0605 -0.04003,0.04 -0.06055,0.0914 -0.06055,0.14844 v 0.4043 2.08008 c 0,0.057 0.02052,0.10838 0.06055,0.14843 0.04003,0.04 0.09138,0.0605 0.148438,0.0605 h 0.59375 c 0.149272,0 0.303365,-0.0194 0.46289,-0.0566 0.160821,-0.0375 0.306852,-0.1071 0.435547,-0.20898 0.128591,-0.10717 0.232613,-0.25596 0.3125,-0.44141 0.08589,-0.19324 0.128907,-0.44166 0.128907,-0.74414 0,-0.30169 -0.04336,-0.54646 -0.128907,-0.73438 -2.2e-4,-4.8e-4 2.22e-4,-0.001 0,-0.002 h 0.002 c -0.0801,-0.19224 -0.189265,-0.33884 -0.324218,-0.4414 -0.128374,-0.10663 -0.273163,-0.17937 -0.433594,-0.2168 -0.154328,-0.0373 -0.305806,-0.0566 -0.455078,-0.0566 z m 12.052734,0.0215 h 0.839844 c 0.108179,0 0.195272,0.0232 0.265625,0.0684 h 0.002 c 0.07669,0.0409 0.135374,0.0945 0.175781,0.16016 v 0.002 c 0.04602,0.0614 0.07653,0.12603 0.0918,0.19727 v 0.002 c 0.02072,0.0674 0.03125,0.1255 0.03125,0.17578 0,0.098 -0.01729,0.18302 -0.05273,0.25391 -0.036,0.072 -0.08236,0.13243 -0.138672,0.18359 -0.05659,0.0463 -0.116826,0.0817 -0.183594,0.10742 -0.06707,0.0207 -0.130131,0.0312 -0.191406,0.0312 h -0.826172 -0.01367 c -0.04848,0 -0.08726,-0.0169 -0.121094,-0.0508 -0.03384,-0.0339 -0.05078,-0.0726 -0.05078,-0.12109 v -0.83789 c 0,-0.0485 0.01694,-0.0892 0.05078,-0.12305 0.03384,-0.0338 0.07262,-0.0488 0.121094,-0.0488 z m -12.052734,0.0156 h 0.59375 c 0.146208,0 0.295562,0.0181 0.447265,0.0547 0.155576,0.0363 0.295372,0.1052 0.419922,0.20899 v 0.002 c 0.124107,0.0943 0.221711,0.23462 0.298828,0.41211 0.003,0.007 0.0088,0.009 0.01172,0.0156 0.08285,0.18124 0.125,0.42167 0.125,0.7207 0,0.29904 -0.04204,0.54186 -0.125,0.72852 -0.07825,0.18257 -0.178705,0.32437 -0.302734,0.42773 -0.124573,0.0986 -0.264158,0.16678 -0.419922,0.20312 -0.15706,0.0366 -0.30887,0.0547 -0.455078,0.0547 h -0.59375 c -0.04848,0 -0.08726,-0.0169 -0.121094,-0.0508 -0.03384,-0.0339 -0.05078,-0.0727 -0.05078,-0.12109 v -2.07813 -0.40625 c 0,-0.0485 0.01694,-0.0892 0.05078,-0.12304 0.03384,-0.0338 0.07262,-0.0488 0.121094,-0.0488 z"
           id="path644" /></g><g
         id="path642"
         style="fill:#ffffff"><path
           style="color:#000000;-inkscape-font-specification:Heavitas;fill:#ffffff;stroke:none;-inkscape-stroke:none"
           d="m 33.799718,154.72305 q 0.03166,-0.0712 0.10289,-0.11872 0.07915,-0.0554 0.166207,-0.0554 h 1.108049 q 0.07915,0 0.150378,0.0554 0.07915,0.0475 0.110804,0.11872 l 2.311072,5.38195 q 0.03166,0.0712 -0.01583,0.15037 -0.03957,0.0791 -0.166207,0.0791 H 36.21368 q -0.08706,0 -0.166207,-0.0475 -0.07123,-0.0554 -0.110805,-0.12663 l -0.213695,-0.47488 q -0.03957,-0.0712 -0.118719,-0.11872 -0.07123,-0.0554 -0.150378,-0.0554 h -1.669987 q -0.08706,0 -0.166207,0.0554 -0.07123,0.0475 -0.102891,0.11872 l -0.221609,0.47488 q -0.03166,0.0712 -0.110805,0.12663 -0.07123,0.0475 -0.150378,0.0475 h -1.361316 q -0.03957,0 -0.07915,-0.0158 -0.04749,-0.0158 -0.07123,-0.0475 -0.03166,-0.0316 -0.03957,-0.0791 -0.0079,-0.0475 0.02374,-0.11081 z m 0.466963,3.44286 h 0.704402 q 0.07915,0 0.110805,-0.0475 0.03957,-0.0554 0,-0.12663 -0.07915,-0.19786 -0.189951,-0.45905 -0.110805,-0.2691 -0.20578,-0.49862 -0.03166,-0.0712 -0.07123,-0.0712 -0.03957,0 -0.07123,0.0712 l -0.395731,0.95767 q -0.03166,0.0712 0,0.12663 0.03166,0.0475 0.118719,0.0475 z m 8.087769,0.18204 q 0.42739,0.27701 0.846866,0.4353 0.419475,0.1583 0.783548,0.1583 0.348244,0 0.53028,-0.095 0.182037,-0.10289 0.182037,-0.30076 0,-0.10289 -0.07915,-0.15829 -0.07915,-0.0633 -0.213695,-0.10289 -0.126634,-0.0396 -0.300755,-0.0633 -0.174122,-0.0237 -0.356159,-0.0633 -0.174122,-0.0317 -0.411561,-0.0712 -0.229524,-0.0475 -0.474877,-0.12664 -0.245354,-0.0871 -0.490707,-0.21369 -0.237439,-0.12664 -0.42739,-0.3245 -0.189952,-0.19787 -0.308671,-0.46697 -0.110805,-0.27701 -0.110805,-0.649 0,-0.5461 0.213695,-0.90226 0.213695,-0.35616 0.538195,-0.56194 0.332414,-0.2137 0.736061,-0.29284 0.403646,-0.0871 0.783548,-0.0871 0.664829,0 1.187194,0.19786 0.530281,0.18995 1.013073,0.56194 0.06332,0.0554 0.07123,0.13455 0.0079,0.0791 -0.03957,0.14246 l -0.617342,0.87853 q -0.04749,0.0633 -0.126634,0.0791 -0.07915,0.0158 -0.142463,-0.0317 -0.403646,-0.25326 -0.75189,-0.35615 -0.348244,-0.11081 -0.641085,-0.11081 -0.08706,0 -0.20578,0.008 -0.110805,0 -0.213695,0.0316 -0.10289,0.0238 -0.174122,0.0871 -0.06332,0.0633 -0.06332,0.17412 0,0.1108 0.166207,0.19786 0.166207,0.0871 0.379902,0.15038 0.213695,0.0633 0.411561,0.10289 0.197866,0.0317 0.253268,0.0396 0.284927,0.0554 0.625256,0.16621 0.340329,0.10289 0.63317,0.31659 0.300756,0.20578 0.498622,0.54611 0.20578,0.33241 0.20578,0.83895 0,0.47487 -0.166207,0.82312 -0.166207,0.34033 -0.466963,0.56194 -0.292841,0.22161 -0.712317,0.33241 -0.41156,0.10289 -0.918097,0.10289 -0.41156,0 -0.767719,-0.0712 -0.356158,-0.0633 -0.664829,-0.18204 -0.30867,-0.11872 -0.577768,-0.27701 -0.261182,-0.16621 -0.482792,-0.34824 -0.06332,-0.0475 -0.07123,-0.12664 -0.0079,-0.0871 0.03957,-0.15037 l 0.609427,-0.87853 q 0.04749,-0.0633 0.126634,-0.0791 0.07915,-0.0158 0.142463,0.0237 z m 5.068829,-3.60907 q 0,-0.0791 0.0554,-0.13455 0.0554,-0.0554 0.134548,-0.0554 h 1.19511 q 0.07915,0 0.134548,0.0554 0.0554,0.0554 0.0554,0.13455 v 3.20542 q 0,0.30867 0.09497,0.51445 0.10289,0.19787 0.245354,0.31659 0.150378,0.1108 0.316585,0.15829 0.166207,0.0475 0.300756,0.0475 0.134549,0 0.300756,-0.0475 0.166207,-0.0475 0.30867,-0.15829 0.142464,-0.11872 0.237439,-0.31659 0.10289,-0.20578 0.10289,-0.51445 v -3.20542 q 0,-0.0791 0.0554,-0.13455 0.0554,-0.0554 0.134549,-0.0554 h 1.195109 q 0.07915,0 0.134548,0.0554 0.0554,0.0554 0.0554,0.13455 v 3.20542 q 0,0.56194 -0.182037,1.02099 -0.174122,0.45905 -0.506536,0.78355 -0.332414,0.3245 -0.799378,0.50653 -0.466963,0.17413 -1.036816,0.17413 -0.569853,0 -1.036817,-0.17413 -0.466963,-0.18203 -0.799377,-0.50653 -0.332415,-0.3245 -0.514451,-0.78355 -0.182037,-0.45905 -0.182037,-1.02099 z m 9.026143,4.03646 h -0.688573 q -0.07915,0 -0.134549,0.0554 -0.0554,0.0554 -0.0554,0.13455 v 1.17928 q 0,0.0791 -0.0554,0.13455 -0.0554,0.0554 -0.134549,0.0554 h -1.195109 q -0.07915,0 -0.134548,-0.0554 -0.0554,-0.0554 -0.0554,-0.13455 v -5.41361 q 0,-0.0791 0.0554,-0.13455 0.0554,-0.0554 0.134548,-0.0554 h 2.421877 q 0.443219,0 0.831036,0.16621 0.395732,0.16621 0.680658,0.45905 0.292842,0.29284 0.459049,0.68066 0.174122,0.38781 0.174122,0.83103 0,0.44322 -0.142463,0.83104 -0.142464,0.3799 -0.435305,0.66483 -0.284927,0.27701 -0.720231,0.44322 -0.42739,0.15829 -1.005158,0.15829 z m 0.0554,-2.77804 h -0.743975 q -0.07915,0 -0.134549,0.0554 -0.0554,0.0554 -0.0554,0.13455 v 0.93392 q 0,0.0791 0.0554,0.13455 0.0554,0.0554 0.134549,0.0554 h 0.846865 q 0.300756,0 0.435305,-0.18995 0.142463,-0.19786 0.142463,-0.44322 0,-0.12663 -0.04749,-0.24535 -0.03957,-0.12664 -0.126634,-0.22161 -0.08706,-0.095 -0.213695,-0.15038 -0.126634,-0.0633 -0.292841,-0.0633 z m 4.768065,0.18996 v 0.33241 q 0,0.0791 0.0554,0.13455 0.0554,0.0554 0.134549,0.0554 H 63.6077 q 0.07915,0 0.134549,0.0554 0.0554,0.0554 0.0554,0.13455 v 1.09222 q 0,0.0791 -0.0554,0.13455 -0.0554,0.0554 -0.134549,0.0554 h -2.14486 q -0.07915,0 -0.134549,0.0554 -0.0554,0.0554 -0.0554,0.13455 v 0.30076 q 0,0.0791 0.0554,0.13455 0.0554,0.0554 0.134549,0.0554 h 2.46145 q 0.07915,0 0.134548,0.0554 0.0554,0.0554 0.0554,0.13455 v 1.09222 q 0,0.0791 -0.0554,0.13455 -0.0554,0.0554 -0.134548,0.0554 h -4.028547 q -0.07915,0 -0.134549,-0.0554 -0.0554,-0.0554 -0.0554,-0.13455 v -5.41361 q 0,-0.0791 0.0554,-0.13455 0.0554,-0.0554 0.134549,-0.0554 h 4.028547 q 0.07915,0 0.134548,0.0554 0.0554,0.0554 0.0554,0.13455 v 1.07639 q 0,0.0791 -0.0554,0.13455 -0.0554,0.0554 -0.134548,0.0554 h -2.46145 q -0.07915,0 -0.134549,0.0554 -0.0554,0.0554 -0.0554,0.13455 z m 5.567454,4.14726 h -1.17928 q -0.07915,0 -0.134549,-0.0554 -0.0554,-0.0554 -0.0554,-0.13455 v -5.41361 q 0,-0.0791 0.0554,-0.13455 0.0554,-0.0554 0.134549,-0.0554 h 2.46145 q 0.459048,0 0.846865,0.15829 0.387817,0.15038 0.656915,0.42739 0.277012,0.27702 0.42739,0.65692 0.158292,0.3799 0.158292,0.83895 0,0.25327 -0.06332,0.50654 -0.0554,0.24535 -0.166207,0.46696 -0.110805,0.22161 -0.261183,0.40365 -0.150378,0.17412 -0.340329,0.29284 -0.06332,0.0475 -0.08706,0.11872 -0.01583,0.0633 0.03166,0.12663 0.300756,0.39573 0.63317,0.81521 0.332415,0.41947 0.593597,0.76772 0.04749,0.0633 0.02374,0.14246 -0.02374,0.0712 -0.10289,0.0712 H 69.00103 q -0.07915,0 -0.174122,-0.0396 -0.08706,-0.0475 -0.134549,-0.11081 -0.253268,-0.33241 -0.506536,-0.67274 -0.245354,-0.34033 -0.490707,-0.68857 -0.04749,-0.0633 -0.134549,-0.10289 -0.08706,-0.0475 -0.166207,-0.0475 h -0.174122 q -0.07915,0 -0.134549,0.0554 -0.0554,0.0554 -0.0554,0.13455 v 1.28217 q 0,0.0791 -0.0554,0.13455 -0.0554,0.0554 -0.134549,0.0554 z m 0.379902,-3.11836 h 0.838951 q 0.09498,0 0.197866,-0.0317 0.10289,-0.0396 0.189951,-0.11081 0.08706,-0.0791 0.142463,-0.18995 0.0554,-0.1108 0.0554,-0.26118 0,-0.0791 -0.03166,-0.18204 -0.02374,-0.1108 -0.09498,-0.20578 -0.06332,-0.10289 -0.182036,-0.1662 -0.110805,-0.0712 -0.277012,-0.0712 h -0.838951 q -0.07915,0 -0.134549,0.0554 -0.0554,0.0554 -0.0554,0.13455 v 0.83895 q 0,0.0791 0.0554,0.13454 0.0554,0.0554 0.134549,0.0554 z m 5.73365,3.11836 h -1.195109 q -0.08706,0 -0.142464,-0.0554 -0.04749,-0.0554 -0.04749,-0.13455 v -5.40569 q 0,-0.0791 0.04749,-0.13455 0.0554,-0.0554 0.142464,-0.0554 h 1.195109 q 0.07915,0 0.134548,0.0554 0.0554,0.0554 0.0554,0.13455 v 5.40569 q 0,0.0791 -0.0554,0.13455 -0.0554,0.0554 -0.134548,0.0554 z m 1.333121,-2.89675 q 0,-0.61734 0.237439,-1.16345 0.237439,-0.54611 0.641085,-0.94976 0.403647,-0.41156 0.949756,-0.649 0.546109,-0.23744 1.163451,-0.23744 0.617341,0 1.16345,0.23744 0.54611,0.23744 0.949756,0.649 0.411561,0.40365 0.648999,0.94976 0.237439,0.54611 0.237439,1.16345 0,0.61734 -0.237439,1.16345 -0.237438,0.54611 -0.648999,0.95767 -0.403646,0.40364 -0.949756,0.64108 -0.546109,0.23744 -1.16345,0.23744 -0.617342,0 -1.163451,-0.23744 -0.546109,-0.23744 -0.949756,-0.64108 -0.403646,-0.41156 -0.641085,-0.95767 -0.237439,-0.54611 -0.237439,-1.16345 z m 1.567097,0 q 0,0.30075 0.110805,0.56985 0.110805,0.2691 0.300756,0.47488 0.197866,0.20578 0.459049,0.33241 0.261182,0.11872 0.554024,0.11872 0.292841,0 0.554024,-0.11872 0.261182,-0.12663 0.459048,-0.33241 0.197866,-0.20578 0.308671,-0.47488 0.110805,-0.2691 0.110805,-0.56985 0,-0.29284 -0.110805,-0.56194 -0.110805,-0.27701 -0.308671,-0.47488 -0.197866,-0.20578 -0.459048,-0.3245 -0.261183,-0.12663 -0.554024,-0.12663 -0.292842,0 -0.554024,0.12663 -0.261183,0.11872 -0.459049,0.3245 -0.189951,0.19787 -0.300756,0.47488 -0.110805,0.2691 -0.110805,0.56194 z m 6.960416,2.89675 h -1.17928 q -0.07915,0 -0.134549,-0.0554 -0.0554,-0.0554 -0.0554,-0.13455 v -5.41361 q 0,-0.0791 0.0554,-0.13455 0.0554,-0.0554 0.134549,-0.0554 h 2.46145 q 0.459048,0 0.846865,0.15829 0.387817,0.15038 0.656915,0.42739 0.277012,0.27702 0.42739,0.65692 0.158292,0.3799 0.158292,0.83895 0,0.25327 -0.06332,0.50654 -0.0554,0.24535 -0.166207,0.46696 -0.110805,0.22161 -0.261183,0.40365 -0.150378,0.17412 -0.340329,0.29284 -0.06332,0.0475 -0.08706,0.11872 -0.01583,0.0633 0.03166,0.12663 0.300756,0.39573 0.63317,0.81521 0.332414,0.41947 0.593597,0.76772 0.04749,0.0633 0.02374,0.14246 -0.02374,0.0712 -0.10289,0.0712 h -1.472121 q -0.07915,0 -0.174122,-0.0396 -0.08706,-0.0475 -0.134549,-0.11081 -0.253268,-0.33241 -0.506536,-0.67274 -0.245354,-0.34033 -0.490707,-0.68857 -0.04749,-0.0633 -0.134549,-0.10289 -0.08706,-0.0475 -0.166207,-0.0475 h -0.174122 q -0.07915,0 -0.134549,0.0554 -0.0554,0.0554 -0.0554,0.13455 v 1.28217 q 0,0.0791 -0.0554,0.13455 -0.0554,0.0554 -0.134549,0.0554 z m 0.379902,-3.11836 h 0.838951 q 0.09497,0 0.197866,-0.0317 0.10289,-0.0396 0.189951,-0.11081 0.08706,-0.0791 0.142463,-0.18995 0.0554,-0.1108 0.0554,-0.26118 0,-0.0791 -0.03166,-0.18204 -0.02374,-0.1108 -0.09498,-0.20578 -0.06332,-0.10289 -0.182036,-0.1662 -0.110805,-0.0712 -0.277012,-0.0712 h -0.838951 q -0.07915,0 -0.134549,0.0554 -0.0554,0.0554 -0.0554,0.13455 v 0.83895 q 0,0.0791 0.0554,0.13454 0.0554,0.0554 0.134549,0.0554 z"
           id="path645" /><path
           style="color:#000000;-inkscape-font-specification:Heavitas;fill:#ffffff;stroke:none;-inkscape-stroke:none"
           d="m 77.279297,154.41992 c -0.413918,0 -0.80548,0.079 -1.171875,0.23828 -0.366115,0.15918 -0.684316,0.37823 -0.955078,0.6543 -0.270754,0.27076 -0.48538,0.58903 -0.644532,0.95508 -0.07073,0.16268 -0.06614,0.34741 -0.105468,0.51953 l 0.03516,0.002 c 0.03874,-0.16794 0.03445,-0.34895 0.103516,-0.50781 0.157434,-0.3621 0.369278,-0.67592 0.636718,-0.94336 0.267433,-0.27268 0.583284,-0.48713 0.945313,-0.64453 0.361749,-0.15728 0.747046,-0.23633 1.15625,-0.23633 0.409203,0 0.794501,0.079 1.15625,0.23633 0.36203,0.1574 0.675927,0.37185 0.943359,0.64453 0.272677,0.26744 0.487128,0.58133 0.644531,0.94336 0.10894,0.25056 0.130582,0.52755 0.164063,0.80078 l 0.03711,0.002 c -0.0336,-0.27889 -0.05486,-0.56074 -0.166015,-0.8164 -0.158959,-0.36561 -0.378772,-0.68456 -0.654297,-0.95508 -0.270762,-0.27607 -0.588962,-0.49512 -0.955078,-0.6543 -0.366396,-0.1593 -0.756005,-0.23828 -1.169922,-0.23828 z m -33.484375,0.0234 c -0.254673,0 -0.51685,0.0296 -0.78711,0.0879 -0.271228,0.0532 -0.518599,0.15118 -0.742187,0.29492 -0.117872,0.0748 -0.196824,0.20253 -0.292969,0.30664 l 0.04687,0.002 c 0.08844,-0.0922 0.159097,-0.20979 0.265625,-0.27735 0.21963,-0.14119 0.463502,-0.23867 0.730469,-0.29101 0.267935,-0.0578 0.527434,-0.0859 0.779297,-0.0859 0.441395,0 0.835814,0.0663 1.18164,0.19726 0.35108,0.12576 0.685808,0.31221 1.00586,0.5586 0.03352,0.0293 0.04846,0.0643 0.05664,0.10351 l 0.03906,0.002 c -0.0083,-0.0516 -0.02871,-0.0984 -0.07031,-0.13477 h -0.002 c -0.32324,-0.24905 -0.662138,-0.43713 -1.017578,-0.56445 -0.350659,-0.13282 -0.748316,-0.19922 -1.193359,-0.19922 z m 10.390625,0.0801 c -0.05705,0 -0.106456,0.0205 -0.146485,0.0605 -0.04002,0.0401 -0.0625,0.0895 -0.0625,0.14649 v 1.01367 l 0.03711,0.002 v -1.01562 c 0,-0.0484 0.01694,-0.0872 0.05078,-0.1211 0.03384,-0.0338 0.07262,-0.0508 0.121094,-0.0508 h 2.421875 c 0.293181,0 0.568005,0.0562 0.824219,0.16602 0.261719,0.10992 0.485632,0.26165 0.673828,0.45508 0.193588,0.19358 0.347106,0.41733 0.457031,0.67383 0.01774,0.0395 0.01234,0.0866 0.02734,0.12695 l 0.03516,0.002 c -0.01653,-0.0454 -0.0094,-0.0982 -0.0293,-0.14258 -0.111466,-0.26009 -0.266574,-0.48894 -0.462891,-0.68554 -0.191704,-0.19703 -0.421577,-0.35316 -0.6875,-0.46485 -0.260875,-0.1118 -0.540113,-0.16601 -0.83789,-0.16601 z m 5.710937,0 c -0.05705,0 -0.108408,0.0205 -0.148437,0.0605 -0.04002,0.0401 -0.06055,0.0895 -0.06055,0.14649 v 1.30469 l 0.03711,0.002 v -1.30664 c 0,-0.0484 0.01498,-0.0872 0.04883,-0.1211 0.03384,-0.0338 0.07457,-0.0508 0.123047,-0.0508 h 4.027344 c 0.04848,0 0.08726,0.0169 0.121094,0.0508 0.03384,0.0338 0.05078,0.0726 0.05078,0.1211 v 1.07617 c 0,0.0484 -0.01694,0.0892 -0.05078,0.12305 -0.03384,0.0338 -0.07262,0.0488 -0.121094,0.0488 h -2.460937 c -0.05706,0 -0.10841,0.0205 -0.148438,0.0605 -0.02101,0.021 -0.02107,0.0519 -0.03125,0.0781 l 0.03711,0.002 c 0.0082,-0.017 0.0068,-0.0381 0.02148,-0.0527 0.03384,-0.0338 0.07262,-0.0508 0.121094,-0.0508 h 2.460937 c 0.05705,0 0.108409,-0.0205 0.148438,-0.0605 0.04002,-0.0401 0.06055,-0.0914 0.06055,-0.14844 v -1.07617 c 0,-0.0571 -0.02052,-0.10646 -0.06055,-0.14649 -0.04003,-0.04 -0.09138,-0.0605 -0.148438,-0.0605 z m 5.763672,0 c -0.05706,0 -0.106455,0.0205 -0.146484,0.0605 -0.04002,0.0401 -0.06055,0.0895 -0.06055,0.14649 v 1.59961 l 0.03711,0.002 v -1.60156 c 0,-0.0484 0.01498,-0.0872 0.04883,-0.1211 0.03384,-0.0338 0.07262,-0.0508 0.121094,-0.0508 h 2.462891 c 0.303918,0 0.583649,0.0536 0.839844,0.15821 0.256333,0.0994 0.472909,0.23917 0.65039,0.42187 v 0.002 c 0.18288,0.18289 0.324435,0.3993 0.423828,0.6504 0.09813,0.23551 0.140479,0.49896 0.146485,0.78125 l 0.03711,0.002 c -0.0058,-0.28749 -0.05002,-0.55597 -0.150391,-0.79688 -0.10111,-0.25543 -0.245171,-0.47758 -0.43164,-0.66406 -0.181316,-0.18665 -0.401354,-0.33053 -0.66211,-0.43164 -0.260894,-0.10648 -0.54537,-0.1582 -0.853515,-0.1582 z m 15.97461,0 c -0.05706,0 -0.106456,0.0205 -0.146485,0.0605 -0.04002,0.0401 -0.06055,0.0895 -0.06055,0.14649 v 2.41406 l 0.03516,0.002 v -2.41601 c 0,-0.0484 0.01694,-0.0872 0.05078,-0.1211 0.03384,-0.0338 0.07262,-0.0508 0.121094,-0.0508 h 2.46289 c 0.303919,0 0.583649,0.0536 0.839844,0.15821 0.256333,0.0994 0.472909,0.23917 0.650391,0.42187 v 0.002 c 0.182879,0.18289 0.324435,0.3993 0.423828,0.6504 0.104516,0.25084 0.15625,0.52811 0.15625,0.83203 0,0.16731 -0.02064,0.3345 -0.0625,0.50195 -0.03661,0.16216 -0.09281,0.31648 -0.166016,0.46289 -0.07328,0.14657 -0.158481,0.28015 -0.257812,0.40039 -0.0991,0.11475 -0.21088,0.2109 -0.335938,0.28906 h -0.002 c -0.04486,0.0337 -0.07676,0.0779 -0.09375,0.12891 -0.01195,0.0478 0.0011,0.0972 0.03516,0.14258 0.200585,0.26392 0.411132,0.53666 0.632813,0.8164 0.221526,0.27955 0.419748,0.53558 0.59375,0.76758 0.02857,0.0381 0.03596,0.0768 0.02148,0.125 -0.0069,0.0208 -0.01773,0.0336 -0.03125,0.043 -0.01352,0.009 -0.03106,0.0156 -0.05469,0.0156 h -1.472657 c -0.0497,0 -0.104375,-0.0134 -0.166015,-0.0391 -0.05489,-0.0303 -0.0977,-0.0645 -0.126953,-0.10351 -0.168803,-0.22155 -0.339008,-0.447 -0.507813,-0.67383 h 0.002 c -0.163529,-0.22683 -0.328657,-0.45539 -0.492187,-0.6875 -0.03379,-0.045 -0.08037,-0.082 -0.140625,-0.10938 -0.0601,-0.0328 -0.117386,-0.0488 -0.173828,-0.0488 h -0.173829 c -0.05706,0 -0.108409,0.0205 -0.148437,0.0605 -0.04003,0.04 -0.06055,0.0914 -0.06055,0.14844 v 1.28125 c 0,0.0484 -0.01694,0.0872 -0.05078,0.12109 -0.03384,0.0338 -0.07262,0.0508 -0.121094,0.0508 h -0.01953 -1.160156 c -0.04848,0 -0.08726,-0.0169 -0.121094,-0.0508 -0.03384,-0.0338 -0.05078,-0.0726 -0.05078,-0.12109 v -2.81641 l -0.03516,0.002 v 2.81445 c 0,0.0571 0.02052,0.10841 0.06055,0.14844 0.04003,0.04 0.08943,0.0606 0.146485,0.0606 h 1.179687 0.01953 v -0.008 c 0.04801,-0.005 0.09413,-0.0179 0.128907,-0.0527 0.04002,-0.0401 0.06055,-0.0914 0.06055,-0.14844 v -1.28125 c 0,-0.0485 0.01499,-0.0892 0.04883,-0.12305 0.03384,-0.0338 0.07457,-0.0488 0.123046,-0.0488 h 0.173829 c 0.04909,0 0.100266,0.0144 0.15625,0.0449 h 0.002 c 0.05582,0.0254 0.09743,0.0583 0.126953,0.0976 0.163606,0.23222 0.326626,0.46056 0.490234,0.6875 0.168886,0.22695 0.338925,0.45217 0.507813,0.67383 0.03357,0.0448 0.0808,0.0826 0.140625,0.11524 l 0.002,0.002 c 0.06499,0.0271 0.123855,0.041 0.179687,0.041 h 1.472657 c 0.02914,0 0.0554,-0.007 0.07617,-0.0215 0.02078,-0.0144 0.03604,-0.0359 0.04492,-0.0625 0.01719,-0.0573 0.0074,-0.11384 -0.02734,-0.16016 -0.174243,-0.23232 -0.372059,-0.48782 -0.59375,-0.76757 -0.221538,-0.27957 -0.43239,-0.55074 -0.632813,-0.81446 -0.02931,-0.0391 -0.03845,-0.0747 -0.0293,-0.11132 0.01459,-0.0428 0.04172,-0.0783 0.08008,-0.10743 0.128211,-0.0801 0.242347,-0.17946 0.34375,-0.29687 0.101173,-0.12248 0.189215,-0.25929 0.263672,-0.4082 0.07454,-0.14908 0.130718,-0.30573 0.167969,-0.47071 0.04256,-0.17024 0.06445,-0.33938 0.06445,-0.50976 0,-0.30815 -0.05362,-0.59001 -0.160156,-0.84571 -0.101111,-0.25543 -0.245171,-0.47758 -0.431641,-0.66406 -0.181315,-0.18665 -0.401353,-0.33053 -0.662109,-0.43164 -0.260894,-0.10648 -0.545371,-0.1582 -0.853516,-0.1582 z m -47.566407,0.008 c -0.06194,0 -0.12042,0.0198 -0.175781,0.0586 -0.04997,0.0333 -0.0868,0.0742 -0.109375,0.125 l 0.04492,0.002 c 0.01984,-0.0372 0.0445,-0.0713 0.08398,-0.0977 h 0.002 c 0.05017,-0.0351 0.100159,-0.0527 0.154297,-0.0527 h 1.109375 c 0.04848,0 0.09379,0.0178 0.138672,0.0527 h 0.002 c 0.05022,0.0301 0.08411,0.0677 0.103516,0.11133 l 0.0293,0.0703 0.04102,0.002 -0.03711,-0.0879 c -0.02244,-0.0505 -0.06323,-0.092 -0.117187,-0.125 -0.05009,-0.039 -0.103101,-0.0586 -0.160157,-0.0586 z m 13.544922,0 c -0.05705,0 -0.108409,0.0205 -0.148437,0.0606 -0.04002,0.0401 -0.06055,0.0895 -0.06055,0.14648 v 0.67188 l 0.03711,0.002 v -0.67383 c 0,-0.0484 0.01694,-0.0872 0.05078,-0.12109 0.03384,-0.0338 0.07262,-0.0508 0.121094,-0.0508 h 1.195313 c 0.04848,0 0.08726,0.0169 0.121093,0.0508 0.03384,0.0338 0.05078,0.0726 0.05078,0.12109 v 0.75195 l 0.03711,0.002 v -0.75391 c 0,-0.0571 -0.02247,-0.10645 -0.0625,-0.14648 -0.04003,-0.04 -0.08943,-0.0606 -0.146484,-0.0606 z m 3.482422,0 c -0.05705,0 -0.108409,0.0205 -0.148437,0.0606 -0.04002,0.0401 -0.06055,0.0895 -0.06055,0.14648 v 0.84961 l 0.03711,0.002 v -0.85156 c 0,-0.0484 0.01694,-0.0872 0.05078,-0.12109 0.03384,-0.0338 0.07262,-0.0508 0.121094,-0.0508 h 1.195313 c 0.04848,0 0.08726,0.0169 0.121093,0.0508 0.03384,0.0338 0.05078,0.0726 0.05078,0.12109 v 0.92969 l 0.03711,0.002 v -0.93164 c 0,-0.0571 -0.02247,-0.10645 -0.0625,-0.14648 -0.04003,-0.04 -0.08943,-0.0606 -0.146484,-0.0606 z m 20.662109,0 c -0.06194,0 -0.113958,0.0202 -0.154296,0.0606 h -0.002 c -0.03447,0.0402 -0.05078,0.0901 -0.05078,0.14648 v 1.90234 l 0.03711,0.002 v -1.9043 c 0,-0.049 0.01412,-0.0874 0.04297,-0.12109 0.0333,-0.0326 0.07352,-0.0508 0.126953,-0.0508 h 1.195313 c 0.04848,0 0.08921,0.0169 0.123047,0.0508 0.03384,0.0338 0.04883,0.0726 0.04883,0.12109 v 1.98242 l 0.03711,0.002 v -1.98438 c 0,-0.0571 -0.02052,-0.10645 -0.06055,-0.14648 -0.04003,-0.04 -0.09138,-0.0606 -0.148437,-0.0606 z m 5.521485,1.40039 c -0.197878,0 -0.385952,0.0433 -0.5625,0.12891 -0.176173,0.0801 -0.331356,0.1893 -0.464844,0.32812 -0.127385,0.1327 -0.228242,0.29175 -0.302734,0.47656 l 0.04297,0.002 c 0.07232,-0.17494 0.166355,-0.32734 0.28711,-0.45313 0.130334,-0.13554 0.281054,-0.2421 0.453125,-0.32031 0.171694,-0.0832 0.354297,-0.125 0.546875,-0.125 0.192577,0 0.373227,0.0418 0.544922,0.125 0.17207,0.0782 0.324744,0.18477 0.455078,0.32031 0.130091,0.1301 0.231658,0.28618 0.304687,0.46875 0.01567,0.0381 0.01113,0.0804 0.02344,0.11914 h 0.03711 c -0.0134,-0.0434 -0.0099,-0.0903 -0.02734,-0.13281 -0.07471,-0.18677 -0.178769,-0.34674 -0.3125,-0.48047 -0.133487,-0.13882 -0.288671,-0.24804 -0.464843,-0.32812 -0.176549,-0.0856 -0.36267,-0.12891 -0.560547,-0.12891 z m -10.058594,0.0469 c -0.05706,0 -0.108409,0.0205 -0.148437,0.0605 -0.04003,0.04 -0.06055,0.0914 -0.06055,0.14844 v 0.22266 l 0.03711,0.002 v -0.22461 c 0,-0.0485 0.01694,-0.0873 0.05078,-0.12109 0.03384,-0.0338 0.07262,-0.0508 0.121094,-0.0508 h 0.837891 c 0.108179,0 0.197225,0.0232 0.267578,0.0684 h 0.002 c 0.07669,0.0409 0.133421,0.0945 0.173828,0.16016 h 0.002 v 0.002 c 0.04602,0.0614 0.07653,0.12603 0.0918,0.19727 v 0.002 c 0.0052,0.017 0.0039,0.029 0.0078,0.0449 l 0.03711,0.002 c -0.0044,-0.0191 -0.0036,-0.0343 -0.0098,-0.0547 v -0.002 c -0.01651,-0.0758 -0.04906,-0.14615 -0.09766,-0.21094 -0.04402,-0.0715 -0.105905,-0.12836 -0.1875,-0.17188 -0.07739,-0.0497 -0.17368,-0.0742 -0.287109,-0.0742 z m 15.974609,0 c -0.05706,0 -0.108409,0.0205 -0.148437,0.0605 -0.04003,0.04 -0.06055,0.0914 -0.06055,0.14844 v 0.83789 c 0,0.057 0.02052,0.10839 0.06055,0.14844 0.03586,0.0359 0.08296,0.0508 0.132812,0.0547 l 0.002,0.006 h 0.01367 0.837891 c 0.06536,0 0.133007,-0.0116 0.203125,-0.0332 h 0.002 c 0.07042,-0.0271 0.135818,-0.0646 0.195313,-0.11328 0.05977,-0.0543 0.108609,-0.11953 0.146484,-0.19531 0.03842,-0.0768 0.05664,-0.16702 0.05664,-0.26953 0,-0.0546 -0.01018,-0.11652 -0.03125,-0.18555 v -0.002 c -0.01651,-0.0758 -0.04906,-0.14615 -0.09766,-0.21094 -0.04377,-0.0711 -0.10657,-0.12845 -0.1875,-0.17188 h -0.002 c -0.07713,-0.0491 -0.172449,-0.0742 -0.285156,-0.0742 z m 0,0.0371 h 0.837891 c 0.108179,0 0.197225,0.0232 0.267578,0.0684 0.07669,0.0409 0.135374,0.0945 0.175781,0.16016 l 0.002,0.002 c 0.04602,0.0614 0.07653,0.12603 0.0918,0.19727 v 0.002 c 0.02072,0.0674 0.03125,0.12746 0.03125,0.17774 0,0.098 -0.01924,0.18106 -0.05469,0.25195 -0.03599,0.072 -0.08236,0.13438 -0.138672,0.18555 -0.0553,0.0449 -0.116657,0.0802 -0.181641,0.10547 -0.06708,0.0207 -0.132091,0.0312 -0.193359,0.0312 h -0.826172 -0.01172 c -0.04848,0 -0.08921,-0.015 -0.123046,-0.0488 -0.03384,-0.0339 -0.04883,-0.0746 -0.04883,-0.12305 v -0.83789 c 0,-0.0485 0.01499,-0.0873 0.04883,-0.12109 0.03384,-0.0338 0.07457,-0.0508 0.123046,-0.0508 z m -15.974609,1.18165 0.01758,0.0117 -0.0059,-0.0117 z m -0.01758,0.0254 0.002,0.006 c 0.0058,4.4e-4 0.0097,0.006 0.01563,0.006 z m 13.083984,0.16992 -0.03516,0.002 c 2.15e-4,0.0151 0.0078,0.0278 0.0078,0.043 0,0.4092 -0.07905,0.7945 -0.236329,1.15625 -0.157416,0.36206 -0.371782,0.67842 -0.644531,0.95117 -0.26744,0.26744 -0.581261,0.48124 -0.943359,0.63867 -0.361749,0.15729 -0.747047,0.23633 -1.15625,0.23633 -0.409204,0 -0.794501,-0.079 -1.15625,-0.23633 -0.362098,-0.15743 -0.677872,-0.37123 -0.945313,-0.63867 -0.266977,-0.27249 -0.479495,-0.58955 -0.636718,-0.95117 -0.119048,-0.27381 -0.15075,-0.57409 -0.179688,-0.875 l -0.03516,0.002 c 0.02918,0.30534 0.06081,0.61077 0.18164,0.88867 0.159139,0.36602 0.37385,0.68691 0.644532,0.9629 0.270754,0.27075 0.589031,0.48538 0.955078,0.64453 0.366395,0.1593 0.757957,0.23828 1.171875,0.23828 0.413917,0 0.803526,-0.079 1.169922,-0.23828 0.366047,-0.15915 0.684324,-0.37378 0.955078,-0.64453 0.275999,-0.276 0.49513,-0.59681 0.654297,-0.9629 0.159302,-0.36639 0.238281,-0.75795 0.238281,-1.17187 0,-0.0159 -0.0095,-0.0291 -0.0098,-0.0449 z m -1.564453,0.0859 -0.03711,0.002 c -0.0051,0.18161 -0.03417,0.35586 -0.101563,0.51953 -0.07303,0.17736 -0.174363,0.33517 -0.304687,0.4707 -0.130415,0.13563 -0.282835,0.24462 -0.455078,0.32813 -0.171766,0.0781 -0.352179,0.11719 -0.544922,0.11719 -0.192744,0 -0.37511,-0.0391 -0.546875,-0.11719 -0.172244,-0.0835 -0.32271,-0.1925 -0.453125,-0.32813 -0.125133,-0.13556 -0.223785,-0.29319 -0.296875,-0.4707 -0.0476,-0.11559 -0.05377,-0.24271 -0.07031,-0.36719 l -0.03711,0.004 c 0.01692,0.12791 0.02335,0.25816 0.07227,0.37695 0.07465,0.1813 0.176553,0.34166 0.304687,0.48047 v 0.002 c 0.133406,0.13875 0.288844,0.25061 0.464844,0.33594 0.176477,0.0802 0.364788,0.11914 0.5625,0.11914 0.197711,0 0.384069,-0.0389 0.560547,-0.11914 0.175999,-0.0853 0.331438,-0.19719 0.464843,-0.33594 0.133498,-0.13883 0.237792,-0.30098 0.3125,-0.48242 0.06947,-0.16871 0.100529,-0.34818 0.105469,-0.53515 z m -5.560547,0.30664 -0.03711,0.002 v 2.35742 c 0,0.0484 -0.01498,0.0872 -0.04883,0.12109 -0.03384,0.0338 -0.07457,0.0508 -0.123047,0.0508 h -1.195313 c -0.05315,0 -0.09374,-0.0165 -0.126953,-0.0488 l -0.002,-0.002 c -0.02775,-0.0332 -0.04102,-0.0729 -0.04102,-0.12109 v -2.27344 l -0.03711,0.002 v 2.27148 c 0,0.0564 0.01631,0.10627 0.05078,0.14649 h 0.002 v 0.002 c 0.04034,0.0403 0.09236,0.0606 0.154296,0.0606 h 1.195313 c 0.05706,0 0.108409,-0.0205 0.148437,-0.0606 0.04002,-0.0401 0.06055,-0.0914 0.06055,-0.14844 z m -3.40039,0.18554 -0.04492,0.004 c -0.0035,0.004 -0.0063,0.009 -0.0098,0.0137 -0.0991,0.11475 -0.21088,0.2109 -0.335937,0.28906 h -0.002 c -0.04486,0.0337 -0.07481,0.0779 -0.0918,0.12891 h -0.002 c -0.01195,0.0478 0.0011,0.0972 0.03516,0.14258 0.200584,0.26392 0.411132,0.53666 0.632812,0.8164 0.221528,0.27955 0.41975,0.53558 0.59375,0.76758 0.02857,0.0381 0.03596,0.0768 0.02148,0.125 -0.0069,0.0208 -0.01773,0.0336 -0.03125,0.043 -0.01352,0.009 -0.03106,0.0156 -0.05469,0.0156 h -1.470703 c -0.0497,0 -0.106328,-0.0134 -0.167969,-0.0391 -0.05489,-0.0303 -0.0977,-0.0645 -0.126953,-0.10351 -0.168802,-0.22155 -0.337055,-0.447 -0.505859,-0.67383 -0.16353,-0.22683 -0.326704,-0.45539 -0.490235,-0.6875 h -0.002 c -0.0335,-0.0446 -0.07916,-0.0821 -0.138672,-0.10938 h -0.002 c -0.05944,-0.0321 -0.117968,-0.0488 -0.173828,-0.0488 h -0.173828 c -0.05706,0 -0.108409,0.0205 -0.148437,0.0605 -0.04003,0.04 -0.06055,0.0914 -0.06055,0.14844 v 1.28125 c 0,0.0484 -0.01694,0.0872 -0.05078,0.12109 -0.03384,0.0338 -0.07262,0.0508 -0.121093,0.0508 h -0.01758 -1.16211 c -0.04848,0 -0.08726,-0.0169 -0.121094,-0.0508 -0.03384,-0.0338 -0.04883,-0.0726 -0.04883,-0.12109 v -1.9375 l -0.03711,0.002 v 1.93555 c 0,0.0571 0.02052,0.10841 0.06055,0.14844 0.04003,0.04 0.08943,0.0606 0.146484,0.0606 h 1.179688 0.01953 v -0.008 c 0.04801,-0.005 0.09413,-0.0179 0.128906,-0.0527 0.04002,-0.0401 0.06055,-0.0914 0.06055,-0.14844 v -1.28125 c 0,-0.0485 0.01694,-0.0892 0.05078,-0.12305 0.03384,-0.0338 0.07262,-0.0488 0.121094,-0.0488 h 0.173828 c 0.04909,0 0.10222,0.0144 0.158203,0.0449 0.05582,0.0254 0.09743,0.0583 0.126953,0.0976 0.163607,0.23222 0.328579,0.46056 0.492188,0.6875 0.168886,0.22695 0.336972,0.45217 0.505859,0.67383 0.03357,0.0448 0.0808,0.0826 0.140625,0.11524 l 0.002,0.002 c 0.06499,0.0271 0.125808,0.041 0.181641,0.041 h 1.470703 c 0.02914,0 0.0554,-0.007 0.07617,-0.0215 0.02078,-0.0144 0.03604,-0.0359 0.04492,-0.0625 0.01719,-0.0573 0.0074,-0.11384 -0.02734,-0.16016 -0.174241,-0.23232 -0.372058,-0.48782 -0.59375,-0.76757 -0.221537,-0.27957 -0.432389,-0.55074 -0.632812,-0.81446 -0.02931,-0.0391 -0.0365,-0.0747 -0.02734,-0.11132 0.01453,-0.042 0.04062,-0.0787 0.07813,-0.10743 l 0.002,-0.002 c 0.127272,-0.0799 0.241008,-0.17822 0.341797,-0.29492 h 0.002 c 0.01006,-0.0122 0.01559,-0.0286 0.02539,-0.041 z m -27.423828,0.35742 -0.002,0.0176 0.02734,-0.0137 c -0.0076,-0.005 -0.01746,-2.7e-4 -0.02539,-0.004 z m 0.03516,0.0234 -0.0293,0.0117 c 0.0086,0.006 0.01678,0.008 0.02539,0.0137 z m 18.917969,0.0859 -0.03711,0.002 v 0.23242 c 0,0.057 0.02052,0.10838 0.06055,0.14844 0.04003,0.04 0.09138,0.0606 0.148438,0.0606 h 2.460937 c 0.04848,0 0.08726,0.0169 0.121094,0.0508 0.03384,0.0338 0.05078,0.0726 0.05078,0.12109 v 1.0918 c 0,0.0484 -0.01694,0.0872 -0.05078,0.12109 -0.03384,0.0338 -0.07262,0.0508 -0.121094,0.0508 h -4.027344 c -0.04848,0 -0.08921,-0.0169 -0.123047,-0.0508 -0.03384,-0.0338 -0.04883,-0.0726 -0.04883,-0.12109 v -1.62109 l -0.03711,0.002 v 1.61914 c 0,0.0571 0.02052,0.10841 0.06055,0.14844 0.04003,0.04 0.09138,0.0606 0.148437,0.0606 h 4.027344 c 0.05705,0 0.108409,-0.0205 0.148438,-0.0606 0.04002,-0.0401 0.06055,-0.0914 0.06055,-0.14844 v -1.0918 c 0,-0.0571 -0.02052,-0.1084 -0.06055,-0.14843 -0.04003,-0.04 -0.09138,-0.0606 -0.148438,-0.0606 h -2.460937 c -0.04848,0 -0.08726,-0.015 -0.121094,-0.0488 -0.03384,-0.0339 -0.05078,-0.0746 -0.05078,-0.12305 z m -3.955079,0.2168 -0.357421,0.0195 c -0.174932,0.0295 -0.32591,0.084 -0.529297,0.084 h -0.6875 c -0.05706,0 -0.10841,0.0205 -0.148438,0.0606 -0.04003,0.04 -0.06055,0.0894 -0.06055,0.14648 v 1.17969 c 0,0.0484 -0.01694,0.0872 -0.05078,0.12109 -0.03384,0.0338 -0.07262,0.0508 -0.121094,0.0508 h -1.195312 c -0.04848,0 -0.08726,-0.0169 -0.121094,-0.0508 -0.03384,-0.0338 -0.05078,-0.0726 -0.05078,-0.12109 v -1.30859 l -0.03711,0.002 v 1.30664 c 0,0.0571 0.02247,0.10841 0.0625,0.14844 0.04003,0.04 0.08943,0.0606 0.146485,0.0606 h 1.195312 c 0.05706,0 0.108409,-0.0205 0.148438,-0.0606 0.04002,-0.0401 0.06055,-0.0914 0.06055,-0.14844 v -1.17969 c 0,-0.0485 0.01499,-0.0873 0.04883,-0.12109 0.03384,-0.0338 0.07457,-0.0508 0.123047,-0.0508 h 0.6875 c 0.339061,0 0.623999,-0.0569 0.886718,-0.13867 z m -5.011718,0.27539 -0.03711,0.002 c -0.0032,0.008 -0.0026,0.0191 -0.0059,0.0273 -0.115215,0.30375 -0.282297,0.56292 -0.501953,0.77735 -0.21976,0.21453 -0.483729,0.3814 -0.792969,0.50195 -0.309014,0.11523 -0.653221,0.17188 -1.03125,0.17188 -0.378029,0 -0.720282,-0.0566 -1.029297,-0.17188 -0.309239,-0.12055 -0.573209,-0.28742 -0.792969,-0.50195 -0.157355,-0.15361 -0.2588,-0.35728 -0.365234,-0.55664 l -0.04102,0.002 c 0.109555,0.20893 0.216686,0.41981 0.38086,0.58008 0.223459,0.21814 0.49131,0.38956 0.804687,0.51172 0.313603,0.11694 0.661195,0.17383 1.042969,0.17383 0.381774,0 0.73132,-0.0569 1.044922,-0.17383 0.313378,-0.12216 0.581229,-0.29358 0.804687,-0.51172 0.223562,-0.21824 0.394772,-0.48075 0.511719,-0.78906 0.0051,-0.0129 0.0029,-0.03 0.0078,-0.043 z m -6.171875,0.33984 -0.03711,0.002 c -0.01732,0.0484 -0.01166,0.11503 -0.0332,0.16016 -0.109576,0.22437 -0.26275,0.41061 -0.460937,0.55664 h -0.002 c -0.193035,0.14608 -0.427333,0.25476 -0.705079,0.32813 -0.272651,0.0682 -0.577616,0.10351 -0.914062,0.10351 -0.273313,0 -0.527568,-0.0251 -0.763672,-0.0723 -0.236389,-0.042 -0.457519,-0.10099 -0.662109,-0.17969 C 42.369323,160.08916 42.178482,159.99561 42,159.89062 v 0.002 c -0.173543,-0.11044 -0.333345,-0.22681 -0.480469,-0.34766 -0.0072,-0.005 -0.0058,-0.0156 -0.01172,-0.0215 l -0.03906,0.002 c 0.01093,0.0146 0.01202,0.0352 0.02734,0.0469 0.148356,0.12186 0.309676,0.23843 0.484375,0.3496 v 0.002 c 0.180315,0.10606 0.375367,0.19786 0.582031,0.27734 0.206408,0.0794 0.428262,0.14122 0.666016,0.1836 0.238774,0.0477 0.496051,0.0703 0.771484,0.0703 0.338936,0 0.647733,-0.0345 0.923828,-0.10352 0.281555,-0.0744 0.52133,-0.18458 0.71875,-0.33398 0.20282,-0.14945 0.360623,-0.33896 0.472656,-0.56836 v -0.002 c 0.02405,-0.0504 0.01823,-0.12347 0.03711,-0.17774 z m -8.541016,0.46875 -0.03906,0.002 0.160156,0.37305 c 0.01869,0.042 0.01386,0.0837 -0.01563,0.13281 v 0.002 c -0.02287,0.0457 -0.06979,0.0684 -0.150391,0.0684 H 36.21289 c -0.05407,0 -0.104625,-0.0155 -0.154297,-0.0449 -0.04577,-0.0356 -0.08038,-0.074 -0.105469,-0.11914 l -0.140625,-0.3164 -0.04102,0.004 0.148438,0.32813 v 0.002 c 0.02768,0.0498 0.06799,0.0926 0.117187,0.13086 v 0.002 c 0.05532,0.0332 0.114398,0.0508 0.175782,0.0508 h 1.353515 c 0.08825,0 0.153703,-0.0301 0.183594,-0.0899 0.03283,-0.0558 0.03887,-0.11373 0.01563,-0.16601 z m -4.208984,0.23047 -0.04102,0.002 -0.08398,0.18164 c -0.01952,0.0439 -0.05479,0.0836 -0.105469,0.11914 -0.04487,0.0299 -0.09154,0.0449 -0.140625,0.0449 h -1.361328 c -0.02393,0 -0.04784,-0.006 -0.07227,-0.0156 -0.02904,-0.01 -0.04932,-0.0234 -0.0625,-0.041 l -0.002,-0.002 c -0.01839,-0.0183 -0.03043,-0.04 -0.03516,-0.0684 -0.0044,-0.0264 0.0034,-0.0596 0.02344,-0.0996 l 0.0078,-0.0176 -0.04102,0.002 c -0.02147,0.0436 -0.03143,0.0848 -0.02539,0.12109 0.0056,0.0334 0.02091,0.0626 0.04297,0.0859 0.01817,0.0243 0.04464,0.0433 0.07813,0.0547 0.02835,0.0113 0.05711,0.0176 0.08594,0.0176 h 1.361328 c 0.05644,0 0.112008,-0.0174 0.162109,-0.0508 0.05485,-0.0384 0.09449,-0.0837 0.117188,-0.13476 z"
           id="path646" /></g></g></g></svg>
